<svg xmlns="http://www.w3.org/2000/svg" viewBox="0 0 310 157"><path fill="#0071B9" d="M173.1 82.7c0 2.2-.4 4.2-1.3 5.9-.9 1.7-2.1 3.1-3.6 4.2-1.8 1.3-3.7 2.3-5.7 2.8s-4.7.8-7.9.8H141V51.8h12.6c3.4 0 5.9.1 7.6.3 1.7.2 3.3.7 4.9 1.5 1.7.9 2.9 2 3.7 3.4.8 1.4 1.2 3 1.2 4.9 0 2.1-.6 4-1.8 5.6-1.2 1.7-2.8 3-4.9 3.9v.2c2.8.7 5 2 6.6 3.9 1.4 2 2.2 4.3 2.2 7.2m-8.8-20c0-1.1-.2-2-.6-2.8-.4-.8-1-1.4-1.8-1.9-1-.5-2.2-.9-3.4-1-1.3-.1-3-.2-5.2-.2h-6v13h7.2c2 0 3.4-.1 4.4-.3.9-.2 1.9-.6 2.9-1.2s1.6-1.3 2-2.3c.3-.8.5-1.9.5-3.3m2.2 20.2c0-1.7-.3-3.1-.8-4.2s-1.5-2-3.1-2.8c-1-.5-2.1-.8-3.3-1-1.2-.1-2.8-.2-5-.2h-7.2v16.5h5.1c2.8 0 4.9-.1 6.5-.4 1.6-.2 3-.8 4.2-1.5 1.2-.8 2.1-1.7 2.6-2.7.8-.8 1-2.1 1-3.7m12.9 13.5V51.8h29.7V57h-23.4v12.3h21.8v5.2h-21.8v16.7h23.4v5.2zm49.9.8c-3.4 0-6.4-.3-8.8-1-2.4-.7-4.7-1.5-6.8-2.5v-7.4h.4c2.1 1.8 4.4 3.3 7.1 4.3 2.6 1 5.2 1.5 7.6 1.5 3.5 0 6.1-.7 7.9-2.1 1.8-1.4 2.7-3.2 2.7-5.4 0-1.8-.5-3.2-1.4-4.3-.9-1.1-2.4-1.9-4.5-2.5-1.5-.4-2.8-.7-4-1-1.2-.3-2.7-.6-4.6-1-1.6-.4-3.1-.9-4.4-1.5-1.3-.6-2.4-1.4-3.4-2.4s-1.7-2.1-2.3-3.5c-.5-1.3-.8-2.9-.8-4.6 0-3.6 1.5-6.6 4.5-9.1 3-2.4 6.8-3.7 11.5-3.7 2.7 0 5.2.3 7.5.8 2.4.5 4.6 1.2 6.6 2.1V61h-.5c-1.5-1.3-3.4-2.4-5.8-3.4s-4.8-1.5-7.4-1.5c-2.9 0-5.3.6-7.1 1.9-1.8 1.3-2.7 3-2.7 5.1 0 1.9.5 3.4 1.6 4.5s2.6 1.9 4.6 2.5c1.3.3 3 .7 4.9 1.2 1.9.4 3.5.8 4.8 1.2 3.3.9 5.7 2.4 7.2 4.3s2.3 4.2 2.3 7c0 1.7-.4 3.5-1.1 5.2-.8 1.7-1.8 3.1-3.2 4.3-1.5 1.3-3.3 2.3-5.2 3-1.9.6-4.3.9-7.2.9m34.2-.8V57h-16v-5.2h38.3V57h-16v39.4zm-115.6 13.4c0 .5-.1 1-.3 1.4-.2.4-.5.7-.8 1-.4.3-.8.5-1.2.6-.4.1-1 .2-1.7.2h-3v-10.3h2.7c.7 0 1.3 0 1.6.1.4 0 .7.2 1.1.3.4.2.6.5.8.8.2.3.3.7.3 1.1 0 .5-.1.9-.4 1.3-.3.4-.6.7-1.1.9v.1c.6.2 1.1.5 1.4.9.4.4.6.9.6 1.6m-1.9-4.6c0-.2 0-.5-.1-.6-.1-.2-.2-.3-.4-.4-.2-.1-.5-.2-.7-.2h-2.4v3h1.6c.4 0 .7 0 .9-.1.2 0 .4-.1.6-.3.2-.1.4-.3.4-.5.1-.3.1-.6.1-.9m.5 4.6c0-.4-.1-.7-.2-1-.1-.3-.3-.5-.7-.6-.2-.1-.5-.2-.7-.2h-2.7v3.8h1.1c.6 0 1.1 0 1.4-.1.3-.1.6-.2.9-.4.3-.2.4-.4.6-.6.2-.2.3-.5.3-.9m9.1-.7c0 1.3-.3 2.3-.9 3-.6.7-1.5 1.1-2.5 1.1-1.1 0-1.9-.4-2.5-1.1-.6-.7-.9-1.7-.9-3s.3-2.3.9-3 1.5-1.1 2.5-1.1 1.9.4 2.5 1.1c.6.7.9 1.7.9 3m-1.4 0c0-1-.2-1.7-.5-2.2-.4-.5-.9-.7-1.6-.7-.7 0-1.2.2-1.6.7-.4.5-.5 1.2-.5 2.2 0 1 .2 1.7.5 2.2.4.5.9.7 1.6.7.7 0 1.2-.2 1.6-.7.3-.5.5-1.2.5-2.2m7 3c-.1.1-.2.2-.4.3-.2.1-.3.3-.5.3-.2.1-.5.2-.7.3-.2.1-.5.1-.9.1-.3 0-.6-.1-.9-.2-.3-.1-.5-.3-.8-.5-.2-.2-.4-.5-.5-.8-.1-.3-.2-.6-.2-1 0-.5.1-1 .3-1.4.2-.4.6-.7 1.1-.9.4-.2.9-.3 1.5-.4.6-.1 1.2-.1 1.9-.2v-.3c0-.3 0-.6-.1-.7-.1-.2-.2-.3-.4-.4-.2-.1-.4-.2-.6-.2-.2 0-.5-.1-.7-.1-.3 0-.6 0-1.1.1-.4.1-.8.2-1.2.4v-1.3c.2-.1.6-.1 1-.2s.9-.1 1.3-.1c.5 0 1 0 1.3.1.4.1.7.2 1 .4.3.2.5.5.6.8.1.3.2.7.2 1.2v5.3h-1.3v-.6zm0-1.1v-2.1c-.3 0-.7.1-1.2.1s-.9.1-1.1.2c-.3.1-.6.3-.9.5-.2.2-.3.5-.3.9s.1.8.4 1c.2.2.6.3 1.1.3.4 0 .8-.1 1.1-.3.3-.1.6-.3.9-.6m7.2-4.4h-.8c-.3 0-.7.1-1 .2-.3.2-.7.4-1 .7v5.5h-1.3v-7.7h1.3v1.1c.5-.4.9-.7 1.2-.9.4-.2.7-.3 1-.3h.5v1.4zm6.9 6.3H174v-.8c-.2.2-.4.3-.5.4-.1.1-.3.2-.5.3-.2.1-.4.2-.6.2-.2 0-.4.1-.7.1-.4 0-.8-.1-1.2-.3-.4-.2-.7-.4-.9-.8-.3-.3-.5-.8-.6-1.3-.1-.5-.2-1.1-.2-1.7 0-.7.1-1.3.3-1.8.2-.5.4-.9.7-1.3.3-.3.6-.6 1-.8.4-.2.8-.3 1.3-.3.4 0 .7 0 1 .1.3.1.6.2.9.4V102h1.3v10.9zm-1.3-1.8v-4.4c-.3-.2-.6-.3-.9-.3-.3-.1-.5-.1-.8-.1-.7 0-1.2.2-1.6.7-.4.5-.6 1.2-.6 2.2 0 .9.1 1.6.4 2.1.3.5.8.7 1.4.7.3 0 .7-.1 1-.2.5-.3.8-.5 1.1-.7m14-2c0 1.3-.3 2.3-.9 3-.6.7-1.5 1.1-2.5 1.1-1.1 0-1.9-.4-2.5-1.1-.6-.7-.9-1.7-.9-3s.3-2.3.9-3c.6-.7 1.5-1.1 2.5-1.1s1.9.4 2.5 1.1c.5.7.9 1.7.9 3m-1.4 0c0-1-.2-1.7-.5-2.2-.4-.5-.9-.7-1.6-.7-.7 0-1.2.2-1.6.7-.4.5-.5 1.2-.5 2.2 0 1 .2 1.7.5 2.2s.9.7 1.6.7c.7 0 1.2-.2 1.5-.7.4-.5.6-1.2.6-2.2m6.8-5.7c-.2 0-.3-.1-.6-.1-.2 0-.4-.1-.6-.1-.5 0-.9.1-1.2.4-.2.2-.3.7-.3 1.3v.3h2.1v1.1h-2.1v6.6h-1.3v-6.6h-.9v-1.1h.9v-.2c0-.9.2-1.6.7-2.1.4-.5 1.1-.7 1.9-.7h.7c.2 0 .4.1.6.1v1.1zm4.9 9.5v-10.2h6.5v1.2h-5.1v2.8h4.7v1.2h-4.7v3.8h5.1v1.2zm13.9 0h-1.3v-.9c-.4.4-.8.6-1.1.8-.4.2-.8.3-1.2.3-.3 0-.7-.1-.9-.2-.3-.1-.6-.3-.8-.5-.2-.2-.4-.5-.5-.9-.1-.4-.2-.8-.2-1.3v-5h1.3v5.4c0 .3.1.5.2.7.1.2.2.3.4.4.2.1.4.1.8.1.3 0 .7-.1 1-.3.4-.2.7-.4 1-.7V105h1.3v7.9zm5.9-6.3h-.8c-.3 0-.7.1-1 .2-.3.2-.7.4-1 .7v5.5H214v-7.7h1.3v1.1c.5-.4.9-.7 1.2-.9.4-.2.7-.3 1-.3h.5v1.4zm7.3 2.5c0 1.3-.3 2.3-.9 3-.6.7-1.5 1.1-2.5 1.1-1.1 0-1.9-.4-2.5-1.1-.6-.7-.9-1.7-.9-3s.3-2.3.9-3c.6-.7 1.5-1.1 2.5-1.1s1.9.4 2.5 1.1c.6.7.9 1.7.9 3m-1.3 0c0-1-.2-1.7-.5-2.2-.4-.5-.9-.7-1.6-.7-.7 0-1.2.2-1.6.7-.4.5-.5 1.2-.5 2.2 0 1 .2 1.7.5 2.2s.9.7 1.6.7c.7 0 1.2-.2 1.5-.7.4-.5.6-1.2.6-2.2m9.2-.2c0 1.3-.3 2.3-.9 3.1-.6.8-1.4 1.1-2.3 1.1-.4 0-.7 0-1-.1-.3-.1-.6-.2-.9-.4v3.2h-1.3v-10.6h1.3v.8c.3-.3.7-.5 1.1-.7.4-.2.8-.3 1.3-.3.9 0 1.6.4 2.1 1.1.3.7.6 1.6.6 2.8m-1.4.1c0-.9-.1-1.6-.4-2-.3-.5-.7-.7-1.4-.7-.4 0-.7.1-1.1.2-.3.2-.7.4-1 .6v4.4c.3.2.6.3.9.3.2.1.5.1.8.1.7 0 1.2-.2 1.6-.7.4-.5.6-1.2.6-2.2m6 4.1c-1.2 0-2.2-.3-2.9-1-.7-.7-1-1.7-1-3s.3-2.3 1-3c.7-.7 1.5-1.1 2.6-1.1.5 0 .9.1 1.3.2s.7.4 1 .6c.3.3.5.7.6 1.1.1.4.2.9.2 1.6v.7h-5.4c0 .9.2 1.6.7 2.1.5.5 1.1.7 1.9.7.3 0 .6 0 .8-.1.3-.1.5-.1.7-.2l.6-.3c.2-.1.3-.2.4-.3h.1v1.4c-.2.1-.3.1-.6.2-.2.1-.4.2-.6.2-.3.1-.5.1-.7.2h-.7m1.6-4.9c0-.3-.1-.6-.1-.9-.1-.3-.2-.5-.3-.6-.2-.2-.3-.3-.6-.4-.2-.1-.5-.2-.9-.2-.3 0-.6.1-.9.2-.2.1-.5.3-.7.5-.2.2-.3.4-.4.7-.1.2-.2.5-.2.9h4.1zm6.9 3.9c-.1.1-.2.2-.4.3-.2.1-.3.3-.5.3-.2.1-.5.2-.7.3-.2.1-.5.1-.9.1-.3 0-.6-.1-.9-.2-.3-.1-.5-.3-.8-.5-.2-.2-.4-.5-.5-.8-.1-.3-.2-.6-.2-1 0-.5.1-1 .3-1.4.2-.4.6-.7 1.1-.9.4-.2.9-.3 1.5-.4.6-.1 1.2-.1 1.9-.2v-.3c0-.3 0-.6-.1-.7-.1-.2-.2-.3-.4-.4-.2-.1-.4-.2-.6-.2-.2 0-.5-.1-.7-.1-.3 0-.6 0-1.1.1-.4.1-.8.2-1.2.4h-.1v-1.3c.2-.1.6-.1 1-.2s.9-.1 1.3-.1c.5 0 1 0 1.3.1.4.1.7.2 1 .4.3.2.5.5.6.8.1.3.2.7.2 1.2v5.3h-1.3v-.6zm0-1.1v-2.1c-.3 0-.7.1-1.2.1s-.9.1-1.1.2c-.3.1-.6.3-.9.5-.2.2-.3.5-.3.9s.1.8.4 1c.2.2.6.3 1.1.3.4 0 .8-.1 1.1-.3.2-.1.6-.3.9-.6m9.1 1.9h-1.3v-4.4c0-.4 0-.7-.1-1 0-.3-.1-.6-.2-.7-.1-.2-.3-.3-.4-.4-.2-.1-.4-.1-.8-.1-.3 0-.7.1-1 .3-.3.2-.7.4-1 .7v5.8h-1.3v-7.7h1.3v.9c.4-.3.8-.6 1.1-.8.4-.2.8-.3 1.2-.3.8 0 1.4.2 1.8.7.4.5.6 1.2.6 2.2v4.8zm-111.7 17.2c-.7 0-1.4-.1-1.9-.2-.5-.2-1-.3-1.5-.6v-1.7h.1c.5.4 1 .7 1.5 1 .6.2 1.1.3 1.7.3.8 0 1.3-.2 1.7-.5.4-.3.6-.7.6-1.2 0-.4-.1-.7-.3-1-.2-.3-.5-.4-1-.6-.3-.1-.6-.2-.9-.2-.3-.1-.6-.1-1-.2s-.7-.2-1-.4c-.3-.1-.5-.3-.7-.6-.2-.2-.4-.5-.5-.8-.1-.3-.2-.7-.2-1.1 0-.8.3-1.5 1-2.1.6-.6 1.5-.8 2.5-.8.6 0 1.1.1 1.6.2s1 .3 1.4.5v1.6h-.1c-.3-.3-.7-.6-1.3-.8-.5-.2-1-.3-1.6-.3-.6 0-1.2.1-1.5.4-.4.3-.6.7-.6 1.2 0 .4.1.8.3 1 .2.3.6.4 1 .6.3.1.6.2 1.1.3.4.1.8.2 1 .3.7.2 1.2.5 1.6 1 .3.4.5 1 .5 1.6 0 .4-.1.8-.2 1.2-.2.4-.4.7-.7 1-.3.3-.7.5-1.1.7-.4.1-.9.2-1.5.2m7.2 0c-.7 0-1.3-.2-1.7-.6-.4-.4-.6-1-.6-1.9v-4.3h-.9v-1.1h.9V120h1.3v2.2h2.4v1.1H150v4.6c0 .2.1.4.2.6.1.2.2.3.4.4.2.1.4.1.7.1.2 0 .4 0 .6-.1.2-.1.3-.1.4-.2h.1v1.2c-.2.1-.5.1-.7.2h-.7m8.4-.2h-1.3v-.9c-.4.4-.8.6-1.1.8-.4.2-.8.3-1.2.3-.3 0-.7-.1-.9-.2-.3-.1-.6-.3-.8-.5-.2-.2-.4-.5-.5-.9-.1-.4-.2-.8-.2-1.3v-5h1.3v5.4c0 .3.1.5.2.7.1.2.2.3.4.4.2.1.4.1.8.1.3 0 .7-.1 1-.3.4-.2.7-.4 1-.7V122h1.3v7.9zm7.9 0H166v-.8c-.2.2-.4.3-.5.4-.1.1-.3.2-.5.3-.2.1-.4.2-.6.2-.2 0-.4.1-.7.1-.4 0-.8-.1-1.2-.3-.4-.2-.7-.4-.9-.8-.3-.3-.5-.8-.6-1.3-.1-.5-.2-1.1-.2-1.7 0-.7.1-1.3.3-1.8.2-.5.4-.9.7-1.3.3-.3.6-.6 1-.8.4-.2.8-.3 1.3-.3.4 0 .7 0 1 .1.3.1.6.2.9.4V119h1.3v10.9zM166 128v-4.4c-.3-.2-.6-.3-.9-.3-.3-.1-.5-.1-.8-.1-.7 0-1.2.2-1.6.7-.4.5-.6 1.2-.6 2.2 0 .9.1 1.6.4 2.1.3.5.8.7 1.4.7.3 0 .7-.1 1-.2.4-.2.8-.4 1.1-.7m6.5 2.1c-1.2 0-2.2-.3-2.9-1-.7-.7-1-1.7-1-3s.3-2.3 1-3c.7-.7 1.5-1.1 2.6-1.1.5 0 .9.1 1.3.2s.7.4 1 .6c.3.3.5.7.6 1.1.1.4.2.9.2 1.6v.7h-5.4c0 .9.2 1.6.7 2.1.5.5 1.1.7 1.9.7.3 0 .6 0 .8-.1.3-.1.5-.1.7-.2l.6-.3c.2-.1.3-.2.4-.3h.1v1.4c-.2.1-.3.1-.6.2-.2.1-.4.2-.6.2-.3.1-.5.1-.7.2h-.7m1.5-4.9c0-.3-.1-.6-.1-.9-.1-.3-.2-.5-.3-.6-.2-.2-.3-.3-.6-.4-.2-.1-.5-.2-.9-.2-.3 0-.6.1-.9.2-.2.1-.5.3-.7.5-.2.2-.3.4-.4.7-.1.2-.2.5-.2.9h4.1zm8.7 4.7h-1.3v-4.4c0-.4 0-.7-.1-1 0-.3-.1-.6-.2-.7-.1-.2-.3-.3-.4-.4-.2-.1-.4-.1-.8-.1-.3 0-.7.1-1 .3-.3.2-.7.4-1 .7v5.8h-1.3v-7.7h1.3v.9c.4-.3.8-.6 1.1-.8.4-.2.8-.3 1.2-.3.8 0 1.4.2 1.8.7.4.5.6 1.2.6 2.2v4.8zm4.1.2c-.7 0-1.3-.2-1.7-.6-.4-.4-.6-1-.6-1.9v-4.3h-.9v-1.1h.9V120h1.3v2.2h2.4v1.1h-2.4v4.6c0 .2.1.4.2.6.1.2.2.3.4.4.2.1.4.1.7.1.2 0 .4 0 .6-.1.2-.1.3-.1.4-.2h.1v1.2c-.2.1-.5.1-.7.2h-.7m4.5 0c-.5 0-1-.1-1.4-.2-.4-.1-.8-.3-1.1-.4V128h.1c.1.1.2.2.4.3.1.1.3.2.6.3.2.1.5.2.7.3.3.1.5.1.8.1.2 0 .4 0 .7-.1.2 0 .4-.1.5-.2.2-.1.3-.2.3-.3.1-.1.1-.3.1-.5 0-.3-.1-.5-.2-.7-.2-.2-.5-.3-.9-.4-.2 0-.4-.1-.7-.1-.3-.1-.5-.1-.7-.2-.6-.2-1-.4-1.3-.8-.3-.4-.4-.8-.4-1.3 0-.7.3-1.3.8-1.7.5-.4 1.2-.7 2.1-.7.4 0 .9.1 1.3.2s.8.2 1.1.4v1.4h-.1c-.3-.3-.7-.5-1.1-.6-.4-.2-.8-.2-1.2-.2-.4 0-.8.1-1.1.3-.3.2-.4.5-.4.8 0 .3.1.6.3.7.2.2.5.3.8.4.2.1.4.1.6.1.2 0 .5.1.7.2.6.1 1 .4 1.3.7.3.3.4.8.4 1.4 0 .3-.1.6-.2.9-.1.3-.3.6-.6.8-.3.2-.6.4-.9.5-.3 0-.8.1-1.3.1m15-4c0 1.3-.3 2.3-.9 3-.6.7-1.5 1.1-2.5 1.1-1.1 0-1.9-.4-2.5-1.1-.6-.7-.9-1.7-.9-3s.3-2.3.9-3c.6-.7 1.5-1.1 2.5-1.1s1.9.4 2.5 1.1c.6.7.9 1.7.9 3m-1.3 0c0-1-.2-1.7-.5-2.2-.4-.5-.9-.7-1.6-.7-.7 0-1.2.2-1.6.7-.4.5-.5 1.2-.5 2.2 0 1 .2 1.7.5 2.2.4.5.9.7 1.6.7.7 0 1.2-.2 1.5-.7.4-.5.6-1.3.6-2.2m6.7-5.7c-.2 0-.3-.1-.6-.1-.2 0-.4-.1-.6-.1-.5 0-.9.1-1.2.4-.2.2-.3.7-.3 1.3v.3h2.1v1.1H209v6.6h-1.3v-6.6h-.9v-1.1h.9v-.2c0-.9.2-1.6.7-2.1.4-.5 1.1-.7 1.9-.7h.7c.2 0 .4.1.6.1v1.1zm7.4 9.5v-9h-3.5v-1.3h8.3v1.3h-3.5v9zm7.6.2c-1.2 0-2.2-.3-2.9-1-.7-.7-1-1.7-1-3s.3-2.3 1-3c.7-.7 1.5-1.1 2.6-1.1.5 0 .9.1 1.3.2s.7.4 1 .6c.3.3.5.7.6 1.1.1.4.2.9.2 1.6v.7h-5.4c0 .9.2 1.6.7 2.1.5.5 1.1.7 1.9.7.3 0 .6 0 .8-.1.3-.1.5-.1.7-.2l.6-.3c.2-.1.3-.2.4-.3h.1v1.4c-.2.1-.3.1-.6.2-.2.1-.4.2-.6.2-.3.1-.5.1-.7.2h-.7m1.6-4.9c0-.3-.1-.6-.1-.9-.1-.3-.2-.5-.3-.6-.2-.2-.3-.3-.6-.4-.2-.1-.5-.2-.9-.2-.3 0-.6.1-.9.2-.2.1-.5.3-.7.5-.2.2-.3.4-.4.7-.1.2-.2.5-.2.9h4.1zm5.6 4.9c-.5 0-1-.1-1.5-.2-.4-.2-.8-.4-1.1-.7-.3-.3-.6-.7-.7-1.3-.2-.5-.3-1.1-.3-1.8s.1-1.3.3-1.8c.2-.5.4-.9.7-1.2.3-.3.7-.6 1.1-.8.5-.2.9-.3 1.5-.3.4 0 .8.1 1.2.2.4.1.7.3 1.1.4v1.5h-.1c-.1-.1-.2-.2-.4-.3-.1-.1-.3-.2-.5-.3-.2-.1-.4-.2-.6-.2-.2-.1-.5-.1-.7-.1-.7 0-1.2.3-1.6.8-.4.5-.6 1.2-.6 2.2 0 .9.2 1.6.6 2.1.4.5.9.8 1.6.8.4 0 .8-.1 1.2-.3.4-.2.7-.4 1-.7h.1v1.5c-.1.1-.3.1-.5.2s-.4.1-.5.2c-.2.1-.4.1-.6.1h-.7m9.5-.2h-1.3v-4.4c0-.4 0-.7-.1-1 0-.3-.1-.6-.2-.7-.1-.2-.3-.3-.4-.4-.2-.1-.4-.1-.8-.1-.3 0-.7.1-1 .3-.3.2-.7.4-1 .7v5.8h-1.3v-10.7h1.3v3.9c.4-.3.8-.6 1.1-.8.4-.2.8-.3 1.2-.3.8 0 1.4.2 1.8.7.4.5.6 1.2.6 2.2v4.8zm7.9 0H250v-4.4c0-.4 0-.7-.1-1 0-.3-.1-.6-.2-.7-.1-.2-.3-.3-.4-.4-.2-.1-.4-.1-.8-.1-.3 0-.7.1-1 .3-.3.2-.7.4-1 .7v5.8h-1.3v-7.7h1.3v.9c.4-.3.8-.6 1.1-.8.4-.2.8-.3 1.2-.3.8 0 1.4.2 1.8.7.4.5.6 1.2.6 2.2v4.8zm8.2-3.8c0 1.3-.3 2.3-.9 3-.6.7-1.5 1.1-2.5 1.1-1.1 0-1.9-.4-2.5-1.1-.6-.7-.9-1.7-.9-3s.3-2.3.9-3c.6-.7 1.5-1.1 2.5-1.1s1.9.4 2.5 1.1c.6.7.9 1.7.9 3m-1.3 0c0-1-.2-1.7-.5-2.2-.4-.5-.9-.7-1.6-.7-.7 0-1.2.2-1.6.7-.4.5-.5 1.2-.5 2.2 0 1 .2 1.7.5 2.2.4.5.9.7 1.6.7.7 0 1.2-.2 1.5-.7.4-.5.6-1.3.6-2.2m2.7-6.9h1.3v10.7h-1.3zm9.5 6.9c0 1.3-.3 2.3-.9 3-.6.7-1.5 1.1-2.5 1.1-1.1 0-1.9-.4-2.5-1.1-.6-.7-.9-1.7-.9-3s.3-2.3.9-3c.6-.7 1.5-1.1 2.5-1.1s1.9.4 2.5 1.1c.6.7.9 1.7.9 3m-1.3 0c0-1-.2-1.7-.5-2.2-.4-.5-.9-.7-1.6-.7-.7 0-1.2.2-1.6.7-.4.5-.5 1.2-.5 2.2 0 1 .2 1.7.5 2.2.4.5.9.7 1.6.7.7 0 1.2-.2 1.5-.7.4-.5.6-1.3.6-2.2m2.9 5.1c.1 0 .2.1.4.1.2.1.4.1.6.2.2.1.5.1.7.1.2 0 .4.1.7.1.4 0 .7-.1 1-.2.3-.1.5-.3.7-.4.1-.2.3-.4.3-.7.1-.2.1-.5.1-.8v-.7c-.4.3-.7.5-1 .7-.3.1-.8.2-1.3.2-.9 0-1.6-.3-2.1-1s-.8-1.6-.8-2.8c0-.6.1-1.2.3-1.7.2-.5.4-.9.7-1.3.3-.3.6-.6 1-.8.4-.2.8-.3 1.2-.3.4 0 .7 0 1 .1.3.1.6.2.9.4l.1-.3h1.2v6.8c0 1.3-.3 2.3-.9 2.9-.6.6-1.4.9-2.6.9-.4 0-.8 0-1.2-.1-.4-.1-.8-.1-1.1-.2l.1-1.2zm4.4-3.4v-4.2c-.3-.2-.6-.3-.9-.3-.3-.1-.5-.1-.8-.1-.7 0-1.2.2-1.6.7-.4.5-.6 1.2-.6 2.1 0 .9.1 1.5.4 2 .3.4.8.7 1.4.7.3 0 .7-.1 1-.2.5-.2.8-.4 1.1-.7m9.2-5.6l-4.1 10.6h-1.4l1.4-3.2-2.8-7.4h1.4l2.1 5.7 2.1-5.7zM116.7 96.5l-10.5-6H79l-10.5 6c10 17.4 39.9 45.8 72.3 48.3-11.3-6.3-29.2-29-24.1-48.3"/><path fill="#FFA615" d="M94.3 63.9l-.2-.4.2.4zm29.8-57.1c.2 12.9-10.5 39.9-29.8 45v12.1L108 87.5l10.4 6c10.1-17.3 19.8-57.4 5.7-86.7"/><path fill="#75BF1E" d="M12.9 90.3c11.1-6.6 39.8-10.8 53.9 3.3l10.4-6-.2.3 13.9-24V51.8c-20 0-59.6 11.7-78 38.5"/><path fill="#0071B9" d="M86.2 80.6c0-3.5 2.9-6.4 6.4-6.4s6.4 2.9 6.4 6.4c0 3.5-2.9 6.4-6.4 6.4s-6.4-2.8-6.4-6.4"/></svg>