<?xml version="1.0" encoding="utf-8"?>
<!-- Generator: Adobe Illustrator 18.0.0, SVG Export Plug-In . SVG Version: 6.00 Build 0)  -->
<!DOCTYPE svg PUBLIC "-//W3C//DTD SVG 1.1//EN" "http://www.w3.org/Graphics/SVG/1.1/DTD/svg11.dtd">
<svg version="1.1" id="Layer_1" xmlns="http://www.w3.org/2000/svg" xmlns:xlink="http://www.w3.org/1999/xlink" x="0px" y="0px"
	 viewBox="0 0 399 423" enable-background="new 0 0 399 423" xml:space="preserve">
<rect x="66.4" y="295.6" fill="#7EBA45" width="47" height="88.8"/>
<rect x="170.9" y="262.6" fill="#7EBA45" width="47" height="121.8"/>
<rect x="275.5" y="232.2" fill="#7EBA45" width="47" height="152.8"/>
<line fill="#13065B" stroke="#BAD19F" stroke-width="2" stroke-miterlimit="10" x1="20" y1="384.4" x2="371" y2="384.4"/>
<line fill="none" stroke="#BAD19F" stroke-width="2" stroke-miterlimit="10" x1="31" y1="183" x2="31" y2="396"/>
<path fill="none" stroke="#13065B" stroke-width="2" stroke-linecap="round" stroke-linejoin="round" stroke-miterlimit="10" stroke-dasharray="0.2,4" d="
	M80.4,234.2c11.7-3.1,31.7-12.3,41.5-22.2c12.1-12.2,24.4-29.9,17.3-51.7c-2.6-7.9-12.1-22.1-24.5-15.6c-10.6,5.5-4.9,21.4,0.2,28.8
	c6.8,9.9,21.7,16.3,28.4,18.8c8.2,3,26.5,1.1,36.7-5c6.2-3.8,10.2-9.8,12.5-13.6c4.1-6.6,11.7-29.2,6.2-46.7
	c-5-15.9-14.4-25.2-25.7-17.9c-10.2,6.6-3.7,23.3,0.4,29.6c4.7,7.2,20.8,19.3,32.9,20.4c7,0.7,12.4,2.7,25.2-3.1
	c17.1-7.7,25.8-29,29.1-39.7"/>
<g>
	<path fill-rule="evenodd" clip-rule="evenodd" fill="#FFCF33" d="M271.5,106.8c-0.8-6.9,2.9-18.3,8.8-24.6
		c3.2-3.5,7.1-5.6,10.6-6.3l4.9,4.6L271.5,106.8L271.5,106.8z"/>
	<path fill-rule="evenodd" clip-rule="evenodd" fill="#EFB40F" d="M271.5,106.8c7,0.3,18-4.3,23.9-10.7c3.2-3.5,5.1-7.5,5.4-11.1
		l-4.9-4.6L271.5,106.8L271.5,106.8z"/>
	<path fill-rule="evenodd" clip-rule="evenodd" fill="#FBF0C0" d="M279.5,98.2c-0.6-4.9,2.1-12.9,6.2-17.4c1.8-2,3.9-3.3,6-4.1
		l4.1,3.8L279.5,98.2L279.5,98.2z"/>
	<path fill-rule="evenodd" clip-rule="evenodd" fill="#F6DA6B" d="M279.5,98.2c4.9,0.2,12.7-3,16.9-7.6c1.8-2,3-4.2,3.6-6.3
		l-4.1-3.8L279.5,98.2L279.5,98.2z"/>
	<path opacity="0.96" fill-rule="evenodd" clip-rule="evenodd" fill="#13065B" d="M309.2,86.6L306.4,97c-1,3.5,1,4,2.8,3.7
		c6.3-1.3,12.4-4.7,18.7-11.5c6.7-7.2,9.4-17.1,10-24.2c-0.6,0.8-1.3,1.5-1.9,2.2C328.7,75.2,317.5,83.6,309.2,86.6L309.2,86.6z"/>
	<path opacity="0.44" fill-rule="evenodd" clip-rule="evenodd" fill="#65D6FC" d="M288.7,67.6c2.4-8.5,9.9-20.3,17.2-28.2
		c8.8-9.5,22.7-17.4,33.6-21.1l7.5,6.9l-48,51.9L288.7,67.6L288.7,67.6z"/>
	<path opacity="0.96" fill-rule="evenodd" clip-rule="evenodd" fill="#13065B" d="M288.7,67.6l-11.1,3.9c-2.6,0.9-3.1-1.2-2.9-2.9
		c0.7-6.5,3.7-12.6,10-19.4c6.8-7.3,16.6-10.8,23.6-11.9c1.4-0.1,2.2,1.2,0.2,2.7C300.5,46.3,291,59.5,288.7,67.6L288.7,67.6z"/>
	<path opacity="0.76" fill-rule="evenodd" clip-rule="evenodd" fill="#65D6FC" d="M309.2,86.6c8.3-3.1,19.5-11.4,26.8-19.4
		c8.8-9.5,15.6-24,18.5-35.1l-7.5-6.9l-48,51.9L309.2,86.6L309.2,86.6z"/>
	<path fill-rule="evenodd" clip-rule="evenodd" fill="#EB4141" d="M295.8,80.5l-6.1-5.6c-0.9-0.9-1.9-2.1-1.8-3.7
		c0.1-1.1,0.4-2.3,0.7-3.6l10.3,9.5L295.8,80.5L295.8,80.5z"/>
	<path opacity="0.96" fill-rule="evenodd" clip-rule="evenodd" fill="#3A34B7" d="M339.5,18.3c7.2-2.5,13.1-3.2,15.1-1.3l-7.6,8.3
		L339.5,18.3L339.5,18.3z"/>
	<path fill-rule="evenodd" clip-rule="evenodd" fill="#EB4141" d="M295.8,80.5l6.1,5.6c0.9,0.9,2.3,1.8,3.8,1.5
		c1.1-0.2,2.3-0.5,3.5-1L299,77.1L295.8,80.5L295.8,80.5z"/>
	<path opacity="0.96" fill-rule="evenodd" clip-rule="evenodd" fill="#13065B" d="M354.5,32.2c1.9-7.4,2.2-13.3,0.1-15.2l-7.6,8.3
		L354.5,32.2L354.5,32.2z"/>
	<path fill-rule="evenodd" clip-rule="evenodd" fill="#EF7373" d="M292.6,85.9c-1.7,1.2-3.5-0.1-2.3-2.3c1.2-2.2,18.1-22.6,22-25.2
		c3.1-2.1,6.6,0.1,4.8,3.4C314.2,67.1,296.4,83.2,292.6,85.9L292.6,85.9z"/>
	<path fill-rule="evenodd" clip-rule="evenodd" fill="#EB4141" d="M292.6,85.9c-0.6,0.4-1.4,0.7-2.1,0.3c-0.1-0.1-0.3-0.2-0.4-0.4
		c0.2,0.1,0.6,0.1,0.9-0.2L313.9,61c1.2-1.2,0.9-3-1.6-2.5c3.1-2.1,6.6,0.1,4.8,3.4C314.2,67.1,296.4,83.2,292.6,85.9L292.6,85.9z"
		/>
	<path fill-rule="evenodd" clip-rule="evenodd" fill="#8EC8AA" d="M322.1,52.1c-3.3-3.1-3.5-8.3-0.4-11.6c3.1-3.3,8.3-3.5,11.6-0.4
		L322.1,52.1L322.1,52.1z"/>
	<path fill-rule="evenodd" clip-rule="evenodd" fill="#6BA585" d="M322.1,52.1c3.3,3.1,8.5,2.9,11.6-0.4c3.1-3.3,2.9-8.5-0.4-11.6
		L322.1,52.1L322.1,52.1z"/>
	<path fill-rule="evenodd" clip-rule="evenodd" fill="#EF7373" d="M319.6,54.8c-4.8-4.5-5.1-12-0.7-16.8c4.5-4.8,12-5.1,16.8-0.7
		L319.6,54.8L319.6,54.8z"/>
	<path fill-rule="evenodd" clip-rule="evenodd" fill="#EB4141" d="M319.6,54.8c4.8,4.5,12.3,4.2,16.8-0.7c4.5-4.8,4.2-12.3-0.7-16.8
		L319.6,54.8L319.6,54.8z"/>
	<path fill-rule="evenodd" clip-rule="evenodd" fill="#EF7373" d="M320.2,54.2c-4.5-4.1-4.8-11.1-0.6-15.6s11.1-4.8,15.6-0.6
		L320.2,54.2L320.2,54.2z"/>
	<path fill-rule="evenodd" clip-rule="evenodd" fill="#EB4141" d="M320.2,54.2c4.5,4.1,11.5,3.9,15.6-0.6s3.9-11.5-0.6-15.6
		L320.2,54.2L320.2,54.2z"/>
	<path fill-rule="evenodd" clip-rule="evenodd" fill="#EF7373" d="M321.6,52.7c-3.7-3.4-3.9-9.1-0.5-12.7c3.4-3.7,9.1-3.9,12.7-0.5
		L321.6,52.7L321.6,52.7z"/>
	<path fill-rule="evenodd" clip-rule="evenodd" fill="#EB4141" d="M321.6,52.7c3.7,3.4,9.4,3.2,12.7-0.5c3.4-3.7,3.2-9.4-0.5-12.7
		L321.6,52.7L321.6,52.7z"/>
	<path opacity="0.96" fill-rule="evenodd" clip-rule="evenodd" fill="#13065B" d="M288.7,67.6l-11.1,3.9c-2.2,0.8-1.7-2.5-1.4-3.8
		c1.2-5,4.1-10.9,10-16.2c5.9-5.3,13.8-8.1,19.6-9.2C298.5,49.2,291,60.2,288.7,67.6L288.7,67.6z"/>
	<path opacity="0.96" fill-rule="evenodd" clip-rule="evenodd" fill="#13065B" d="M309.2,86.6l-2.7,10.1c-1,3.6,1.8,2.7,3.3,2.4
		c5.1-1.2,10.1-4.4,15.1-9.8c5-5.4,7.6-13.2,8.2-19c-4.4,4.2-9.6,8.4-14.6,11.6C315.2,84,312,85.7,309.2,86.6L309.2,86.6z"/>
	<path fill-rule="evenodd" clip-rule="evenodd" fill="#FFFFFF" d="M322.1,52.1c-3.3-3.1-3.5-8.3-0.4-11.6c3.1-3.3,8.3-3.5,11.6-0.4
		L322.1,52.1L322.1,52.1z"/>
	<path fill-rule="evenodd" clip-rule="evenodd" fill="#FFFFFF" d="M322.1,52.1c3.3,3.1,8.5,2.9,11.6-0.4c3.1-3.3,2.9-8.5-0.4-11.6
		L322.1,52.1L322.1,52.1z"/>
	<path fill-rule="evenodd" clip-rule="evenodd" fill="#AAF5ED" d="M328.4,37.9l-1.5,4.3l3.6-3.9c-0.5-0.5-0.7,0-1.3-0.4H328.4z"/>
	<path opacity="0.44" fill-rule="evenodd" clip-rule="evenodd" fill="#65D6FC" d="M326.9,42.1l-3.8,10.7c1.2,0.2,1.8,1.7,3,1.5
		l5.3-15.1c-0.3-0.4-0.6-0.7-1-1L326.9,42.1L326.9,42.1z"/>
</g>
<text transform="matrix(1 0 0 1 75.915 283.9359)" opacity="0.96" fill="#13065B" font-family="'OpenSans-Bold'" font-size="16">177</text>
<text transform="matrix(1 0 0 1 70.915 407.9359)" opacity="0.96" fill="#837CA9" font-family="'OpenSans-Bold'" font-size="16">2014</text>
<text transform="matrix(1 0 0 1 175.9149 407.9359)" opacity="0.96" fill="#837CA9" font-family="'OpenSans-Bold'" font-size="16">2015</text>
<text transform="matrix(1 0 0 1 279.4703 407.9359)" opacity="0.96" fill="#837CA9" font-family="'OpenSans-Bold'" font-size="16">2016</text>
<text transform="matrix(1 0 0 1 179.9149 251.936)" opacity="0.96" fill="#13065B" font-family="'OpenSans-Bold'" font-size="16">211</text>
<text transform="matrix(1 0 0 1 283.5799 221.936)" opacity="0.96" fill="#13065B" font-family="'OpenSans-Bold'" font-size="16">235</text>
</svg>
