<svg xmlns="http://www.w3.org/2000/svg" viewBox="0 0 391 456"><path opacity=".1" clip-rule="evenodd" fill="none" stroke="#13065B" stroke-width="3" stroke-miterlimit="10" d="M190.4 156.3c-7.2 1.8-14 4.7-20.2 8.4l-21.5-11.2c-2-.9-4.1-.6-5.8.9l-8.2 8.3c-1.6 1.5-2 3.8-.9 5.6l11.2 21.5c-3.8 6.2-6.6 13-8.4 20.3l-23.1 7.3c-2.1.6-3.3 2.4-3.3 4.6v11.8c0 2.1 1.3 3.9 3.3 4.6l23.1 7.3c1.8 7.3 4.6 14.1 8.4 20.2l-11.2 21.5c-1 2-.7 4.3.9 5.8l8.2 8.3c1.6 1.5 3.8 1.9 5.8.8l21.5-11.1c6.2 3.7 13 6.6 20.2 8.3l7.3 23.1c.7 2.1 2.5 3.5 4.7 3.5H214c2.2 0 4-1.4 4.7-3.5l7.3-23.1c7.2-1.7 14-4.6 20.2-8.4l21.5 11.2c2 1 4.2.7 5.8-.8l8.3-8.3c1.5-1.5 1.9-3.8.8-5.8L271.4 266c3.8-6.1 6.7-12.9 8.4-20.2l23.1-7.3c2.1-.7 3.5-2.5 3.5-4.6v-11.8c0-2.2-1.4-4-3.5-4.6l-23.1-7.3c-1.7-7.3-4.6-14.1-8.4-20.3l11.2-21.5c1-2 .7-4.1-.8-5.6l-8.3-8.3c-1.6-1.5-3.8-2-5.8-.9l-21.5 11.2c-6.2-3.7-13-6.6-20.2-8.4l-7.3-23.1c-.7-2.1-2.5-3.3-4.7-3.3h-11.7c-2.2 0-4 1.3-4.7 3.3l-7.2 23zm17.8 27.2c-24.7 0-44.5 20-44.5 44.5 0 24.6 19.9 44.6 44.5 44.6s44.6-20 44.6-44.6-20-44.5-44.6-44.5z"/></svg>