<?xml version="1.0" encoding="utf-8"?>
<!-- Generator: Adobe Illustrator 18.0.0, SVG Export Plug-In . SVG Version: 6.00 Build 0)  -->
<!DOCTYPE svg PUBLIC "-//W3C//DTD SVG 1.1//EN" "http://www.w3.org/Graphics/SVG/1.1/DTD/svg11.dtd">
<svg version="1.1" id="Layer_1" xmlns="http://www.w3.org/2000/svg" xmlns:xlink="http://www.w3.org/1999/xlink" x="0px" y="0px"
	 viewBox="0 0 1280 720" enable-background="new 0 0 1280 720" xml:space="preserve">
<g>
	<path fill="#FFFFFF" d="M1698.9,141.9c2.2-2.2,4-4.6,5.5-7.1l-9.7-9.7c-2,2.6-3.8,4.8-5.8,6.8c-9,9-23.5,9-32.5,0
		c-9-9-9-23.5,0-32.5c7.9-7.9,19.9-8.8,28.8-3l-19.5,19.5l9.7,9.7l24.3-24.3l-0.1-0.1l4.7-4.7c-1.5-2.5-3.3-4.9-5.5-7
		c-7.2-7.2-16.8-10.9-26.1-10.9c-9.5,0-18.9,3.7-26.1,10.9c-14.5,14.5-14.5,37.9,0,52.4S1684.5,156.4,1698.9,141.9L1698.9,141.9z"/>
	<path fill="#699641" d="M1517.6,107.2c5,0,9,4,9,9c0,5-4,9-9,9c-5,0-9-4-9-9C1508.8,111.2,1512.8,107.2,1517.6,107.2z M1504.1,86.7
		l11.4,8.2l-9,12.4l0,0c-0.1,0.2-0.3,0.3-0.4,0.5c-2.8,3.9-3.4,8.7-2,12.9c0,0.1,0.1,0.3,0.1,0.4c0.1,0.3,0.2,0.6,0.3,0.8
		c0.1,0.1,0.1,0.3,0.2,0.4c0,0.1,0.1,0.2,0.1,0.2c0.2,0.3,0.3,0.6,0.5,1l0,0c0.1,0.2,0.2,0.3,0.3,0.5c0.2,0.2,0.3,0.5,0.5,0.8l0,0
		l0.1,0.1c0.1,0.1,0.2,0.2,0.3,0.3l0,0l8.9,12.3l-11.3,8.2c-11.6-13.8-31.4-17.1-46.8-7.9c-3.4-14.3-3.3-29.1,0-43.2
		C1472.7,103.6,1492.5,100.3,1504.1,86.7z"/>
	<path fill="#699641" d="M1548,83.3c1.5,4.7-1.1,9.8-5.8,11.3c-4.7,1.5-9.8-1.1-11.3-5.8c-1.5-4.7,1.1-9.8,5.8-11.3
		C1541.4,76,1546.5,78.6,1548,83.3z M1563.3,64l-4.3,13.3l-14.5-4.7l0,0c-0.2-0.1-0.4-0.1-0.6-0.2c-4.6-1.5-9.3-0.6-12.9,2.1
		c-0.1,0.1-0.2,0.1-0.3,0.2c-0.2,0.2-0.5,0.4-0.7,0.6c-0.1,0.1-0.2,0.2-0.3,0.3c-0.1,0.1-0.1,0.1-0.2,0.2c-0.3,0.3-0.5,0.5-0.8,0.8
		l0,0c-0.1,0.1-0.2,0.3-0.4,0.5s-0.4,0.5-0.6,0.7l0,0l-0.1,0.1c-0.1,0.1-0.2,0.2-0.2,0.4l0,0l-8.9,12.2l-11.3-8.2
		c9.5-15.3,6.5-35.1-7-47c12.6-7.6,26.6-12.2,41.1-13.4C1537.5,39.4,1546.7,57.2,1563.3,64z"/>
	<path fill="#699641" d="M1580.1,104.8c-4,2.9-9.7,2-12.6-2c-2.9-4-2-9.7,2-12.6c4-2.9,9.6-2,12.6,2
		C1585,96.2,1584.1,101.8,1580.1,104.8z M1603.1,113.4h-14V98.1l0,0c0-0.2,0-0.4,0-0.7c0-4.8-2.3-9-5.9-11.6
		c-0.1-0.1-0.2-0.2-0.3-0.2c-0.2-0.2-0.5-0.3-0.8-0.5c-0.1-0.1-0.2-0.2-0.4-0.2c-0.1,0-0.2-0.1-0.3-0.1c-0.3-0.2-0.6-0.3-1-0.5l0,0
		c-0.2-0.1-0.4-0.1-0.5-0.2c-0.3-0.1-0.6-0.2-0.8-0.3l0,0c0,0-0.1,0-0.2-0.1c-0.1,0-0.3-0.1-0.4-0.1l0,0l-14.4-4.7l4.3-13.2
		c17.5,4.3,35.4-4.7,42.5-21.1c11.1,9.6,19.7,21.6,25.3,34.9C1618.6,81.2,1604.4,95.5,1603.1,113.4z"/>
	<path fill="#699641" d="M1569.5,141.9c-4-2.9-4.9-8.6-2-12.6c2.9-4,8.6-4.9,12.6-2c4,2.9,4.9,8.5,2,12.6
		C1579.2,143.9,1573.6,144.8,1569.5,141.9z M1568.5,166.4l-4.3-13.3l14.5-4.7l0,0c0.2-0.1,0.4-0.1,0.6-0.2c4.6-1.5,7.9-5,9.2-9.3
		c0-0.1,0.1-0.2,0.1-0.4c0.1-0.3,0.1-0.6,0.2-0.9c0-0.1,0.1-0.3,0.1-0.4c0-0.1,0-0.2,0-0.3c0.1-0.4,0.1-0.7,0.2-1.1l0,0
		c0-0.2,0-0.4,0-0.6c0-0.3,0-0.6,0-0.9l0,0c0-0.1,0-0.1,0-0.2c0-0.1,0-0.3,0-0.4l0,0v-15.1h13.9c1.3,18,15.5,32.2,33.2,33.9
		c-5.7,13.6-14.5,25.4-25.3,34.9C1603.9,171.2,1585.9,162.1,1568.5,166.4z"/>
	<path fill="#699641" d="M1531,143.4c1.5-4.7,6.6-7.3,11.3-5.8c4.7,1.5,7.3,6.6,5.8,11.3s-6.6,7.3-11.3,5.8
		C1532.1,153.2,1529.5,148.1,1531,143.4z M1507.3,149.9l11.3-8.2l9,12.4l0,0c0.1,0.2,0.3,0.4,0.4,0.5c2.8,3.9,7.2,5.9,11.7,5.9
		c0.1,0,0.3,0,0.4,0c0.3,0,0.6,0,0.9-0.1c0.1,0,0.3,0,0.4,0s0.2,0,0.3-0.1c0.4,0,0.7-0.1,1.1-0.2l0,0c0.2,0,0.4-0.1,0.6-0.2
		c0.3-0.1,0.6-0.2,0.9-0.2l0,0c0.1,0,0.1,0,0.2,0c0.1-0.1,0.3-0.1,0.4-0.2l0,0l14.4-4.7l4.3,13.2c-16.7,6.8-25.8,24.6-21.9,42.1
		c-14.7-1.2-28.7-5.9-41.1-13.4C1513.8,185.1,1516.7,165.1,1507.3,149.9L1507.3,149.9z"/>
	<path fill="#FFFFFF" d="M1707.6,33.4v80.4c0,0.6,0,1.3,0,1.9c0,0.6,0,1.1,0,1.7c0.9,19.6,17.1,35.3,37,35.3c20.4,0,37-16.6,37-37
		s-16.6-37-37-37c-3.1,0-6.1,0.4-9,1.1v13.6c3.2-0.4,6-0.7,9-0.7c12.7,0,22.9,10.3,22.9,22.9s-10.3,22.9-22.9,22.9
		c-12.2,0-22-9.4-22.9-21.3v-3.4c0-0.1,0-0.1,0-0.2v-27l0,0V33.4H1707.6z"/>
	<path fill="#FFFFFF" d="M1917.5,89.6c2.2,2.2,4,4.5,5.5,7l-4.7,4.7h0.1l-4.9,4.9c-1.6-2.1-3.4-4.2-5.4-6.2
		c-4.2-4.5-10.2-7.4-16.9-7.4c-12.7,0-22.9,10.3-22.9,22.9c0,2.3,0.4,4.5,1,6.6c0.1,0.4,0.2,0.7,0.3,1.1c0.1,0.3,0.2,0.5,0.3,0.8
		c0,0.1,0.1,0.2,0.1,0.3c0,0.1,0.1,0.1,0.1,0.2c0.1,0.3,0.2,0.5,0.4,0.8c0,0.1,0.1,0.2,0.1,0.2c0.1,0.3,0.3,0.5,0.4,0.8
		c0.1,0.2,0.2,0.4,0.4,0.6c0.1,0.2,0.2,0.4,0.3,0.6c0.2,0.3,0.4,0.6,0.6,0.9c0,0.1,0.1,0.1,0.1,0.2c0.2,0.2,0.3,0.5,0.5,0.7
		c0,0,0.1,0,0.1,0.1c0.4,0.6,0.9,1.2,1.4,1.7c0.2,0.3,0.5,0.5,0.8,0.8c0,0,0,0.1,0.1,0.1c9,9,23.5,9,32.5,0c2.1-2.2,4.3-4.7,5.9-6.8
		l9.7,9.6c-1.5,2.5-3.4,4.9-5.5,7.1c-14.5,14.5-37.9,14.5-52.3,0c-14.5-14.5-14.5-37.9,0-52.4c7.2-7.2,16.7-10.9,26.1-10.9
		C1900.9,78.7,1910.3,82.3,1917.5,89.6L1917.5,89.6z"/>
	<path fill="#FFFFFF" d="M1849.2,141.8c2.2-2.2,4-4.6,5.5-7.1l-9.7-9.7c-2,2.6-3.8,4.8-5.8,6.8c-9,9-23.5,9-32.5,0s-9-23.5,0-32.5
		c7.9-7.9,19.9-8.8,28.8-3l-19.5,19.5l9.7,9.7l24.3-24.3l-0.1-0.1l4.7-4.7c-1.5-2.5-3.3-4.9-5.5-7c-7.2-7.2-16.8-10.9-26.1-10.9
		c-9.5,0-18.9,3.6-26.1,10.9c-14.5,14.5-14.5,37.9,0,52.4S1834.8,156.3,1849.2,141.8z"/>
	<g enable-background="new    ">
		<path fill="#699641" d="M1816.4,188c-2.4,0-4.3-0.6-5.5-1.7c-1.3-1.2-1.9-2.9-1.9-5.1v-11.4h4.5v11.2c0,1.2,0.2,2.2,0.7,2.8
			c0.5,0.6,1.2,0.9,2.3,0.9c1,0,1.8-0.3,2.3-0.9c0.5-0.6,0.7-1.5,0.7-2.8v-11.2h4.5v11.4c0,2.2-0.6,3.9-1.9,5.1
			C1820.8,187.4,1818.9,188,1816.4,188z"/>
		<path fill="#699641" d="M1843.1,187.6h-5.4l-4.9-7.3l-0.9,1.2v6h-4.5v-17.9h4.5v7.9l5.7-7.9h5.2l-6.4,8.3L1843.1,187.6z"/>
		<path fill="#699641" d="M1861.1,187.6h-5.5l-5-6.6h-1.6v6.6h-4.5v-17.9h7.2c1,0,1.9,0.1,2.6,0.2c0.7,0.1,1.4,0.4,2,0.8
			c0.6,0.4,1.1,0.9,1.5,1.6c0.4,0.6,0.6,1.4,0.6,2.4c0,1.4-0.3,2.5-0.9,3.3c-0.6,0.9-1.4,1.5-2.5,2L1861.1,187.6z M1853.8,175.2
			c0-0.4-0.1-0.8-0.3-1.2s-0.5-0.6-0.9-0.8c-0.3-0.1-0.6-0.2-0.9-0.2c-0.3,0-0.8,0-1.3,0h-1.5v4.8h1.3c0.6,0,1.2,0,1.6-0.1
			s0.8-0.2,1.1-0.5c0.3-0.2,0.5-0.5,0.6-0.8C1853.8,176.1,1853.8,175.7,1853.8,175.2z"/>
		<path fill="#699641" d="M1860.5,187.6l6-17.9h4.9l6,17.9h-4.6l-1.1-3.7h-5.6l-1.1,3.7H1860.5z M1870.7,180.7l-1.8-5.9l-1.8,5.9
			H1870.7z"/>
		<path fill="#699641" d="M1888.2,187.6h-9.6v-3.1h2.6v-11.6h-2.6v-3.1h9.6v3.1h-2.6v11.6h2.6V187.6z"/>
		<path fill="#699641" d="M1906.5,187.6h-4.3l-6.9-12.5v12.5h-4.1v-17.9h5.5l5.7,10.3v-10.3h4.1V187.6z"/>
		<path fill="#699641" d="M1910.1,187.6v-17.9h12.1v3.4h-7.6v3.1h7v3.4h-7v4.5h7.6v3.4H1910.1z"/>
	</g>
</g>
<g>
	<path fill="#756152" d="M2005.7,334.2L2005.7,334.2c14.6,0,26.4,11.9,26.4,26.4v62.3c0,14.6-11.9,26.4-26.4,26.4l0,0
		c-14.6,0-26.4-11.9-26.4-26.4v-62.3C1979.4,346,1991.2,334.2,2005.7,334.2L2005.7,334.2z"/>
	<path fill="#FFF7DE" d="M1992.1,586.5h8.6v7.5v3.7v4.1h-6.2v-0.2v-1.1c0-1.5-1.3-2.8-2.8-2.8l0,0c-1.5,0-2.8,1.3-2.8,2.8v1.1h-13.5
		L1992.1,586.5z"/>
	<path fill="#FFF7DE" d="M1987,440.8c-1.6-1.5-2.5-3.6-2.5-5.9c0-2.3,1-4.4,2.5-5.9v-4.2c-0.9,0.5-1.8,1.1-2.5,1.8
		c-1.7,1.7-2.8,4.1-2.8,6.7l0,0l0,0v11.6v37.4h-12.9v-37.4v-11.7l0,0l0,0c0-6.2,2.5-11.8,6.5-15.8c4.1-4.1,9.6-6.6,15.8-6.6h14.6
		h37.4c2.6,0,4.9-1.1,6.6-2.8c1.7-1.7,2.8-4.1,2.8-6.6v-32.8h12.9v32.8c0,6.2-2.5,11.7-6.6,15.8c-4,4-9.6,6.6-15.8,6.6h-18.6v5.2
		c1.6,1.5,2.5,3.6,2.5,5.9c0,2.3-1,4.4-2.5,5.9v30.6h-37.4L1987,440.8L1987,440.8z"/>
	<polygon fill="#D1784B" points="1999.3,389.4 2012.1,389.4 2012.1,411 2012.1,411 1999.3,411 1999.3,411 	"/>
	<path fill="#FFF7DE" d="M2019.2,586.5h-8.6v7.5v3.7v4.1h6.2v-0.2v-1.1c0-1.5,1.3-2.8,2.8-2.8l0,0c1.5,0,2.8,1.3,2.8,2.8v1.1h13.5
		L2019.2,586.5z"/>
	<path fill="#EB4141" d="M2018.8,471.4h4.1v10.4v104.7h-4.1h-8.2v-77.8v-13.6v-8.4c0-2.7-2.2-5-5-5l0,0c-2.7,0-5,2.2-5,5v8.4v13.6
		v77.8h-4.1h-8.2V481.8v-10.4h8.2h4.1h10H2018.8z"/>
	<path fill="#FD9C65" d="M2065.1,367L2065.1,367c1,3.4-0.9,7-4.3,8.1l0,0c-2.9,0.9-5.9-0.4-7.4-2.8l-5.6-5.7c-0.8-0.8-0.8-2.2,0-3.1
		l0,0c0.8-0.8,2.2-0.8,3,0l1.6,1.6v-9.2c0-1.2,1-2.2,2.2-2.2l0,0c1.2,0,2.2,1,2.2,2.2v6.9c0.1,0,0.2-0.1,0.3-0.1l0,0
		C2060.5,361.6,2064.1,363.6,2065.1,367L2065.1,367z"/>
	<path fill="#D1784B" d="M1984.2,365.8L1984.2,365.8c3.6,0,6.5,2.9,6.5,6.5l0,0c0,3.6-2.9,6.5-6.5,6.5l0,0c-3.6,0-6.5-2.9-6.5-6.5
		l0,0C1977.8,368.7,1980.7,365.8,1984.2,365.8L1984.2,365.8z"/>
	<path fill="#D1784B" d="M2027.2,365.8L2027.2,365.8c3.6,0,6.5,2.9,6.5,6.5l0,0c0,3.6-2.9,6.5-6.5,6.5l0,0c-3.6,0-6.5-2.9-6.5-6.5
		l0,0C2020.7,368.7,2023.6,365.8,2027.2,365.8L2027.2,365.8z"/>
	<path fill="#FD9C65" d="M2005.7,342.1L2005.7,342.1c11.9,0,21.5,9.7,21.5,21.5v17.3c0,11.9-9.7,21.5-21.5,21.5l0,0
		c-11.9,0-21.5-9.7-21.5-21.5v-17.3C1984.2,351.8,1993.9,342.1,2005.7,342.1L2005.7,342.1z"/>
	<path fill="#D1784B" d="M2003,382.9h5.4c1.2,0,2.1-0.9,2.1-2.1l0,0c0-1.2-0.9-2.1-2.1-2.1h-5.4c-1.2,0-2.1,0.9-2.1,2.1l0,0
		C2000.9,381.9,2001.9,382.9,2003,382.9L2003,382.9z"/>
	<path fill="#F56C6C" d="M1994.8,386.9c2.3,5.1,6.3,8.5,10.9,8.5s8.6-3.4,10.9-8.5H1994.8z"/>
	<path fill="#333333" d="M1989.6,368h6.5c0.6,0,1.1-0.5,1.1-1.1l0,0c0-0.6-0.5-1.1-1.1-1.1h-6.5c-0.6,0-1.1,0.5-1.1,1.1l0,0
		C1988.5,367.5,1989,368,1989.6,368L1989.6,368z"/>
	<path fill="#333333" d="M2015.4,368h6.5c0.6,0,1.1-0.5,1.1-1.1l0,0c0-0.6-0.5-1.1-1.1-1.1h-6.5c-0.6,0-1.1,0.5-1.1,1.1l0,0
		C2014.4,367.5,2014.8,368,2015.4,368L2015.4,368z"/>
	<path fill="#FEFEFE" d="M1994.8,386.9c2.3,3.6,6.3,5.9,10.9,5.9s8.6-2.4,10.9-5.9H1994.8z"/>
	<path fill="#F56C6C" d="M1994.8,386.9c2.3-1.6,6.3-2.6,10.9-2.6s8.6,1,10.9,2.6H1994.8z"/>
	<path fill="#D1784B" d="M2005.7,368L2005.7,368c1.3,0,2.3,1,2.3,2.3v10.4c0,1.3-1,2.3-2.3,2.3l0,0c-1.3,0-2.3-1-2.3-2.3v-10.4
		C2003.4,369.1,2004.5,368,2005.7,368L2005.7,368z"/>
	<path fill="#333333" d="M2014.4,343.4c7.8,3.4,13.4,11.1,13.6,20c-6.9-1.4-12.7-6-15.7-12.2c-3.6,7.5-11.3,12.6-20,12.6l0,0
		c-3.1,0-6.1-0.6-8.7-1.8c0.9-11.4,10.6-20.4,22.1-20.4l0,0C2008.8,341.7,2011.7,342.2,2014.4,343.4L2014.4,343.4z"/>
	<path fill="#333333" d="M1992.8,373.7h-2.9c0-1.6,1.3-2.9,2.9-2.9s2.9,1.3,2.9,2.9H1992.8z"/>
	<path fill="#333333" d="M2018.6,373.7h-2.9c0-1.6,1.3-2.9,2.9-2.9c1.6,0,2.9,1.3,2.9,2.9H2018.6z"/>
	<path fill="#F8AF22" d="M2012.3,328.8c11.4,3,19.8,13.4,19.8,25.5v5.9h-52.8v-5.9c0-12.3,8.5-22.6,19.8-25.5l0,0c0-1.1,0.9-2,2-2
		h9.2C2011.4,326.8,2012.3,327.6,2012.3,328.8L2012.3,328.8z"/>
	<path fill="#E88B00" d="M1989.2,333.8c2.9-2.3,6.2-4,9.9-5v7.4c0,2.7-2.2,5-5,5l0,0c-2.7,0-5-2.2-5-5L1989.2,333.8L1989.2,333.8z"
		/>
	<path fill="#E88B00" d="M2012.3,328.8c3.7,0.9,7.1,2.7,9.9,5v2.4c0,2.7-2.2,5-5,5l0,0c-2.7,0-5-2.2-5-5L2012.3,328.8L2012.3,328.8z
		"/>
	<path fill="#E88B00" d="M2005.7,360.1h-26.4c0,3.1,11.9,5.7,26.4,5.7c14.6,0,26.4-2.5,26.4-5.7H2005.7z"/>
	<path fill="#FD9C65" d="M1977.5,489.2c-0.1-1-0.9-1.9-2-1.9l0,0c-1.1,0-2,0.9-2,2v0.4v1.1v0.4v7.7c0,1.3-1,2.3-2.3,2.3l0,0
		c-1.3,0-2.3-1-2.3-2.3v-16.7c0-1.2,0.9-2.2,2.1-2.3l0,0h0.2l0,0h8.5l0,0h0.1l0,0c1.2,0,2.1,1,2.1,2.2v7.1L1977.5,489.2
		L1977.5,489.2z"/>
	<path fill="#FFCF33" d="M1936.8,489.2h58.6c0.6,0,1.1,0.5,1.1,1.1v7.7c0,0.6-0.5,1.1-1.1,1.1h-58.6c-0.6,0-1.1-0.5-1.1-1.1v-7.7
		C1935.7,489.7,1936.2,489.2,1936.8,489.2L1936.8,489.2z"/>
	<path fill="#CF8619" d="M1938.2,492.7L1938.2,492.7c0.2,0,0.4,0.2,0.4,0.4v5.6c0,0.2-0.2,0.4-0.4,0.4l0,0c-0.2,0-0.4-0.2-0.4-0.4
		v-5.6C1937.7,492.9,1937.9,492.7,1938.2,492.7L1938.2,492.7z M1965.7,498.6L1965.7,498.6V493l0,0l0,0l0,0l0,0l0,0l0,0l0,0l0,0l0,0
		l0,0l0,0l0,0l0,0l0,0l0,0l0,0l0,0l0,0l0,0l0,0l0,0l0,0l0,0l0,0l0,0l0,0l0,0l0,0l0,0l0,0l0,0l0,0l0,0l0,0l0,0l0,0l0,0l0,0l0,0l0,0
		l0,0l0,0l0,0l0,0l0,0l0,0l0,0l0,0l0,0l0,0l0,0l0,0l0,0l0,0l0,0l0,0l0,0l0,0l0,0l0,0l0,0l0,0l0,0l0,0l0,0l0,0l0,0l0,0l0,0l0,0l0,0
		l0,0l0,0l0,0l0,0l0,0l0,0l0,0l0,0l0,0l0,0l0,0l0,0l0,0l0,0l0,0l0,0l0,0l0,0l0,0l0,0l0,0l0,0l0,0l0,0l0,0l0,0l0,0l0,0l0,0l0,0l0,0
		l0,0l0,0l0,0l0,0l0,0l0,0l0,0l0,0l0,0l0,0l0,0l0,0l0,0l0,0l0,0l0,0l0,0l0,0l0,0l0,0l0,0l0,0l0,0l0,0l0,0l0,0l0,0l0,0l0,0l0,0l0,0
		l0,0l0,0l0,0l0,0l0,0l0,0l0,0l0,0l0,0l0,0l0,0l0,0l0,0l0,0l0,0l0,0l0,0l0,0l0,0l0,0l0,0l0,0l0,0l0,0l0,0l0,0l0,0l0,0l0,0l0,0l0,0
		l0,0l0,0l0,0l0,0l0,0l0,0l0,0l0,0l0,0l0,0l0,0l0,0l0,0l0,0l0,0l0,0l0,0l0,0l0,0l0,0l0,0l0,0l0,0l0,0l0,0l0,0l0,0l0,0l0,0l0,0l0,0
		l0,0l0,0l0,0l0,0l0,0l0,0l0,0l0,0l0,0l0,0l0,0l0,0l0,0l0,0l0,0l0,0l0,0l0,0l0,0l0,0l0,0l0,0l0,0l0,0l0,0l0,0l0,0l0,0l0,0l0,0l0,0
		l0,0l0,0l0,0l0,0l0,0l0,0l0,0l0,0l0,0l0,0l0,0l0,0l0,0l0,0l0,0l0,0l0,0l0,0l0,0V498.6L1965.7,498.6L1965.7,498.6L1965.7,498.6
		L1965.7,498.6L1965.7,498.6L1965.7,498.6L1965.7,498.6L1965.7,498.6L1965.7,498.6L1965.7,498.6L1965.7,498.6L1965.7,498.6
		L1965.7,498.6L1965.7,498.6L1965.7,498.6L1965.7,498.6L1965.7,498.6L1965.7,498.6L1965.7,498.6L1965.7,498.6L1965.7,498.6
		L1965.7,498.6L1965.7,498.6L1965.7,498.6L1965.7,498.6L1965.7,498.6L1965.7,498.6L1965.7,498.6L1965.7,498.6L1965.7,498.6
		L1965.7,498.6L1965.7,498.6L1965.7,498.6L1965.7,498.6L1965.7,498.6L1965.7,498.6L1965.7,498.6L1965.7,498.6L1965.7,498.6
		L1965.7,498.6L1965.7,498.6L1965.7,498.6L1965.7,498.6L1965.7,498.6L1965.7,498.6L1965.7,498.6L1965.7,498.6L1965.7,498.6
		L1965.7,498.6L1965.7,498.6L1965.7,498.6L1965.7,498.6L1965.7,498.6L1965.7,498.6L1965.7,498.6L1965.7,498.6L1965.7,498.6
		L1965.7,498.6L1965.7,498.6L1965.7,498.6L1965.7,498.6L1965.7,498.6L1965.7,498.6L1965.7,498.6L1965.7,498.6L1965.7,498.6
		L1965.7,498.6L1965.7,498.6L1965.7,498.6L1965.7,498.6L1965.7,498.6L1965.7,498.6L1965.7,498.6L1965.7,498.6L1965.7,498.6
		L1965.7,498.6L1965.7,498.6L1965.7,498.6L1965.7,498.6L1965.7,498.6L1965.7,498.6L1965.7,498.6L1965.7,498.6L1965.7,498.6
		L1965.7,498.6L1965.7,498.6L1965.7,498.6L1965.7,498.6L1965.7,498.6L1965.7,498.6L1965.7,498.6L1965.7,498.6L1965.7,498.6
		L1965.7,498.6L1965.7,498.6L1965.7,498.6L1965.7,498.6L1965.7,498.6L1965.7,498.6L1965.7,498.6L1965.7,498.6L1965.7,498.6
		L1965.7,498.6L1965.7,498.6L1965.7,498.6L1965.7,498.6L1965.7,498.6L1965.7,498.6L1965.7,498.6L1965.7,498.6L1965.7,498.6
		L1965.7,498.6L1965.7,498.6L1965.7,498.6L1965.7,498.6L1965.7,498.6L1965.7,498.6L1965.7,498.6L1965.7,498.6L1965.7,498.6
		L1965.7,498.6L1965.7,498.6L1965.7,498.6L1965.7,498.6L1965.7,498.6L1965.7,498.6L1965.7,498.6L1965.7,498.6L1965.7,498.6
		L1965.7,498.6L1965.7,498.6L1965.7,498.6L1965.7,498.6L1965.7,498.6L1965.7,498.6L1965.7,498.6L1965.7,498.6L1965.7,498.6
		L1965.7,498.6L1965.7,498.6L1965.7,498.6L1965.7,498.6L1965.7,498.6L1965.7,498.6L1965.7,498.6L1965.7,498.6L1965.7,498.6
		L1965.7,498.6L1965.7,498.6L1965.7,498.6L1965.7,498.6L1965.7,498.6L1965.7,498.6L1965.7,498.6L1965.7,498.6L1965.7,498.6
		L1965.7,498.6L1965.7,498.6L1965.7,498.6L1965.7,498.6L1965.7,498.6L1965.7,498.6L1965.7,498.6L1965.7,498.6L1965.7,498.6
		L1965.7,498.6L1965.7,498.6L1965.7,498.6L1965.7,498.6L1965.7,498.6L1965.7,498.6L1965.7,498.6L1965.7,498.6L1965.7,498.6
		L1965.7,498.6L1965.7,498.6L1965.7,498.6L1965.7,498.6L1965.7,498.6L1965.7,498.6L1965.7,498.6L1965.7,498.6L1965.7,498.6
		L1965.7,498.6L1965.7,498.6L1965.7,498.6L1965.7,498.6L1965.7,498.6L1965.7,498.6L1965.7,498.6L1965.7,498.6L1965.7,498.6
		L1965.7,498.6L1965.7,498.6L1965.7,498.6L1965.7,498.6L1965.7,498.6L1965.7,498.6L1965.7,498.6L1965.7,498.6L1965.7,498.6
		L1965.7,498.6L1965.7,498.6L1965.7,498.6L1965.7,498.6L1965.7,498.6L1965.7,498.6L1965.7,498.6L1965.7,498.6L1965.7,498.6
		L1965.7,498.6L1965.7,498.6L1965.7,498.6L1965.7,498.6L1965.7,498.6L1965.7,498.6L1965.7,498.6L1965.7,498.6L1965.7,498.6
		L1965.7,498.6L1965.7,498.6L1965.7,498.6L1965.7,498.6L1965.7,498.6L1965.7,498.6L1965.7,498.6L1965.7,498.6L1965.7,498.6
		L1965.7,498.6L1965.7,498.6L1965.7,498.6L1965.7,498.6L1965.7,498.6L1965.7,498.6L1965.7,498.6L1965.7,498.6L1965.7,498.6
		L1965.7,498.6L1965.7,498.6L1965.7,498.6L1965.7,498.6L1965.7,498.6L1965.7,498.6L1965.7,498.6z M1988.5,495.8L1988.5,495.8
		c-0.2,0-0.4,0.2-0.4,0.4v2.5c0,0.2,0.2,0.4,0.4,0.4l0,0c0.2,0,0.4-0.2,0.4-0.4v-2.5C1988.9,495.9,1988.7,495.8,1988.5,495.8
		L1988.5,495.8z M1989.9,495.8L1989.9,495.8c-0.2,0-0.4,0.2-0.4,0.4v2.5c0,0.2,0.2,0.4,0.4,0.4l0,0c0.2,0,0.4-0.2,0.4-0.4v-2.5
		C1990.3,495.9,1990.1,495.8,1989.9,495.8L1989.9,495.8z M1991.3,495.8L1991.3,495.8c-0.2,0-0.4,0.2-0.4,0.4v2.5
		c0,0.2,0.2,0.4,0.4,0.4l0,0c0.2,0,0.4-0.2,0.4-0.4v-2.5C1991.7,495.9,1991.5,495.8,1991.3,495.8L1991.3,495.8z M1992.7,495.8
		L1992.7,495.8c-0.2,0-0.4,0.2-0.4,0.4v2.5c0,0.2,0.2,0.4,0.4,0.4l0,0c0.2,0,0.4-0.2,0.4-0.4v-2.5
		C1993.1,495.9,1992.9,495.8,1992.7,495.8L1992.7,495.8z M1994.1,492.7L1994.1,492.7c-0.2,0-0.4,0.2-0.4,0.4v5.6
		c0,0.2,0.2,0.4,0.4,0.4l0,0c0.2,0,0.4-0.2,0.4-0.4v-5.6C1994.5,492.9,1994.3,492.7,1994.1,492.7L1994.1,492.7z M1985.7,495.8
		L1985.7,495.8c0.2,0,0.4,0.2,0.4,0.4v2.5c0,0.2-0.2,0.4-0.4,0.4l0,0c-0.2,0-0.4-0.2-0.4-0.4v-2.5
		C1985.2,495.9,1985.4,495.8,1985.7,495.8L1985.7,495.8z M1984.3,495.8L1984.3,495.8c0.2,0,0.4,0.2,0.4,0.4v2.5
		c0,0.2-0.2,0.4-0.4,0.4l0,0c-0.2,0-0.4-0.2-0.4-0.4v-2.5C1983.8,495.9,1984,495.8,1984.3,495.8L1984.3,495.8z M1987.1,494.1
		L1987.1,494.1c0.2,0,0.4,0.2,0.4,0.4v4.1c0,0.2-0.2,0.4-0.4,0.4l0,0c-0.2,0-0.4-0.2-0.4-0.4v-4.1
		C1986.6,494.3,1986.8,494.1,1987.1,494.1L1987.1,494.1z M1982.8,495.8L1982.8,495.8c0.2,0,0.4,0.2,0.4,0.4v2.5
		c0,0.2-0.2,0.4-0.4,0.4l0,0c-0.2,0-0.4-0.2-0.4-0.4v-2.5C1982.4,495.9,1982.6,495.8,1982.8,495.8L1982.8,495.8z M1981.5,495.8
		L1981.5,495.8c0.2,0,0.4,0.2,0.4,0.4v2.5c0,0.2-0.2,0.4-0.4,0.4l0,0c-0.2,0-0.4-0.2-0.4-0.4v-2.5
		C1981.1,495.9,1981.3,495.8,1981.5,495.8L1981.5,495.8z M1974.5,495.8L1974.5,495.8c-0.2,0-0.4,0.2-0.4,0.4v2.5
		c0,0.2,0.2,0.4,0.4,0.4l0,0c0.2,0,0.4-0.2,0.4-0.4v-2.5C1974.9,495.9,1974.8,495.8,1974.5,495.8L1974.5,495.8z M1975.9,495.8
		L1975.9,495.8c-0.2,0-0.4,0.2-0.4,0.4v2.5c0,0.2,0.2,0.4,0.4,0.4l0,0c0.2,0,0.4-0.2,0.4-0.4v-2.5
		C1976.3,495.9,1976.2,495.8,1975.9,495.8L1975.9,495.8z M1977.3,495.8L1977.3,495.8c-0.2,0-0.4,0.2-0.4,0.4v2.5
		c0,0.2,0.2,0.4,0.4,0.4l0,0c0.2,0,0.4-0.2,0.4-0.4v-2.5C1977.7,495.9,1977.6,495.8,1977.3,495.8L1977.3,495.8z M1978.7,495.8
		L1978.7,495.8c-0.2,0-0.4,0.2-0.4,0.4v2.5c0,0.2,0.2,0.4,0.4,0.4l0,0c0.2,0,0.4-0.2,0.4-0.4v-2.5
		C1979.1,495.9,1979,495.8,1978.7,495.8L1978.7,495.8z M1980.1,492.7L1980.1,492.7c-0.2,0-0.4,0.2-0.4,0.4v5.6
		c0,0.2,0.2,0.4,0.4,0.4l0,0c0.2,0,0.4-0.2,0.4-0.4v-5.6C1980.6,492.9,1980.4,492.7,1980.1,492.7L1980.1,492.7z M1971.7,495.8
		L1971.7,495.8c0.2,0,0.4,0.2,0.4,0.4v2.5c0,0.2-0.2,0.4-0.4,0.4l0,0c-0.2,0-0.4-0.2-0.4-0.4v-2.5
		C1971.3,495.9,1971.5,495.8,1971.7,495.8L1971.7,495.8z M1970.3,495.8L1970.3,495.8c0.2,0,0.4,0.2,0.4,0.4v2.5
		c0,0.2-0.2,0.4-0.4,0.4l0,0c-0.2,0-0.4-0.2-0.4-0.4v-2.5C1969.9,495.9,1970.1,495.8,1970.3,495.8L1970.3,495.8z M1973.1,494.1
		L1973.1,494.1c0.2,0,0.4,0.2,0.4,0.4v4.1c0,0.2-0.2,0.4-0.4,0.4l0,0c-0.2,0-0.4-0.2-0.4-0.4v-4.1
		C1972.7,494.3,1972.9,494.1,1973.1,494.1L1973.1,494.1z M1968.9,495.8L1968.9,495.8c0.2,0,0.4,0.2,0.4,0.4v2.5
		c0,0.2-0.2,0.4-0.4,0.4l0,0c-0.2,0-0.4-0.2-0.4-0.4v-2.5C1968.5,495.9,1968.7,495.8,1968.9,495.8L1968.9,495.8z M1967.5,495.8
		L1967.5,495.8c0.2,0,0.4,0.2,0.4,0.4v2.5c0,0.2-0.2,0.4-0.4,0.4l0,0c-0.2,0-0.4-0.2-0.4-0.4v-2.5
		C1967.1,495.9,1967.3,495.8,1967.5,495.8L1967.5,495.8z M1960.5,495.8L1960.5,495.8c-0.2,0-0.4,0.2-0.4,0.4v2.5
		c0,0.2,0.2,0.4,0.4,0.4l0,0c0.2,0,0.4-0.2,0.4-0.4v-2.5C1960.9,495.9,1960.7,495.8,1960.5,495.8L1960.5,495.8z M1961.9,495.8
		L1961.9,495.8c-0.2,0-0.4,0.2-0.4,0.4v2.5c0,0.2,0.2,0.4,0.4,0.4l0,0c0.2,0,0.4-0.2,0.4-0.4v-2.5
		C1962.3,495.9,1962.1,495.8,1961.9,495.8L1961.9,495.8z M1963.3,495.8L1963.3,495.8c-0.2,0-0.4,0.2-0.4,0.4v2.5
		c0,0.2,0.2,0.4,0.4,0.4l0,0c0.2,0,0.4-0.2,0.4-0.4v-2.5C1963.7,495.9,1963.5,495.8,1963.3,495.8L1963.3,495.8z M1964.7,495.8
		L1964.7,495.8c-0.2,0-0.4,0.2-0.4,0.4v2.5c0,0.2,0.2,0.4,0.4,0.4l0,0c0.2,0,0.4-0.2,0.4-0.4v-2.5
		C1965.1,495.9,1964.9,495.8,1964.7,495.8L1964.7,495.8z M1957.7,495.8L1957.7,495.8c0.2,0,0.4,0.2,0.4,0.4v2.5
		c0,0.2-0.2,0.4-0.4,0.4l0,0c-0.2,0-0.4-0.2-0.4-0.4v-2.5C1957.3,495.9,1957.5,495.8,1957.7,495.8L1957.7,495.8z M1956.3,495.8
		L1956.3,495.8c0.2,0,0.4,0.2,0.4,0.4v2.5c0,0.2-0.2,0.4-0.4,0.4l0,0c-0.2,0-0.4-0.2-0.4-0.4v-2.5
		C1955.9,495.9,1956.1,495.8,1956.3,495.8L1956.3,495.8z M1959.1,494.1L1959.1,494.1c0.2,0,0.4,0.2,0.4,0.4v4.1
		c0,0.2-0.2,0.4-0.4,0.4l0,0c-0.2,0-0.4-0.2-0.4-0.4v-4.1C1958.7,494.3,1958.9,494.1,1959.1,494.1L1959.1,494.1z M1954.9,495.8
		L1954.9,495.8c0.2,0,0.4,0.2,0.4,0.4v2.5c0,0.2-0.2,0.4-0.4,0.4l0,0c-0.2,0-0.4-0.2-0.4-0.4v-2.5
		C1954.5,495.9,1954.7,495.8,1954.9,495.8L1954.9,495.8z M1953.5,495.8L1953.5,495.8c0.2,0,0.4,0.2,0.4,0.4v2.5
		c0,0.2-0.2,0.4-0.4,0.4l0,0c-0.2,0-0.4-0.2-0.4-0.4v-2.5C1953.1,495.9,1953.3,495.8,1953.5,495.8L1953.5,495.8z M1946.5,495.8
		L1946.5,495.8c-0.2,0-0.4,0.2-0.4,0.4v2.5c0,0.2,0.2,0.4,0.4,0.4l0,0c0.2,0,0.4-0.2,0.4-0.4v-2.5
		C1946.9,495.9,1946.7,495.8,1946.5,495.8L1946.5,495.8z M1947.9,495.8L1947.9,495.8c-0.2,0-0.4,0.2-0.4,0.4v2.5
		c0,0.2,0.2,0.4,0.4,0.4l0,0c0.2,0,0.4-0.2,0.4-0.4v-2.5C1948.3,495.9,1948.1,495.8,1947.9,495.8L1947.9,495.8z M1949.3,495.8
		L1949.3,495.8c-0.2,0-0.4,0.2-0.4,0.4v2.5c0,0.2,0.2,0.4,0.4,0.4l0,0c0.2,0,0.4-0.2,0.4-0.4v-2.5
		C1949.7,495.9,1949.5,495.8,1949.3,495.8L1949.3,495.8z M1950.7,495.8L1950.7,495.8c-0.2,0-0.4,0.2-0.4,0.4v2.5
		c0,0.2,0.2,0.4,0.4,0.4l0,0c0.2,0,0.4-0.2,0.4-0.4v-2.5C1951.1,495.9,1950.9,495.8,1950.7,495.8L1950.7,495.8z M1952.1,492.7
		L1952.1,492.7c-0.2,0-0.4,0.2-0.4,0.4v5.6c0,0.2,0.2,0.4,0.4,0.4l0,0c0.2,0,0.4-0.2,0.4-0.4v-5.6
		C1952.5,492.9,1952.3,492.7,1952.1,492.7L1952.1,492.7z M1943.8,495.8L1943.8,495.8c0.2,0,0.4,0.2,0.4,0.4v2.5
		c0,0.2-0.2,0.4-0.4,0.4l0,0c-0.2,0-0.4-0.2-0.4-0.4v-2.5C1943.4,495.9,1943.5,495.8,1943.8,495.8L1943.8,495.8z M1942.4,495.8
		L1942.4,495.8c0.2,0,0.4,0.2,0.4,0.4v2.5c0,0.2-0.2,0.4-0.4,0.4l0,0c-0.2,0-0.4-0.2-0.4-0.4v-2.5
		C1942,495.9,1942.1,495.8,1942.4,495.8L1942.4,495.8z M1945.2,494.1L1945.2,494.1c0.2,0,0.4,0.2,0.4,0.4v4.1c0,0.2-0.2,0.4-0.4,0.4
		l0,0c-0.2,0-0.4-0.2-0.4-0.4v-4.1C1944.8,494.3,1944.9,494.1,1945.2,494.1L1945.2,494.1z M1941,495.8L1941,495.8
		c0.2,0,0.4,0.2,0.4,0.4v2.5c0,0.2-0.2,0.4-0.4,0.4l0,0c-0.2,0-0.4-0.2-0.4-0.4v-2.5C1940.5,495.9,1940.7,495.8,1941,495.8
		L1941,495.8z M1939.6,495.8L1939.6,495.8c0.2,0,0.4,0.2,0.4,0.4v2.5c0,0.2-0.2,0.4-0.4,0.4l0,0c-0.2,0-0.4-0.2-0.4-0.4v-2.5
		C1939.1,495.9,1939.3,495.8,1939.6,495.8L1939.6,495.8z"/>
	<path fill="#FD9C65" d="M1979.7,494.1L1979.7,494.1c-1.2,0-2.2-1-2.2-2.2v-0.7v-0.4v-1.1v-0.4v-0.1l0,0h4.3v2.8
		C1981.8,493.1,1980.8,494.1,1979.7,494.1L1979.7,494.1z"/>
	<polygon fill="#EB4141" points="2018.9,411 2005.7,411 2011.4,420 	"/>
	<polygon fill="#EB4141" points="1992.5,411 2005.7,411 2000,420 	"/>
</g>
<g>
	<path fill="#FFBF36" d="M1424.1,455.9c0,5.8,0,18.6,0,24.4c0,2.4-1.9,4.3-4.3,4.3l0,0c-2.4,0-4.3-1.9-4.3-4.3c0-5.8,0-18.6,0-24.4
		C1418.4,455.9,1421.2,455.9,1424.1,455.9L1424.1,455.9z"/>
	<rect x="1417.6" y="441.6" fill="#CCCCCC" width="4.5" height="14.4"/>
	<path fill="#818181" d="M1406,439.9c1.6-9.1,6.2-17.2,12.9-23.1c0.6-0.5,1.4-0.5,1.9,0c6.6,5.9,11.3,14,12.9,23.1
		c0.1,0.4,0,0.8-0.3,1.2c-0.3,0.3-0.7,0.5-1.1,0.5h-12.5h-12.4c-0.5,0-0.8-0.2-1.1-0.5C1406,440.7,1406,440.3,1406,439.9L1406,439.9
		z"/>
	<path fill="#666666" d="M1419.8,416.3c0.4,0,0.7,0.1,1,0.4c6.6,5.9,11.3,14,12.9,23.1c0.1,0.4,0,0.8-0.3,1.2
		c-0.3,0.3-0.7,0.5-1.1,0.5h-12.5V416.3z"/>
	<path fill="#FCD515" d="M1424.1,454.8c0.6,0,1.1,0.5,1.1,1.1c0,0.6-0.5,1.1-1.1,1.1h-8.6c-0.6,0-1.1-0.5-1.1-1.1
		c0-0.6,0.5-1.1,1.1-1.1H1424.1z"/>
</g>
<g>
	<path fill="#CCCCCC" d="M1490.2,326.5l-1.1-5.9c-0.4-1.9,0.1-3.8,1.2-5.4c1-1.5,2.7-2.6,4.6-3l11.9-2.2c1.3-0.2,2.4-1,3.1-2
		c0.7-1,1-2.3,0.8-3.7l-1.6-8.8c-0.1-0.6-0.5-1.1-0.9-1.5c-0.5-0.3-1.1-0.5-1.7-0.4l-1.7,0.3l-0.4-2.2l1.7-0.3
		c1.2-0.2,2.4,0.1,3.4,0.7c1,0.7,1.7,1.7,1.9,2.9l1.6,8.8c0.4,1.9-0.1,3.8-1.2,5.4c-1,1.5-2.7,2.6-4.6,3l-11.9,2.2
		c-1.3,0.2-2.4,1-3.1,2c-0.7,1-1,2.3-0.8,3.7l1.1,5.9L1490.2,326.5z"/>
	<path fill="#65D6FC" d="M1488.3,326.8l5.9-1.1c0.8-0.1,1.6,0.4,1.8,1.2l4.1,22.1c0.1,0.8-0.4,1.6-1.2,1.8l-5.9,1.1
		c-0.8,0.1-1.6-0.4-1.8-1.2l-4.1-22.1C1487,327.7,1487.5,326.9,1488.3,326.8L1488.3,326.8z"/>
	<path fill="#FFBF36" d="M1466.9,294l37.1-6.8c1-0.2,1.9,0.5,2.1,1.5l1.4,7.8c0.2,1-0.5,1.9-1.5,2.1l-37.1,6.8
		c-1,0.2-1.9-0.5-2.1-1.5l-1.4-7.8C1465.3,295.1,1465.9,294.2,1466.9,294L1466.9,294z"/>
	<path fill="#E68C1E" d="M1506.8,292.5l0.7,3.9c0.2,1-0.5,1.9-1.5,2.1l-37.1,6.8c-1,0.2-1.9-0.5-2.1-1.5l-0.7-3.9L1506.8,292.5z"/>
</g>
<g>
	
		<rect x="2234.4" y="36.6" transform="matrix(0.9879 -0.1548 0.1548 0.9879 17.8255 349.1116)" fill="#1E377D" width="32.2" height="47.1"/>
	
		<rect x="2234.3" y="39" transform="matrix(0.9879 -0.1548 0.1548 0.9879 17.7618 348.8557)" fill="#E6E6E6" width="28.9" height="42.8"/>
	
		<rect x="2199.8" y="42" transform="matrix(0.9879 -0.1548 0.1548 0.9879 16.5627 343.8204)" fill="#3D5FBA" width="32.2" height="47.1"/>
	
		<rect x="2203.1" y="43.9" transform="matrix(0.9879 -0.1548 0.1548 0.9879 16.624 344.076)" fill="#FFFFFF" width="28.9" height="42.8"/>
	<path fill="#CCCCCC" d="M2227.2,46.8l6.7-1c0.9-0.1,1.6-1,1.4-1.9c-0.1-0.9-1-1.6-1.9-1.4l-6.7,1c-0.9,0.1-1.6,1-1.4,1.9
		C2225.5,46.3,2226.3,46.9,2227.2,46.8L2227.2,46.8z M2233,83.3l6.7-1c0.9-0.1,1.6-1,1.4-1.9l0,0c-0.1-0.9-1-1.6-1.9-1.4l-6.7,1
		c-0.9,0.1-1.6,1-1.4,1.9l0,0C2231.2,82.8,2232.1,83.5,2233,83.3L2233,83.3z M2232,77.2l6.7-1c0.9-0.1,1.6-1,1.4-1.9l0,0
		c-0.1-0.9-1-1.6-1.9-1.4l-6.7,1c-0.9,0.1-1.6,1-1.4,1.9l0,0C2230.2,76.7,2231.1,77.4,2232,77.2L2232,77.2z M2230.1,65l6.7-1
		c0.9-0.1,1.6-1,1.4-1.9l0,0c-0.1-0.9-1-1.6-1.9-1.4l-6.7,1c-0.9,0.1-1.6,1-1.4,1.9l0,0C2228.3,64.5,2229.2,65.1,2230.1,65
		L2230.1,65z M2231.1,71.1l6.7-1c0.9-0.1,1.6-1,1.4-1.9l0,0c-0.1-0.9-1-1.6-1.9-1.4l-6.7,1c-0.9,0.1-1.6,1-1.4,1.9l0,0
		C2229.3,70.6,2230.1,71.3,2231.1,71.1L2231.1,71.1z M2229.2,58.9l6.7-1c0.9-0.1,1.6-1,1.4-1.9l0,0c-0.1-0.9-1-1.6-1.9-1.4l-6.7,1
		c-0.9,0.1-1.6,1-1.4,1.9l0,0C2227.4,58.4,2228.2,59,2229.2,58.9L2229.2,58.9z M2228.2,52.9l6.7-1c0.9-0.1,1.6-1,1.4-1.9l0,0
		c-0.1-0.9-1-1.6-1.9-1.4l-6.7,1c-0.9,0.1-1.6,1-1.4,1.9l0,0C2226.4,52.4,2227.3,53,2228.2,52.9L2228.2,52.9z"/>
	
		<rect x="2256.4" y="35.4" transform="matrix(0.9879 -0.1548 0.1548 0.9879 18.1019 350.2768)" fill="#EB483E" width="3.4" height="47.1"/>
</g>
<g>
	<path fill="#999999" d="M2328.9,137.4c-0.7,0-1.2,0.3-1.7,0.7c-0.4,0.4-0.7,1-0.7,1.7v1.7c0,0.7-0.5,1.2-1.2,1.2s-1.2-0.5-1.2-1.2
		v-1.7c0-1.3,0.5-2.5,1.4-3.4c0.9-0.9,2.1-1.4,3.4-1.4V137.4z"/>
	<path fill="#808080" d="M2348,140.8v-5.5l-5.9-2.9l0,0c-0.4-0.3-0.9-0.4-1.5-0.4h-8.9c-1.6,0-3,1.3-3,3v5.9c0,1.6,1.3,3,3,3h8.9
		c0.5,0,1-0.1,1.5-0.4l0,0L2348,140.8z"/>
	<path fill="#999999" d="M2348.9,133.8h1.2c0.5,0,0.9,0.4,0.9,0.9v6.4c0,0.5-0.4,0.9-0.9,0.9h-1.2c-0.5,0-0.9-0.4-0.9-0.9v-6.4
		C2348,134.2,2348.4,133.8,2348.9,133.8L2348.9,133.8z"/>
	<rect x="2333.4" y="143.8" fill="#CCCCCC" width="5.9" height="3"/>
	<path fill="#82E0BF" d="M2342.1,158.5v14.8c0,3.2-2.7,5.9-5.9,5.9l0,0c-3.2,0-5.9-2.7-5.9-5.9v-14.8v-11.8h11.8L2342.1,158.5
		L2342.1,158.5z"/>
</g>
<g>
	<path fill="#873D1D" d="M2129.1,473.7h56c3.1,0,5.6,2.5,5.6,5.6v35.9c0,3.1-2.5,5.6-5.6,5.6h-56c-3.1,0-5.6-2.5-5.6-5.6v-35.9
		C2123.5,476.2,2126,473.7,2129.1,473.7L2129.1,473.7z"/>
	<path fill="#662A10" d="M2157.2,473.7h28c3.1,0,5.6,2.5,5.6,5.6v35.9c0,3.1-2.5,5.6-5.6,5.6h-28V473.7z"/>
	<path fill="#873D1D" d="M2157.2,473.7h31.4c1.2,0,2.3,1,2.3,2.2v15.7c0,1.2-1,2.2-2.3,2.2h-31.4V473.7z"/>
	<path fill="#EB4141" d="M2150.4,458.5h13.5c3.3,0,6.2,1.3,8.3,3.5c2.1,2.1,3.5,5.1,3.5,8.3v3.4h-3.4v-3.4c0-2.3-1-4.4-2.5-6
		c-1.5-1.5-3.6-2.5-6-2.5h-13.5c-2.3,0-4.4,0.9-6,2.5c-1.5,1.5-2.5,3.6-2.5,6v3.4h-3.4v-3.4c0-3.2,1.3-6.2,3.5-8.3
		C2144.2,459.8,2147.2,458.5,2150.4,458.5L2150.4,458.5z"/>
	<rect x="2170.6" y="470.3" fill="#E6AE35" width="6.7" height="3.4"/>
	<rect x="2136.9" y="470.3" fill="#E6AE35" width="6.7" height="3.4"/>
	<rect x="2150.4" y="457.6" fill="#E6AE35" width="13.5" height="5.1"/>
	<path fill="#AD532D" d="M2157.2,473.7h-31.4c-1.2,0-2.2,1-2.2,2.2v15.7c0,1.2,1,2.2,2.2,2.2h31.4V473.7z"/>
	<path fill="#FFCE63" d="M2154.6,490.4h5.1c1.4,0,2.5,1.1,2.5,2.5v5.1c0,1.4-1.1,2.5-2.5,2.5h-5.1c-1.4,0-2.5-1.1-2.5-2.5v-5.1
		C2152.1,491.6,2153.3,490.4,2154.6,490.4L2154.6,490.4z"/>
	<path fill="#E6AE35" d="M2157.2,490.4h2.5c1.4,0,2.5,1.1,2.5,2.5v5.1c0,1.4-1.1,2.5-2.5,2.5h-2.5V490.4z"/>
</g>
<g>
	<path fill="#FFBF36" d="M2165.1,382.6L2165.1,382.6h-3.2v3.2v5.4v5.4c0,1.8,1.5,3.2,3.2,3.2l0,0c1.8,0,3.2-1.5,3.2-3.2v-5.4v-5.4
		v-3.2H2165.1z"/>
	<path fill="#FCD515" d="M2161.9,380.5h6.5c0.6,0,1.1,0.5,1.1,1.1c0,0.6-0.5,1.1-1.1,1.1h-6.5c-0.6,0-1.1-0.5-1.1-1.1
		C2160.8,381,2161.3,380.5,2161.9,380.5L2161.9,380.5z"/>
	<path fill="#C3C4C4" d="M2169.1,360l-1.7-6c-0.1-0.4-0.4-0.6-0.8-0.6h-1.5h-1.5c-0.4,0-0.7,0.3-0.8,0.6l-1.7,6
		c-0.2,0.7-0.1,1.4,0.3,2.1l1.7,2.7c0.3,0.4,0.4,0.9,0.4,1.4v14.4h1.6h1.6v-14.4c0-0.5,0.1-1,0.4-1.4l1.7-2.7
		C2169.2,361.4,2169.3,360.7,2169.1,360z"/>
</g>
<g>
	<polygon fill="#B3B3B3" points="2136.5,131.7 2134.2,132.6 2142,153.4 2144.3,152.5 2146.6,151.6 2138.8,130.8 	"/>
	<path fill="#E6E6E6" d="M2127.8,121.9c-1.1,1.9-1.4,4.3-0.6,6.5c1.5,3.9,5.8,5.9,9.7,4.4s5.9-5.8,4.4-9.7c-0.8-2.2-2.6-3.8-4.7-4.5
		c-0.2-0.1-0.5,0-0.6,0.2c-0.2,0.2-0.2,0.4-0.1,0.6l1.7,4.6l-2.7,3.3l-4.2-0.7l-1.7-4.6c-0.1-0.2-0.3-0.4-0.5-0.4
		C2128.1,121.6,2127.9,121.7,2127.8,121.9L2127.8,121.9z"/>
	<path fill="#E6E6E6" d="M2144.1,165.2c-2.1-0.7-3.9-2.3-4.7-4.5c-1.5-3.9,0.5-8.2,4.4-9.7s8.2,0.5,9.7,4.4c0.8,2.2,0.5,4.6-0.6,6.5
		c-0.1,0.2-0.3,0.3-0.6,0.3c-0.2,0-0.4-0.2-0.5-0.4l-1.7-4.6l-4.2-0.7l-2.7,3.3l1.7,4.6c0.1,0.2,0,0.5-0.1,0.7
		C2144.5,165.2,2144.3,165.3,2144.1,165.2L2144.1,165.2z"/>
</g>
<g>
	
		<rect x="2535.1" y="56" transform="matrix(0.95 0.3122 -0.3122 0.95 152.4348 -792.9911)" fill="#F5F5F5" width="35.3" height="47.1"/>
	<path fill="#999999" d="M2552.7,60.9l11.2,3.7l0.5-1.4l-11.2-3.7L2552.7,60.9z M2541.5,75.9l22.3,7.4l0.5-1.4l-22.3-7.4
		L2541.5,75.9z M2542.5,73.1l22.3,7.4l0.5-1.4l-22.3-7.4L2542.5,73.1z M2543.4,70.3l22.3,7.4l0.5-1.4l-22.3-7.4L2543.4,70.3z
		 M2544.3,67.5l22.3,7.4l0.5-1.4l-22.3-7.4L2544.3,67.5z M2545.2,64.7l22.3,7.4l0.5-1.4l-22.3-7.4L2545.2,64.7z"/>
	<path fill="#999999" d="M2548.6,92.1l11.2,3.7l0.5-1.4l-11.2-3.7L2548.6,92.1z M2547.7,94.9l11.2,3.7l0.5-1.4l-11.2-3.7
		L2547.7,94.9z"/>
	<path fill="#999999" d="M2544.2,83.5c1.3,0.4,2.3,1.3,2.9,2.5c0.6,1.1,0.7,2.5,0.3,3.8c-0.4,1.3-1.3,2.3-2.5,2.9
		c-1.1,0.6-2.5,0.7-3.8,0.3c-1.3-0.4-2.3-1.3-2.9-2.5c-0.6-1.1-0.7-2.5-0.3-3.8s1.3-2.3,2.5-2.9
		C2541.6,83.2,2542.9,83.1,2544.2,83.5L2544.2,83.5z M2545.5,86.8c-0.4-0.7-1-1.3-1.8-1.6c-0.8-0.3-1.7-0.2-2.4,0.2s-1.3,1-1.6,1.8
		c-0.3,0.8-0.2,1.7,0.2,2.4c0.4,0.7,1,1.3,1.8,1.6c0.8,0.3,1.7,0.2,2.4-0.2c0.7-0.4,1.3-1,1.6-1.8
		C2545.9,88.3,2545.8,87.5,2545.5,86.8L2545.5,86.8z"/>
</g>
<g>
	<path fill="#B3B3B3" d="M2249.6,206.7c2.6,0,2.6,0,5.1,0c0-8.6,0-17.1,0-25.6C2249.6,183.7,2249.6,196.5,2249.6,206.7L2249.6,206.7
		z"/>
	<path fill="#FFBF36" d="M2249.6,206.7h5.1v15.2l0,0c0,3.5-2.9,6.4-6.4,6.4c-3.5,0-6.4-2.9-6.4-6.4c0-3.5,2.9-6.4,6.4-6.4
		c0.4,0,0.9,0,1.3,0.1V206.7L2249.6,206.7z M2250.5,220.6L2250.5,220.6L2250.5,220.6c-0.4-0.8-1.3-1.3-2.2-1.3
		c-1.4,0-2.6,1.1-2.6,2.6c0,1.4,1.1,2.6,2.6,2.6c1.4,0,2.6-1.1,2.6-2.6C2250.9,221.4,2250.7,220.9,2250.5,220.6L2250.5,220.6z"/>
	<path fill="#999999" d="M2259.8,206.7c-2.6,0-2.6,0-5.1,0c0-8.6,0-17.1,0-25.6C2259.8,183.7,2259.8,196.5,2259.8,206.7
		L2259.8,206.7z"/>
	<path fill="#E68C1E" d="M2261.1,215.4c-0.4,0-0.9,0-1.3,0.1v-8.9h-5.1v15.2l0,0c0,3.5,2.9,6.4,6.4,6.4c3.5,0,6.4-2.9,6.4-6.4
		C2267.5,218.3,2264.7,215.4,2261.1,215.4L2261.1,215.4z M2258.9,220.6L2258.9,220.6L2258.9,220.6c0.4-0.8,1.3-1.3,2.2-1.3
		c1.4,0,2.6,1.1,2.6,2.6c0,1.4-1.1,2.6-2.6,2.6c-1.4,0-2.6-1.1-2.6-2.6C2258.6,221.4,2258.7,220.9,2258.9,220.6L2258.9,220.6z"/>
	<path fill="#E6E6E6" d="M2254.7,201.5c2.8,0,5.1,2.3,5.1,5.1s-2.3,5.1-5.1,5.1s-5.1-2.3-5.1-5.1S2251.9,201.5,2254.7,201.5
		L2254.7,201.5z"/>
	<path fill="#CCCCCC" d="M2254.7,204.1c1.4,0,2.6,1.1,2.6,2.6s-1.1,2.6-2.6,2.6c-1.4,0-2.6-1.2-2.6-2.6S2253.3,204.1,2254.7,204.1
		L2254.7,204.1z"/>
</g>
<g>
	<path fill="#EBDEBC" d="M2355.5,343.7l-2.7,1.6l4.6,8l2.7-1.6l5.1-7.8c0.1-0.2,0.1-0.4,0-0.6s-0.3-0.3-0.5-0.3L2355.5,343.7z"/>
	<path fill="#FF4063" d="M2365.3,343.9l-1.3,2l-1.6-2.7l2.4-0.1c0.2,0,0.4,0.1,0.5,0.3C2365.4,343.5,2365.4,343.7,2365.3,343.9
		L2365.3,343.9z"/>
	<path fill="#1DA39C" d="M2319.6,375.2c6.3-3.6,34.3-19.8,40.6-23.4l-1.5-0.5l0.3-1.5l-1.5-0.5l0.3-1.5l-1.5-0.5l0.3-1.5l-1.5-0.5
		l0.3-1.5l-40.6,23.4L2319.6,375.2z"/>
	<polygon fill="#36C291" points="2358,349.4 2357.5,349.2 2357.8,347.7 2356.3,347.2 2356.4,346.7 2316.5,369.8 2318,372.5 	"/>
	<path fill="#82E0BF" d="M2319.6,375.2c6.3-3.6,34.3-19.8,40.6-23.4l-1.5-0.5l0.3-1.5l-1-0.3l-40,23.1L2319.6,375.2z"/>
	
		<rect x="2313.7" y="367.5" transform="matrix(-0.8657 0.5006 -0.5006 -0.8657 4506.4932 -464.7919)" fill="#B3B3B3" width="3.9" height="9.3"/>
	<path fill="#E6E6E6" d="M2312.2,379.4l2-1.2l2-1.2l-1.2-2l-2.3-4l-1.2-2l-2,1.2l-2,1.2c-1.1,0.6-1.5,2.1-0.9,3.2l2.3,4
		C2309.7,379.6,2311.1,380,2312.2,379.4L2312.2,379.4z"/>
</g>
<g>
	<path fill="#EBDEBC" d="M2045,49.7l-2.7,1.6l4.6,8l2.7-1.6l5.1-7.8c0.1-0.2,0.1-0.4,0-0.6c-0.1-0.2-0.3-0.3-0.5-0.3L2045,49.7z"/>
	<path fill="#FF4063" d="M2054.7,50l-1.3,2l-1.6-2.7l2.4-0.1c0.2,0,0.4,0.1,0.5,0.3C2054.8,49.6,2054.8,49.8,2054.7,50L2054.7,50z"
		/>
	<path fill="#1DA39C" d="M2009.1,81.1c6.3-3.6,34.3-19.8,40.6-23.4l-1.5-0.5l0.3-1.5l-1.5-0.5l0.3-1.5l-1.5-0.5l0.3-1.5l-1.5-0.5
		l0.3-1.5l-40.6,23.4L2009.1,81.1z"/>
	<polygon fill="#36C291" points="2047.5,55.3 2047,55.1 2047.3,53.7 2045.9,53.2 2046,52.7 2006,75.8 2007.5,78.5 	"/>
	<path fill="#82E0BF" d="M2009.1,81.1c6.3-3.6,34.3-19.8,40.6-23.4l-1.5-0.5l0.3-1.5l-1-0.3l-40,23.1L2009.1,81.1z"/>
	
		<rect x="2003.2" y="73.4" transform="matrix(-0.8657 0.5006 -0.5006 -0.8657 3780.0195 -858.1617)" fill="#B3B3B3" width="3.9" height="9.3"/>
	<path fill="#E6E6E6" d="M2001.7,85.4l2-1.2l2-1.2l-1.2-2l-2.3-4l-1.2-2l-2,1.2l-2,1.2c-1.1,0.6-1.5,2.1-0.9,3.2l2.3,4
		C1999.2,85.7,2000.6,86,2001.7,85.4L2001.7,85.4z"/>
</g>
<g>
	<path fill="#EBDEBC" d="M2147.1,256.6l2,2.4l7.1-6.1l-2-2.4l-8.6-3.6c-0.2-0.1-0.4-0.1-0.6,0.1c-0.2,0.2-0.2,0.3-0.2,0.5
		L2147.1,256.6z"/>
	<path fill="#333333" d="M2145.6,246.9l2.2,0.9l-2.4,2l-0.6-2.3c-0.1-0.2,0-0.4,0.2-0.5S2145.4,246.8,2145.6,246.9L2145.6,246.9z"/>
	<path fill="#E88B00" d="M2168.3,267c-4.7-5.5-9.5-11-14.2-16.5l-0.2,1.5h-1.6l-0.2,1.5h-1.6l-0.2,1.5h-1.6l-0.2,1.5h-1.6l14.2,16.5
		L2168.3,267z"/>
	<polygon fill="#E8AA00" points="2152.3,253 2152.2,253.6 2150.7,253.5 2150.5,255.1 2149.9,255.1 2163.6,271 2166,269.1 	"/>
	<path fill="#FFCF4C" d="M2168.3,267c-4.7-5.5-9.5-11-14.2-16.5l-0.2,1.5h-1.6l-0.1,1l13.8,16L2168.3,267z"/>
	
		<rect x="2164.2" y="266.8" transform="matrix(0.6517 0.7585 -0.7585 0.6517 960.4025 -1548.4313)" fill="#E6E6E6" width="3.9" height="9.3"/>
	<path fill="#F29EBF" d="M2173.9,273.4l-1.5-1.8l-1.5-1.8l-1.8,1.5l-3.5,3l-1.8,1.5l1.5,1.8l1.5,1.8c0.8,1,2.3,1.1,3.3,0.3l3.5-3
		C2174.6,275.9,2174.8,274.4,2173.9,273.4L2173.9,273.4z"/>
</g>
<g>
	<path fill="#EBDEBC" d="M1408.6,178.8l-1.6,2.7l8,4.8l1.6-2.7l0.7-9.3c0-0.2-0.1-0.4-0.3-0.5c-0.2-0.1-0.4-0.1-0.6,0L1408.6,178.8z
		"/>
	<path fill="#333333" d="M1417.3,174.2l-0.2,2.4l-2.7-1.6l2-1.3c0.2-0.1,0.4-0.1,0.6,0C1417.2,173.8,1417.3,174,1417.3,174.2
		L1417.3,174.2z"/>
	<path fill="#E88B00" d="M1405.5,202.2c3.7-6.2,7.5-12.5,11.2-18.6l-1.5,0.3l-0.5-1.5l-1.5,0.3l-0.5-1.5l-1.5,0.3l-0.5-1.5l-1.5,0.3
		l-0.5-1.5l-11.2,18.6L1405.5,202.2z"/>
	<polygon fill="#E8AA00" points="1413.6,182.6 1413.1,182.7 1412.6,181.2 1411.1,181.5 1410.9,181 1400.2,199 1402.8,200.6 	"/>
	<path fill="#FFCF4C" d="M1405.5,202.2c3.7-6.2,7.5-12.5,11.2-18.6l-1.5,0.3l-0.5-1.5l-1,0.2l-10.9,18L1405.5,202.2z"/>
	
		<rect x="1398.5" y="196.9" transform="matrix(-0.5138 0.8579 -0.8579 -0.5138 2292.8726 -896.337)" fill="#E6E6E6" width="3.9" height="9.3"/>
	<path fill="#F29EBF" d="M1401.1,209.5l1.2-2l1.2-2l-2-1.2l-4-2.4l-2-1.2l-1.2,2l-1.2,2c-0.7,1.1-0.3,2.5,0.8,3.2l4,2.4
		C1399,211,1400.4,210.6,1401.1,209.5L1401.1,209.5z"/>
</g>
<g>
	<path fill="#BF7C6F" d="M2437,159.8h14c1.3,0,2.4,1.1,2.4,2.4v1.4c0,1.3-1.1,2.4-2.4,2.4h-14c-1.3,0-2.4-1.1-2.4-2.4v-1.4
		C2434.6,160.9,2435.7,159.8,2437,159.8L2437,159.8z"/>
	<path fill="#945346" d="M2453.3,162.9v0.7c0,1.3-1.1,2.4-2.4,2.4h-14c-1.3,0-2.4-1.1-2.4-2.4v-0.7H2453.3z"/>
	<path fill="#306E94" d="M2445.6,159.8h5.4c1.3,0,2.4,1.1,2.4,2.4v1.4c0,1.3-1.1,2.4-2.4,2.4h-5.4V159.8z"/>
	<path fill="#144A6B" d="M2453.3,162.9v0.7c0,1.3-1.1,2.4-2.4,2.4h-5.4v-3.1L2453.3,162.9L2453.3,162.9z"/>
</g>
<g>
	<path fill="#BF7C6F" d="M2101.9,596.5l13,5.3c1.2,0.5,1.8,1.9,1.3,3.2l-0.5,1.3c-0.5,1.2-1.9,1.8-3.2,1.3l-13-5.3
		c-1.2-0.5-1.8-1.9-1.3-3.2l0.5-1.3C2099.2,596.6,2100.7,596,2101.9,596.5L2101.9,596.5z"/>
	<path fill="#945346" d="M2116,605.6l-0.3,0.7c-0.5,1.2-1.9,1.8-3.2,1.3l-13-5.3c-1.2-0.5-1.8-1.9-1.3-3.2l0.3-0.7L2116,605.6z"/>
	<path fill="#306E94" d="M2109.9,599.7l5,2.1c1.2,0.5,1.8,1.9,1.3,3.2l-0.5,1.3c-0.5,1.2-1.9,1.8-3.2,1.3l-5-2.1L2109.9,599.7z"/>
	<path fill="#144A6B" d="M2116,605.6l-0.3,0.7c-0.5,1.2-1.9,1.8-3.2,1.3l-5-2.1l1.2-2.9L2116,605.6z"/>
</g>
<g>
	<path fill="#82E0BF" d="M2381.1,47.4h39.5c1.3,0,2.4,1.1,2.4,2.4v6.5c0,1.3-1.1,2.4-2.4,2.4h-39.5c-1.3,0-2.4-1.1-2.4-2.4v-6.5
		C2378.7,48.5,2379.8,47.4,2381.1,47.4L2381.1,47.4z"/>
	<path fill="#1DA39C" d="M2420.3,58.6h-1.1V52c0-0.3,0.3-0.6,0.6-0.6l0,0c0.3,0,0.6,0.3,0.6,0.6L2420.3,58.6L2420.3,58.6z
		 M2418.4,58.6h-1.1v-2.5c0-0.3,0.2-0.6,0.6-0.6l0,0c0.3,0,0.5,0.2,0.5,0.6V58.6z M2416.5,58.6h-1.1v-2.5c0-0.3,0.2-0.6,0.6-0.6l0,0
		c0.3,0,0.5,0.2,0.5,0.6V58.6z M2414.6,58.6h-1.1v-2.5c0-0.3,0.2-0.6,0.5-0.6l0,0c0.3,0,0.6,0.2,0.6,0.6V58.6z M2412.8,58.6h-1.1
		v-2.5c0-0.3,0.3-0.6,0.6-0.6l0,0c0.3,0,0.6,0.2,0.6,0.6L2412.8,58.6L2412.8,58.6z M2410.9,58.6h-1.1V54c0-0.3,0.2-0.6,0.6-0.6l0,0
		c0.3,0,0.6,0.2,0.6,0.6L2410.9,58.6L2410.9,58.6z M2409,58.6h-1.1v-2.5c0-0.3,0.2-0.6,0.6-0.6l0,0c0.3,0,0.5,0.2,0.5,0.6V58.6z
		 M2407.1,58.6h-1.1v-2.5c0-0.3,0.2-0.6,0.5-0.6l0,0c0.3,0,0.6,0.2,0.6,0.6V58.6z M2405.3,58.6h-1.1v-2.5c0-0.3,0.3-0.6,0.6-0.6l0,0
		c0.3,0,0.6,0.2,0.6,0.6L2405.3,58.6L2405.3,58.6z M2403.4,58.6h-1.1v-2.5c0-0.3,0.3-0.6,0.6-0.6l0,0c0.3,0,0.6,0.2,0.6,0.6
		L2403.4,58.6L2403.4,58.6z M2401.5,58.6h-1.1V52c0-0.3,0.2-0.6,0.6-0.6l0,0c0.3,0,0.5,0.3,0.5,0.6V58.6z M2399.6,58.6h-1.1v-2.5
		c0-0.3,0.2-0.6,0.5-0.6l0,0c0.3,0,0.6,0.2,0.6,0.6V58.6z M2397.7,58.6h-1.1v-2.5c0-0.3,0.3-0.6,0.6-0.6l0,0c0.3,0,0.6,0.2,0.6,0.6
		L2397.7,58.6L2397.7,58.6z M2395.8,58.6h-1.1v-2.5c0-0.3,0.3-0.6,0.6-0.6l0,0c0.3,0,0.6,0.2,0.6,0.6L2395.8,58.6L2395.8,58.6z
		 M2393.9,58.6h-1.1v-2.5c0-0.3,0.2-0.6,0.6-0.6l0,0c0.3,0,0.5,0.2,0.5,0.6V58.6z M2392,58.6h-1.1V54c0-0.3,0.2-0.6,0.5-0.6l0,0
		c0.3,0,0.6,0.2,0.6,0.6V58.6z M2390.1,58.6h-1.1v-2.5c0-0.3,0.3-0.6,0.6-0.6l0,0c0.3,0,0.6,0.2,0.6,0.6L2390.1,58.6L2390.1,58.6z
		 M2388.2,58.6h-1.1v-2.5c0-0.3,0.3-0.6,0.6-0.6l0,0c0.3,0,0.6,0.2,0.6,0.6L2388.2,58.6L2388.2,58.6z M2386.4,58.6h-1.1v-2.5
		c0-0.3,0.2-0.6,0.6-0.6l0,0c0.3,0,0.5,0.2,0.5,0.6V58.6z M2384.5,58.6h-1.1v-2.5c0-0.3,0.2-0.6,0.5-0.6l0,0c0.3,0,0.6,0.2,0.6,0.6
		V58.6z M2382.6,58.6h-1.1V52c0-0.3,0.3-0.6,0.6-0.6l0,0c0.3,0,0.6,0.3,0.6,0.6L2382.6,58.6L2382.6,58.6z"/>
	<path fill="#68D1AC" d="M2400.9,30.6c9.9,0,18,7.3,19.4,16.9h-8.6c-1.3-4.8-5.7-8.4-10.9-8.4s-9.6,3.6-10.9,8.4h-8.6
		C2382.8,37.9,2391,30.6,2400.9,30.6L2400.9,30.6z"/>
</g>
<g>
	
		<rect x="1510.8" y="418.6" transform="matrix(0.8947 -0.4467 0.4467 0.8947 -27.6519 722.0192)" fill="#88989F" width="13.3" height="2.2"/>
	
		<rect x="1517.1" y="417.1" transform="matrix(0.8947 -0.4467 0.4467 0.8947 -26.6832 723.1957)" fill="#6C787F" width="6.6" height="2.2"/>
	<path fill="#6C787F" d="M1517.9,420.6c2.2-1.1,2.5-1.2,4.7-2.3c-1.5,0.7-2.1,2.6-1.4,4l0.7,1.3l3.6,7.1l8.3,16.5c1,2,3,5.9,2,8.9
		c-3-1-4.9-4.9-5.9-6.9l-8.3-16.5l-3.6-7.1l-0.7-1.3c-0.7-1.5-2.6-2.1-4-1.4C1515.4,421.8,1515.7,421.7,1517.9,420.6L1517.9,420.6z"
		/>
	<path fill="#505B60" d="M1517.9,420.6c2.2-1.1,2.5-1.2,4.7-2.3c-1.5,0.7-2.1,2.6-1.4,4l0.7,1.3l3.6,7.1l8.3,16.5c1,2,3,5.9,2,8.9
		L1517.9,420.6z"/>
</g>
<g>
	
		<rect x="1422.3" y="617" transform="matrix(0.8186 0.5744 -0.5744 0.8186 614.2561 -708.6209)" fill="#88989F" width="13.3" height="2.2"/>
	<path fill="#6C787F" d="M1428.4,619.1c2,1.4,2.2,1.6,4.3,3c-1.4-1-3.2-0.6-4.2,0.7l-0.9,1.2l-4.6,6.5l-10.6,15.1
		c-1.3,1.8-3.8,5.4-6.9,6c-0.5-3.1,2-6.7,3.3-8.5l10.6-15.1l4.6-6.5l0.9-1.2c1-1.4,0.6-3.2-0.7-4.2
		C1426.1,617.5,1426.3,617.7,1428.4,619.1L1428.4,619.1z"/>
	<path fill="#505B60" d="M1428.4,619.1c2,1.4,2.2,1.6,4.3,3c-1.4-1-3.2-0.6-4.2,0.7l-0.9,1.2l-4.6,6.5l-10.6,15.1
		c-1.3,1.8-3.8,5.4-6.9,6L1428.4,619.1z"/>
	<path fill="#AEBEC4" d="M1406.5,646.3l4.9,0.7l2.7,0.4l-1.5-2l-7.6-1L1406.5,646.3z M1422.8,623.3l-2.7-0.4l1.5,2l4.9,0.7l2.7,0.4
		l-1.5-2L1422.8,623.3z M1419.8,627.5l-2.7-0.4l1.5,2l4,0.5l3.6,0.5l-1.5-2L1419.8,627.5z M1416.7,631.7l-2.7-0.4l1.5,2l4.9,0.7
		l2.7,0.4l-1.5-2L1416.7,631.7z M1413.7,636l-2.7-0.4l1.5,2l4.9,0.7l2.7,0.4l-1.5-2L1413.7,636z M1410.7,640.3l-2.7-0.4l1.5,2
		l4.9,0.7l2.7,0.4l-1.5-2L1410.7,640.3z"/>
	<path fill="#88989F" d="M1409,646.6l2.4,0.3l2.7,0.4l-1.5-2l-2.5-0.3L1409,646.6z M1412,642.3l1.1-1.6l2.5,0.3l1.5,2l-2.7-0.4
		L1412,642.3z M1415,638l1.1-1.6l2.5,0.3l1.5,2l-2.7-0.4L1415,638z M1418,633.7l1.1-1.6l2.5,0.3l1.5,2l-2.7-0.4L1418,633.7z
		 M1421,629.5l1.1-1.6l2.5,0.3l1.5,2l-3.6-0.5L1421,629.5z M1424.1,625.2l1.1-1.6l2.5,0.3l1.5,2l-2.7-0.4L1424.1,625.2z"/>
	
		<rect x="1428.4" y="618.9" transform="matrix(0.8186 0.5744 -0.5744 0.8186 615.8722 -709.8528)" fill="#6C787F" width="6.6" height="2.2"/>
</g>
<g>
	
		<rect x="1393.6" y="38.7" transform="matrix(0.623 -0.7822 0.7822 0.623 496.6966 1110.2722)" fill="#88989F" width="13.3" height="2.2"/>
	<path fill="#6C787F" d="M1401,40.5c1.5-1.9,1.7-2.1,3.3-4.1c-1,1.3-0.8,3.2,0.5,4.2l1.2,0.9l6.2,5l14.5,11.5
		c1.7,1.4,5.2,4.1,5.5,7.2c-3.1,0.4-6.6-2.4-8.3-3.8L1409.3,50l-6.2-5l-1.2-0.9c-1.3-1-3.2-0.8-4.2,0.5
		C1399.3,42.7,1399.5,42.5,1401,40.5L1401,40.5z"/>
	<path fill="#505B60" d="M1401,40.5c1.5-1.9,1.7-2.1,3.3-4.1c-1,1.3-0.8,3.2,0.5,4.2l1.2,0.9l6.2,5l14.5,11.5
		c1.7,1.4,5.2,4.1,5.5,7.2L1401,40.5z"/>
	<path fill="#AEBEC4" d="M1426.8,63.9l0.9-4.9l0.5-2.7l-2.1,1.4l-1.5,7.5L1426.8,63.9z M1404.9,46.4l-0.6,2.6l2.1-1.4l1-4.9l0.5-2.7
		l-2.1,1.5L1404.9,46.4z M1408.9,49.6l-0.5,2.7l2.1-1.4l0.8-4l0.7-3.5l-2.1,1.4L1408.9,49.6z M1413,52.9l-0.5,2.7l2.1-1.4l1-4.9
		l0.5-2.7l-2.2,1.4L1413,52.9z M1417.1,56.1l-0.5,2.7l2.1-1.4l1-4.9l0.5-2.7l-2.1,1.4L1417.1,56.1z M1421.2,59.3l-0.5,2.7l2.1-1.4
		l1-4.9l0.5-2.7l-2.1,1.4L1421.2,59.3z"/>
	<path fill="#88989F" d="M1427.3,61.4l0.5-2.4l0.5-2.7l-2.1,1.4l-0.5,2.4L1427.3,61.4z M1423.2,58.2l-1.5-1.3l0.5-2.4l2.1-1.4
		l-0.6,2.7L1423.2,58.2z M1419.1,54.9l-1.6-1.2l0.5-2.4l2.1-1.4l-0.5,2.7L1419.1,54.9z M1415,51.7l-1.6-1.2l0.5-2.4l2.1-1.4
		l-0.5,2.7L1415,51.7z M1410.9,48.5l-1.6-1.2l0.5-2.4l2.1-1.4l-0.7,3.5L1410.9,48.5z M1406.8,45.2l-1.6-1.2l0.5-2.4l2.1-1.4
		l-0.5,2.7L1406.8,45.2z"/>
	
		<rect x="1399" y="36.1" transform="matrix(0.623 -0.7822 0.7822 0.623 499.511 1110.9165)" fill="#6C787F" width="6.6" height="2.2"/>
</g>
<g>
	<polygon fill="#6C787F" points="1563,572.9 1546,572.9 1550.8,607 1563,607 1575.2,607 1580.1,572.9 	"/>
	<path fill="#AEBEC4" d="M1546.4,571.5h32.7c1,0,1.8,0.8,1.8,1.8l0,0c0,1-0.8,1.8-1.8,1.8h-32.7c-1,0-1.8-0.8-1.8-1.8l0,0
		C1544.6,572.3,1545.4,571.5,1546.4,571.5L1546.4,571.5z"/>
	<path fill="#FFFFFF" d="M1572.8,571.5h-3.6h-1.3h-2.4c1.3,0,2.4,1.1,2.4,2.4l0,0v0.3l0,0c0.1,1.2,1.2,2.2,2.4,2.2l0,0
		c1.3,0,2.4-1.1,2.4-2.4L1572.8,571.5L1572.8,571.5z M1563,574.2L1563,574.2v-0.3c0-1.3,1.1-2.4,2.4-2.4h-2.4h-1.3h-2h-1.6h-1.2
		c0.7,0,1.2,0.5,1.2,1.2v1.1v9.9c0,1.3,1.1,2.4,2.4,2.4l0,0c1.3,0,2.4-1.1,2.4-2.4L1563,574.2L1563,574.2z M1555.7,571.5h1.2
		c-0.7,0-1.2,0.5-1.2,1.2v1.1v5c0,1.3-1.1,2.4-2.4,2.4l0,0c-1.3,0-2.4-1.1-2.4-2.4v-7.3h3H1555.7z"/>
	<path fill="#AEBEC4" d="M1577.1,571.5v-4.3c0-2.6-1-4.9-2.7-6.6c-1.7-1.7-4-2.7-6.6-2.7h-10c-2.6,0-4.9,1.1-6.6,2.7
		c-1.7,1.7-2.7,4-2.7,6.6v4.3h-1.9v-4.3c0-3.1,1.3-5.9,3.3-8c2-2,4.9-3.3,8-3.3h10c3.1,0,5.9,1.3,8,3.3c2,2,3.3,4.9,3.3,8v4.3
		H1577.1z"/>
	<path fill="#AEBEC4" d="M1550.4,603.4h24.7c1,0,1.8,0.8,1.8,1.8l0,0c0,1-0.8,1.8-1.8,1.8h-24.7c-1,0-1.8-0.8-1.8-1.8l0,0
		C1548.7,604.2,1549.5,603.4,1550.4,603.4L1550.4,603.4z"/>
	<path fill="#EB4141" d="M1556.9,554.9h11.8c0.4,0,0.8,0.3,0.8,0.8v2.2c0,0.4-0.3,0.8-0.8,0.8h-11.8c-0.4,0-0.8-0.3-0.8-0.8v-2.2
		C1556.1,555.3,1556.4,554.9,1556.9,554.9L1556.9,554.9z"/>
</g>
<g>
	<path fill="#FFBF36" d="M1608.5,625.7h-7.8v1.4c0,0.6,0.2,1.1,0.7,1.5l3.3,2.8c1.2,1.1,1.9,2.5,1.8,4.2c-0.2,4.6-0.9,9.3-0.9,13.9
		c0,1.6,1.3,2.9,2.9,2.9c1.6,0,2.9-1.3,2.9-2.9c0-4.6-0.7-9.3-0.9-13.9c-0.1-1.6,0.5-3.1,1.8-4.2l3.3-2.8c0.4-0.4,0.7-0.9,0.7-1.5
		v-1.4H1608.5z"/>
	<path fill="#D6C8B3" d="M1600.7,610.4l1.5,0.8l2.4-0.8l1.5,0.8l2.4-0.8l1.5,0.8l2.4-0.8l1.5,0.8l2.4-0.8v15.5h-15.5
		C1600.7,620.7,1600.7,615.6,1600.7,610.4L1600.7,610.4z"/>
	<rect x="1600.7" y="622" fill="#808080" width="15.5" height="3.9"/>
	<path fill="#C3C4C4" d="M1616.2,624.5c0.3,0,0.5-0.2,0.5-0.5c0-0.3-0.2-0.5-0.5-0.5h-15.5c-0.3,0-0.5,0.2-0.5,0.5
		c0,0.3,0.2,0.5,0.5,0.5H1616.2z"/>
	<path fill="#C3C4C4" d="M1616.2,626.9c0.3,0,0.5-0.2,0.5-0.5c0-0.3-0.2-0.5-0.5-0.5h-15.5c-0.3,0-0.5,0.2-0.5,0.5
		c0,0.3,0.2,0.5,0.5,0.5H1616.2z"/>
	<path fill="#C3C4C4" d="M1616.2,622c0.3,0,0.5-0.2,0.5-0.5c0-0.3-0.2-0.5-0.5-0.5h-15.5c-0.3,0-0.5,0.2-0.5,0.5
		c0,0.3,0.2,0.5,0.5,0.5H1616.2z"/>
	<path fill="#FFFFFF" d="M1601.8,608.2h13.3c0.6,0,1.1,0.5,1.1,1.1v1.6v2.5v1.1h-1.1h-3.2c-0.5,0-0.9,0.4-0.9,0.9v1.2
		c0,0.5-0.4,0.9-0.9,0.9c-0.5,0-0.9-0.4-0.9-0.9v-1.2c0-0.5-0.4-0.9-0.9-0.9c-0.5,0-0.9,0.4-0.9,0.9v2.9c0,0.5-0.4,0.9-0.9,0.9
		c-0.5,0-0.9-0.4-0.9-0.9v-2.9c0-0.5-0.4-0.9-0.9-0.9c-0.5,0-0.9,0.4-0.9,0.9v0.6c0,0.5-0.4,0.9-0.9,0.9s-0.9-0.4-0.9-0.9v-0.6
		c0-0.5-0.4-0.9-0.9-0.9h-0.9v-1.1v-2.5v-1.5C1600.7,608.7,1601.2,608.2,1601.8,608.2L1601.8,608.2z"/>
</g>
<g>
	<path fill="#604E75" d="M1652.7,477.4c6.6,0,11.9,5.3,11.9,11.9c0,0.1,0,0.2,0,0.3c0,0.1,0,0.1,0,0.2v7.9c0,1.9-1.6,3.5-3.5,3.5
		h-8.4h-8.4c-1.9,0-3.5-1.6-3.5-3.5v-7.9c0-0.1,0-0.1,0-0.2s0-0.2,0-0.3C1640.8,482.7,1646.1,477.4,1652.7,477.4L1652.7,477.4z"/>
	<rect x="1637.8" y="492.1" fill="#FFBD2E" width="3" height="5.9"/>
	<path fill="#FFBD2E" d="M1652.7,494.8c3.3,0,5.9-2.7,5.9-5.9c0-3.3-2.7-5.9-5.9-5.9c-3.3,0-5.9,2.7-5.9,5.9
		C1646.7,492.1,1649.4,494.8,1652.7,494.8L1652.7,494.8z"/>
	<rect x="1664.4" y="495.1" fill="#FFBD2E" width="48.1" height="3"/>
	<path fill="#666666" d="M1711.8,501c-0.4,0-0.7-0.3-0.7-0.7v-5.2h1.5v5.2C1712.5,500.7,1712.2,501,1711.8,501L1711.8,501z"/>
</g>
<g>
	<path fill="#FFCF33" d="M2401.8,240.2l62-15.2c0.6-0.2,1.3,0.2,1.4,0.9l2,8.1c0.2,0.6-0.2,1.3-0.9,1.4l-62,15.2
		c-0.6,0.2-1.3-0.2-1.4-0.9l-2-8.1C2400.8,241,2401.2,240.3,2401.8,240.2L2401.8,240.2z"/>
	<path fill="#CF8619" d="M2404.1,243.5L2404.1,243.5c0.2-0.1,0.5,0.1,0.5,0.3l1.4,5.9c0.1,0.2-0.1,0.5-0.3,0.5l0,0
		c-0.2,0.1-0.5-0.1-0.5-0.3l-1.4-5.9C2403.8,243.8,2403.9,243.6,2404.1,243.5L2404.1,243.5z M2434.8,242.7L2434.8,242.7l-1.4-5.9
		l0,0l0,0l0,0l0,0l0,0l0,0l0,0l0,0l0,0l0,0l0,0l0,0l0,0l0,0l0,0l0,0l0,0l0,0l0,0l0,0l0,0l0,0l0,0l0,0l0,0l0,0l0,0l0,0l0,0l0,0l0,0
		l0,0l0,0l0,0l0,0l0,0l0,0l0,0l0,0l0,0l0,0l0,0l0,0l0,0l0,0l0,0l0,0l0,0l0,0l0,0l0,0l0,0l0,0l0,0l0,0l0,0l0,0l0,0l0,0l0,0l0,0l0,0
		l0,0l0,0l0,0l0,0l0,0l0,0l0,0l0,0l0,0l0,0l0,0l0,0l0,0l0,0l0,0l0,0l0,0l0,0l0,0l0,0l0,0l0,0l0,0l0,0l0,0l0,0l0,0l0,0l0,0l0,0l0,0
		l0,0l0,0l0,0l0,0l0,0l0,0l0,0l0,0l0,0l0,0l0,0l0,0l0,0l0,0l0,0l0,0l0,0l0,0l0,0l0,0l0,0l0,0l0,0l0,0l0,0l0,0l0,0l0,0l0,0l0,0l0,0
		l0,0l0,0l0,0l0,0l0,0l0,0l0,0l0,0l0,0l0,0l0,0l0,0l0,0l0,0l0,0l0,0l0,0l0,0l0,0l0,0l0,0l0,0l0,0l0,0l0,0l0,0l0,0l0,0l0,0l0,0l0,0
		l0,0l0,0l0,0l0,0l0,0l0,0l0,0l0,0l0,0l0,0l0,0l0,0l0,0l0,0l0,0l0,0l0,0l0,0l0,0l0,0l0,0l0,0l0,0l0,0l0,0l0,0l0,0l0,0l0,0l0,0l0,0
		l0,0l0,0l0,0l0,0l0,0l0,0l0,0l0,0l0,0l0,0l0,0l0,0l0,0l0,0l0,0l0,0l0,0l0,0l0,0l0,0l0,0l0,0l0,0l0,0l0,0l0,0l0,0l0,0l0,0l0,0l0,0
		l0,0l0,0l0,0l0,0l0,0l0,0l0,0l0,0l0,0l0,0l0,0l0,0l0,0l0,0l0,0l0,0l0,0l0,0l0,0l0,0l0,0l0,0l0,0l0,0l0,0l0,0l0,0l0,0L2434.8,242.7
		L2434.8,242.7L2434.8,242.7L2434.8,242.7L2434.8,242.7L2434.8,242.7L2434.8,242.7L2434.8,242.7L2434.8,242.7L2434.8,242.7
		L2434.8,242.7L2434.8,242.7L2434.8,242.7L2434.8,242.7L2434.8,242.7L2434.8,242.7L2434.8,242.7L2434.8,242.7L2434.8,242.7
		L2434.8,242.7L2434.8,242.7L2434.8,242.7L2434.8,242.7L2434.8,242.7L2434.8,242.7L2434.8,242.7L2434.8,242.7L2434.8,242.7
		L2434.8,242.7L2434.8,242.7L2434.8,242.7L2434.8,242.7L2434.8,242.7L2434.8,242.7L2434.8,242.7L2434.8,242.7L2434.8,242.7
		L2434.8,242.7L2434.8,242.7L2434.8,242.7L2434.8,242.7L2434.8,242.7L2434.8,242.7L2434.8,242.7L2434.8,242.7L2434.8,242.7
		L2434.8,242.7L2434.8,242.7L2434.8,242.7L2434.8,242.7L2434.8,242.7L2434.8,242.7L2434.8,242.7L2434.8,242.7L2434.8,242.7
		L2434.8,242.7L2434.8,242.7L2434.8,242.7L2434.8,242.7L2434.8,242.7L2434.8,242.7L2434.8,242.7L2434.8,242.7L2434.8,242.7
		L2434.8,242.7L2434.8,242.7L2434.8,242.7L2434.8,242.7L2434.8,242.7L2434.8,242.7L2434.8,242.7L2434.8,242.7L2434.8,242.7
		L2434.8,242.7L2434.8,242.7L2434.8,242.7L2434.8,242.7L2434.8,242.7L2434.8,242.7L2434.8,242.7L2434.8,242.7L2434.8,242.7
		L2434.8,242.7L2434.8,242.7L2434.8,242.7L2434.8,242.7L2434.8,242.7L2434.8,242.7L2434.8,242.7L2434.8,242.7L2434.8,242.7
		L2434.8,242.7L2434.8,242.7L2434.8,242.7L2434.8,242.7L2434.8,242.7L2434.8,242.7L2434.8,242.7L2434.8,242.7L2434.8,242.7
		L2434.8,242.7L2434.8,242.7L2434.8,242.7L2434.8,242.7L2434.8,242.7L2434.8,242.7L2434.8,242.7L2434.8,242.7L2434.8,242.7
		L2434.8,242.7L2434.8,242.7L2434.8,242.7L2434.8,242.7L2434.8,242.7L2434.8,242.7L2434.8,242.7L2434.8,242.7L2434.8,242.7
		L2434.8,242.7L2434.8,242.7L2434.8,242.7L2434.8,242.7L2434.8,242.7L2434.8,242.7L2434.8,242.7L2434.8,242.7L2434.8,242.7
		L2434.8,242.7L2434.8,242.7L2434.8,242.7L2434.8,242.7L2434.8,242.7L2434.8,242.7L2434.8,242.7L2434.8,242.7L2434.8,242.7
		L2434.8,242.7L2434.8,242.7L2434.8,242.7L2434.8,242.7L2434.8,242.7L2434.8,242.7L2434.8,242.7L2434.8,242.7L2434.8,242.7
		L2434.8,242.7L2434.8,242.7L2434.8,242.7L2434.8,242.7L2434.8,242.7L2434.8,242.7L2434.8,242.7L2434.8,242.7L2434.8,242.7
		L2434.8,242.7L2434.8,242.7L2434.8,242.7L2434.8,242.7L2434.8,242.7L2434.8,242.7L2434.8,242.7L2434.8,242.7L2434.8,242.7
		L2434.8,242.7L2434.8,242.7L2434.8,242.7L2434.8,242.7L2434.8,242.7L2434.8,242.7L2434.8,242.7L2434.8,242.7L2434.8,242.7
		L2434.8,242.7L2434.8,242.7L2434.8,242.7L2434.8,242.7L2434.8,242.7L2434.8,242.7L2434.8,242.7L2434.8,242.7L2434.8,242.7
		L2434.8,242.7L2434.8,242.7L2434.8,242.7L2434.8,242.7L2434.8,242.7L2434.8,242.7L2434.8,242.7L2434.8,242.7L2434.8,242.7
		L2434.8,242.7L2434.8,242.7L2434.8,242.7L2434.8,242.7L2434.8,242.7L2434.8,242.7L2434.8,242.7L2434.8,242.7L2434.8,242.7
		L2434.8,242.7L2434.8,242.7L2434.8,242.7L2434.8,242.7L2434.8,242.7L2434.8,242.7L2434.8,242.7L2434.8,242.7L2434.8,242.7
		L2434.8,242.7L2434.8,242.7L2434.8,242.7L2434.8,242.7L2434.8,242.7L2434.8,242.7L2434.8,242.7L2434.8,242.7L2434.8,242.7
		L2434.8,242.7L2434.8,242.7L2434.8,242.7L2434.8,242.7L2434.8,242.7L2434.8,242.7L2434.8,242.7L2434.8,242.7L2434.8,242.7
		L2434.8,242.7L2434.8,242.7L2434.8,242.7L2434.8,242.7L2434.8,242.7L2434.8,242.7L2434.8,242.7L2434.8,242.7L2434.8,242.7
		L2434.8,242.7L2434.8,242.7L2434.8,242.7L2434.8,242.7L2434.8,242.7L2434.8,242.7L2434.8,242.7L2434.8,242.7L2434.8,242.7
		L2434.8,242.7z M2458.2,233.9L2458.2,233.9c-0.2,0.1-0.4,0.3-0.3,0.5l0.6,2.6c0.1,0.2,0.3,0.4,0.5,0.3l0,0c0.2-0.1,0.4-0.3,0.3-0.5
		l-0.6-2.6C2458.7,233.9,2458.4,233.8,2458.2,233.9L2458.2,233.9z M2459.7,233.5L2459.7,233.5c-0.2,0.1-0.4,0.3-0.3,0.5l0.6,2.6
		c0.1,0.2,0.3,0.4,0.5,0.3l0,0c0.2-0.1,0.4-0.3,0.3-0.5l-0.6-2.6C2460.2,233.6,2459.9,233.4,2459.7,233.5L2459.7,233.5z
		 M2461.2,233.1L2461.2,233.1c-0.2,0.1-0.4,0.3-0.3,0.5l0.6,2.6c0.1,0.2,0.3,0.4,0.5,0.3l0,0c0.2-0.1,0.4-0.3,0.3-0.5l-0.6-2.6
		C2461.6,233.2,2461.4,233.1,2461.2,233.1L2461.2,233.1z M2462.6,232.8L2462.6,232.8c-0.2,0.1-0.4,0.3-0.3,0.5l0.6,2.6
		c0.1,0.2,0.3,0.4,0.5,0.3l0,0c0.2-0.1,0.4-0.3,0.3-0.5l-0.6-2.6C2463.1,232.8,2462.9,232.7,2462.6,232.8L2462.6,232.8z
		 M2463.3,229.1L2463.3,229.1c-0.2,0.1-0.4,0.3-0.3,0.5l1.4,5.9c0.1,0.2,0.3,0.4,0.5,0.3l0,0c0.2-0.1,0.4-0.3,0.3-0.5l-1.4-5.9
		C2463.8,229.2,2463.6,229.1,2463.3,229.1L2463.3,229.1z M2455.2,234.5L2455.2,234.5c0.2-0.1,0.5,0.1,0.5,0.3l0.6,2.6
		c0.1,0.2-0.1,0.5-0.3,0.5l0,0c-0.2,0.1-0.5-0.1-0.5-0.3l-0.6-2.6C2454.8,234.8,2455,234.5,2455.2,234.5L2455.2,234.5z
		 M2453.7,234.8L2453.7,234.8c0.2-0.1,0.5,0.1,0.5,0.3l0.6,2.6c0.1,0.2-0.1,0.5-0.3,0.5l0,0c-0.2,0.1-0.5-0.1-0.5-0.3l-0.6-2.6
		C2453.3,235.1,2453.5,234.9,2453.7,234.8L2453.7,234.8z M2456.3,232.5L2456.3,232.5c0.2-0.1,0.5,0.1,0.5,0.3l1.1,4.4
		c0.1,0.2-0.1,0.5-0.3,0.5l0,0c-0.2,0.1-0.5-0.1-0.5-0.3l-1.1-4.4C2455.9,232.8,2456,232.5,2456.3,232.5L2456.3,232.5z
		 M2452.2,235.2L2452.2,235.2c0.2-0.1,0.5,0.1,0.5,0.3l0.6,2.6c0.1,0.2-0.1,0.5-0.3,0.5l0,0c-0.2,0.1-0.5-0.1-0.5-0.3l-0.6-2.6
		C2451.9,235.5,2452,235.3,2452.2,235.2L2452.2,235.2z M2450.8,235.6L2450.8,235.6c0.2-0.1,0.5,0.1,0.5,0.3l0.6,2.6
		c0.1,0.2-0.1,0.5-0.3,0.5l0,0c-0.2,0.1-0.5-0.1-0.5-0.3l-0.6-2.6C2450.4,235.9,2450.5,235.6,2450.8,235.6L2450.8,235.6z
		 M2443.4,237.4L2443.4,237.4c-0.2,0.1-0.4,0.3-0.3,0.5l0.6,2.6c0.1,0.2,0.3,0.4,0.5,0.3l0,0c0.2-0.1,0.4-0.3,0.3-0.5l-0.6-2.6
		C2443.9,237.5,2443.7,237.3,2443.4,237.4L2443.4,237.4z M2444.9,237L2444.9,237c-0.2,0.1-0.4,0.3-0.3,0.5l0.6,2.6
		c0.1,0.2,0.3,0.4,0.5,0.3l0,0c0.2-0.1,0.4-0.3,0.3-0.5l-0.6-2.6C2445.4,237.1,2445.2,237,2444.9,237L2444.9,237z M2446.4,236.7
		L2446.4,236.7c-0.2,0.1-0.4,0.3-0.3,0.5l0.6,2.6c0.1,0.2,0.3,0.4,0.5,0.3l0,0c0.2-0.1,0.4-0.3,0.3-0.5l-0.6-2.6
		C2446.9,236.7,2446.7,236.6,2446.4,236.7L2446.4,236.7z M2447.9,236.3L2447.9,236.3c-0.2,0.1-0.4,0.3-0.3,0.5l0.6,2.6
		c0.1,0.2,0.3,0.4,0.5,0.3l0,0c0.2-0.1,0.4-0.3,0.3-0.5l-0.6-2.6C2448.4,236.4,2448.1,236.2,2447.9,236.3L2447.9,236.3z
		 M2448.6,232.7L2448.6,232.7c-0.2,0.1-0.4,0.3-0.3,0.5l1.4,5.9c0.1,0.2,0.3,0.4,0.5,0.3l0,0c0.2-0.1,0.4-0.3,0.3-0.5l-1.4-5.9
		C2449.1,232.8,2448.8,232.7,2448.6,232.7L2448.6,232.7z M2440.5,238.1L2440.5,238.1c0.2-0.1,0.5,0.1,0.5,0.3l0.6,2.6
		c0.1,0.2-0.1,0.5-0.3,0.5l0,0c-0.2,0.1-0.5-0.1-0.5-0.3l-0.6-2.6C2440.1,238.4,2440.2,238.2,2440.5,238.1L2440.5,238.1z
		 M2439,238.5L2439,238.5c0.2-0.1,0.5,0.1,0.5,0.3l0.6,2.6c0.1,0.2-0.1,0.5-0.3,0.5l0,0c-0.2,0.1-0.5-0.1-0.5-0.3l-0.6-2.6
		C2438.6,238.8,2438.7,238.5,2439,238.5L2439,238.5z M2441.5,236L2441.5,236c0.2-0.1,0.5,0.1,0.5,0.3l1.1,4.4
		c0.1,0.2-0.1,0.5-0.3,0.5l0,0c-0.2,0.1-0.5-0.1-0.5-0.3l-1.1-4.4C2441.1,236.3,2441.3,236.1,2441.5,236L2441.5,236z M2437.5,238.8
		L2437.5,238.8c0.2-0.1,0.5,0.1,0.5,0.3l0.6,2.6c0.1,0.2-0.1,0.5-0.3,0.5l0,0c-0.2,0.1-0.5-0.1-0.5-0.3l-0.6-2.6
		C2437.1,239.1,2437.3,238.9,2437.5,238.8L2437.5,238.8z M2436,239.2L2436,239.2c0.2-0.1,0.5,0.1,0.5,0.3l0.6,2.6
		c0.1,0.2-0.1,0.5-0.3,0.5l0,0c-0.2,0.1-0.5-0.1-0.5-0.3l-0.6-2.6C2435.6,239.5,2435.8,239.2,2436,239.2L2436,239.2z M2428.6,241
		L2428.6,241c-0.2,0.1-0.4,0.3-0.3,0.5l0.6,2.6c0.1,0.2,0.3,0.4,0.5,0.3l0,0c0.2-0.1,0.4-0.3,0.3-0.5l-0.6-2.6
		C2429.1,241.1,2428.8,240.9,2428.6,241L2428.6,241z M2430.1,240.6L2430.1,240.6c-0.2,0.1-0.4,0.3-0.3,0.5l0.6,2.6
		c0.1,0.2,0.3,0.4,0.5,0.3l0,0c0.2-0.1,0.4-0.3,0.3-0.5l-0.6-2.6C2430.6,240.7,2430.3,240.6,2430.1,240.6L2430.1,240.6z
		 M2431.6,240.3L2431.6,240.3c-0.2,0.1-0.4,0.3-0.3,0.5l0.6,2.6c0.1,0.2,0.3,0.4,0.5,0.3l0,0c0.2-0.1,0.4-0.3,0.3-0.5l-0.6-2.6
		C2432,240.4,2431.8,240.2,2431.6,240.3L2431.6,240.3z M2433,239.9L2433,239.9c-0.2,0.1-0.4,0.3-0.3,0.5l0.6,2.6
		c0.1,0.2,0.3,0.4,0.5,0.3l0,0c0.2-0.1,0.4-0.3,0.3-0.5l-0.6-2.6C2433.5,240,2433.3,239.9,2433,239.9L2433,239.9z M2425.6,241.7
		L2425.6,241.7c0.2-0.1,0.5,0.1,0.5,0.3l0.6,2.6c0.1,0.2-0.1,0.5-0.3,0.5l0,0c-0.2,0.1-0.5-0.1-0.5-0.3l-0.6-2.6
		C2425.2,242,2425.4,241.8,2425.6,241.7L2425.6,241.7z M2424.1,242.1L2424.1,242.1c0.2-0.1,0.5,0.1,0.5,0.3l0.6,2.6
		c0.1,0.2-0.1,0.5-0.3,0.5l0,0c-0.2,0.1-0.5-0.1-0.5-0.3l-0.6-2.6C2423.8,242.4,2423.9,242.2,2424.1,242.1L2424.1,242.1z
		 M2426.7,239.6L2426.7,239.6c0.2-0.1,0.5,0.1,0.5,0.3l1.1,4.4c0.1,0.2-0.1,0.5-0.3,0.5l0,0c-0.2,0.1-0.5-0.1-0.5-0.3l-1.1-4.4
		C2426.3,239.9,2426.4,239.7,2426.7,239.6L2426.7,239.6z M2422.7,242.5L2422.7,242.5c0.2-0.1,0.5,0.1,0.5,0.3l0.6,2.6
		c0.1,0.2-0.1,0.5-0.3,0.5l0,0c-0.2,0.1-0.5-0.1-0.5-0.3l-0.6-2.6C2422.3,242.8,2422.4,242.5,2422.7,242.5L2422.7,242.5z
		 M2421.2,242.8L2421.2,242.8c0.2-0.1,0.5,0.1,0.5,0.3l0.6,2.6c0.1,0.2-0.1,0.5-0.3,0.5l0,0c-0.2,0.1-0.5-0.1-0.5-0.3l-0.6-2.6
		C2420.8,243.1,2420.9,242.9,2421.2,242.8L2421.2,242.8z M2413.9,244.6L2413.9,244.6c-0.2,0.1-0.4,0.3-0.3,0.5l0.6,2.6
		c0.1,0.2,0.3,0.4,0.5,0.3l0,0c0.2-0.1,0.4-0.3,0.3-0.5l-0.6-2.6C2414.2,244.7,2414,244.6,2413.9,244.6L2413.9,244.6z M2415.2,244.3
		L2415.2,244.3c-0.2,0.1-0.4,0.3-0.3,0.5l0.6,2.6c0.1,0.2,0.3,0.4,0.5,0.3l0,0c0.2-0.1,0.4-0.3,0.3-0.5l-0.6-2.6
		C2415.7,244.4,2415.5,244.2,2415.2,244.3L2415.2,244.3z M2416.7,243.9L2416.7,243.9c-0.2,0.1-0.4,0.3-0.3,0.5l0.6,2.6
		c0.1,0.2,0.3,0.4,0.5,0.3l0,0c0.2-0.1,0.4-0.3,0.3-0.5l-0.6-2.6C2417.2,244,2417,243.8,2416.7,243.9L2416.7,243.9z M2418.2,243.5
		L2418.2,243.5c-0.2,0.1-0.4,0.3-0.3,0.5l0.6,2.6c0.1,0.2,0.3,0.4,0.5,0.3l0,0c0.2-0.1,0.4-0.3,0.3-0.5l-0.6-2.6
		C2418.7,243.6,2418.4,243.5,2418.2,243.5L2418.2,243.5z M2418.9,239.9L2418.9,239.9c-0.2,0.1-0.4,0.3-0.3,0.5l1.4,5.9
		c0.1,0.2,0.3,0.4,0.5,0.3l0,0c0.2-0.1,0.4-0.3,0.3-0.5l-1.4-5.9C2419.4,240,2419.1,239.8,2418.9,239.9L2418.9,239.9z M2410.9,245.4
		L2410.9,245.4c0.2-0.1,0.5,0.1,0.5,0.3l0.6,2.6c0.1,0.2-0.1,0.5-0.3,0.5l0,0c-0.2,0.1-0.5-0.1-0.5-0.3l-0.6-2.6
		C2410.5,245.7,2410.6,245.4,2410.9,245.4L2410.9,245.4z M2409.4,245.7L2409.4,245.7c0.2-0.1,0.5,0.1,0.5,0.3l0.6,2.6
		c0.1,0.2-0.1,0.5-0.3,0.5l0,0c-0.2,0.1-0.5-0.1-0.5-0.3l-0.6-2.6C2409,246,2409.2,245.8,2409.4,245.7L2409.4,245.7z M2411.9,243.2
		L2411.9,243.2c0.2-0.1,0.5,0.1,0.5,0.3l1.1,4.4c0.1,0.2-0.1,0.5-0.3,0.5l0,0c-0.2,0.1-0.5-0.1-0.5-0.3l-1.1-4.4
		C2411.6,243.6,2411.7,243.3,2411.9,243.2L2411.9,243.2z M2407.9,246.1L2407.9,246.1c0.2-0.1,0.5,0.1,0.5,0.3l0.6,2.6
		c0.1,0.2-0.1,0.5-0.3,0.5l0,0c-0.2,0.1-0.5-0.1-0.5-0.3l-0.6-2.6C2407.5,246.4,2407.7,246.1,2407.9,246.1L2407.9,246.1z
		 M2406.4,246.4L2406.4,246.4c0.2-0.1,0.5,0.1,0.5,0.3l0.6,2.6c0.1,0.2-0.1,0.5-0.3,0.5l0,0c-0.2,0.1-0.5-0.1-0.5-0.3l-0.6-2.6
		C2406,246.7,2406.2,246.5,2406.4,246.4L2406.4,246.4z"/>
</g>
<g>
	<path fill="#604E75" d="M2002.4,235.5l-1.5,5.2c-0.2,0.7,0.2,1.5,1,1.7l41.1,11.9l-5.6,19.3c-0.2,0.7,0.2,1.5,1,1.7l3.4,1
		c0.7,0.2,1.5-0.2,1.7-1l6-20.7l0.7-2.5l0.8-2.7c0.2-0.7-0.2-1.5-1-1.7l-45.8-13.3C2003.4,234.3,2002.7,234.8,2002.4,235.5
		L2002.4,235.5z"/>
	<g>
		<path fill="#CCCCCC" d="M2035.1,250.5c-0.1,0-0.2,0-0.2,0.1l-0.3,1c0,0.1,0,0.2,0.1,0.2c0.1,0,0.2,0,0.2-0.1l0.3-1
			C2035.2,250.7,2035.2,250.6,2035.1,250.5z"/>
		<path fill="#CCCCCC" d="M2035.7,250.7c-0.1,0-0.2,0-0.2,0.1l-0.3,1c0,0.1,0,0.2,0.1,0.2s0.2,0,0.2-0.1l0.3-1
			C2035.8,250.8,2035.7,250.7,2035.7,250.7z"/>
		<path fill="#CCCCCC" d="M2034.7,249.7c-0.1,0-0.2,0-0.2,0.1l-0.5,1.7c0,0.1,0,0.2,0.1,0.2s0.2,0,0.2-0.1l0.5-1.7
			C2034.8,249.8,2034.8,249.7,2034.7,249.7z"/>
		<path fill="#CCCCCC" d="M2033.9,250.2c-0.1,0-0.2,0-0.2,0.1l-0.3,1c0,0.1,0,0.2,0.1,0.2c0.1,0,0.2,0,0.2-0.1l0.3-1
			C2034,250.3,2034,250.2,2033.9,250.2z"/>
		<path fill="#CCCCCC" d="M2036.2,250.9c-0.1,0-0.2,0-0.2,0.1l-0.3,1c0,0.1,0,0.2,0.1,0.2s0.2,0,0.2-0.1l0.3-1
			C2036.4,251,2036.3,250.9,2036.2,250.9z"/>
		<path fill="#CCCCCC" d="M2038,251.4c-0.1,0-0.2,0-0.2,0.1l-0.3,1c0,0.1,0,0.2,0.1,0.2c0.1,0,0.2,0,0.2-0.1l0.3-1
			C2038.2,251.5,2038.1,251.4,2038,251.4z"/>
		<path fill="#CCCCCC" d="M2038.6,251.6c-0.1,0-0.2,0-0.2,0.1l-0.3,1c0,0.1,0,0.2,0.1,0.2s0.2,0,0.2-0.1l0.3-1
			C2038.8,251.7,2038.7,251.6,2038.6,251.6z"/>
		<path fill="#CCCCCC" d="M2033.3,250c-0.1,0-0.2,0-0.2,0.1l-0.3,1c0,0.1,0,0.2,0.1,0.2c0.1,0,0.2,0,0.2-0.1l0.3-1
			C2033.4,250.1,2033.4,250,2033.3,250z"/>
		<path fill="#CCCCCC" d="M2037.8,249.9c-0.1,0-0.2,0-0.2,0.1l-0.7,2.4c0,0.1,0,0.2,0.1,0.2c0.1,0,0.2,0,0.2-0.1l0.7-2.4
			C2038,250,2037.9,249.9,2037.8,249.9z"/>
		<path fill="#CCCCCC" d="M2036.8,251c-0.1,0-0.2,0-0.2,0.1l-0.3,1c0,0.1,0,0.2,0.1,0.2c0.1,0,0.2,0,0.2-0.1l0.3-1
			C2037,251.2,2036.9,251.1,2036.8,251z"/>
		<path fill="#CCCCCC" d="M2041,252.3c-0.1,0-0.2,0-0.2,0.1l-0.3,1c0,0.1,0,0.2,0.1,0.2c0.1,0,0.2,0,0.2-0.1l0.3-1
			C2041.1,252.4,2041.1,252.3,2041,252.3z"/>
		<path fill="#CCCCCC" d="M2042.2,252.6c-0.1,0-0.2,0-0.2,0.1l-0.3,1c0,0.1,0,0.2,0.1,0.2c0.1,0,0.2,0,0.2-0.1l0.3-1
			C2042.3,252.7,2042.3,252.6,2042.2,252.6z"/>
		<path fill="#CCCCCC" d="M2041.6,252.4c-0.1,0-0.2,0-0.2,0.1l-0.3,1c0,0.1,0,0.2,0.1,0.2s0.2,0,0.2-0.1l0.3-1
			C2041.7,252.5,2041.7,252.5,2041.6,252.4z"/>
		<path fill="#CCCCCC" d="M2042.8,252.8c-0.1,0-0.2,0-0.2,0.1l-0.3,1c0,0.1,0,0.2,0.1,0.2s0.2,0,0.2-0.1l0.3-1
			C2042.9,252.9,2042.9,252.8,2042.8,252.8z"/>
		<path fill="#CCCCCC" d="M2039.2,251.7c-0.1,0-0.2,0-0.2,0.1l-0.3,1c0,0.1,0,0.2,0.1,0.2s0.2,0,0.2-0.1l0.3-1
			C2039.4,251.9,2039.3,251.8,2039.2,251.7z"/>
		<path fill="#CCCCCC" d="M2039.8,251.9c-0.1,0-0.2,0-0.2,0.1l-0.3,1c0,0.1,0,0.2,0.1,0.2s0.2,0,0.2-0.1l0.3-1
			C2040,252,2039.9,251.9,2039.8,251.9z"/>
		<path fill="#CCCCCC" d="M2032.1,249.7c-0.1,0-0.2,0-0.2,0.1l-0.3,1c0,0.1,0,0.2,0.1,0.2c0.1,0,0.2,0,0.2-0.1l0.3-1
			C2032.2,249.8,2032.2,249.7,2032.1,249.7z"/>
		<path fill="#CCCCCC" d="M2032.7,249.8c-0.1,0-0.2,0-0.2,0.1l-0.3,1c0,0.1,0,0.2,0.1,0.2c0.1,0,0.2,0,0.2-0.1l0.3-1
			C2032.8,250,2032.8,249.9,2032.7,249.8z"/>
		<path fill="#CCCCCC" d="M2040.6,251.4c-0.1,0-0.2,0-0.2,0.1l-0.5,1.7c0,0.1,0,0.2,0.1,0.2c0.1,0,0.2,0,0.2-0.1l0.5-1.7
			C2040.8,251.5,2040.7,251.4,2040.6,251.4z"/>
		<path fill="#CCCCCC" d="M2026.2,248c-0.1,0-0.2,0-0.2,0.1l-0.3,1c0,0.1,0,0.2,0.1,0.2s0.2,0,0.2-0.1l0.3-1
			C2026.3,248.1,2026.2,248,2026.2,248z"/>
		<path fill="#CCCCCC" d="M2028.7,247.9c-0.1,0-0.2,0-0.2,0.1l-0.5,1.7c0,0.1,0,0.2,0.1,0.2s0.2,0,0.2-0.1l0.5-1.7
			C2028.9,248.1,2028.8,248,2028.7,247.9z"/>
		<path fill="#CCCCCC" d="M2025.9,246.5c-0.1,0-0.2,0-0.2,0.1l-0.7,2.4c0,0.1,0,0.2,0.1,0.2s0.2,0,0.2-0.1l0.7-2.4
			C2026.1,246.6,2026,246.5,2025.9,246.5z"/>
		<path fill="#CCCCCC" d="M2027.9,248.5c-0.1,0-0.2,0-0.2,0.1l-0.3,1c0,0.1,0,0.2,0.1,0.2c0.1,0,0.2,0,0.2-0.1l0.3-1
			C2028.1,248.6,2028,248.5,2027.9,248.5z"/>
		<path fill="#CCCCCC" d="M2027.3,248.3c-0.1,0-0.2,0-0.2,0.1l-0.3,1c0,0.1,0,0.2,0.1,0.2s0.2,0,0.2-0.1l0.3-1
			C2027.5,248.4,2027.4,248.3,2027.3,248.3z"/>
		<path fill="#CCCCCC" d="M2029.7,249c-0.1,0-0.2,0-0.2,0.1l-0.3,1c0,0.1,0,0.2,0.1,0.2c0.1,0,0.2,0,0.2-0.1l0.3-1
			C2029.9,249.1,2029.8,249,2029.7,249z"/>
		<path fill="#CCCCCC" d="M2029.1,248.8c-0.1,0-0.2,0-0.2,0.1l-0.3,1c0,0.1,0,0.2,0.1,0.2c0.1,0,0.2,0,0.2-0.1l0.3-1
			C2029.3,248.9,2029.2,248.8,2029.1,248.8z"/>
		<path fill="#CCCCCC" d="M2030.3,249.2c-0.1,0-0.2,0-0.2,0.1l-0.3,1c0,0.1,0,0.2,0.1,0.2c0.1,0,0.2,0,0.2-0.1l0.3-1
			C2030.5,249.3,2030.4,249.2,2030.3,249.2z"/>
		<path fill="#CCCCCC" d="M2030.9,249.3c-0.1,0-0.2,0-0.2,0.1l-0.3,1c0,0.1,0,0.2,0.1,0.2c0.1,0,0.2,0,0.2-0.1l0.3-1
			C2031.1,249.5,2031,249.4,2030.9,249.3z"/>
		<path fill="#CCCCCC" d="M2020.2,246.2c-0.1,0-0.2,0-0.2,0.1l-0.3,1c0,0.1,0,0.2,0.1,0.2s0.2,0,0.2-0.1l0.3-1
			C2020.4,246.4,2020.3,246.3,2020.2,246.2z"/>
		<path fill="#CCCCCC" d="M2020.8,246.4c-0.1,0-0.2,0-0.2,0.1l-0.3,1c0,0.1,0,0.2,0.1,0.2c0.1,0,0.2,0,0.2-0.1l0.3-1
			C2021,246.5,2020.9,246.4,2020.8,246.4z"/>
		<path fill="#CCCCCC" d="M2026.7,248.1c-0.1,0-0.2,0-0.2,0.1l-0.3,1c0,0.1,0,0.2,0.1,0.2c0.1,0,0.2,0,0.2-0.1l0.3-1
			C2026.9,248.3,2026.8,248.2,2026.7,248.1z"/>
		<path fill="#CCCCCC" d="M2022,246.8c-0.1,0-0.2,0-0.2,0.1l-0.3,1c0,0.1,0,0.2,0.1,0.2c0.1,0,0.2,0,0.2-0.1l0.3-1
			C2022.2,246.9,2022.1,246.8,2022,246.8z"/>
		<path fill="#CCCCCC" d="M2025,247.6c-0.1,0-0.2,0-0.2,0.1l-0.3,1c0,0.1,0,0.2,0.1,0.2c0.1,0,0.2,0,0.2-0.1l0.3-1
			C2025.1,247.7,2025.1,247.6,2025,247.6z"/>
		<path fill="#CCCCCC" d="M2021.4,246.6c-0.1,0-0.2,0-0.2,0.1l-0.3,1c0,0.1,0,0.2,0.1,0.2s0.2,0,0.2-0.1l0.3-1
			C2021.6,246.7,2021.5,246.6,2021.4,246.6z"/>
		<path fill="#CCCCCC" d="M2023.8,247.3c-0.1,0-0.2,0-0.2,0.1l-0.3,1c0,0.1,0,0.2,0.1,0.2c0.1,0,0.2,0,0.2-0.1l0.3-1
			C2023.9,247.4,2023.9,247.3,2023.8,247.3z"/>
		<path fill="#CCCCCC" d="M2024.4,247.4c-0.1,0-0.2,0-0.2,0.1l-0.3,1c0,0.1,0,0.2,0.1,0.2s0.2,0,0.2-0.1l0.3-1
			C2024.5,247.6,2024.5,247.5,2024.4,247.4z"/>
		<path fill="#CCCCCC" d="M2023.2,247.1c-0.1,0-0.2,0-0.2,0.1l-0.3,1c0,0.1,0,0.2,0.1,0.2s0.2,0,0.2-0.1l0.3-1
			C2023.3,247.2,2023.3,247.1,2023.2,247.1z"/>
		<path fill="#CCCCCC" d="M2022.8,246.2c-0.1,0-0.2,0-0.2,0.1l-0.5,1.7c0,0.1,0,0.2,0.1,0.2s0.2,0,0.2-0.1l0.5-1.7
			C2023,246.4,2022.9,246.3,2022.8,246.2z"/>
		<path fill="#CCCCCC" d="M2031.9,248.2c-0.1,0-0.2,0-0.2,0.1l-0.7,2.4c0,0.1,0,0.2,0.1,0.2s0.2,0,0.2-0.1l0.7-2.4
			C2032,248.3,2032,248.2,2031.9,248.2z"/>
		<path fill="#CCCCCC" d="M2011,242.8c-0.1,0-0.2,0-0.2,0.1l-0.5,1.7c0,0.1,0,0.2,0.1,0.2c0.1,0,0.2,0,0.2-0.1l0.5-1.7
			C2011.2,242.9,2011.1,242.8,2011,242.8z"/>
		<path fill="#CCCCCC" d="M2011.4,243.7c-0.1,0-0.2,0-0.2,0.1l-0.3,1c0,0.1,0,0.2,0.1,0.2s0.2,0,0.2-0.1l0.3-1
			C2011.6,243.8,2011.5,243.7,2011.4,243.7z"/>
		<path fill="#CCCCCC" d="M2012,243.8c-0.1,0-0.2,0-0.2,0.1l-0.3,1c0,0.1,0,0.2,0.1,0.2s0.2,0,0.2-0.1l0.3-1
			C2012.2,244,2012.1,243.9,2012,243.8z"/>
		<path fill="#CCCCCC" d="M2012.6,244c-0.1,0-0.2,0-0.2,0.1l-0.3,1c0,0.1,0,0.2,0.1,0.2s0.2,0,0.2-0.1l0.3-1
			C2012.8,244.1,2012.7,244,2012.6,244z"/>
		<path fill="#CCCCCC" d="M2010.2,243.3c-0.1,0-0.2,0-0.2,0.1l-0.3,1c0,0.1,0,0.2,0.1,0.2c0.1,0,0.2,0,0.2-0.1l0.3-1
			C2010.4,243.4,2010.3,243.4,2010.2,243.3z"/>
		<path fill="#CCCCCC" d="M2008.4,242.8c-0.1,0-0.2,0-0.2,0.1l-0.3,1c0,0.1,0,0.2,0.1,0.2s0.2,0,0.2-0.1l0.3-1
			C2008.6,242.9,2008.5,242.8,2008.4,242.8z"/>
		<path fill="#CCCCCC" d="M2009,243c-0.1,0-0.2,0-0.2,0.1l-0.3,1c0,0.1,0,0.2,0.1,0.2s0.2,0,0.2-0.1l0.3-1
			C2009.2,243.1,2009.1,243,2009,243z"/>
		<path fill="#CCCCCC" d="M2009.6,243.2c-0.1,0-0.2,0-0.2,0.1l-0.3,1c0,0.1,0,0.2,0.1,0.2c0.1,0,0.2,0,0.2-0.1l0.3-1
			C2009.8,243.3,2009.7,243.2,2009.6,243.2z"/>
		<path fill="#CCCCCC" d="M2008.2,241.3c-0.1,0-0.2,0-0.2,0.1l-0.7,2.4c0,0.1,0,0.2,0.1,0.2s0.2,0,0.2-0.1l0.7-2.4
			C2008.4,241.5,2008.3,241.4,2008.2,241.3z"/>
		<path fill="#CCCCCC" d="M2017.3,245.4c-0.1,0-0.2,0-0.2,0.1l-0.3,1c0,0.1,0,0.2,0.1,0.2s0.2,0,0.2-0.1l0.3-1
			C2017.5,245.5,2017.5,245.4,2017.3,245.4z"/>
		<path fill="#CCCCCC" d="M2017.9,245.6c-0.1,0-0.2,0-0.2,0.1l-0.3,1c0,0.1,0,0.2,0.1,0.2c0.1,0,0.2,0,0.2-0.1l0.3-1
			C2018,245.7,2018,245.6,2017.9,245.6z"/>
		<path fill="#CCCCCC" d="M2014.2,243c-0.1,0-0.2,0-0.2,0.1l-0.7,2.4c0,0.1,0,0.2,0.1,0.2s0.2,0,0.2-0.1l0.7-2.4
			C2014.3,243.2,2014.3,243.1,2014.2,243z"/>
		<path fill="#CCCCCC" d="M2018.4,245.7c-0.1,0-0.2,0-0.2,0.1l-0.3,1c0,0.1,0,0.2,0.1,0.2c0.1,0,0.2,0,0.2-0.1l0.3-1
			C2018.6,245.9,2018.5,245.8,2018.4,245.7z"/>
		<path fill="#CCCCCC" d="M2017,244.5c-0.1,0-0.2,0-0.2,0.1l-0.5,1.7c0,0.1,0,0.2,0.1,0.2c0.1,0,0.2,0,0.2-0.1l0.5-1.7
			C2017.1,244.6,2017.1,244.5,2017,244.5z"/>
		<path fill="#CCCCCC" d="M2019,245.9c-0.1,0-0.2,0-0.2,0.1l-0.3,1c0,0.1,0,0.2,0.1,0.2c0.1,0,0.2,0,0.2-0.1l0.3-1
			C2019.2,246,2019.1,245.9,2019,245.9z"/>
		<path fill="#CCCCCC" d="M2016.2,245c-0.1,0-0.2,0-0.2,0.1l-0.3,1c0,0.1,0,0.2,0.1,0.2c0.1,0,0.2,0,0.2-0.1l0.3-1
			C2016.3,245.2,2016.3,245.1,2016.2,245z"/>
		<path fill="#CCCCCC" d="M2015,244.7c-0.1,0-0.2,0-0.2,0.1l-0.3,1c0,0.1,0,0.2,0.1,0.2c0.1,0,0.2,0,0.2-0.1l0.3-1
			C2015.1,244.8,2015.1,244.7,2015,244.7z"/>
		<path fill="#CCCCCC" d="M2014.4,244.5c-0.1,0-0.2,0-0.2,0.1l-0.3,1c0,0.1,0,0.2,0.1,0.2s0.2,0,0.2-0.1l0.3-1
			C2014.5,244.7,2014.5,244.6,2014.4,244.5z"/>
		<path fill="#CCCCCC" d="M2015.6,244.9c-0.1,0-0.2,0-0.2,0.1l-0.3,1c0,0.1,0,0.2,0.1,0.2s0.2,0,0.2-0.1l0.3-1
			C2015.7,245,2015.7,244.9,2015.6,244.9z"/>
		<path fill="#CCCCCC" d="M2013.2,244.2c-0.1,0-0.2,0-0.2,0.1l-0.3,1c0,0.1,0,0.2,0.1,0.2c0.1,0,0.2,0,0.2-0.1l0.3-1
			C2013.3,244.3,2013.3,244.2,2013.2,244.2z"/>
		<path fill="#CCCCCC" d="M2020,244.8c-0.1,0-0.2,0-0.2,0.1l-0.7,2.4c0,0.1,0,0.2,0.1,0.2s0.2,0,0.2-0.1l0.7-2.4
			C2020.2,244.9,2020.1,244.8,2020,244.8z"/>
		<path fill="#CCCCCC" d="M2040.8,269.8c0-0.1,0-0.2-0.1-0.2l-1.7-0.5c-0.1,0-0.2,0-0.2,0.1s0,0.2,0.1,0.2l1.7,0.5
			C2040.6,269.9,2040.7,269.9,2040.8,269.8z"/>
		<path fill="#CCCCCC" d="M2039.8,269.9l-1-0.3c-0.1,0-0.2,0-0.2,0.1s0,0.2,0.1,0.2l1,0.3c0.1,0,0.2,0,0.2-0.1
			C2039.9,270,2039.9,270,2039.8,269.9z"/>
		<path fill="#CCCCCC" d="M2039.3,271.6l-1-0.3c-0.1,0-0.2,0-0.2,0.1c0,0.1,0,0.2,0.1,0.2l1,0.3c0.1,0,0.2,0,0.2-0.1
			C2039.4,271.7,2039.4,271.7,2039.3,271.6z"/>
		<path fill="#CCCCCC" d="M2039.6,270.4l-1-0.3c-0.1,0-0.2,0-0.2,0.1c0,0.1,0,0.2,0.1,0.2l1,0.3c0.1,0,0.2,0,0.2-0.1
			C2039.8,270.6,2039.7,270.5,2039.6,270.4z"/>
		<path fill="#CCCCCC" d="M2039.1,268.2l1,0.3c0.1,0,0.2,0,0.2-0.1s0-0.2-0.1-0.2l-1-0.3c-0.1,0-0.2,0-0.2,0.1
			C2039,268.1,2039,268.2,2039.1,268.2z"/>
		<path fill="#CCCCCC" d="M2039.4,271l-1-0.3c-0.1,0-0.2,0-0.2,0.1s0,0.2,0.1,0.2l1,0.3c0.1,0,0.2,0,0.2-0.1
			C2039.6,271.2,2039.5,271.1,2039.4,271z"/>
		<path fill="#CCCCCC" d="M2040.6,267l-1-0.3c-0.1,0-0.2,0-0.2,0.1s0,0.2,0.1,0.2l1,0.3c0.1,0,0.2,0,0.2-0.1
			C2040.8,267.1,2040.7,267,2040.6,267z"/>
		<path fill="#CCCCCC" d="M2039.3,267.6l1,0.3c0.1,0,0.2,0,0.2-0.1s0-0.2-0.1-0.2l-1-0.3c-0.1,0-0.2,0-0.2,0.1
			S2039.2,267.6,2039.3,267.6z"/>
		<path fill="#CCCCCC" d="M2040.4,272.6l-2.4-0.7c-0.1,0-0.2,0-0.2,0.1s0,0.2,0.1,0.2l2.4,0.7c0.1,0,0.2,0,0.2-0.1
			C2040.5,272.7,2040.5,272.6,2040.4,272.6z"/>
		<path fill="#CCCCCC" d="M2039,268.8l1,0.3c0.1,0,0.2,0,0.2-0.1c0-0.1,0-0.2-0.1-0.2l-1-0.3c-0.1,0-0.2,0-0.2,0.1
			C2038.8,268.7,2038.9,268.8,2039,268.8z"/>
		<path fill="#CCCCCC" d="M2040.7,262.9l1,0.3c0.1,0,0.2,0,0.2-0.1s0-0.2-0.1-0.2l-1-0.3c-0.1,0-0.2,0-0.2,0.1
			C2040.5,262.7,2040.6,262.8,2040.7,262.9z"/>
		<path fill="#CCCCCC" d="M2041,261.7l1,0.3c0.1,0,0.2,0,0.2-0.1s0-0.2-0.1-0.2l-1-0.3c-0.1,0-0.2,0-0.2,0.1
			C2040.9,261.5,2040.9,261.6,2041,261.7z"/>
		<path fill="#CCCCCC" d="M2042.3,261l-1-0.3c-0.1,0-0.2,0-0.2,0.1s0,0.2,0.1,0.2l1,0.3c0.1,0,0.2,0,0.2-0.1
			C2042.5,261.2,2042.4,261.1,2042.3,261z"/>
		<path fill="#CCCCCC" d="M2040.9,262.3l1,0.3c0.1,0,0.2,0,0.2-0.1c0-0.1,0-0.2-0.1-0.2l-1-0.3c-0.1,0-0.2,0-0.2,0.1
			C2040.7,262.1,2040.8,262.2,2040.9,262.3z"/>
		<path fill="#CCCCCC" d="M2043.1,254.6l2.4,0.7c0.1,0,0.2,0,0.2-0.1s0-0.2-0.1-0.2l-2.4-0.7l0.7-2.4c0-0.1,0-0.2-0.1-0.2
			s-0.2,0-0.2,0.1l-0.7,2.4c0,0.1,0,0.2,0.1,0.2C2042.9,254.4,2043,254.5,2043.1,254.6z"/>
		<path fill="#CCCCCC" d="M2042.5,263.8c0-0.1,0-0.2-0.1-0.2l-1.7-0.5c-0.1,0-0.2,0-0.2,0.1s0,0.2,0.1,0.2l1.7,0.5
			C2042.4,264,2042.5,263.9,2042.5,263.8z"/>
		<path fill="#CCCCCC" d="M2042.9,255.1l1,0.3c0.1,0,0.2,0,0.2-0.1s0-0.2-0.1-0.2l-1-0.3c-0.1,0-0.2,0-0.2,0.1
			C2042.8,255,2042.8,255.1,2042.9,255.1z"/>
		<path fill="#CCCCCC" d="M2044.2,257.9c0-0.1,0-0.2-0.1-0.2l-1.7-0.5c-0.1,0-0.2,0-0.2,0.1c0,0.1,0,0.2,0.1,0.2l1.7,0.5
			C2044.1,258.1,2044.2,258,2044.2,257.9z"/>
		<path fill="#CCCCCC" d="M2043.8,260.8l-2.4-0.7c-0.1,0-0.2,0-0.2,0.1s0,0.2,0.1,0.2l2.4,0.7c0.1,0,0.2,0,0.2-0.1
			C2044,261,2043.9,260.8,2043.8,260.8z"/>
		<path fill="#CCCCCC" d="M2043.2,258.1l-1-0.3c-0.1,0-0.2,0-0.2,0.1s0,0.2,0.1,0.2l1,0.3c0.1,0,0.2,0,0.2-0.1
			S2043.3,258.1,2043.2,258.1z"/>
		<path fill="#CCCCCC" d="M2042.9,259.3l-1-0.3c-0.1,0-0.2,0-0.2,0.1s0,0.2,0.1,0.2l1,0.3c0.1,0,0.2,0,0.2-0.1
			S2043,259.3,2042.9,259.3z"/>
		<path fill="#CCCCCC" d="M2042.7,259.8l-1-0.3c-0.1,0-0.2,0-0.2,0.1s0,0.2,0.1,0.2l1,0.3c0.1,0,0.2,0,0.2-0.1
			C2042.8,260,2042.8,259.9,2042.7,259.8z"/>
		<path fill="#CCCCCC" d="M2043,258.7l-1-0.3c-0.1,0-0.2,0-0.2,0.1c0,0.1,0,0.2,0.1,0.2l1,0.3c0.1,0,0.2,0,0.2-0.1
			C2043.2,258.8,2043.1,258.7,2043,258.7z"/>
		<path fill="#CCCCCC" d="M2042.7,255.7l1,0.3c0.1,0,0.2,0,0.2-0.1s0-0.2-0.1-0.2l-1-0.3c-0.1,0-0.2,0-0.2,0.1
			C2042.6,255.6,2042.6,255.7,2042.7,255.7z"/>
		<path fill="#CCCCCC" d="M2041,265.8l-1-0.3c-0.1,0-0.2,0-0.2,0.1s0,0.2,0.1,0.2l1,0.3c0.1,0,0.2,0,0.2-0.1
			S2041.1,265.8,2041,265.8z"/>
		<path fill="#CCCCCC" d="M2041.3,264.6l-1-0.3c-0.1,0-0.2,0-0.2,0.1s0,0.2,0.1,0.2l1,0.3c0.1,0,0.2,0,0.2-0.1
			C2041.5,264.7,2041.4,264.6,2041.3,264.6z"/>
		<path fill="#CCCCCC" d="M2042.6,256.3l1,0.3c0.1,0,0.2,0,0.2-0.1s0-0.2-0.1-0.2l-1-0.3c-0.1,0-0.2,0-0.2,0.1
			C2042.4,256.2,2042.5,256.3,2042.6,256.3z"/>
		<path fill="#CCCCCC" d="M2041.5,264l-1-0.3c-0.1,0-0.2,0-0.2,0.1c0,0.1,0,0.2,0.1,0.2l1,0.3c0.1,0,0.2,0,0.2-0.1
			S2041.6,264,2041.5,264z"/>
		<path fill="#CCCCCC" d="M2041.1,265.2l-1-0.3c-0.1,0-0.2,0-0.2,0.1c0,0.1,0,0.2,0.1,0.2l1,0.3c0.1,0,0.2,0,0.2-0.1
			C2041.3,265.3,2041.2,265.2,2041.1,265.2z"/>
		<path fill="#CCCCCC" d="M2042.4,256.9l1,0.3c0.1,0,0.2,0,0.2-0.1s0-0.2-0.1-0.2l-1-0.3c-0.1,0-0.2,0-0.2,0.1
			C2042.3,256.8,2042.3,256.9,2042.4,256.9z"/>
		<path fill="#CCCCCC" d="M2042.1,266.8l-2.4-0.7c-0.1,0-0.2,0-0.2,0.1s0,0.2,0.1,0.2l2.4,0.7c0.1,0,0.2,0,0.2-0.1
			C2042.3,266.9,2042.2,266.8,2042.1,266.8z"/>
	</g>
</g>
<g>
	<path fill="#FF6969" d="M1708.8,597.6h-4.5c-1.3,0-2.3,0.9-2.5,2.2l-6.5,57.9h26.7l-6.5-57.9c-0.1-1.3-1.2-2.2-2.5-2.2H1708.8z"/>
	<path fill="#CF3F17" d="M1708.8,657.8h13.4l-6.5-57.9c-0.1-1.3-1.2-2.2-2.5-2.2h-4.5L1708.8,657.8L1708.8,657.8z"/>
	<polygon fill="#FFFFFF" points="1696.2,651.1 1695.4,657.8 1722.2,657.8 1721.5,651.1 	"/>
	<polygon fill="#F3E3E1" points="1708.8,657.8 1722.2,657.8 1721.5,651.1 1708.8,651.1 	"/>
	<path fill="#FFFFFF" d="M1701,607.7l-1.1,10.1h17.9l-1.1-10.1H1701z M1699.1,624.4l-1.1,10h21.5l-1.1-10H1699.1z"/>
	<path fill="#F3E3E1" d="M1708.8,617.7h8.9l-1.1-10.1h-7.8V617.7z M1708.8,634.4v-10h9.7l1.1,10H1708.8z"/>
	<path fill="#CF3F17" d="M1690.5,657.8h36.8c0.9,0,1.7,0.8,1.7,1.7c0,0.9-0.7,1.7-1.7,1.7h-36.8c-0.9,0-1.7-0.8-1.7-1.7
		C1688.8,658.6,1689.6,657.8,1690.5,657.8L1690.5,657.8z"/>
	<path fill="#A82C0A" d="M1708.8,657.8h18.3c0.9,0,1.7,0.8,1.7,1.7c0,0.9-0.7,1.7-1.7,1.7h-18.3V657.8z"/>
</g>
<g>
	<path fill="#88CFE3" d="M2282.5,283.6c5.5,2.3,8.2,8.7,5.9,14.2s-8.7,8.2-14.2,5.9c-5.5-2.3-8.2-8.7-5.9-14.2
		C2270.6,283.9,2276.9,281.3,2282.5,283.6L2282.5,283.6z"/>
	
		<rect x="2270.4" y="304.3" transform="matrix(0.9236 0.3834 -0.3834 0.9236 292.0195 -847.4777)" fill="#E6E6E6" width="3.3" height="9"/>
	<path fill="#6C787F" d="M2283.3,281.6c3.3,1.4,5.8,4,7,7.1c1.3,3.1,1.4,6.6,0,10c-1.4,3.3-4,5.8-7.1,7c-3.1,1.3-6.6,1.4-10,0
		s-5.8-4-7-7.1c-1.3-3.1-1.4-6.6,0-10c1.4-3.3,4-5.8,7.1-7C2276.4,280.3,2280,280.2,2283.3,281.6L2283.3,281.6z M2288,289.7
		c-1-2.5-3-4.6-5.7-5.7c-2.7-1.1-5.5-1-8,0c-2.5,1-4.6,3-5.7,5.7c-1.1,2.7-1,5.5,0,8c1,2.5,3,4.6,5.7,5.7c2.7,1.1,5.5,1,8,0
		c2.5-1,4.6-3,5.7-5.7C2289.1,295,2289,292.1,2288,289.7L2288,289.7z"/>
	<path fill="#FF6969" d="M2271.5,309.9L2271.5,309.9c1.7,0.7,2.5,2.6,1.8,4.3l-3.8,9.2c-0.7,1.7-2.6,2.5-4.3,1.8l0,0
		c-1.7-0.7-2.5-2.6-1.8-4.3l3.8-9.2C2268,310,2270,309.2,2271.5,309.9L2271.5,309.9z"/>
	<path fill="#EB4141" d="M2271.5,309.9c1.7,0.7,2.5,2.6,1.8,4.3l-3.8,9.2c-0.7,1.7-2.6,2.5-4.3,1.8L2271.5,309.9z"/>
	<path fill="#FEFEFE" d="M2270.2,290.3c-0.2,0.4,0,0.8,0.4,1s0.8,0,1-0.4c0.8-1.8,2.2-3.2,3.9-3.9c1.7-0.7,3.7-0.8,5.5,0
		c0.4,0.2,0.8,0,1-0.4s0-0.8-0.4-1c-2.2-0.9-4.6-0.9-6.7,0C2272.9,286.4,2271.2,288.1,2270.2,290.3L2270.2,290.3z"/>
</g>
<g>
	<path fill="#FA3A3A" d="M1734.8,311.4c3,0,5.6,1.6,7.1,4.1h3.1c1.1,0,2,0.9,2,2s-0.9,2-2,2h-2c0,4.5-3.6,8.1-8.1,8.1
		c-3,0-5.6-1.6-7.1-4.1c-0.3,0.1-2.3-6.1-9.2-6.1c-1.7,0-2.1,0-3.3,0c-0.4,0-0.8-0.3-0.9-0.7l-1.1-4.2c-0.1-0.3,0-0.6,0.2-0.8
		s0.5-0.4,0.8-0.4h12.6l2,1l2-1L1734.8,311.4z M1745,316.5c0.6,0,1,0.5,1,1c0,0.6-0.5,1-1,1c-0.6,0-1-0.5-1-1
		C1744,316.9,1744.4,316.5,1745,316.5L1745,316.5z"/>
	<path fill="#FF6969" d="M1734.8,315.5c2.2,0,4.1,1.8,4.1,4.1c0,2.2-1.8,4.1-4.1,4.1c-2.2,0-4.1-1.8-4.1-4.1
		C1730.8,317.3,1732.6,315.5,1734.8,315.5L1734.8,315.5z"/>
</g>
<g>
	<path fill="#6C787F" d="M1664.4,388.5l3,1.7l3,1.7v3.5v3.5l-3,1.7l-3,1.7l-3-1.7l-3-1.7v-3.5v-3.5l3-1.7L1664.4,388.5z
		 M1664.4,392.1c1.8,0,3.3,1.5,3.3,3.3c0,1.8-1.5,3.3-3.3,3.3c-1.8,0-3.3-1.5-3.3-3.3C1661.1,393.6,1662.6,392.1,1664.4,392.1
		L1664.4,392.1z"/>
	<path fill="#505B60" d="M1664.4,388.5l3,1.7l3,1.7v3.5v3.5l-3,1.7l-3,1.7v-3.6c1.8,0,3.3-1.5,3.3-3.3c0-1.8-1.5-3.3-3.3-3.3V388.5z
		"/>
</g>
<g>
	<path fill="#6C787F" d="M1854.8,23.6l3,1.7l3,1.7v3.5V34l-3,1.7l-3,1.7l-3-1.7l-3-1.7v-3.5V27l3-1.7L1854.8,23.6z M1854.8,27.2
		c1.8,0,3.3,1.5,3.3,3.3c0,1.8-1.5,3.3-3.3,3.3c-1.8,0-3.3-1.5-3.3-3.3C1851.4,28.7,1852.9,27.2,1854.8,27.2L1854.8,27.2z"/>
	<path fill="#505B60" d="M1854.8,23.6l3,1.7l3,1.7v3.5V34l-3,1.7l-3,1.7v-3.6c1.8,0,3.3-1.5,3.3-3.3c0-1.8-1.5-3.3-3.3-3.3V23.6z"/>
</g>
<g>
	<path fill="#6C787F" d="M1636.3,284.8c3.3,0,6-2.7,6-6c0-3.3-2.7-6-6-6c-3.3,0-6,2.7-6,6C1630.3,282.1,1633,284.8,1636.3,284.8
		L1636.3,284.8z"/>
	<path fill="#505B60" d="M1642.1,277.4c0.1,0.5,0.2,1,0.2,1.5c0,0.5-0.1,1-0.2,1.5h-11.6c-0.1-0.5-0.2-1-0.2-1.5
		c0-0.5,0.1-1,0.2-1.5H1642.1z"/>
</g>
<path fill="#FA3A3A" d="M1564.8,334.8c-0.4,0.1-0.8,0.2-1.2,0.3l-0.5-0.6c-0.1-0.1-0.2-0.1-0.3,0l-0.5,0.3c-0.1,0.1-0.2,0.2-0.1,0.3
	l0.2,0.8c-0.3,0.3-0.6,0.5-0.9,0.9l-0.8-0.2c-0.1,0-0.2,0-0.3,0.1l-0.3,0.5c-0.1,0.1,0,0.2,0,0.3l0.6,0.5c-0.1,0.4-0.3,0.8-0.3,1.2
	l-0.8,0.2c-0.1,0-0.2,0.1-0.2,0.3v0.5c0,0.1,0.1,0.2,0.2,0.3l0.8,0.2c0.1,0.4,0.2,0.8,0.3,1.2l-0.6,0.5c-0.1,0.1-0.1,0.2,0,0.3
	l0.3,0.5c0.1,0.1,0.2,0.2,0.3,0.1l0.8-0.2c0.3,0.3,0.5,0.6,0.9,0.9l-0.2,0.8c0,0.1,0,0.2,0.1,0.3l0.5,0.3c0.1,0.1,0.2,0,0.3,0
	l0.5-0.6c0.4,0.1,0.8,0.3,1.2,0.3l0.2,0.8c0,0.1,0.1,0.2,0.3,0.2h0.5c0.1,0,0.2-0.1,0.3-0.2l0.2-0.8c0.4-0.1,0.8-0.2,1.2-0.3
	l0.5,0.6c0.1,0.1,0.2,0.1,0.3,0l0.5-0.3c0.1-0.1,0.2-0.2,0.1-0.3l-0.2-0.8c0.3-0.3,0.6-0.5,0.9-0.9l0.8,0.2c0.1,0,0.2,0,0.3-0.1
	l0.3-0.5c0.1-0.1,0-0.2,0-0.3l-0.6-0.5c0.1-0.4,0.3-0.8,0.3-1.2l0.8-0.2c0.1,0,0.2-0.1,0.2-0.3v-0.5c0-0.1-0.1-0.2-0.2-0.3l-0.8-0.2
	c-0.1-0.4-0.2-0.8-0.3-1.2l0.6-0.5c0.1-0.1,0.1-0.2,0-0.3l-0.3-0.5c-0.1-0.1-0.2-0.2-0.3-0.1l-0.8,0.2c-0.3-0.3-0.5-0.6-0.9-0.9
	l0.2-0.8c0-0.1,0-0.2-0.1-0.3l-0.5-0.3c-0.1-0.1-0.2,0-0.3,0l-0.5,0.6c-0.4-0.1-0.8-0.3-1.2-0.3l-0.2-0.8c0-0.1-0.1-0.2-0.3-0.2
	h-0.5c-0.1,0-0.2,0.1-0.3,0.2L1564.8,334.8z M1565.5,336.2c-2,0-3.6,1.6-3.6,3.6c0,2,1.6,3.6,3.6,3.6c2,0,3.6-1.6,3.6-3.6
	C1569.1,337.8,1567.5,336.2,1565.5,336.2L1565.5,336.2z"/>
<path fill="#FA3A3A" d="M1950.9,658.5c-0.4,0.1-0.8,0.2-1.2,0.3l-0.5-0.6c-0.1-0.1-0.2-0.1-0.3,0l-0.5,0.3c-0.1,0.1-0.2,0.2-0.1,0.3
	l0.2,0.8c-0.3,0.3-0.6,0.5-0.9,0.9l-0.8-0.2c-0.1,0-0.2,0-0.3,0.1l-0.3,0.5c-0.1,0.1,0,0.2,0,0.3l0.6,0.5c-0.1,0.4-0.3,0.8-0.3,1.2
	l-0.8,0.2c-0.1,0-0.2,0.1-0.2,0.3v0.5c0,0.1,0.1,0.2,0.2,0.3l0.8,0.2c0.1,0.4,0.2,0.8,0.3,1.2l-0.6,0.5c-0.1,0.1-0.1,0.2,0,0.3
	l0.3,0.5c0.1,0.1,0.2,0.2,0.3,0.1l0.8-0.2c0.3,0.3,0.5,0.6,0.9,0.9l-0.3,0.6c0,0.1,0,0.2,0.1,0.3l0.5,0.3c0.1,0.1,0.2,0,0.3,0
	l0.5-0.6c0.4,0.1,0.8,0.3,1.2,0.3l0.2,0.8c0,0.1,0.1,0.2,0.3,0.2h0.5c0.1,0,0.2-0.1,0.3-0.2l0.2-0.8c0.4-0.1,0.8-0.2,1.2-0.3
	l0.5,0.6c0.1,0.1,0.2,0.1,0.3,0l0.5-0.3c0.1-0.1,0.2-0.2,0.1-0.3l-0.2-0.8c0.3-0.3,0.6-0.5,0.9-0.9l0.8,0.2c0.1,0,0.2,0,0.3-0.1
	l0.3-0.5c0.1-0.1,0-0.2,0-0.3l-0.6-0.5c0.1-0.4,0.3-0.8,0.3-1.2l0.8-0.2c0.1,0,0.2-0.1,0.2-0.3v-0.5c0-0.1-0.1-0.2-0.2-0.3l-0.8-0.2
	c-0.1-0.4-0.2-0.8-0.3-1.2l0.6-0.5c0.1-0.1,0.1-0.2,0-0.3l-0.3-0.5c-0.1-0.1-0.2-0.2-0.3-0.1l-0.8,0.2c-0.3-0.3-0.5-0.6-0.9-0.9
	l0.2-0.8c0-0.1,0-0.2-0.1-0.3l-0.5-0.3c-0.1-0.1-0.2,0-0.3,0l-0.5,0.6c-0.4-0.1-0.8-0.3-1.2-0.3l-0.2-0.8c0-0.1-0.1-0.2-0.3-0.2
	h-0.5c-0.1,0-0.2,0.1-0.3,0.2L1950.9,658.5z M1951.6,659.9c-2,0-3.6,1.6-3.6,3.6s1.6,3.6,3.6,3.6c2,0,3.6-1.6,3.6-3.6
	C1955.2,661.5,1953.6,659.9,1951.6,659.9L1951.6,659.9z"/>
<path fill="#FA3A3A" d="M2035.2,150.2c-0.4,0.1-0.8,0.2-1.2,0.3l-0.5-0.6c-0.1-0.1-0.2-0.1-0.3,0l-0.5,0.3c-0.1,0.1-0.2,0.2-0.1,0.3
	l0.2,0.8c-0.3,0.3-0.6,0.5-0.9,0.9l-0.8-0.2c-0.1,0-0.2,0-0.3,0.1l-0.3,0.5c-0.1,0.1,0,0.2,0,0.3l0.6,0.5c-0.1,0.4-0.3,0.8-0.3,1.2
	l-0.8,0.2c-0.1,0-0.2,0.1-0.2,0.3v0.5c0,0.1,0.1,0.2,0.2,0.3l0.8,0.2c0.1,0.4,0.2,0.8,0.3,1.2l-0.6,0.5c-0.1,0.1-0.1,0.2,0,0.3
	l0.3,0.5c0.1,0.1,0.2,0.2,0.3,0.1l0.8-0.2c0.3,0.3,0.5,0.6,0.9,0.9l-0.2,0.8c0,0.1,0,0.2,0.1,0.3l0.5,0.3c0.1,0.1,0.2,0,0.3,0
	l0.5-0.6c0.4,0.1,0.8,0.3,1.2,0.3l0.2,0.8c0,0.1,0.1,0.2,0.3,0.2h0.5c0.1,0,0.2-0.1,0.3-0.2l0.2-0.8c0.4-0.1,0.8-0.2,1.2-0.3
	l0.5,0.6c0.1,0.1,0.2,0.1,0.3,0l0.5-0.3c0.1-0.1,0.2-0.2,0.1-0.3l-0.2-0.8c0.3-0.3,0.6-0.5,0.9-0.9l0.8,0.2c0.1,0,0.2,0,0.3-0.1
	l0.3-0.5c0.1-0.1,0-0.2,0-0.3l-0.6-0.5c0.1-0.4,0.3-0.8,0.3-1.2l0.8-0.2c0.1,0,0.2-0.1,0.2-0.3v-0.5c0-0.1-0.1-0.2-0.2-0.3l-0.8-0.2
	c-0.1-0.4-0.2-0.8-0.3-1.2l0.6-0.5c0.1-0.1,0.1-0.2,0-0.3l-0.3-0.5c-0.1-0.1-0.2-0.2-0.3-0.1l-0.8,0.2c-0.3-0.3-0.5-0.6-0.9-0.9
	l0.2-0.8c0-0.1,0-0.2-0.1-0.3l-0.5-0.3c-0.1-0.1-0.2,0-0.3,0l-0.5,0.6c-0.4-0.1-0.8-0.3-1.2-0.3l-0.2-0.8c0-0.1-0.1-0.2-0.3-0.2
	h-0.5c-0.1,0-0.2,0.1-0.3,0.2L2035.2,150.2z M2035.9,151.6c-2,0-3.6,1.6-3.6,3.6c0,2,1.6,3.6,3.6,3.6s3.6-1.6,3.6-3.6
	C2039.5,153.2,2037.9,151.6,2035.9,151.6L2035.9,151.6z"/>
<path fill="#E68C1E" d="M1408.6,309.2c-0.4,0.1-0.9,0.3-1.2,0.5l-1.3-0.7c-0.1-0.1-0.3,0-0.4,0.1l-0.5,0.5c-0.1,0.1-0.1,0.2-0.1,0.3
	l0.7,1.3c-0.2,0.4-0.4,0.8-0.5,1.2l-1.4,0.4c-0.1,0-0.2,0.1-0.2,0.3v0.7c0,0.1,0.1,0.2,0.2,0.3l1.4,0.4c0.1,0.4,0.3,0.9,0.5,1.2
	l-0.7,1.3c-0.1,0.1,0,0.3,0.1,0.4l0.5,0.5c0.1,0.1,0.2,0.1,0.4,0l1.3-0.7c0.4,0.2,0.8,0.4,1.2,0.5l0.4,1.4c0,0.1,0.2,0.2,0.3,0.2
	h0.7c0.1,0,0.2-0.1,0.3-0.2l0.4-1.4c0.4-0.1,0.9-0.3,1.2-0.5l1.3,0.7c0.1,0.1,0.3,0,0.4,0l0.5-0.5c0.1-0.1,0.1-0.2,0-0.4l-0.7-1.3
	c0.2-0.4,0.4-0.8,0.5-1.2l1.4-0.4c0.1,0,0.2-0.2,0.2-0.3v-0.6c0-0.1-0.1-0.2-0.2-0.3l-1.4-0.4c-0.1-0.4-0.3-0.9-0.5-1.2l0.7-1.3
	c0.1-0.1,0-0.3,0-0.3l-0.5-0.5c-0.1-0.1-0.2-0.1-0.4-0.1l-1.3,0.7c-0.4-0.2-0.8-0.4-1.2-0.5l-0.4-1.4c0-0.1-0.2-0.2-0.3-0.2h-0.7
	c-0.1,0-0.2,0.1-0.3,0.2L1408.6,309.2z M1409.7,310.8c-1.5,0-2.7,1.2-2.7,2.7s1.2,2.7,2.7,2.7s2.7-1.2,2.7-2.7
	C1412.4,312.1,1411.2,310.8,1409.7,310.8L1409.7,310.8z"/>
<path fill="#E68C1E" d="M2501.6,19.1c-0.4,0.1-0.9,0.3-1.2,0.5l-1.3-0.7c-0.1-0.1-0.3,0-0.4,0.1l-0.5,0.5c-0.1,0.1-0.1,0.2-0.1,0.3
	l0.7,1.3c-0.2,0.4-0.4,0.8-0.5,1.2l-1.4,0.4c-0.1,0-0.2,0.1-0.2,0.3v0.7c0,0.1,0.1,0.2,0.2,0.3l1.4,0.4c0.1,0.4,0.3,0.9,0.5,1.2
	l-0.7,1.3c-0.1,0.1,0,0.3,0.1,0.4l0.5,0.5c0.1,0.1,0.2,0.1,0.4,0l1.3-0.7c0.4,0.2,0.8,0.4,1.2,0.5l0.4,1.4c0,0.1,0.2,0.2,0.3,0.2
	h0.7c0.1,0,0.2-0.1,0.3-0.2l0.4-1.4c0.4-0.1,0.9-0.3,1.2-0.5l1.3,0.7c0.1,0.1,0.3,0,0.4,0l0.5-0.5c0.1-0.1,0.1-0.2,0-0.4l-0.7-1.3
	c0.2-0.4,0.4-0.8,0.5-1.2l1.4-0.4c0.1,0,0.2-0.2,0.2-0.3V23c0-0.1-0.1-0.2-0.2-0.3l-1.4-0.4c-0.1-0.4-0.3-0.9-0.5-1.2l0.7-1.3
	c0.1-0.1,0-0.3,0-0.3l-0.4-0.5c-0.1-0.1-0.2-0.1-0.4-0.1l-1.3,0.7c-0.4-0.2-0.8-0.4-1.2-0.5l-0.4-1.4c0-0.1-0.2-0.2-0.3-0.2h-0.7
	c-0.1,0-0.2,0.1-0.3,0.2L2501.6,19.1z M2502.7,20.8c-1.5,0-2.7,1.2-2.7,2.7c0,1.5,1.2,2.7,2.7,2.7s2.7-1.2,2.7-2.7
	C2505.4,22,2504.2,20.8,2502.7,20.8L2502.7,20.8z"/>
<path fill="#E68C1E" d="M1474.5,565.6c-0.4,0.1-0.9,0.3-1.2,0.5l-1.3-0.7c-0.1-0.1-0.3,0-0.4,0.1l-0.5,0.5c-0.1,0.1-0.1,0.2-0.1,0.3
	l0.7,1.3c-0.2,0.4-0.4,0.8-0.5,1.2l-1.4,0.4c-0.1,0-0.2,0.1-0.2,0.3v0.7c0,0.1,0.1,0.2,0.2,0.3l1.4,0.4c0.1,0.4,0.3,0.9,0.5,1.2
	l-0.7,1.3c-0.1,0.1,0,0.3,0.1,0.4l0.5,0.5c0.1,0.1,0.2,0.1,0.4,0l1.3-0.7c0.4,0.2,0.8,0.4,1.2,0.5l0.4,1.4c0,0.1,0.2,0.2,0.3,0.2
	h0.7c0.1,0,0.2-0.1,0.3-0.2l0.4-1.4c0.4-0.1,0.9-0.3,1.2-0.5l1.3,0.7c0.1,0.1,0.3,0,0.4,0l0.5-0.5c0.1-0.1,0.1-0.2,0-0.4l-0.7-1.3
	c0.2-0.4,0.4-0.8,0.5-1.2l1.4-0.4c0.1,0,0.2-0.2,0.2-0.3v-0.7c0-0.1-0.1-0.2-0.2-0.3l-1.4-0.4c-0.1-0.4-0.3-0.9-0.5-1.2l0.7-1.3
	c0.1-0.1,0-0.3,0-0.3l-0.4-0.5c-0.1-0.1-0.2-0.1-0.4-0.1l-1.3,0.7c-0.4-0.2-0.8-0.4-1.2-0.5l-0.4-1.4c0-0.1-0.2-0.2-0.3-0.2h-0.7
	c-0.1,0-0.2,0.1-0.3,0.2L1474.5,565.6z M1475.6,567.2c-1.5,0-2.7,1.2-2.7,2.7s1.2,2.7,2.7,2.7s2.7-1.2,2.7-2.7
	C1478.3,568.5,1477.1,567.2,1475.6,567.2L1475.6,567.2z"/>
<g>
	<rect x="1849.3" y="403.8" fill="#D1784B" width="17.3" height="12.9"/>
	<path fill="#EB4141" d="M1883.8,433.6V450v31.1v11h-4c-3.2,3.8-7.9,6.1-13.2,6.1h-17.3c-5.3,0-10-2.4-13.2-6.1h-4v-11V450v-16.5
		v-3.7c-1.4,0.5-2.7,1.3-3.7,2.3c-1.7,1.7-2.8,4.1-2.8,6.7v42.9h-12.9v-42.9c0-6.2,2.5-11.8,6.6-15.8c4.1-4.1,9.6-6.6,15.8-6.6h22.9
		h22.9c6.2,0,11.8,2.5,15.8,6.6c4.1,4,6.6,9.6,6.6,15.8v6.9v7.4c0,0.9,0.4,1.7,1,2.3s1.4,1,2.3,1c0.9,0,1.7-0.4,2.3-1
		c0.6-0.6,1-1.4,1-2.3V428h12.9v25.1c0,4.5-1.8,8.5-4.8,11.4c-2.9,2.9-7,4.8-11.4,4.8c-4.5,0-8.5-1.8-11.5-4.8
		c-2.9-2.9-4.8-7-4.8-11.4v-7.4v-6.9c0-2.6-1.1-4.9-2.8-6.7c-1-1-2.3-1.8-3.8-2.3L1883.8,433.6L1883.8,433.6z"/>
	<path fill="#D1784B" d="M1858,425.2c4.8,0,8.6-3.9,8.6-8.6c0-4.8-3.9-8.6-8.6-8.6c-4.8,0-8.6,3.9-8.6,8.6
		C1849.3,421.4,1853.2,425.2,1858,425.2L1858,425.2z"/>
	<path fill="#D1784B" d="M1910.8,429.6c1.2,0,2.2-1,2.2-2.2v-8.6c0-1.2-1-2.2-2.2-2.2c-1.2,0-2.2,1-2.2,2.2v8.6
		C1908.7,428.7,1909.7,429.6,1910.8,429.6L1910.8,429.6z"/>
	<path fill="#D1784B" d="M1915.1,434.4c-3.6,0-6.5-2.9-6.5-6.5s2.9-6.5,6.5-6.5h6c1.4,0,2.5,1.1,2.5,2.5v7.9c0,1.4-1.1,2.5-2.5,2.5
		L1915.1,434.4L1915.1,434.4z"/>
	<rect x="1887" y="394.8" fill="#3D5FBA" width="32.1" height="50.2"/>
	<polygon fill="#8296CC" points="1913.1,403.3 1913.1,400.8 1910.6,400.8 1895.6,400.8 1893.1,400.8 1893.1,403.3 1893.1,410.9 
		1895.6,410.9 1895.6,403.3 1910.6,403.3 1910.6,410.9 1913.1,410.9 	"/>
	<rect x="1911.4" y="410.9" fill="#999999" width="0.8" height="17.6"/>
	<rect x="1893.9" y="410.9" fill="#999999" width="0.8" height="17.6"/>
	<rect x="1893.1" y="422.9" fill="#999999" width="20" height="0.8"/>
	<path fill="#8296CC" d="M1895.6,437.8h15.1v1.3h-15.1V437.8z M1895.6,432.8h15.1v1.3h-15.1V432.8z M1895.6,435.3h15.1v1.3h-15.1
		V435.3z"/>
	<path fill="#FD9C64" d="M1921.1,421.5c-3.6,0-6.5,2.9-6.5,6.5c0,3.6,2.9,6.5,6.5,6.5c1.4,0,2.5-1.1,2.5-2.5v-7.9
		C1923.6,422.6,1922.5,421.5,1921.1,421.5L1921.1,421.5z"/>
	<path fill="#FD9C65" d="M1825.7,485.8v-4h-12.9v7.7c0,0.1,0,0.2,0,0.3v6c0,1.4,1.1,2.5,2.5,2.5h7.9c1.4,0,2.5-1.1,2.5-2.5v-5.6h1.9
		c1.2,0,2.2-1,2.2-2.2c0-1.2-1-2.2-2.2-2.2L1825.7,485.8L1825.7,485.8z"/>
	<path fill="#756152" d="M1875.1,342.5L1875.1,342.5c4.7,0,8.6,3.9,8.6,8.6V364c0,4.7-3.9,8.6-8.6,8.6l0,0c-4.7,0-8.6-3.9-8.6-8.6
		v-12.9C1866.6,346.4,1870.5,342.5,1875.1,342.5L1875.1,342.5z"/>
	<path fill="#756152" d="M1840.7,342.5L1840.7,342.5c4.7,0,8.6,3.9,8.6,8.6V364c0,4.7-3.9,8.6-8.6,8.6l0,0c-4.7,0-8.6-3.9-8.6-8.6
		v-12.9C1832.2,346.4,1836.1,342.5,1840.7,342.5L1840.7,342.5z"/>
	<path fill="#D1784B" d="M1836.5,366.2L1836.5,366.2c3.6,0,6.5,2.9,6.5,6.5l0,0c0,3.6-2.9,6.5-6.5,6.5l0,0c-3.6,0-6.5-2.9-6.5-6.5
		l0,0C1830,369.1,1832.9,366.2,1836.5,366.2L1836.5,366.2z"/>
	<path fill="#D1784B" d="M1879.5,366.2L1879.5,366.2c3.6,0,6.5,2.9,6.5,6.5l0,0c0,3.6-2.9,6.5-6.5,6.5l0,0c-3.6,0-6.5-2.9-6.5-6.5
		l0,0C1873.1,369.1,1875.9,366.2,1879.5,366.2L1879.5,366.2z"/>
	<path fill="#756152" d="M1858,349L1858,349c13.9,0,25.1,11.4,25.1,25.1v12.6c0,13.9-11.4,25.1-25.1,25.1l0,0
		c-13.9,0-25.1-11.3-25.1-25.1v-12.6C1832.8,360.4,1844.1,349,1858,349L1858,349z"/>
	<path fill="#FD9C65" d="M1858,342.5L1858,342.5c11.9,0,21.5,9.7,21.5,21.5v17.3c0,11.9-9.7,21.5-21.5,21.5l0,0
		c-11.9,0-21.5-9.7-21.5-21.5v-17.3C1836.5,352.2,1846.1,342.5,1858,342.5L1858,342.5z"/>
	<path fill="#333333" d="M1845,374.8c1.2,0,2.2-1,2.2-2.2c0-1.2-1-2.2-2.2-2.2c-1.2,0-2.2,1-2.2,2.2
		C1842.9,373.9,1843.8,374.8,1845,374.8L1845,374.8z"/>
	<path fill="#333333" d="M1870.9,374.8c1.2,0,2.2-1,2.2-2.2c0-1.2-1-2.2-2.2-2.2c-1.2,0-2.2,1-2.2,2.2
		C1868.8,373.9,1869.7,374.8,1870.9,374.8L1870.9,374.8z"/>
	<path fill="#333333" d="M1841.8,368.4h6.5c0.6,0,1.1-0.5,1.1-1.1l0,0c0-0.6-0.5-1.1-1.1-1.1h-6.5c-0.6,0-1.1,0.5-1.1,1.1l0,0
		C1840.7,367.9,1841.2,368.4,1841.8,368.4L1841.8,368.4z"/>
	<path fill="#333333" d="M1867.7,368.4h6.5c0.6,0,1.1-0.5,1.1-1.1l0,0c0-0.6-0.5-1.1-1.1-1.1h-6.5c-0.6,0-1.1,0.5-1.1,1.1l0,0
		C1866.6,367.9,1867.1,368.4,1867.7,368.4L1867.7,368.4z"/>
	<path fill="#FEFEFE" d="M1847.1,387.3c2.3,3.6,6.3,5.9,10.9,5.9c4.6,0,8.6-2.4,10.9-5.9H1847.1z"/>
	<path fill="#F8AF22" d="M1864.5,327.4c11.4,3,19.8,13.4,19.8,25.5v5.9h-52.8v-5.9c0-12.3,8.5-22.6,19.8-25.5l0,0c0-1.1,0.9-2,2-2
		h9.2C1863.6,325.4,1864.5,326.3,1864.5,327.4L1864.5,327.4z"/>
	<path fill="#E88B00" d="M1841.3,332.4c2.9-2.3,6.3-4,9.9-5v7.4c0,2.7-2.2,5-5,5l0,0c-2.7,0-5-2.2-5-5L1841.3,332.4L1841.3,332.4z"
		/>
	<path fill="#E88B00" d="M1864.5,327.4c3.7,1,7,2.7,9.9,5v2.4c0,2.7-2.2,5-5,5l0,0c-2.7,0-5-2.2-5-5L1864.5,327.4L1864.5,327.4z"/>
	<path fill="#E88B00" d="M1857.9,358.8h-26.4c0,3.1,11.9,5.7,26.4,5.7c14.6,0,26.4-2.5,26.4-5.7H1857.9z"/>
	<path fill="#333333" d="M1868.9,387.3c0-2.6-2.1-4.8-4.8-4.8h-12.2c-2.6,0-4.8,2.1-4.8,4.8H1868.9z"/>
	<path fill="#756152" d="M1858,409.3c3.6,0,6.5-2.9,6.5-6.5s-2.9-6.5-6.5-6.5c-3.6,0-6.5,2.9-6.5,6.5
		C1851.5,406.3,1854.4,409.3,1858,409.3L1858,409.3z"/>
	<path fill="#D1784B" d="M1862,379.8c1.1,0.6,1.9,1.7,1.9,3.1l0,0c0,1.9-1.5,3.4-3.4,3.4h-2.8h-2.8c-1.9,0-3.4-1.5-3.4-3.4l0,0
		c0-1.3,0.8-2.5,1.9-3.1v-8.6c0-2.4,1.9-4.3,4.3-4.3l0,0c2.4,0,4.3,1.9,4.3,4.3V379.8z"/>
	<path fill="#333333" d="M1855.1,370.1h5.5v-0.4c0-0.7,0.3-1.3,0.7-1.7l0,0c0.4-0.4,1-0.7,1.7-0.7h5.8h4h5.8c0.7,0,1.3,0.3,1.7,0.7
		c0.4,0.4,0.7,1,0.7,1.7v3.4c0,2.3-0.9,4.3-2.4,5.8s-3.5,2.4-5.8,2.4h-4c-2.3,0-4.3-0.9-5.8-2.4s-2.4-3.5-2.4-5.8v-0.4h-5.5v0.4
		c0,2.3-0.9,4.3-2.4,5.8s-3.5,2.4-5.8,2.4h-4c-2.3,0-4.3-0.9-5.8-2.4s-2.4-3.5-2.4-5.8v-3.5c0-0.7,0.3-1.3,0.7-1.7l0,0
		c0.4-0.4,1-0.7,1.7-0.7h5.8h4h5.8c0.7,0,1.3,0.3,1.7,0.7c0.4,0.4,0.7,1,0.7,1.7L1855.1,370.1L1855.1,370.1z M1846.9,369.8h-4h-5.6
		v3.3c0,1.6,0.6,3,1.7,4c1,1,2.4,1.7,4,1.7h4c1.6,0,3-0.6,4-1.6c1-1,1.6-2.5,1.6-4v-3.3L1846.9,369.8L1846.9,369.8z M1872.8,369.8
		h-4h-5.6v3.3c0,1.6,0.6,3,1.7,4c1,1,2.4,1.7,4,1.7h4c1.6,0,3-0.6,4-1.6c1-1,1.6-2.5,1.6-4v-3.3L1872.8,369.8L1872.8,369.8z"/>
	<path fill="#FFF7DE" d="M1837.6,416.5h7.2V450h26.4v-33.5h7.2V450v32.8h5.4v101.9h-17.3v-55.9v-17.2c0-4.7-3.9-8.6-8.6-8.6l0,0
		c-4.7,0-8.6,3.9-8.6,8.6v17.3v55.9h-17.3v-102h5.4V450L1837.6,416.5L1837.6,416.5z"/>
	<polygon fill="#EB4141" points="1849.3,571.6 1832.2,571.6 1832.2,589.2 1820.4,597 1820.4,602.1 1849.3,602.1 1849.3,589.2 	"/>
	<polygon fill="#EB4141" points="1866.6,571.6 1883.8,571.6 1883.8,589.2 1895.6,597 1895.6,602.1 1866.6,602.1 1866.6,589.2 	"/>
	<path fill="#FFF7DE" d="M1849.3,602.1h-29c-1.4,0-2.5-1.1-2.5-2.5l0,0c0-1.4,1.1-2.5,2.5-2.5h29V602.1z"/>
	<path fill="#FFF7DE" d="M1866.6,602.1h29c1.4,0,2.5-1.1,2.5-2.5l0,0c0-1.4-1.1-2.5-2.5-2.5h-29V602.1z"/>
	<rect x="1844.7" y="455.5" fill="#E6DFC8" width="26.4" height="27.3"/>
	<rect x="1878.3" y="500.3" fill="#E6DFC8" width="7.4" height="19.3"/>
	<rect x="1830.2" y="500.3" fill="#E6DFC8" width="7.4" height="19.3"/>
</g>
<g enable-background="new    ">
	<path fill="#FFFFFF" d="M1712.3,220.3c0,1.1-0.3,2.1-1,2.8c-0.7,0.8-1.6,1.3-2.8,1.5v0.1c1.4,0.2,2.5,0.6,3.2,1.3
		c0.7,0.7,1.1,1.7,1.1,2.9c0,1.7-0.6,3.1-1.8,4c-1.2,0.9-3,1.4-5.2,1.4c-2,0-3.7-0.3-5-1v-2.6c0.8,0.4,1.6,0.7,2.4,0.9
		c0.9,0.2,1.7,0.3,2.5,0.3c1.4,0,2.4-0.3,3.1-0.8c0.7-0.5,1-1.3,1-2.4c0-1-0.4-1.7-1.1-2.1c-0.8-0.4-2-0.7-3.6-0.7h-1.6v-2.3h1.6
		c2.9,0,4.3-1,4.3-3c0-0.8-0.3-1.4-0.7-1.8c-0.5-0.4-1.2-0.6-2.2-0.6c-0.7,0-1.3,0.1-2,0.3c-0.6,0.2-1.4,0.6-2.2,1.1l-1.4-2
		c1.6-1.2,3.6-1.8,5.7-1.8c1.8,0,3.2,0.4,4.2,1.2S1712.3,219,1712.3,220.3z"/>
	<path fill="#FFFFFF" d="M1721.4,228.6v-2.5h6.3v2.5H1721.4z"/>
	<path fill="#FFFFFF" d="M1742.3,216c1.7,0,3,0.4,4,1.2s1.5,1.8,1.5,3.1c0,1.8-1.1,3.3-3.3,4.4c1.4,0.7,2.4,1.4,3,2.2
		c0.6,0.8,0.9,1.6,0.9,2.6c0,1.5-0.5,2.7-1.6,3.6c-1.1,0.9-2.6,1.3-4.4,1.3c-1.9,0-3.5-0.4-4.5-1.3c-1.1-0.8-1.6-2-1.6-3.5
		c0-1,0.3-1.9,0.8-2.7s1.5-1.5,2.8-2.1c-1.1-0.7-1.9-1.3-2.3-2.1c-0.5-0.7-0.7-1.5-0.7-2.5c0-1.3,0.5-2.3,1.5-3.1
		C1739.3,216.3,1740.7,216,1742.3,216z M1739,229.5c0,0.9,0.3,1.5,0.9,2c0.6,0.5,1.4,0.7,2.4,0.7c1.1,0,1.9-0.2,2.5-0.7
		s0.9-1.1,0.9-2c0-0.7-0.3-1.3-0.8-1.8s-1.4-1.1-2.5-1.5l-0.4-0.2c-1.1,0.5-1.9,1-2.3,1.6C1739.2,228.1,1739,228.8,1739,229.5z
		 M1742.3,218.2c-0.8,0-1.5,0.2-2,0.6c-0.5,0.4-0.7,1-0.7,1.7c0,0.4,0.1,0.8,0.3,1.1c0.2,0.3,0.4,0.6,0.8,0.9s0.9,0.6,1.7,1
		c1-0.4,1.7-0.9,2.1-1.4c0.4-0.5,0.6-1,0.6-1.7c0-0.7-0.3-1.2-0.8-1.7C1743.8,218.4,1743.1,218.2,1742.3,218.2z"/>
	<path fill="#FFFFFF" d="M1766.2,234.1l-5.2-15h-0.1c0.1,2.2,0.2,4.3,0.2,6.3v8.7h-2.7v-17.9h4.1l5,14.3h0.1l5.1-14.3h4.1v17.9h-2.8
		v-8.9c0-0.9,0-2.1,0.1-3.5c0-1.4,0.1-2.3,0.1-2.6h-0.1l-5.4,15H1766.2z"/>
	<path fill="#FFFFFF" d="M1792.7,234.1l-1.8-5h-6.9l-1.8,5h-3.1l6.7-18h3.2l6.7,18H1792.7z M1790.2,226.6l-1.7-4.9
		c-0.1-0.3-0.3-0.8-0.5-1.5s-0.4-1.2-0.4-1.5c-0.2,1-0.5,2.1-1,3.3l-1.6,4.7H1790.2z"/>
	<path fill="#FFFFFF" d="M1803.3,224.4l4.2-8.2h3.2l-6,11v7h-2.9v-6.9l-6-11.1h3.2L1803.3,224.4z"/>
	<path fill="#FFFFFF" d="M1815.8,231.5c-0.4,1.5-1.1,3.5-2.2,5.9h-2.1c0.6-2.2,1-4.3,1.3-6.2h2.8L1815.8,231.5z"/>
	<path fill="#FFFFFF" d="M1840,234.1h-3.4l-5.6-8.1l-1.7,1.4v6.7h-2.9v-17.9h2.9v8.6c0.8-1,1.6-1.9,2.4-2.8l4.8-5.7h3.3
		c-3.1,3.7-5.4,6.3-6.7,7.9L1840,234.1z"/>
	<path fill="#FFFFFF" d="M1847.5,224.4l4.2-8.2h3.2l-6,11v7h-2.9v-6.9l-6-11.1h3.2L1847.5,224.4z"/>
	<path fill="#FFFFFF" d="M1857.3,234.1v-17.9h2.9v17.9H1857.3z"/>
	<path fill="#FFFFFF" d="M1875.2,216.2h3l-6.3,17.9h-3.1l-6.3-17.9h3l3.7,11.2c0.2,0.5,0.4,1.2,0.6,2.1c0.2,0.8,0.4,1.5,0.4,1.9
		c0.1-0.6,0.3-1.3,0.5-2.2c0.2-0.8,0.4-1.4,0.5-1.8L1875.2,216.2z"/>
</g>
</svg>
