<svg xmlns="http://www.w3.org/2000/svg" viewBox="0 0 266 173.3"><path fill-rule="evenodd" clip-rule="evenodd" fill="#3D5FBA" d="M160.5 36.8h93.2v121.1h-93.2z"/><path fill-rule="evenodd" clip-rule="evenodd" fill="#FFF" d="M165.4 41.8h83.3v111.1h-83.3z"/><path fill-rule="evenodd" clip-rule="evenodd" fill="#999" d="M193 56h27.8v-3.5H193V56zm-13.8 41.6h55.5v-3.5h-55.5v3.5zm0-6.9h55.5v-3.5h-55.5v3.5zm0-6.9h55.5v-3.5h-55.5v3.5zm0-7h55.5v-3.5h-55.5v3.5zm0-6.9h55.5v-3.5h-55.5v3.5zm27.7 59h27.8v-3.5h-27.8v3.5zm0 6.9h27.8v-3.5h-27.8v3.5z"/><path fill="#999" d="M190.7 112.7c3.2 0 6.1 1.3 8.2 3.4 2.1 2.1 3.4 5 3.4 8.2 0 3.2-1.3 6.1-3.4 8.2-2.1 2.1-5 3.4-8.2 3.4s-6.1-1.3-8.2-3.4c-2.1-2.1-3.4-5-3.4-8.2 0-3.2 1.3-6.1 3.4-8.2 2.1-2.1 5-3.4 8.2-3.4zm5.2 6.4c-1.3-1.3-3.2-2.2-5.2-2.2s-3.9.8-5.2 2.2c-1.3 1.3-2.2 3.2-2.2 5.2s.8 3.9 2.2 5.2c1.3 1.3 3.2 2.2 5.2 2.2s3.9-.8 5.2-2.2c1.3-1.3 2.2-3.2 2.2-5.2 0-2.1-.8-3.9-2.2-5.2z"/><g fill-rule="evenodd" clip-rule="evenodd"><path fill="#6C787F" d="M102.7 87l7.8 4.5 7.8 4.5v18l-7.8 4.5-7.8 4.5-7.8-4.5-7.8-4.5V96l7.8-4.5 7.8-4.5zm0 9.3c4.8 0 8.6 3.9 8.6 8.6 0 4.8-3.9 8.6-8.6 8.6-4.8 0-8.6-3.9-8.6-8.6-.1-4.7 3.8-8.6 8.6-8.6z"/><path fill="#505B60" d="M102.7 87l7.8 4.5 7.8 4.5v18l-7.8 4.5-7.8 4.5v-9.4c4.8 0 8.6-3.9 8.6-8.6 0-4.8-3.9-8.6-8.6-8.6V87z"/></g><path fill-rule="evenodd" clip-rule="evenodd" fill="#EB4141" d="M63.6 130.9c-1.1.3-2.2.7-3.1 1.3l-3.3-1.7c-.3-.1-.6-.1-.9.1l-1.3 1.3c-.3.2-.3.6-.1.9l1.7 3.3c-.6 1-1 2-1.3 3.2l-3.6 1.1c-.3.1-.5.4-.5.7v1.8c0 .3.2.6.5.7l3.6 1.1c.3 1.1.7 2.2 1.3 3.1l-1.7 3.3c-.2.3-.1.7.1.9l1.3 1.3c.3.2.6.3.9.1l3.3-1.7c1 .6 2 1 3.1 1.3l1.1 3.6c.1.3.4.5.7.5h1.8c.3 0 .6-.2.7-.5L69 153c1.1-.3 2.2-.7 3.1-1.3l3.3 1.7c.3.2.6.1.9-.1l1.3-1.3c.2-.2.3-.6.1-.9l-1.7-3.3c.6-1 1-2 1.3-3.1l3.6-1.1c.3-.1.5-.4.5-.7v-1.8c0-.3-.2-.6-.5-.7l-3.6-1.1c-.3-1.1-.7-2.2-1.3-3.2l1.7-3.3c.2-.3.1-.6-.1-.9l-1.3-1.3c-.3-.2-.6-.3-.9-.1l-3.3 1.7c-1-.6-2-1-3.1-1.3l-1.1-3.6c-.1-.3-.4-.5-.7-.5h-1.8c-.3 0-.6.2-.7.5l-1.1 3.6zm2.8 4.2c-3.8 0-6.9 3.1-6.9 6.9 0 3.8 3.1 6.9 6.9 6.9 3.8 0 6.9-3.1 6.9-6.9 0-3.8-3.1-6.9-6.9-6.9z"/><path fill="#727272" d="M43.5 115.1h14.4c.5 0 .9-1 .9-2.2 0-1.2-.4-2.2-.9-2.2H43.5c-.5 0-.9 1-.9 2.2 0 1.3.4 2.2.9 2.2z"/><path fill="#FFCF33" d="M50.8 21.4c-.7 0-1.2-.5-1.2-1.2v-9.6c0-.7.5-1.2 1.2-1.2s1.2.5 1.2 1.2v9.6c0 .7-.5 1.2-1.2 1.2zM21.9 36.6c-.4.3-1 .3-1.4 0l-7.6-5.8c-.5-.4-.6-1.1-.2-1.7.4-.5 1.1-.6 1.7-.2l7.6 5.8c.5.4.6 1.1.2 1.7-.1.1-.2.2-.3.2zm59.6.8c.4.4.9.5 1.4.2l8.4-4.6c.6-.3.8-1 .5-1.6-.3-.6-1-.8-1.6-.5l-8.4 4.6c-.6.3-.8 1-.5 1.6 0 .1.1.2.2.3zM17.4 66.2c0 .5-.3 1-.8 1.2l-9.1 2.9c-.6.2-1.3-.1-1.5-.8-.2-.6.1-1.3.8-1.5l9.1-2.9c.6-.2 1.3.1 1.5.8v.3zm74 9.6c-.4.4-1 .4-1.4.2l-8.2-5c-.6-.3-.7-1.1-.4-1.6.3-.5 1.1-.7 1.6-.4l8.2 5c.6.3.7 1.1.4 1.6-.1.1-.1.2-.2.2z"/><path fill="#FCAA3D" d="M23.1 55.9c0-15.3 12.4-27.8 27.8-27.8 15.3 0 27.8 12.4 27.8 27.8 0 .9-.7 13.7-11.1 27.2-3.1 4.1-2.6 12.2-2.5 12.2H36.9s.6-8.2-2.5-12.2C23.7 69.7 23.1 56.8 23.1 55.9z"/><path fill="#FFCF33" d="M50.8 95.4H36.6s.6-8.2-2.5-12.2c-10.4-13.5-11-26.4-11-27.3 0-15.3 12.4-27.8 27.8-27.8"/><path fill="#FFF" d="M72.7 55.9h-1.8c0-8-6.5-14.5-14.5-14.5v-1.8c9 0 16.3 7.3 16.3 16.3z"/><path fill="#595959" d="M56.9 97.5l-2.4-.4 4.7-28.7 2.4.4-4.7 28.7zm-12.1 0L40 68.8l2.4-.4 4.8 28.7-2.4.4z"/><path fill="#595959" d="M60.3 72.5c-1 0-1.4-1-1.7-1.7-.1-.3-.4-.9-.6-.9-.2 0-.4.6-.6.9-.3.7-.7 1.7-1.7 1.7s-1.4-1-1.7-1.7c-.1-.3-.4-.9-.6-.9-.2 0-.4.6-.6.9-.3.7-.7 1.7-1.7 1.7s-1.4-1-1.7-1.7c-.1-.3-.4-.9-.6-.9-.2 0-.4.6-.6.9-.3.7-.7 1.7-1.7 1.7s-1.4-1-1.7-1.7c-.1-.3-.4-.9-.6-.9-.2 0-.4.6-.6.9-.3.7-.7 1.7-1.7 1.7v-1.3c.2 0 .4-.6.6-.9.3-.7.7-1.7 1.7-1.7s1.4 1 1.7 1.7c.1.3.4.9.6.9.2 0 .4-.6.6-.9.3-.7.7-1.7 1.7-1.7s1.4 1 1.7 1.7c.1.3.4.9.6.9.2 0 .4-.6.6-.9.3-.7.7-1.7 1.7-1.7s1.4 1 1.7 1.7c.1.3.4.9.6.9.2 0 .4-.6.6-.9.3-.7.7-1.7 1.7-1.7s1.4 1 1.7 1.7c.1.3.4.9.6.9v1.3zm4.7 23V110c0 1-.8 1.8-1.8 1.8H38.5c-1 0-1.8-.8-1.8-1.8V95.5H65z"/><path fill="#727272" d="M65.5 98.4H36.1c-.8 0-1.4-.6-1.4-1.4 0-.8.6-1.4 1.4-1.4h29.4c.8 0 1.4.6 1.4 1.4.1.7-.6 1.4-1.4 1.4zm0 4.7H36.1c-.8 0-1.4-.6-1.4-1.4 0-.8.6-1.4 1.4-1.4h29.4c.8 0 1.4.6 1.4 1.4.1.8-.6 1.4-1.4 1.4zm0 4.7H36.1c-.8 0-1.4-.6-1.4-1.4s.6-1.4 1.4-1.4h29.4c.8 0 1.4.6 1.4 1.4s-.6 1.4-1.4 1.4z"/><path fill="#68D1AC" d="M132.1 121.6c2.6 9.8 11.5 16.5 21.7 16.2 5.8-.1 11.3-2.5 15.3-6.8 4-4.2 6.2-9.8 6.1-15.6 0-1.8-.3-3.5-.7-5.2-2.6-9.8-11.5-16.5-21.7-16.2-5.8.1-11.3 2.5-15.3 6.8-4.1 4.2-6.2 9.8-6.1 15.6 0 1.7.2 3.5.7 5.2z"/><path fill="#1DA39C" d="M106.7 162.5c.1.5.4.9.8 1.3 1.1 1.1 2.9 1 4-.1l30.6-32c1.1-1.1 1-2.9-.1-4s-2.9-1-4 .1l-30.6 32c-.7.7-.9 1.8-.7 2.7z"/><path fill="#1DA39C" d="M139.5 129.9l27.7-29c.3-.4.7-.7 1-1.1-4.1-3.8-9.5-6-15.4-5.9-5.8.1-11.3 2.5-15.3 6.8-4.1 4.2-6.2 9.8-6.1 15.6 0 1.8.3 3.5.7 5.2.6 2.2 1.5 4.2 2.7 6.1 1.8.4 3.3 1.2 4.7 2.3z"/><path fill="#FFF" d="M169 111.6c.3 1.3.5 2.6.6 3.9.1 4.3-1.5 8.5-4.5 11.6-3 3.2-7.1 4.9-11.4 5-7.5.2-14.2-4.8-16.1-12.1-.3-1.3-.5-2.6-.6-3.9-.1-4.3 1.5-8.5 4.5-11.6 3-3.2 7.1-4.9 11.4-5 7.5-.1 14.2 4.9 16.1 12.1z"/><path fill="#13065B" d="M179.4 59.3c0 1.5-1.1 2.8-2.4 2.8h-4.6v10.4l-11.2-10.4H132c-1.3 0-2.4-1.2-2.4-2.8V28c0-1.5 1.1-2.8 2.4-2.8h45c1.3 0 2.4 1.2 2.4 2.8v31.3z"/><path fill="#88CFE3" d="M110.7 45.5c0 1.5 1.1 2.8 2.4 2.8h4.6v10.4l11.2-10.4h29.2c1.3 0 2.4-1.2 2.4-2.8V14.1c0-1.5-1.1-2.8-2.4-2.8h-45c-1.3 0-2.4 1.2-2.4 2.8v31.4z"/><path fill="#13065B" d="M118.2 21.4H153v2.4h-34.8zm0 7.6H153v2.4h-34.8zm0 7.5h27.1v2.4h-27.1z"/></svg>