<svg xmlns="http://www.w3.org/2000/svg" viewBox="0 0 399 423"><path fill="#7EBA45" d="M66.4 295.6h47v88.8h-47zm104.5-33h47v121.8h-47zm104.6-30.4h47V385h-47z"/><path fill="#13065B" stroke="#BAD19F" stroke-width="2" stroke-miterlimit="10" d="M20 384.4h351"/><path fill="none" stroke="#BAD19F" stroke-width="2" stroke-miterlimit="10" d="M31 183v213"/><path fill="none" stroke="#13065B" stroke-width="2" stroke-linecap="round" stroke-linejoin="round" stroke-miterlimit="10" stroke-dasharray="0.2,4" d="M80.4 234.2c11.7-3.1 31.7-12.3 41.5-22.2 12.1-12.2 24.4-29.9 17.3-51.7-2.6-7.9-12.1-22.1-24.5-15.6-10.6 5.5-4.9 21.4.2 28.8 6.8 9.9 21.7 16.3 28.4 18.8 8.2 3 26.5 1.1 36.7-5 6.2-3.8 10.2-9.8 12.5-13.6 4.1-6.6 11.7-29.2 6.2-46.7-5-15.9-14.4-25.2-25.7-17.9-10.2 6.6-3.7 23.3.4 29.6 4.7 7.2 20.8 19.3 32.9 20.4 7 .7 12.4 2.7 25.2-3.1 17.1-7.7 25.8-29 29.1-39.7"/><g fill-rule="evenodd" clip-rule="evenodd"><path fill="#FFCF33" d="M271.5 106.8c-.8-6.9 2.9-18.3 8.8-24.6 3.2-3.5 7.1-5.6 10.6-6.3l4.9 4.6-24.3 26.3z"/><path fill="#EFB40F" d="M271.5 106.8c7 .3 18-4.3 23.9-10.7 3.2-3.5 5.1-7.5 5.4-11.1l-4.9-4.6-24.4 26.4z"/><path fill="#FBF0C0" d="M279.5 98.2c-.6-4.9 2.1-12.9 6.2-17.4 1.8-2 3.9-3.3 6-4.1l4.1 3.8-16.3 17.7z"/><path fill="#F6DA6B" d="M279.5 98.2c4.9.2 12.7-3 16.9-7.6 1.8-2 3-4.2 3.6-6.3l-4.1-3.8-16.4 17.7z"/><path opacity=".96" fill="#13065B" d="M309.2 86.6L306.4 97c-1 3.5 1 4 2.8 3.7 6.3-1.3 12.4-4.7 18.7-11.5 6.7-7.2 9.4-17.1 10-24.2-.6.8-1.3 1.5-1.9 2.2-7.3 8-18.5 16.4-26.8 19.4z"/><path opacity=".44" fill="#65D6FC" d="M288.7 67.6c2.4-8.5 9.9-20.3 17.2-28.2 8.8-9.5 22.7-17.4 33.6-21.1l7.5 6.9-48 51.9-10.3-9.5z"/><path opacity=".96" fill="#13065B" d="M288.7 67.6l-11.1 3.9c-2.6.9-3.1-1.2-2.9-2.9.7-6.5 3.7-12.6 10-19.4 6.8-7.3 16.6-10.8 23.6-11.9 1.4-.1 2.2 1.2.2 2.7-8 6.3-17.5 19.5-19.8 27.6z"/><path opacity=".76" fill="#65D6FC" d="M309.2 86.6c8.3-3.1 19.5-11.4 26.8-19.4 8.8-9.5 15.6-24 18.5-35.1l-7.5-6.9-48 51.9 10.2 9.5z"/><path fill="#EB4141" d="M295.8 80.5l-6.1-5.6c-.9-.9-1.9-2.1-1.8-3.7.1-1.1.4-2.3.7-3.6l10.3 9.5-3.1 3.4z"/><path opacity=".96" fill="#3A34B7" d="M339.5 18.3c7.2-2.5 13.1-3.2 15.1-1.3l-7.6 8.3-7.5-7z"/><path fill="#EB4141" d="M295.8 80.5l6.1 5.6c.9.9 2.3 1.8 3.8 1.5 1.1-.2 2.3-.5 3.5-1L299 77.1l-3.2 3.4z"/><path opacity=".96" fill="#13065B" d="M354.5 32.2c1.9-7.4 2.2-13.3.1-15.2l-7.6 8.3 7.5 6.9z"/><path fill="#EF7373" d="M292.6 85.9c-1.7 1.2-3.5-.1-2.3-2.3 1.2-2.2 18.1-22.6 22-25.2 3.1-2.1 6.6.1 4.8 3.4-2.9 5.3-20.7 21.4-24.5 24.1z"/><path fill="#EB4141" d="M292.6 85.9c-.6.4-1.4.7-2.1.3-.1-.1-.3-.2-.4-.4.2.1.6.1.9-.2L313.9 61c1.2-1.2.9-3-1.6-2.5 3.1-2.1 6.6.1 4.8 3.4-2.9 5.2-20.7 21.3-24.5 24z"/><path fill="#8EC8AA" d="M322.1 52.1c-3.3-3.1-3.5-8.3-.4-11.6 3.1-3.3 8.3-3.5 11.6-.4l-11.2 12z"/><path fill="#6BA585" d="M322.1 52.1c3.3 3.1 8.5 2.9 11.6-.4 3.1-3.3 2.9-8.5-.4-11.6l-11.2 12z"/><path fill="#EF7373" d="M319.6 54.8c-4.8-4.5-5.1-12-.7-16.8 4.5-4.8 12-5.1 16.8-.7l-16.1 17.5z"/><path fill="#EB4141" d="M319.6 54.8c4.8 4.5 12.3 4.2 16.8-.7 4.5-4.8 4.2-12.3-.7-16.8l-16.1 17.5z"/><path fill="#EF7373" d="M320.2 54.2c-4.5-4.1-4.8-11.1-.6-15.6s11.1-4.8 15.6-.6l-15 16.2z"/><path fill="#EB4141" d="M320.2 54.2c4.5 4.1 11.5 3.9 15.6-.6s3.9-11.5-.6-15.6l-15 16.2z"/><path fill="#EF7373" d="M321.6 52.7c-3.7-3.4-3.9-9.1-.5-12.7 3.4-3.7 9.1-3.9 12.7-.5l-12.2 13.2z"/><path fill="#EB4141" d="M321.6 52.7c3.7 3.4 9.4 3.2 12.7-.5 3.4-3.7 3.2-9.4-.5-12.7l-12.2 13.2z"/><path opacity=".96" fill="#13065B" d="M288.7 67.6l-11.1 3.9c-2.2.8-1.7-2.5-1.4-3.8 1.2-5 4.1-10.9 10-16.2 5.9-5.3 13.8-8.1 19.6-9.2-7.3 6.9-14.8 17.9-17.1 25.3zm20.5 19l-2.7 10.1c-1 3.6 1.8 2.7 3.3 2.4 5.1-1.2 10.1-4.4 15.1-9.8s7.6-13.2 8.2-19c-4.4 4.2-9.6 8.4-14.6 11.6-3.3 2.1-6.5 3.8-9.3 4.7z"/><path fill="#FFF" d="M322.1 52.1c-3.3-3.1-3.5-8.3-.4-11.6 3.1-3.3 8.3-3.5 11.6-.4l-11.2 12z"/><path fill="#FFF" d="M322.1 52.1c3.3 3.1 8.5 2.9 11.6-.4 3.1-3.3 2.9-8.5-.4-11.6l-11.2 12z"/><path fill="#AAF5ED" d="M328.4 37.9l-1.5 4.3 3.6-3.9c-.5-.5-.7 0-1.3-.4h-.8z"/><path opacity=".44" fill="#65D6FC" d="M326.9 42.1l-3.8 10.7c1.2.2 1.8 1.7 3 1.5l5.3-15.1c-.3-.4-.6-.7-1-1l-3.5 3.9z"/></g><text transform="translate(75.915 283.936)" opacity=".96" fill="#13065B" font-family="'OpenSans-Bold'" font-size="16">177</text><text transform="translate(70.915 407.936)" opacity=".96" fill="#837CA9" font-family="'OpenSans-Bold'" font-size="16">2014</text><text transform="translate(175.915 407.936)" opacity=".96" fill="#837CA9" font-family="'OpenSans-Bold'" font-size="16">2015</text><text transform="translate(279.47 407.936)" opacity=".96" fill="#837CA9" font-family="'OpenSans-Bold'" font-size="16">2016</text><text transform="translate(179.915 251.936)" opacity=".96" fill="#13065B" font-family="'OpenSans-Bold'" font-size="16">211</text><text transform="translate(283.58 221.936)" opacity=".96" fill="#13065B" font-family="'OpenSans-Bold'" font-size="16">235</text></svg>