<svg xmlns="http://www.w3.org/2000/svg" viewBox="0 0 126 130"><path opacity=".1" clip-rule="evenodd" fill="none" stroke="#13065B" stroke-width="3" stroke-miterlimit="10" d="M51.7 31.6c-3.3.9-6.5 2.2-9.4 3.9l-10-5.2c-.9-.4-1.9-.3-2.7.4l-3.8 3.9c-.8.7-.9 1.8-.4 2.6l5.2 10c-1.8 2.9-3.1 6.1-3.9 9.5l-10.8 3.4c-1 .3-1.6 1.1-1.6 2.2v5.5c0 1 .6 1.8 1.6 2.2l10.8 3.4c.9 3.4 2.1 6.6 3.9 9.4l-5.2 10c-.5.9-.3 2 .4 2.7l3.8 3.9c.8.7 1.8.9 2.7.4l10-5.2c2.9 1.7 6.1 3.1 9.4 3.9l3.4 10.7c.3 1 1.2 1.6 2.2 1.6h5.4c1 0 1.9-.6 2.2-1.6l3.4-10.7c3.3-.8 6.5-2.2 9.4-3.9l10 5.2c.9.5 1.9.3 2.7-.4l3.9-3.9c.7-.7.9-1.8.4-2.7l-5.2-10c1.8-2.9 3.1-6 3.9-9.4l10.7-3.4c1-.3 1.6-1.2 1.6-2.2v-5.5c0-1-.6-1.9-1.6-2.2l-10.7-3.4c-.8-3.4-2.2-6.6-3.9-9.5l5.2-10c.5-.9.3-1.9-.4-2.6l-3.9-3.9c-.8-.7-1.8-.9-2.7-.4l-10 5.2c-2.9-1.7-6.1-3.1-9.4-3.9l-3.4-10.8c-.3-1-1.2-1.6-2.2-1.6h-5.4c-1 0-1.9.6-2.2 1.6l-3.4 10.8zm8.4 12.7c-11.5 0-20.7 9.3-20.7 20.7 0 11.5 9.2 20.8 20.7 20.8S80.9 76.5 80.9 65c-.1-11.4-9.4-20.7-20.8-20.7z"/></svg>