<svg xmlns="http://www.w3.org/2000/svg" viewBox="0 0 126 130"><path opacity=".1" clip-rule="evenodd" fill="none" stroke="#13065B" stroke-width="3" stroke-miterlimit="10" d="M57.7 39.4c-2.1.5-4.1 1.4-6 2.5l-6.4-3.3c-.6-.3-1.2-.2-1.7.3l-2.4 2.5c-.5.4-.6 1.1-.3 1.7l3.3 6.4c-1.1 1.8-1.9 3.9-2.5 6l-6.8 2.2c-.6.2-1 .7-1 1.4v3.5c0 .6.4 1.2 1 1.4l6.8 2.2c.5 2.2 1.4 4.2 2.5 6l-3.3 6.4c-.3.6-.2 1.3.3 1.7l2.4 2.5c.5.4 1.1.6 1.7.2l6.4-3.3c1.8 1.1 3.9 1.9 6 2.5l2.2 6.8c.2.6.7 1 1.4 1h3.5c.6 0 1.2-.4 1.4-1l2.2-6.8c2.1-.5 4.1-1.4 6-2.5l6.4 3.3c.6.3 1.2.2 1.7-.2l2.5-2.5c.4-.4.6-1.1.2-1.7l-3.3-6.4c1.1-1.8 2-3.8 2.5-6l6.8-2.2c.6-.2 1-.8 1-1.4v-3.5c0-.7-.4-1.2-1-1.4l-6.8-2.2c-.5-2.2-1.4-4.2-2.5-6l3.3-6.4c.3-.6.2-1.2-.2-1.7l-2.5-2.5c-.5-.4-1.1-.6-1.7-.3l-6.4 3.3c-1.8-1.1-3.9-2-6-2.5l-2.2-6.8c-.2-.6-.8-1-1.4-1h-3.5c-.6 0-1.2.4-1.4 1l-2.2 6.8zm5.3 8c-7.3 0-13.2 5.9-13.2 13.2 0 7.3 5.9 13.2 13.2 13.2 7.3 0 13.2-5.9 13.2-13.2 0-7.3-5.9-13.2-13.2-13.2z"/></svg>