<svg xmlns="http://www.w3.org/2000/svg" viewBox="0 0 640 291.4"><path fill="#FFF" d="M335 155.2c2.2-2.2 4-4.6 5.5-7.1l-9.7-9.7c-2 2.6-3.8 4.8-5.8 6.8-9 9-23.6 9-32.6 0s-9-23.6 0-32.6c7.9-7.9 20-8.8 28.9-3l-19.6 19.6 9.7 9.7 24.4-24.4-.1-.1 4.7-4.7c-1.5-2.5-3.3-4.9-5.5-7-7.2-7.2-16.8-10.9-26.2-10.9-9.5 0-19 3.7-26.2 10.9-14.5 14.5-14.5 38 0 52.5s38 14.5 52.5 0z"/><path fill="#699641" d="M153.2 120.4c5 0 9 4 9 9s-4 9-9 9-9-4-9-9c.1-5 4.1-9 9-9zm-13.6-20.6L151 108l-9 12.4c-.1.2-.3.3-.4.5-2.8 3.9-3.4 8.7-2 12.9 0 .1.1.3.1.4.1.3.2.6.3.8.1.1.1.3.2.4 0 .1.1.2.1.2.2.3.3.6.5 1 .1.2.2.3.3.5.2.2.3.5.5.8l.1.1.3.3 8.9 12.3-11.3 8.2c-11.6-13.8-31.5-17.1-46.9-7.9-3.4-14.3-3.3-29.2 0-43.3 15.4 9.2 35.3 5.9 46.9-7.8zm44-3.4c1.5 4.7-1.1 9.8-5.8 11.3-4.7 1.5-9.8-1.1-11.3-5.8-1.5-4.7 1.1-9.8 5.8-11.3 4.7-1.5 9.8 1.1 11.3 5.8zM199 77.1l-4.3 13.3-14.5-4.7c-.2-.1-.4-.1-.6-.2-4.6-1.5-9.3-.6-12.9 2.1-.1.1-.2.1-.3.2-.2.2-.5.4-.7.6l-.3.3-.2.2-.8.8c-.1.1-.2.3-.4.5s-.4.5-.6.7l-.1.1c-.1.1-.2.2-.2.4l-8.9 12.2-11.3-8.2c9.5-15.3 6.5-35.2-7-47.1 12.6-7.6 26.7-12.2 41.2-13.4-4 17.5 5.2 35.4 21.9 42.2zm16.8 40.9c-4 2.9-9.7 2-12.6-2-2.9-4-2-9.7 2-12.6 4-2.9 9.6-2 12.6 2 2.9 4 2 9.6-2 12.6zm23.1 8.6h-14v-16c0-4.8-2.3-9-5.9-11.6-.1-.1-.2-.2-.3-.2-.2-.2-.5-.3-.8-.5-.1-.1-.2-.2-.4-.2-.1 0-.2-.1-.3-.1-.3-.2-.6-.3-1-.5-.2-.1-.4-.1-.5-.2-.3-.1-.6-.2-.8-.3 0 0-.1 0-.2-.1-.1 0-.3-.1-.4-.1l-14.4-4.7 4.3-13.2c17.5 4.3 35.5-4.7 42.6-21.2 11.1 9.6 19.8 21.7 25.4 35-17.8 1.6-32 16-33.3 33.9zm-33.7 28.6c-4-2.9-4.9-8.6-2-12.6 2.9-4 8.6-4.9 12.6-2 4 2.9 4.9 8.5 2 12.6-2.9 4-8.5 4.9-12.6 2zm-1 24.6l-4.3-13.3 14.5-4.7c.2-.1.4-.1.6-.2 4.6-1.5 7.9-5 9.2-9.3 0-.1.1-.2.1-.4.1-.3.1-.6.2-.9 0-.1.1-.3.1-.4v-.3c.1-.4.1-.7.2-1.1V132h13.9c1.3 18 15.5 32.3 33.3 34-5.7 13.6-14.5 25.5-25.4 35-6.9-16.4-25-25.5-42.4-21.2zm-37.6-23.1c1.5-4.7 6.6-7.3 11.3-5.8 4.7 1.5 7.3 6.6 5.8 11.3-1.5 4.7-6.6 7.3-11.3 5.8-4.7-1.5-7.3-6.6-5.8-11.3zm-23.8 6.5l11.3-8.2 9 12.4c.1.2.3.4.4.5 2.8 3.9 7.2 5.9 11.7 5.9h.4c.3 0 .6 0 .9-.1h.4c.1 0 .2 0 .3-.1.4 0 .7-.1 1.1-.2.2 0 .4-.1.6-.2.3-.1.6-.2.9-.2h.2c.1-.1.3-.1.4-.2l14.4-4.7 4.3 13.2c-16.7 6.8-25.9 24.7-22 42.2-14.7-1.2-28.8-5.9-41.2-13.4 13.4-11.6 16.4-31.6 6.9-46.9z"/><path fill="#FFF" d="M343.7 46.4v84.2c.9 19.7 17.1 35.4 37.1 35.4 20.5 0 37.1-16.6 37.1-37.1s-16.6-37.1-37.1-37.1c-3.1 0-6.1.4-9 1.1v13.6c3.2-.4 6-.7 9-.7 12.7 0 23 10.3 23 23s-10.3 23-23 23c-12.2 0-22.1-9.4-23-21.4v-84h-14.1zm210.5 56.3c2.2 2.2 4 4.5 5.5 7l-4.7 4.7h.1l-4.9 4.9c-1.6-2.1-3.4-4.2-5.4-6.2-4.2-4.5-10.2-7.4-16.9-7.4-12.7 0-23 10.3-23 23 0 2.3.4 4.5 1 6.6.1.4.2.7.3 1.1.1.3.2.5.3.8 0 .1.1.2.1.3 0 .1.1.1.1.2.1.3.2.5.4.8 0 .1.1.2.1.2.1.3.3.5.4.8.1.2.2.4.4.6l.3.6.6.9c0 .1.1.1.1.2.2.2.3.5.5.7l.1.1c.4.6.9 1.2 1.4 1.7.2.3.5.5.8.8 0 0 0 .1.1.1 9 9 23.6 9 32.6 0 2.1-2.2 4.3-4.7 5.9-6.8l9.7 9.6c-1.5 2.5-3.4 4.9-5.5 7.1-14.5 14.5-38 14.5-52.4 0-14.5-14.5-14.5-38 0-52.5 7.2-7.2 16.7-10.9 26.2-10.9 9.1.1 18.6 3.7 25.8 11z"/><path fill="#FFF" d="M485.7 155.1c2.2-2.2 4-4.6 5.5-7.1l-9.7-9.7c-2 2.6-3.8 4.8-5.8 6.8-9 9-23.6 9-32.6 0s-9-23.6 0-32.6c7.9-7.9 20-8.8 28.9-3l-19.6 19.6 9.7 9.7 24.4-24.4-.1-.1 4.7-4.7c-1.5-2.5-3.3-4.9-5.5-7-7.2-7.2-16.8-10.9-26.2-10.9-9.5 0-19 3.6-26.2 10.9-14.5 14.5-14.5 38 0 52.5s38 14.5 52.5 0z"/><text transform="translate(443.693 201.016)" fill="#699641" font-family="'Tahoma-Bold'" font-size="24.686">UKRAINE</text></svg>