<svg xmlns="http://www.w3.org/2000/svg" viewBox="0 0 1270 722"><path d="M355.2 241c0 1.1-.3 2-.9 2.7s-1.5 1.2-2.7 1.5v.1c1.4.2 2.4.6 3.1 1.3s1 1.6 1 2.7c0 1.6-.6 2.9-1.7 3.8s-2.8 1.3-5 1.3c-1.9 0-3.5-.3-4.8-.9V251c.7.4 1.5.6 2.3.8s1.6.3 2.3.3c1.3 0 2.3-.2 3-.7s1-1.3 1-2.3c0-.9-.4-1.6-1.1-2s-1.9-.6-3.4-.6h-1.5v-2.2h1.5c2.7 0 4.1-.9 4.1-2.8 0-.7-.2-1.3-.7-1.7s-1.2-.6-2.1-.6c-.6 0-1.3.1-1.9.3s-1.3.5-2.1 1.1l-1.3-1.9c1.6-1.2 3.4-1.7 5.5-1.7 1.7 0 3.1.4 4 1.1s1.4 1.5 1.4 2.9zm8.7 7.9v-2.3h6v2.3h-6zm20-12.1c1.6 0 2.9.4 3.9 1.1s1.4 1.7 1.4 3c0 1.8-1.1 3.2-3.2 4.2 1.3.7 2.3 1.4 2.9 2.1s.8 1.6.8 2.5c0 1.4-.5 2.5-1.6 3.4s-2.4 1.3-4.2 1.3c-1.9 0-3.3-.4-4.3-1.2s-1.5-1.9-1.5-3.4c0-1 .3-1.8.8-2.6s1.4-1.4 2.6-2c-1-.6-1.8-1.3-2.2-2s-.7-1.5-.7-2.3c0-1.2.5-2.2 1.5-3s2.2-1.1 3.8-1.1zm-3.2 12.9c0 .8.3 1.4.9 1.9s1.3.7 2.3.7c1 0 1.8-.2 2.3-.7s.8-1.1.8-1.9c0-.6-.3-1.2-.8-1.7s-1.3-1-2.3-1.5l-.3-.2c-1 .5-1.8 1-2.2 1.5s-.7 1.2-.7 1.9zm3.1-10.8c-.8 0-1.4.2-1.9.6s-.7.9-.7 1.6c0 .4.1.8.3 1.1s.4.6.8.9.9.6 1.7.9c.9-.4 1.6-.8 2-1.3s.6-1 .6-1.6c0-.7-.2-1.2-.7-1.6s-1.3-.6-2.1-.6zm21.3 15.2h-2.8v-14.7h-5V237h12.9v2.4h-5v14.7zm19-11.9c0 1.8-.6 3.2-1.8 4.1s-2.8 1.4-5 1.4h-1.8v6.4h-2.8V237h4.9c2.1 0 3.7.4 4.8 1.3s1.7 2.2 1.7 3.9zm-8.5 3.2h1.5c1.4 0 2.5-.3 3.2-.8s1-1.3 1-2.3c0-1-.3-1.7-.9-2.2s-1.5-.7-2.8-.7h-1.9v6zm22.6 8.7l-1.7-4.8h-6.6l-1.7 4.8h-3l6.4-17.2h3l6.4 17.2h-2.8zm-2.5-7.1l-1.6-4.7c-.1-.3-.3-.8-.5-1.5s-.3-1.2-.4-1.5c-.2 1-.5 2-.9 3.2l-1.5 4.5h4.9zm7.7-10h5.1c2.4 0 4.1.3 5.1 1s1.6 1.8 1.6 3.3c0 1-.3 1.8-.8 2.5s-1.3 1.1-2.2 1.3v.1c1.2.2 2.1.7 2.7 1.3s.8 1.6.8 2.7c0 1.5-.5 2.7-1.6 3.6s-2.6 1.3-4.5 1.3h-6.2V237zm2.8 7.1h2.7c1.2 0 2-.2 2.6-.6s.8-1 .8-1.9c0-.8-.3-1.4-.9-1.7s-1.5-.5-2.8-.5h-2.4v4.7zm0 2.3v5.4h3c1.2 0 2.1-.2 2.7-.7s.9-1.2.9-2.1c0-.9-.3-1.6-.9-2s-1.5-.6-2.8-.6h-2.9zm26.6 7.7H470v-7.7h-7.9v7.7h-2.8V237h2.8v7h7.9v-7h2.8v17.1zm9.9-6.8l-4.2 6.9h-3.2l4.8-7.5c-2.2-.8-3.3-2.4-3.3-4.8 0-1.6.5-2.8 1.6-3.6s2.7-1.2 4.8-1.2h5.1v17.1h-2.8v-6.9h-2.8zm2.9-7.9h-2.2c-1.2 0-2.1.2-2.7.6s-.9 1.1-.9 2c0 .9.3 1.6.9 2.2s1.6.8 2.8.8h2.1v-5.6zm9.9 12.2c-.4 1.5-1.1 3.3-2.1 5.6h-2c.5-2.1.9-4.1 1.2-5.9h2.7l.2.3zm23.2 2.5h-3.3l-7.1-8.7v8.7h-2.8V237h2.8v8.3l6.9-8.3h3.1l-6.9 8.3 7.3 8.8zM521 237h2.6v8.9c0 .9 0 1.9-.1 2.8s-.1 1.6-.1 1.9h.1l8.8-13.7h3.3V254H533v-8.8c0-1.4.1-3 .2-4.9h-.2l-8.8 13.8H521V237zm16.7-3.2c0-.5.1-.8.4-1s.6-.3 1-.3.7.1 1 .4.4.6.4 1-.1.7-.4 1-.6.4-1 .4-.7-.1-1-.3-.4-.7-.4-1.2zm2.3 20.3V237h2.8v17.1H540zm2.3-20.3c0-.5.1-.8.4-1s.6-.3 1-.3.7.1 1 .4.4.6.4 1-.1.8-.4 1-.6.4-1 .4-.7-.1-1-.3-.4-.7-.4-1.2zm5 3.2h5.1c2.4 0 4.1.3 5.1 1s1.6 1.8 1.6 3.3c0 1-.3 1.8-.8 2.5s-1.3 1.1-2.2 1.3v.1c1.2.2 2.1.7 2.7 1.3s.8 1.6.8 2.7c0 1.5-.5 2.7-1.6 3.6s-2.6 1.3-4.5 1.3h-6.2V237zm2.8 7.1h2.7c1.2 0 2-.2 2.6-.6s.8-1 .8-1.9c0-.8-.3-1.4-.9-1.7s-1.5-.5-2.8-.5h-2.4v4.7zm0 2.3v5.4h3c1.2 0 2.1-.2 2.7-.7s.9-1.2.9-2.1c0-.9-.3-1.6-.9-2s-1.5-.6-2.8-.6h-2.9zM362 162.2c2.2-2.2 4-4.6 5.5-7.1l-9.7-9.7c-2 2.6-3.8 4.8-5.8 6.8-9 9-23.6 9-32.6 0s-9-23.6 0-32.6c7.9-7.9 20-8.8 28.9-3l-19.6 19.6 9.7 9.7 24.4-24.4-.1-.1 4.7-4.7c-1.5-2.5-3.3-4.9-5.5-7-7.2-7.2-16.8-10.9-26.2-10.9-9.5 0-19 3.7-26.2 10.9-14.5 14.5-14.5 38 0 52.5s38 14.5 52.5 0z" fill="#FFF"/><path fill="#699641" d="M180.2 127.4c5 0 9 4 9 9s-4 9-9 9-9-4-9-9c.1-5 4.1-9 9-9zm-13.6-20.6L178 115l-9 12.4c-.1.2-.3.3-.4.5-2.8 3.9-3.4 8.7-2 12.9 0 .1.1.3.1.4.1.3.2.6.3.8.1.1.1.3.2.4 0 .1.1.2.1.2.2.3.3.6.5 1 .1.2.2.3.3.5.2.2.3.5.5.8l.1.1.3.3 8.9 12.3-11.3 8.2c-11.6-13.8-31.5-17.1-46.9-7.9-3.4-14.3-3.3-29.2 0-43.3 15.4 9.2 35.3 5.9 46.9-7.8zm44-3.4c1.5 4.7-1.1 9.8-5.8 11.3-4.7 1.5-9.8-1.1-11.3-5.8-1.5-4.7 1.1-9.8 5.8-11.3 4.7-1.5 9.8 1.1 11.3 5.8zM226 84.1l-4.3 13.3-14.5-4.7c-.2-.1-.4-.1-.6-.2-4.6-1.5-9.3-.6-12.9 2.1-.1.1-.2.1-.3.2-.2.2-.5.4-.7.6l-.3.3-.2.2-.8.8c-.1.1-.2.3-.4.5s-.4.5-.6.7l-.1.1c-.1.1-.2.2-.2.4l-8.9 12.2-11.3-8.2c9.5-15.3 6.5-35.2-7-47.1 12.6-7.6 26.7-12.2 41.2-13.4-4 17.5 5.2 35.4 21.9 42.2zm16.8 40.9c-4 2.9-9.7 2-12.6-2-2.9-4-2-9.7 2-12.6 4-2.9 9.6-2 12.6 2 2.9 4 2 9.6-2 12.6zm23.1 8.6h-14v-16c0-4.8-2.3-9-5.9-11.6-.1-.1-.2-.2-.3-.2-.2-.2-.5-.3-.8-.5-.1-.1-.2-.2-.4-.2-.1 0-.2-.1-.3-.1-.3-.2-.6-.3-1-.5-.2-.1-.4-.1-.5-.2-.3-.1-.6-.2-.8-.3 0 0-.1 0-.2-.1-.1 0-.3-.1-.4-.1l-14.4-4.7 4.3-13.2c17.5 4.3 35.5-4.7 42.6-21.2 11.1 9.6 19.8 21.7 25.4 35-17.8 1.6-32 16-33.3 33.9zm-33.7 28.6c-4-2.9-4.9-8.6-2-12.6 2.9-4 8.6-4.9 12.6-2 4 2.9 4.9 8.5 2 12.6-2.9 4-8.5 4.9-12.6 2zm-1 24.6l-4.3-13.3 14.5-4.7c.2-.1.4-.1.6-.2 4.6-1.5 7.9-5 9.2-9.3 0-.1.1-.2.1-.4.1-.3.1-.6.2-.9 0-.1.1-.3.1-.4v-.3c.1-.4.1-.7.2-1.1V139h13.9c1.3 18 15.5 32.3 33.3 34-5.7 13.6-14.5 25.5-25.4 35-6.9-16.4-25-25.5-42.4-21.2zm-37.6-23.1c1.5-4.7 6.6-7.3 11.3-5.8 4.7 1.5 7.3 6.6 5.8 11.3-1.5 4.7-6.6 7.3-11.3 5.8-4.7-1.5-7.3-6.6-5.8-11.3zm-23.8 6.5l11.3-8.2 9 12.4c.1.2.3.4.4.5 2.8 3.9 7.2 5.9 11.7 5.9h.4c.3 0 .6 0 .9-.1h.4c.1 0 .2 0 .3-.1.4 0 .7-.1 1.1-.2.2 0 .4-.1.6-.2.3-.1.6-.2.9-.2h.2c.1-.1.3-.1.4-.2l14.4-4.7 4.3 13.2c-16.7 6.8-25.9 24.7-22 42.2-14.7-1.2-28.8-5.9-41.2-13.4 13.4-11.6 16.4-31.6 6.9-46.9z"/><path fill="#FFF" d="M370.7 53.4v84.2c.9 19.7 17.1 35.4 37.1 35.4 20.5 0 37.1-16.6 37.1-37.1s-16.6-37.1-37.1-37.1c-3.1 0-6.1.4-9 1.1v13.6c3.2-.4 6-.7 9-.7 12.7 0 23 10.3 23 23s-10.3 23-23 23c-12.2 0-22.1-9.4-23-21.4v-84h-14.1zm210.5 56.3c2.2 2.2 4 4.5 5.5 7l-4.7 4.7h.1l-4.9 4.9c-1.6-2.1-3.4-4.2-5.4-6.2-4.2-4.5-10.2-7.4-16.9-7.4-12.7 0-23 10.3-23 23 0 2.3.4 4.5 1 6.6.1.4.2.7.3 1.1.1.3.2.5.3.8 0 .1.1.2.1.3 0 .1.1.1.1.2.1.3.2.5.4.8 0 .1.1.2.1.2.1.3.3.5.4.8.1.2.2.4.4.6l.3.6.6.9c0 .1.1.1.1.2.2.2.3.5.5.7 0 0 .1 0 .1.1.4.6.9 1.2 1.4 1.7.2.3.5.5.8.8 0 0 0 .1.1.1 9 9 23.6 9 32.6 0 2.1-2.2 4.3-4.7 5.9-6.8l9.7 9.6c-1.5 2.5-3.4 4.9-5.5 7.1-14.5 14.5-38 14.5-52.4 0-14.5-14.5-14.5-38 0-52.5 7.2-7.2 16.7-10.9 26.2-10.9 9.1.1 18.6 3.7 25.8 11z"/><path fill="#FFF" d="M512.7 162.1c2.2-2.2 4-4.6 5.5-7.1l-9.7-9.7c-2 2.6-3.8 4.8-5.8 6.8-9 9-23.6 9-32.6 0s-9-23.6 0-32.6c7.9-7.9 20-8.8 28.9-3l-19.6 19.6 9.7 9.7 24.4-24.4-.1-.1 4.7-4.7c-1.5-2.5-3.3-4.9-5.5-7-7.2-7.2-16.8-10.9-26.2-10.9-9.5 0-19 3.6-26.2 10.9-14.5 14.5-14.5 38 0 52.5s38 14.5 52.5 0z"/><text transform="translate(470.693 208.016)" fill="#699641" font-family="'Tahoma-Bold'" font-size="24.686">UKRAINE</text><g fill-rule="evenodd" clip-rule="evenodd"><path fill="#756152" d="M669.6 355c14.6 0 26.5 11.9 26.5 26.5V444c0 14.6-11.9 26.5-26.5 26.5s-26.5-11.9-26.5-26.5v-62.5c.1-14.6 12-26.5 26.5-26.5z"/><path fill="#FFF7DE" d="M656 608h8.6v15.3h-6.2V622c0-1.5-1.3-2.8-2.8-2.8-1.5 0-2.8 1.3-2.8 2.8v1.1h-13.5L656 608zm-5.1-146.1c-1.6-1.5-2.5-3.6-2.5-5.9 0-2.3 1-4.4 2.5-5.9v-4.2c-.9.5-1.8 1.1-2.5 1.8-1.7 1.7-2.8 4.1-2.8 6.7v49.1h-12.9v-49.2c0-6.2 2.5-11.8 6.5-15.8 4.1-4.1 9.6-6.6 15.8-6.6h52.1c2.6 0 4.9-1.1 6.6-2.8 1.7-1.7 2.8-4.1 2.8-6.6v-32.9h12.9v32.9c0 6.2-2.5 11.7-6.6 15.8-4 4-9.6 6.6-15.8 6.6h-18.7v5.2c1.6 1.5 2.5 3.6 2.5 5.9 0 2.3-1 4.4-2.5 5.9v30.7h-37.5v-30.7z"/><path fill="#D1784B" d="M663.2 410.4H676V432h-12.8z"/><path fill="#FFF7DE" d="M683.2 608h-8.6v15.3h6.2V622c0-1.5 1.3-2.8 2.8-2.8 1.5 0 2.8 1.3 2.8 2.8v1.1h13.5L683.2 608z"/><path fill="#EB4141" d="M682.8 492.6h4.1V608h-12.3V508c0-2.7-2.2-5-5-5-2.7 0-5 2.2-5 5v100h-12.3V492.6h30.5z"/><path fill="#FD9C65" d="M729.2 387.9c1 3.4-.9 7-4.3 8.1-2.9.9-5.9-.4-7.4-2.8l-5.6-5.7c-.8-.8-.8-2.2 0-3.1.8-.8 2.2-.8 3 0l1.6 1.6v-9.2c0-1.2 1-2.2 2.2-2.2 1.2 0 2.2 1 2.2 2.2v6.9c.1 0 .2-.1.3-.1 3.4-1.1 7 .9 8 4.3z"/><path fill="#D1784B" d="M648.1 386.7c3.6 0 6.5 2.9 6.5 6.5s-2.9 6.5-6.5 6.5-6.5-2.9-6.5-6.5 2.9-6.5 6.5-6.5zm43.1 0c3.6 0 6.5 2.9 6.5 6.5s-2.9 6.5-6.5 6.5-6.5-2.9-6.5-6.5 2.9-6.5 6.5-6.5z"/><path fill="#FD9C65" d="M669.6 363c11.9 0 21.6 9.7 21.6 21.6v17.3c0 11.9-9.7 21.6-21.6 21.6-11.9 0-21.6-9.7-21.6-21.6v-17.3c.1-11.9 9.8-21.6 21.6-21.6z"/><path fill="#D1784B" d="M666.9 403.9h5.4c1.2 0 2.1-.9 2.1-2.1 0-1.2-.9-2.1-2.1-2.1h-5.4c-1.2 0-2.1.9-2.1 2.1 0 1.1 1 2.1 2.1 2.1z"/><path fill="#F56C6C" d="M658.7 407.9c2.3 5.1 6.3 8.5 10.9 8.5 4.6 0 8.6-3.4 10.9-8.5h-21.8z"/><path fill="#333" d="M653.5 388.9h6.5c.6 0 1.1-.5 1.1-1.1 0-.6-.5-1.1-1.1-1.1h-6.5c-.6 0-1.1.5-1.1 1.1 0 .6.5 1.1 1.1 1.1zm25.8 0h6.5c.6 0 1.1-.5 1.1-1.1 0-.6-.5-1.1-1.1-1.1h-6.5c-.6 0-1.1.5-1.1 1.1.1.6.5 1.1 1.1 1.1z"/><path fill="#FEFEFE" d="M658.7 407.9c2.3 3.6 6.3 5.9 10.9 5.9 4.6 0 8.6-2.4 10.9-5.9h-21.8z"/><path fill="#F56C6C" d="M658.7 407.9c2.3-1.6 6.3-2.6 10.9-2.6 4.6 0 8.6 1 10.9 2.6h-21.8z"/><path fill="#D1784B" d="M669.6 388.9c1.3 0 2.3 1 2.3 2.3v10.4c0 1.3-1 2.3-2.3 2.3-1.3 0-2.3-1-2.3-2.3v-10.4c0-1.2 1.1-2.3 2.3-2.3z"/><path fill="#333" d="M678.3 364.3c7.8 3.4 13.4 11.1 13.6 20.1-6.9-1.4-12.7-6-15.7-12.2-3.6 7.5-11.3 12.6-20.1 12.6-3.1 0-6.1-.6-8.7-1.8.9-11.4 10.6-20.5 22.2-20.5 3.1 0 6 .6 8.7 1.8zm-21.6 30.3h-2.9c0-1.6 1.3-2.9 2.9-2.9 1.6 0 2.9 1.3 2.9 2.9h-2.9zm25.9 0h-2.9c0-1.6 1.3-2.9 2.9-2.9 1.6 0 2.9 1.3 2.9 2.9h-2.9z"/><path fill="#F8AF22" d="M676.2 349.6c11.4 3 19.9 13.4 19.9 25.6v5.9h-52.9v-5.9c0-12.3 8.5-22.7 19.9-25.6 0-1.1.9-2 2-2h9.2c1 0 1.9.8 1.9 2z"/><path fill="#E88B00" d="M653.1 354.6c2.9-2.3 6.2-4 9.9-5v7.4c0 2.7-2.2 5-5 5-2.7 0-5-2.2-5-5v-2.4zm23.1-5c3.7.9 7.1 2.7 9.9 5v2.4c0 2.7-2.2 5-5 5-2.7 0-5-2.2-5-5v-7.4zm-6.6 31.4h-26.5c0 3.1 11.9 5.7 26.5 5.7s26.5-2.5 26.5-5.7h-26.5z"/><path fill="#FD9C65" d="M641.3 510.5c-.1-1-.9-1.9-2-1.9s-2 .9-2 2v9.6c0 1.3-1 2.3-2.3 2.3-1.3 0-2.3-1-2.3-2.3v-16.7c0-1.2.9-2.2 2.1-2.3h8.8c1.2 0 2.1 1 2.1 2.2v7.1h-4.4z"/><path fill="#FFCF33" d="M600.5 510.5h58.8c.6 0 1.1.5 1.1 1.1v7.7c0 .6-.5 1.1-1.1 1.1h-58.8c-.6 0-1.1-.5-1.1-1.1v-7.7c0-.6.5-1.1 1.1-1.1z"/><path fill="#CF8619" d="M601.9 514c.2 0 .4.2.4.4v5.6c0 .2-.2.4-.4.4s-.4-.2-.4-.4v-5.6c-.1-.2.1-.4.4-.4zm27.6 5.9v-5.6 5.6zm22.9-2.8c-.2 0-.4.2-.4.4v2.5c0 .2.2.4.4.4s.4-.2.4-.4v-2.5c0-.3-.2-.4-.4-.4zm1.4 0c-.2 0-.4.2-.4.4v2.5c0 .2.2.4.4.4s.4-.2.4-.4v-2.5c0-.3-.2-.4-.4-.4zm1.4 0c-.2 0-.4.2-.4.4v2.5c0 .2.2.4.4.4s.4-.2.4-.4v-2.5c0-.3-.2-.4-.4-.4zm1.4 0c-.2 0-.4.2-.4.4v2.5c0 .2.2.4.4.4s.4-.2.4-.4v-2.5c0-.3-.2-.4-.4-.4zm1.4-3.1c-.2 0-.4.2-.4.4v5.6c0 .2.2.4.4.4s.4-.2.4-.4v-5.6c0-.2-.2-.4-.4-.4zm-8.4 3.1c.2 0 .4.2.4.4v2.5c0 .2-.2.4-.4.4s-.4-.2-.4-.4v-2.5c-.1-.3.1-.4.4-.4zm-1.4 0c.2 0 .4.2.4.4v2.5c0 .2-.2.4-.4.4s-.4-.2-.4-.4v-2.5c-.1-.3.1-.4.4-.4zm2.8-1.7c.2 0 .4.2.4.4v4.1c0 .2-.2.4-.4.4s-.4-.2-.4-.4v-4.1c-.1-.2.1-.4.4-.4zm-4.3 1.7c.2 0 .4.2.4.4v2.5c0 .2-.2.4-.4.4s-.4-.2-.4-.4v-2.5c0-.3.2-.4.4-.4zm-1.4 0c.2 0 .4.2.4.4v2.5c0 .2-.2.4-.4.4s-.4-.2-.4-.4v-2.5c0-.3.2-.4.4-.4zm-7 0c-.2 0-.4.2-.4.4v2.5c0 .2.2.4.4.4s.4-.2.4-.4v-2.5c0-.3-.1-.4-.4-.4zm1.4 0c-.2 0-.4.2-.4.4v2.5c0 .2.2.4.4.4s.4-.2.4-.4v-2.5c0-.3-.1-.4-.4-.4zm1.4 0c-.2 0-.4.2-.4.4v2.5c0 .2.2.4.4.4s.4-.2.4-.4v-2.5c0-.3-.1-.4-.4-.4zm1.4 0c-.2 0-.4.2-.4.4v2.5c0 .2.2.4.4.4s.4-.2.4-.4v-2.5c0-.3-.1-.4-.4-.4zm1.4-3.1c-.2 0-.4.2-.4.4v5.6c0 .2.2.4.4.4s.4-.2.4-.4v-5.6c.1-.2-.1-.4-.4-.4zm-8.4 3.1c.2 0 .4.2.4.4v2.5c0 .2-.2.4-.4.4s-.4-.2-.4-.4v-2.5c0-.3.2-.4.4-.4zm-1.4 0c.2 0 .4.2.4.4v2.5c0 .2-.2.4-.4.4s-.4-.2-.4-.4v-2.5c0-.3.2-.4.4-.4zm2.8-1.7c.2 0 .4.2.4.4v4.1c0 .2-.2.4-.4.4s-.4-.2-.4-.4v-4.1c0-.2.2-.4.4-.4zm-4.2 1.7c.2 0 .4.2.4.4v2.5c0 .2-.2.4-.4.4s-.4-.2-.4-.4v-2.5c0-.3.2-.4.4-.4zm-1.4 0c.2 0 .4.2.4.4v2.5c0 .2-.2.4-.4.4s-.4-.2-.4-.4v-2.5c0-.3.2-.4.4-.4zm-7 0c-.2 0-.4.2-.4.4v2.5c0 .2.2.4.4.4s.4-.2.4-.4v-2.5c0-.3-.2-.4-.4-.4zm1.4 0c-.2 0-.4.2-.4.4v2.5c0 .2.2.4.4.4s.4-.2.4-.4v-2.5c0-.3-.2-.4-.4-.4zm1.4 0c-.2 0-.4.2-.4.4v2.5c0 .2.2.4.4.4s.4-.2.4-.4v-2.5c0-.3-.2-.4-.4-.4zm1.4 0c-.2 0-.4.2-.4.4v2.5c0 .2.2.4.4.4s.4-.2.4-.4v-2.5c0-.3-.2-.4-.4-.4zm-7 0c.2 0 .4.2.4.4v2.5c0 .2-.2.4-.4.4s-.4-.2-.4-.4v-2.5c0-.3.2-.4.4-.4zm-1.4 0c.2 0 .4.2.4.4v2.5c0 .2-.2.4-.4.4s-.4-.2-.4-.4v-2.5c0-.3.2-.4.4-.4zm2.8-1.7c.2 0 .4.2.4.4v4.1c0 .2-.2.4-.4.4s-.4-.2-.4-.4v-4.1c0-.2.2-.4.4-.4zm-4.2 1.7c.2 0 .4.2.4.4v2.5c0 .2-.2.4-.4.4s-.4-.2-.4-.4v-2.5c0-.3.2-.4.4-.4zm-1.4 0c.2 0 .4.2.4.4v2.5c0 .2-.2.4-.4.4s-.4-.2-.4-.4v-2.5c0-.3.2-.4.4-.4zm-7 0c-.2 0-.4.2-.4.4v2.5c0 .2.2.4.4.4s.4-.2.4-.4v-2.5c0-.3-.2-.4-.4-.4zm1.4 0c-.2 0-.4.2-.4.4v2.5c0 .2.2.4.4.4s.4-.2.4-.4v-2.5c0-.3-.2-.4-.4-.4zm1.4 0c-.2 0-.4.2-.4.4v2.5c0 .2.2.4.4.4s.4-.2.4-.4v-2.5c0-.3-.2-.4-.4-.4zm1.4 0c-.2 0-.4.2-.4.4v2.5c0 .2.2.4.4.4s.4-.2.4-.4v-2.5c0-.3-.2-.4-.4-.4zm1.4-3.1c-.2 0-.4.2-.4.4v5.6c0 .2.2.4.4.4s.4-.2.4-.4v-5.6c0-.2-.2-.4-.4-.4zm-8.4 3.1c.2 0 .4.2.4.4v2.5c0 .2-.2.4-.4.4s-.4-.2-.4-.4v-2.5c0-.3.1-.4.4-.4zm-1.4 0c.2 0 .4.2.4.4v2.5c0 .2-.2.4-.4.4s-.4-.2-.4-.4v-2.5c0-.3.1-.4.4-.4zm2.8-1.7c.2 0 .4.2.4.4v4.1c0 .2-.2.4-.4.4s-.4-.2-.4-.4v-4.1c0-.2.1-.4.4-.4zm-4.2 1.7c.2 0 .4.2.4.4v2.5c0 .2-.2.4-.4.4s-.4-.2-.4-.4v-2.5c-.1-.3.1-.4.4-.4zm-1.4 0c.2 0 .4.2.4.4v2.5c0 .2-.2.4-.4.4s-.4-.2-.4-.4v-2.5c-.1-.3.1-.4.4-.4z"/><path fill="#FD9C65" d="M643.5 515.4c-1.2 0-2.2-1-2.2-2.2v-2.7h4.3v2.8c0 1.1-1 2.1-2.1 2.1z"/><path fill="#EB4141" d="M682.9 432h-13.3l5.7 9.1zm-26.5 0h13.2l-5.7 9.1z"/></g><path fill-rule="evenodd" clip-rule="evenodd" fill="#FFBF36" d="M86.4 477.1v24.5c0 2.4-1.9 4.3-4.3 4.3s-4.3-1.9-4.3-4.3v-24.5h8.6z"/><path fill-rule="evenodd" clip-rule="evenodd" fill="#CCC" d="M79.9 462.7h4.5v14.4h-4.5z"/><path fill-rule="evenodd" clip-rule="evenodd" fill="#818181" d="M68.3 461c1.6-9.1 6.2-17.2 12.9-23.2.6-.5 1.4-.5 1.9 0 6.6 5.9 11.3 14 12.9 23.2.1.4 0 .8-.3 1.2-.3.3-.7.5-1.1.5H69.7c-.5 0-.8-.2-1.1-.5-.3-.4-.4-.8-.3-1.2z"/><path fill-rule="evenodd" clip-rule="evenodd" fill="#666" d="M82.1 437.4c.4 0 .7.1 1 .4 6.6 5.9 11.3 14 12.9 23.2.1.4 0 .8-.3 1.2-.3.3-.7.5-1.1.5H82.1v-25.3z"/><path fill="#FCD515" d="M86.4 476c.6 0 1.1.5 1.1 1.1 0 .6-.5 1.1-1.1 1.1h-8.6c-.6 0-1.1-.5-1.1-1.1 0-.6.5-1.1 1.1-1.1h8.6z"/><path fill="#CCC" d="M152.7 347.3l-1.1-5.9c-.4-1.9.1-3.8 1.2-5.4 1-1.5 2.7-2.6 4.6-3l11.9-2.2c1.3-.2 2.4-1 3.1-2 .7-1 1-2.3.8-3.7l-1.6-8.8c-.1-.6-.5-1.1-.9-1.5-.5-.3-1.1-.5-1.7-.4l-1.7.3-.4-2.2 1.7-.3c1.2-.2 2.4.1 3.4.7 1 .7 1.7 1.7 1.9 2.9l1.6 8.8c.4 1.9-.1 3.8-1.2 5.4-1 1.5-2.7 2.6-4.6 3l-11.9 2.2c-1.3.2-2.4 1-3.1 2-.7 1-1 2.3-.8 3.7l1.1 5.9-2.3.5z"/><path fill-rule="evenodd" clip-rule="evenodd" fill="#65D6FC" d="M150.8 347.6l5.9-1.1c.8-.1 1.6.4 1.8 1.2l4.1 22.2c.1.8-.4 1.6-1.2 1.8l-5.9 1.1c-.8.1-1.6-.4-1.8-1.2l-4.1-22.2c-.1-.9.4-1.7 1.2-1.8z"/><path fill-rule="evenodd" clip-rule="evenodd" fill="#FFBF36" d="M129.3 314.7l37.2-6.8c1-.2 1.9.5 2.1 1.5l1.4 7.8c.2 1-.5 1.9-1.5 2.1l-37.2 6.8c-1 .2-1.9-.5-2.1-1.5l-1.4-7.8c-.1-1 .5-1.9 1.5-2.1z"/><path fill-rule="evenodd" clip-rule="evenodd" fill="#E68C1E" d="M169.3 313.2l.7 3.9c.2 1-.5 1.9-1.5 2.1l-37.2 6.8c-1 .2-1.9-.5-2.1-1.5l-.7-3.9 40.8-7.4z"/><g fill-rule="evenodd" clip-rule="evenodd"><path fill="#1E377D" d="M934.664 100.985l-31.91 5-7.306-46.63 31.91-5z"/><path fill="#E6E6E6" d="M931.021 99.398l-28.649 4.489-6.64-42.381 28.649-4.49z"/><path fill="#3D5FBA" d="M899.963 106.462l-31.91 5-7.306-46.628 31.91-5z"/><path fill="#FFF" d="M899.677 104.327l-28.65 4.49-6.64-42.382 28.649-4.489z"/><path fill="#CCC" d="M891.7 66.8l6.7-1c.9-.1 1.6-1 1.4-1.9-.1-.9-1-1.6-1.9-1.4l-6.7 1c-.9.1-1.6 1-1.4 1.9.2.9 1 1.5 1.9 1.4zm5.8 36.6l6.7-1c.9-.1 1.6-1 1.4-1.9-.1-.9-1-1.6-1.9-1.4l-6.7 1c-.9.1-1.6 1-1.4 1.9.1.9 1 1.6 1.9 1.4zm-1-6.1l6.7-1c.9-.1 1.6-1 1.4-1.9-.1-.9-1-1.6-1.9-1.4l-6.7 1c-.9.1-1.6 1-1.4 1.9.1.9 1 1.6 1.9 1.4zm-1.9-12.2l6.7-1c.9-.1 1.6-1 1.4-1.9-.1-.9-1-1.6-1.9-1.4l-6.7 1c-.9.1-1.6 1-1.4 1.9.1.9 1 1.5 1.9 1.4zm1 6.1l6.7-1c.9-.1 1.6-1 1.4-1.9-.1-.9-1-1.6-1.9-1.4l-6.7 1c-.9.1-1.6 1-1.4 1.9.1.9.9 1.6 1.9 1.4zM893.7 79l6.7-1c.9-.1 1.6-1 1.4-1.9-.1-.9-1-1.6-1.9-1.4l-6.7 1c-.9.1-1.6 1-1.4 1.9.1.9.9 1.5 1.9 1.4zm-1-6.1l6.7-1c.9-.1 1.6-1 1.4-1.9-.1-.9-1-1.6-1.9-1.4l-6.7 1c-.9.1-1.6 1-1.4 1.9.1.9 1 1.5 1.9 1.4z"/><path fill="#EB483E" d="M928.03 102.026l-3.36.526-7.306-46.629 3.359-.526z"/></g><path fill="#999" d="M993.7 157.7c-.7 0-1.2.3-1.7.7-.4.4-.7 1-.7 1.7v1.7c0 .7-.5 1.2-1.2 1.2s-1.2-.5-1.2-1.2v-1.7c0-1.3.5-2.5 1.4-3.4.9-.9 2.1-1.4 3.4-1.4v2.4z"/><path fill-rule="evenodd" clip-rule="evenodd" fill="gray" d="M1012.9 161.1v-5.5l-5.9-2.9c-.4-.3-.9-.4-1.5-.4h-8.9c-1.6 0-3 1.3-3 3v5.9c0 1.6 1.3 3 3 3h8.9c.5 0 1-.1 1.5-.4l5.9-2.7z"/><path fill-rule="evenodd" clip-rule="evenodd" fill="#999" d="M1013.8 154.1h1.2c.5 0 .9.4.9.9v6.4c0 .5-.4.9-.9.9h-1.2c-.5 0-.9-.4-.9-.9V155c0-.5.4-.9.9-.9z"/><path fill-rule="evenodd" clip-rule="evenodd" fill="#CCC" d="M998.2 164.1h5.9v3h-5.9z"/><path fill-rule="evenodd" clip-rule="evenodd" fill="#82E0BF" d="M1007 178.8v14.8c0 3.2-2.7 5.9-5.9 5.9s-5.9-2.7-5.9-5.9V167h11.8v11.8z"/><path fill-rule="evenodd" clip-rule="evenodd" fill="#873D1D" d="M793.4 494.9h56.2c3.1 0 5.6 2.5 5.6 5.6v36c0 3.1-2.5 5.6-5.6 5.6h-56.2c-3.1 0-5.6-2.5-5.6-5.6v-36c-.1-3.1 2.5-5.6 5.6-5.6z"/><path fill-rule="evenodd" clip-rule="evenodd" fill="#662A10" d="M821.5 494.9h28.1c3.1 0 5.6 2.5 5.6 5.6v36c0 3.1-2.5 5.6-5.6 5.6h-28.1v-47.2z"/><path fill-rule="evenodd" clip-rule="evenodd" fill="#873D1D" d="M821.5 494.9H853c1.2 0 2.3 1 2.3 2.2v15.7c0 1.2-1 2.2-2.3 2.2h-31.5v-20.1z"/><path fill="#EB4141" d="M814.7 479.7h13.5c3.3 0 6.2 1.3 8.3 3.5 2.1 2.1 3.5 5.1 3.5 8.3v3.4h-3.4v-3.4c0-2.3-1-4.4-2.5-6-1.5-1.5-3.6-2.5-6-2.5h-13.5c-2.3 0-4.4.9-6 2.5-1.5 1.5-2.5 3.6-2.5 6v3.4h-3.4v-3.4c0-3.2 1.3-6.2 3.5-8.3 2.3-2.2 5.3-3.5 8.5-3.5z"/><path fill-rule="evenodd" clip-rule="evenodd" fill="#E6AE35" d="M835 491.5h6.7v3.4H835zm-33.8 0h6.7v3.4h-6.7zm13.5-12.7h13.5v5.1h-13.5z"/><path fill-rule="evenodd" clip-rule="evenodd" fill="#AD532D" d="M821.5 494.9H790c-1.2 0-2.2 1-2.2 2.2v15.7c0 1.2 1 2.2 2.2 2.2h31.5v-20.1z"/><path fill-rule="evenodd" clip-rule="evenodd" fill="#FFCE63" d="M818.9 511.7h5.1c1.4 0 2.5 1.1 2.5 2.5v5.1c0 1.4-1.1 2.5-2.5 2.5h-5.1c-1.4 0-2.5-1.1-2.5-2.5v-5.1c0-1.3 1.2-2.5 2.5-2.5z"/><path fill-rule="evenodd" clip-rule="evenodd" fill="#E6AE35" d="M821.5 511.7h2.5c1.4 0 2.5 1.1 2.5 2.5v5.1c0 1.4-1.1 2.5-2.5 2.5h-2.5v-10.1z"/><g fill-rule="evenodd" clip-rule="evenodd"><path fill="#FFBF36" d="M829.5 403.6h-3.2v14c0 1.8 1.5 3.2 3.2 3.2 1.8 0 3.2-1.5 3.2-3.2v-14h-3.2z"/><path fill="#FCD515" d="M826.2 401.5h6.5c.6 0 1.1.5 1.1 1.1 0 .6-.5 1.1-1.1 1.1h-6.5c-.6 0-1.1-.5-1.1-1.1 0-.6.5-1.1 1.1-1.1z"/><path fill="#C3C4C4" d="M833.5 380.9l-1.7-6c-.1-.4-.4-.6-.8-.6h-3c-.4 0-.7.3-.8.6l-1.7 6c-.2.7-.1 1.4.3 2.1l1.7 2.7c.3.4.4.9.4 1.4v14.4h3.2v-14.4c0-.5.1-1 .4-1.4l1.7-2.7c.4-.7.5-1.4.3-2.1z"/></g><g fill-rule="evenodd" clip-rule="evenodd"><path fill="#B3B3B3" d="M800.8 152l-2.3.9 7.8 20.8 2.3-.9 2.3-.9-7.8-20.8z"/><path fill="#E6E6E6" d="M792.1 142.1c-1.1 1.9-1.4 4.3-.6 6.5 1.5 3.9 5.8 5.9 9.7 4.4 3.9-1.5 5.9-5.8 4.4-9.7-.8-2.2-2.6-3.8-4.7-4.5-.2-.1-.5 0-.6.2-.2.2-.2.4-.1.6l1.7 4.6-2.7 3.3-4.2-.7-1.7-4.6c-.1-.2-.3-.4-.5-.4-.4 0-.6.1-.7.3zm16.3 43.5c-2.1-.7-3.9-2.3-4.7-4.5-1.5-3.9.5-8.2 4.4-9.7 3.9-1.5 8.2.5 9.7 4.4.8 2.2.5 4.6-.6 6.5-.1.2-.3.3-.6.3-.2 0-.4-.2-.5-.4l-1.7-4.6-4.2-.7-2.7 3.3 1.7 4.6c.1.2 0 .5-.1.7-.3.1-.5.2-.7.1z"/></g><path fill-rule="evenodd" clip-rule="evenodd" fill="#F5F5F5" d="M1227.59 127.621l-33.63-11.052 14.735-44.84 33.63 11.052z"/><path fill-rule="evenodd" clip-rule="evenodd" fill="#999" d="M1218.1 81l11.2 3.7.5-1.4-11.2-3.7-.5 1.4zm-11.2 15l22.4 7.4.5-1.4-22.4-7.4-.5 1.4zm1-2.8l22.4 7.4.5-1.4-22.4-7.4-.5 1.4zm.9-2.8l22.4 7.4.5-1.4-22.4-7.4-.5 1.4zm.9-2.8l22.4 7.4.5-1.4-22.4-7.4-.5 1.4zm.9-2.8l22.4 7.4.5-1.4-22.4-7.4-.5 1.4zm3.4 27.5l11.2 3.7.5-1.4-11.2-3.7-.5 1.4zm-.9 2.8l11.2 3.7.5-1.4-11.2-3.7-.5 1.4z"/><path fill="#999" d="M1209.6 103.6c1.3.4 2.3 1.3 2.9 2.5.6 1.1.7 2.5.3 3.8-.4 1.3-1.3 2.3-2.5 2.9-1.1.6-2.5.7-3.8.3-1.3-.4-2.3-1.3-2.9-2.5-.6-1.1-.7-2.5-.3-3.8.4-1.3 1.3-2.3 2.5-2.9 1.2-.6 2.5-.7 3.8-.3zm1.3 3.3c-.4-.7-1-1.3-1.8-1.6-.8-.3-1.7-.2-2.4.2s-1.3 1-1.6 1.8c-.3.8-.2 1.7.2 2.4s1 1.3 1.8 1.6c.8.3 1.7.2 2.4-.2s1.3-1 1.6-1.8c.2-.9.1-1.7-.2-2.4z"/><g fill-rule="evenodd" clip-rule="evenodd"><path fill="#B3B3B3" d="M914.2 227.2h5.1v-25.7c-5.1 2.6-5.1 15.4-5.1 25.7z"/><path fill="#FFBF36" d="M914.2 227.2h5.1v15.2c0 3.5-2.9 6.4-6.4 6.4-3.5 0-6.4-2.9-6.4-6.4 0-3.5 2.9-6.4 6.4-6.4.4 0 .9 0 1.3.1v-8.9zm.9 13.9c-.4-.8-1.3-1.3-2.2-1.3-1.4 0-2.6 1.1-2.6 2.6 0 1.4 1.1 2.6 2.6 2.6 1.4 0 2.6-1.1 2.6-2.6 0-.5-.2-1-.4-1.3z"/><path fill="#999" d="M924.4 227.2h-5.1v-25.7c5.1 2.6 5.1 15.4 5.1 25.7z"/><path fill="#E68C1E" d="M925.7 235.9c-.4 0-.9 0-1.3.1v-8.9h-5.1v15.2c0 3.5 2.9 6.4 6.4 6.4 3.5 0 6.4-2.9 6.4-6.4 0-3.5-2.8-6.4-6.4-6.4zm-2.2 5.2c.4-.8 1.3-1.3 2.2-1.3 1.4 0 2.6 1.1 2.6 2.6 0 1.4-1.1 2.6-2.6 2.6-1.4 0-2.6-1.1-2.6-2.6.1-.5.2-1 .4-1.3z"/><path fill="#E6E6E6" d="M919.3 222c2.8 0 5.1 2.3 5.1 5.1s-2.3 5.1-5.1 5.1-5.1-2.3-5.1-5.1 2.3-5.1 5.1-5.1z"/><path fill="#CCC" d="M919.3 224.6c1.4 0 2.6 1.1 2.6 2.6s-1.1 2.6-2.6 2.6c-1.4 0-2.6-1.2-2.6-2.6s1.2-2.6 2.6-2.6z"/></g><g fill-rule="evenodd" clip-rule="evenodd"><path fill="#EBDEBC" d="M1020.4 364.6l-2.7 1.6 4.6 8 2.7-1.6 5.1-7.8c.1-.2.1-.4 0-.6-.1-.2-.3-.3-.5-.3l-9.2.7z"/><path fill="#FF4063" d="M1030.2 364.8l-1.3 2-1.6-2.7 2.4-.1c.2 0 .4.1.5.3.1.1.1.3 0 .5z"/><path fill="#1DA39C" d="M984.4 396.1c6.3-3.6 34.4-19.9 40.7-23.5l-1.5-.5.3-1.5-1.5-.5.3-1.5-1.5-.5.3-1.5-1.5-.5.3-1.5-40.7 23.5 4.8 8z"/><path fill="#36C291" d="M1022.9 370.3l-.5-.2.3-1.5-1.5-.5.1-.5-40 23.1 1.5 2.7z"/><path fill="#82E0BF" d="M984.4 396.1c6.3-3.6 34.4-19.9 40.7-23.5l-1.5-.5.3-1.5-1-.3-40.1 23.2 1.6 2.6z"/><path fill="#B3B3B3" d="M976.363 390.068l3.376-1.952 4.655 8.05-3.376 1.953z"/><path fill="#E6E6E6" d="M977 400.4l2-1.2 2-1.2-1.2-2-2.3-4-1.2-2-2 1.2-2 1.2c-1.1.6-1.5 2.1-.9 3.2l2.3 4c.8 1 2.2 1.4 3.3.8z"/></g><g fill-rule="evenodd" clip-rule="evenodd"><path fill="#EBDEBC" d="M709 69.7l-2.7 1.6 4.6 8 2.7-1.6 5.1-7.8c.1-.2.1-.4 0-.6-.1-.2-.3-.3-.5-.3l-9.2.7z"/><path fill="#FF4063" d="M718.8 70l-1.3 2-1.6-2.7 2.4-.1c.2 0 .4.1.5.3.1.1.1.3 0 .5z"/><path fill="#1DA39C" d="M673 101.2c6.3-3.6 34.4-19.9 40.7-23.5l-1.5-.5.3-1.5-1.5-.5.3-1.5-1.5-.5.3-1.5-1.5-.5.3-1.5-40.7 23.5 4.8 8z"/><path fill="#36C291" d="M711.5 75.4l-.5-.2.3-1.5-1.4-.5.1-.5-40.1 23.2 1.5 2.7z"/><path fill="#82E0BF" d="M673 101.2c6.3-3.6 34.4-19.9 40.7-23.5l-1.5-.5.3-1.5-1-.3-40.1 23.2 1.6 2.6z"/><path fill="#B3B3B3" d="M665.037 95.104l3.376-1.952 4.656 8.051-3.376 1.952z"/><path fill="#E6E6E6" d="M665.6 105.5l2-1.2 2-1.2-1.2-2-2.3-4-1.2-2-2 1.2-2 1.2c-1.1.6-1.5 2.1-.9 3.2l2.3 4c.8 1.1 2.2 1.4 3.3.8z"/></g><g fill-rule="evenodd" clip-rule="evenodd"><path fill="#EBDEBC" d="M811.4 277.2l2 2.4 7.1-6.1-2-2.4-8.6-3.6c-.2-.1-.4-.1-.6.1s-.2.3-.2.5l2.3 9.1z"/><path fill="#333" d="M809.9 267.5l2.2.9-2.4 2-.6-2.3c-.1-.2 0-.4.2-.5s.4-.2.6-.1z"/><path fill="#E88B00" d="M832.7 287.6c-4.7-5.5-9.5-11-14.2-16.5l-.2 1.5h-1.6l-.2 1.5h-1.6l-.2 1.5h-1.6l-.2 1.5h-1.6l14.2 16.5 7.2-6z"/><path fill="#E8AA00" d="M816.6 273.6l-.1.6-1.5-.1-.2 1.6h-.6l13.8 16 2.4-2z"/><path fill="#FFCF4C" d="M832.7 287.6c-4.7-5.5-9.5-11-14.2-16.5l-.2 1.5h-1.6l-.1 1 13.8 16 2.3-2z"/><path fill="#E6E6E6" d="M828.247 296.64l-2.542-2.959 7.054-6.06 2.542 2.957z"/><path fill="#F29EBF" d="M838.3 294.1l-1.5-1.8-1.5-1.8-1.8 1.5-3.5 3-1.8 1.5 1.5 1.8 1.5 1.8c.8 1 2.3 1.1 3.3.3l3.5-3c1-.8 1.2-2.3.3-3.3z"/></g><g fill-rule="evenodd" clip-rule="evenodd"><path fill="#EBDEBC" d="M70.9 199.2l-1.6 2.7 8 4.8 1.6-2.7.7-9.3c0-.2-.1-.4-.3-.5s-.4-.1-.6 0l-7.8 5z"/><path fill="#333" d="M79.6 194.6l-.2 2.4-2.7-1.6 2-1.3c.2-.1.4-.1.6 0s.3.3.3.5z"/><path fill="#E88B00" d="M67.7 222.7c3.7-6.2 7.5-12.5 11.2-18.7l-1.5.3-.5-1.5-1.5.3-.5-1.5-1.5.3-.5-1.5-1.5.3-.5-1.5-11.2 18.7 8 4.8z"/><path fill="#E8AA00" d="M75.9 203l-.5.1-.5-1.5-1.5.3-.2-.5-10.8 18.1 2.6 1.6z"/><path fill="#FFCF4C" d="M67.7 222.7c3.7-6.2 7.5-12.5 11.2-18.7l-1.5.3-.5-1.5-1 .2L65 221.1l2.7 1.6z"/><path fill="#E6E6E6" d="M57.667 221.287l2.004-3.346 7.978 4.778-2.003 3.346z"/><path fill="#F29EBF" d="M63.3 230l1.2-2 1.2-2-2-1.2-4-2.4-2-1.2-1.2 2-1.2 2c-.7 1.1-.3 2.5.8 3.2l4 2.4c1.1.7 2.5.3 3.2-.8z"/></g><g fill-rule="evenodd" clip-rule="evenodd"><path fill="#BF7C6F" d="M1102.1 180.1h14c1.3 0 2.4 1.1 2.4 2.4v1.4c0 1.3-1.1 2.4-2.4 2.4h-14c-1.3 0-2.4-1.1-2.4-2.4v-1.4c0-1.3 1.1-2.4 2.4-2.4z"/><path fill="#945346" d="M1118.5 183.3v.7c0 1.3-1.1 2.4-2.4 2.4h-14c-1.3 0-2.4-1.1-2.4-2.4v-.7h18.8z"/><path fill="#306E94" d="M1110.7 180.1h5.4c1.3 0 2.4 1.1 2.4 2.4v1.4c0 1.3-1.1 2.4-2.4 2.4h-5.4v-6.2z"/><path fill="#144A6B" d="M1118.5 183.3v.7c0 1.3-1.1 2.4-2.4 2.4h-5.4v-3.1h7.8z"/></g><g fill-rule="evenodd" clip-rule="evenodd"><path fill="#BF7C6F" d="M766.1 618.1l13 5.3c1.2.5 1.8 1.9 1.3 3.2l-.5 1.3c-.5 1.2-1.9 1.8-3.2 1.3l-13-5.3c-1.2-.5-1.8-1.9-1.3-3.2l.5-1.3c.5-1.2 2-1.8 3.2-1.3z"/><path fill="#945346" d="M780.2 627.2l-.3.7c-.5 1.2-1.9 1.8-3.2 1.3l-13-5.3c-1.2-.5-1.8-1.9-1.3-3.2l.3-.7 17.5 7.2z"/><path fill="#306E94" d="M774.1 621.3l5 2.1c1.2.5 1.8 1.9 1.3 3.2l-.5 1.3c-.5 1.2-1.9 1.8-3.2 1.3l-5-2.1 2.4-5.8z"/><path fill="#144A6B" d="M780.2 627.2l-.3.7c-.5 1.2-1.9 1.8-3.2 1.3l-5-2.1 1.2-2.9 7.3 3z"/></g><g fill-rule="evenodd" clip-rule="evenodd"><path fill="#82E0BF" d="M1046.1 67.4h39.6c1.3 0 2.4 1.1 2.4 2.4v6.5c0 1.3-1.1 2.4-2.4 2.4h-39.6c-1.3 0-2.4-1.1-2.4-2.4v-6.5c0-1.3 1.1-2.4 2.4-2.4z"/><path fill="#1DA39C" d="M1085.4 78.7h-1.1V72c0-.3.3-.6.6-.6s.6.3.6.6v6.7zm-1.9 0h-1.1v-2.5c0-.3.2-.6.6-.6.3 0 .5.2.5.6v2.5zm-1.9 0h-1.1v-2.5c0-.3.2-.6.6-.6.3 0 .5.2.5.6v2.5zm-1.9 0h-1.1v-2.5c0-.3.2-.6.5-.6s.6.2.6.6v2.5zm-1.9 0h-1.1v-2.5c0-.3.3-.6.6-.6s.6.2.6.6v2.5zm-1.9 0h-1.1V74c0-.3.2-.6.6-.6.3 0 .6.2.6.6v4.7zm-1.9 0h-1.1v-2.5c0-.3.2-.6.6-.6.3 0 .5.2.5.6v2.5zm-1.9 0h-1.1v-2.5c0-.3.2-.6.5-.6s.6.2.6.6v2.5zm-1.8 0h-1.1v-2.5c0-.3.3-.6.6-.6s.6.2.6.6v2.5zm-1.9 0h-1.1v-2.5c0-.3.3-.6.6-.6s.6.2.6.6v2.5zm-1.9 0h-1.1V72c0-.3.2-.6.6-.6.3 0 .5.3.5.6v6.7zm-1.9 0h-1.1v-2.5c0-.3.2-.6.5-.6s.6.2.6.6v2.5zm-1.9 0h-1.1v-2.5c0-.3.3-.6.6-.6s.6.2.6.6v2.5zm-1.9 0h-1.1v-2.5c0-.3.3-.6.6-.6s.6.2.6.6v2.5zm-1.9 0h-1.1v-2.5c0-.3.2-.6.6-.6.3 0 .5.2.5.6v2.5zm-1.9 0h-1.1V74c0-.3.2-.6.5-.6s.6.2.6.6v4.7zm-1.9 0h-1.1v-2.5c0-.3.3-.6.6-.6s.6.2.6.6v2.5zm-1.9 0h-1.1v-2.5c0-.3.3-.6.6-.6s.6.2.6.6v2.5zm-1.8 0h-1.1v-2.5c0-.3.2-.6.6-.6.3 0 .5.2.5.6v2.5zm-1.9 0h-1.1v-2.5c0-.3.2-.6.5-.6s.6.2.6.6v2.5zm-1.9 0h-1.1V72c0-.3.3-.6.6-.6s.6.3.6.6v6.7z"/><path fill="#68D1AC" d="M1065.9 50.6c9.9 0 18.1 7.3 19.5 16.9h-8.6c-1.3-4.8-5.7-8.4-10.9-8.4s-9.6 3.6-10.9 8.4h-8.6c1.4-9.6 9.6-16.9 19.5-16.9z"/></g><g fill-rule="evenodd" clip-rule="evenodd"><path fill="#88989F" d="M186.426 438.733l-11.9 5.94-.982-1.968 11.9-5.94z"/><path fill="#6C787F" d="M186.417 438.759l-5.905 2.948-.983-1.968 5.905-2.948z"/><path fill="#6C787F" d="M180.5 441.7c2.2-1.1 2.5-1.2 4.7-2.3-1.5.7-2.1 2.6-1.4 4l.7 1.3 3.6 7.1 8.3 16.5c1 2 3 5.9 2 8.9-3-1-4.9-4.9-5.9-6.9l-8.3-16.5-3.6-7.1-.7-1.3c-.7-1.5-2.6-2.1-4-1.4 2.1-1.1 2.4-1.2 4.6-2.3z"/><path fill="#505B60" d="M180.5 441.7c2.2-1.1 2.5-1.2 4.7-2.3-1.5.7-2.1 2.6-1.4 4l.7 1.3 3.6 7.1 8.3 16.5c1 2 3 5.9 2 8.9l-17.9-35.5z"/></g><g fill-rule="evenodd" clip-rule="evenodd"><path fill="#88989F" d="M96.044 644.432l-10.888-7.64 1.264-1.8 10.888 7.639z"/><path fill="#6C787F" d="M90.7 640.7c2 1.4 2.2 1.6 4.3 3-1.4-1-3.2-.6-4.2.7l-.9 1.2-4.6 6.5-10.6 15.1c-1.3 1.8-3.8 5.4-6.9 6-.5-3.1 2-6.7 3.3-8.5l10.6-15.1 4.6-6.5.9-1.2c1-1.4.6-3.2-.7-4.2 1.9 1.4 2.1 1.6 4.2 3z"/><path fill="#505B60" d="M90.7 640.7c2 1.4 2.2 1.6 4.3 3-1.4-1-3.2-.6-4.2.7l-.9 1.2-4.6 6.5-10.6 15.1c-1.3 1.8-3.8 5.4-6.9 6l22.9-32.5z"/><path fill="#AEBEC4" d="M68.8 668l4.9.7 2.7.4-1.5-2-7.6-1 1.5 1.9zm16.3-23.1l-2.7-.4 1.5 2 4.9.7 2.7.4-1.5-2-4.9-.7zm-3 4.2l-2.7-.4 1.5 2 4 .5 3.6.5-1.5-2-4.9-.6zm-3.1 4.3l-2.7-.4 1.5 2 4.9.7 2.7.4-1.5-2-4.9-.7zm-3 4.3l-2.7-.4 1.5 2 4.9.7 2.7.4-1.5-2-4.9-.7zm-3 4.3l-2.7-.4 1.5 2 4.9.7 2.7.4-1.5-2-4.9-.7z"/><path fill="#88989F" d="M71.3 668.3l2.4.3 2.7.4-1.5-2-2.5-.3-1.1 1.6zm3-4.3l1.1-1.6 2.5.3 1.5 2-2.7-.4-2.4-.3zm3-4.3l1.1-1.6 2.5.3 1.5 2-2.7-.4-2.4-.3zm3-4.3l1.1-1.6 2.5.3 1.5 2-2.7-.4-2.4-.3zm3-4.3l1.1-1.6 2.5.3 1.5 2-3.6-.5-1.5-.2zm3.1-4.3l1.1-1.6 2.5.3 1.5 2-2.7-.4-2.4-.3z"/><path fill="#6C787F" d="M96.067 644.455l-5.402-3.79 1.263-1.802 5.403 3.791z"/></g><g fill-rule="evenodd" clip-rule="evenodd"><path fill="#88989F" d="M67.435 55.334l-8.286 10.403-1.721-1.37 8.286-10.404z"/><path fill="#6C787F" d="M63.2 60.5c1.5-1.9 1.7-2.1 3.3-4.1-1 1.3-.8 3.2.5 4.2l1.2.9 6.2 5L88.9 78c1.7 1.4 5.2 4.1 5.5 7.2-3.1.4-6.6-2.4-8.3-3.8L71.6 70l-6.2-5-1.2-.9c-1.3-1-3.2-.8-4.2.5 1.5-1.9 1.7-2.1 3.2-4.1z"/><path fill="#505B60" d="M63.2 60.5c1.5-1.9 1.7-2.1 3.3-4.1-1 1.3-.8 3.2.5 4.2l1.2.9 6.2 5L88.9 78c1.7 1.4 5.2 4.1 5.5 7.2L63.2 60.5z"/><path fill="#AEBEC4" d="M89.1 84l.9-4.9.5-2.7-2.1 1.4-1.5 7.5 2.2-1.3zm-22-17.6l-.6 2.6 2.1-1.4 1-4.9.5-2.7-2.1 1.5-.9 4.9zm4.1 3.2l-.5 2.7 2.1-1.4.8-4 .7-3.5-2.1 1.4-1 4.8zm4.1 3.3l-.5 2.7 2.1-1.4 1-4.9.5-2.7-2.2 1.4-.9 4.9zm4.1 3.3l-.5 2.7 2.1-1.4 1-4.9.5-2.7-2.1 1.4-1 4.9zm4.1 3.2l-.5 2.7 2.1-1.4 1-4.9.5-2.7-2.1 1.4-1 4.9z"/><path fill="#88989F" d="M89.6 81.5l.5-2.4.5-2.7-2.1 1.4-.5 2.4 1.6 1.3zm-4.1-3.2L84 77l.5-2.4 2.1-1.4-.6 2.7-.5 2.4zM81.4 75l-1.6-1.2.5-2.4 2.1-1.4-.5 2.7-.5 2.3zm-4.1-3.3l-1.6-1.2.5-2.4 2.1-1.4-.5 2.7-.5 2.3zm-4.1-3.2l-1.6-1.2.5-2.4 2.1-1.4-.7 3.5-.3 1.5zm-4.1-3.3L67.5 64l.5-2.4 2.1-1.4-.5 2.7-.5 2.3z"/><path fill="#6C787F" d="M67.43 55.35l-4.113 5.162-1.72-1.37 4.111-5.163z"/></g><path fill-rule="evenodd" clip-rule="evenodd" fill="#6C787F" d="M225.7 594.4h-17.1l4.9 34.2h24.4l4.9-34.2z"/><path fill-rule="evenodd" clip-rule="evenodd" fill="#AEBEC4" d="M209 593h32.8c1 0 1.8.8 1.8 1.8s-.8 1.8-1.8 1.8H209c-1 0-1.8-.8-1.8-1.8s.8-1.8 1.8-1.8z"/><path fill-rule="evenodd" clip-rule="evenodd" fill="#FFF" d="M235.5 593h-7.3c1.3 0 2.4 1.1 2.4 2.4v.3c.1 1.2 1.2 2.2 2.4 2.2 1.3 0 2.4-1.1 2.4-2.4V593zm-9.8 2.7v-.3c0-1.3 1.1-2.4 2.4-2.4h-8.5c.7 0 1.2.5 1.2 1.2v11c0 1.3 1.1 2.4 2.4 2.4 1.3 0 2.4-1.1 2.4-2.4v-9.5zm-7.3-2.7h1.2c-.7 0-1.2.5-1.2 1.2v6.1c0 1.3-1.1 2.4-2.4 2.4-1.3 0-2.4-1.1-2.4-2.4V593h4.8z"/><path fill="#AEBEC4" d="M239.8 593v-4.3c0-2.6-1-4.9-2.7-6.6-1.7-1.7-4-2.7-6.6-2.7h-10c-2.6 0-4.9 1.1-6.6 2.7-1.7 1.7-2.7 4-2.7 6.6v4.3h-1.9v-4.3c0-3.1 1.3-5.9 3.3-8 2-2 4.9-3.3 8-3.3h10c3.1 0 5.9 1.3 8 3.3 2 2 3.3 4.9 3.3 8v4.3h-2.1z"/><path fill-rule="evenodd" clip-rule="evenodd" fill="#AEBEC4" d="M213.1 625h24.8c1 0 1.8.8 1.8 1.8s-.8 1.8-1.8 1.8h-24.8c-1 0-1.8-.8-1.8-1.8s.8-1.8 1.8-1.8z"/><path fill-rule="evenodd" clip-rule="evenodd" fill="#EB4141" d="M219.6 576.3h11.8c.4 0 .8.3.8.8v2.2c0 .4-.3.8-.8.8h-11.8c-.4 0-.8-.3-.8-.8v-2.2c0-.4.3-.8.8-.8z"/><path fill-rule="evenodd" clip-rule="evenodd" fill="#FFBF36" d="M271.3 647.3h-7.8v1.4c0 .6.2 1.1.7 1.5l3.3 2.8c1.2 1.1 1.9 2.5 1.8 4.2-.2 4.6-.9 9.3-.9 13.9 0 1.6 1.3 2.9 2.9 2.9 1.6 0 2.9-1.3 2.9-2.9 0-4.6-.7-9.3-.9-13.9-.1-1.6.5-3.1 1.8-4.2l3.3-2.8c.4-.4.7-.9.7-1.5v-1.4h-7.8z"/><path fill-rule="evenodd" clip-rule="evenodd" fill="#D6C8B3" d="M263.5 632l1.5.8 2.4-.8 1.5.8 2.4-.8 1.5.8 2.4-.8 1.5.8 2.4-.8v15.5h-15.5c-.1-5.2-.1-10.3-.1-15.5z"/><path fill-rule="evenodd" clip-rule="evenodd" fill="gray" d="M263.5 643.6H279v3.9h-15.5z"/><path fill="#C3C4C4" d="M279 646.1c.3 0 .5-.2.5-.5s-.2-.5-.5-.5h-15.5c-.3 0-.5.2-.5.5s.2.5.5.5H279zm0 2.4c.3 0 .5-.2.5-.5s-.2-.5-.5-.5h-15.5c-.3 0-.5.2-.5.5s.2.5.5.5H279zm0-4.9c.3 0 .5-.2.5-.5s-.2-.5-.5-.5h-15.5c-.3 0-.5.2-.5.5s.2.5.5.5H279z"/><path fill-rule="evenodd" clip-rule="evenodd" fill="#FFF" d="M264.6 629.8h13.3c.6 0 1.1.5 1.1 1.1v5.2h-4.3c-.5 0-.9.4-.9.9v1.2c0 .5-.4.9-.9.9s-.9-.4-.9-.9V637c0-.5-.4-.9-.9-.9s-.9.4-.9.9v2.9c0 .5-.4.9-.9.9s-.9-.4-.9-.9V637c0-.5-.4-.9-.9-.9s-.9.4-.9.9v.6c0 .5-.4.9-.9.9s-.9-.4-.9-.9v-.6c0-.5-.4-.9-.9-.9h-.9V631c.5-.7 1-1.2 1.6-1.2z"/><g fill-rule="evenodd" clip-rule="evenodd"><path fill="#604E75" d="M315.6 498.6c6.6 0 11.9 5.3 11.9 11.9v8.4c0 1.9-1.6 3.5-3.5 3.5h-16.8c-1.9 0-3.5-1.6-3.5-3.5v-8.4c0-6.6 5.3-11.9 11.9-11.9z"/><path fill="#FFBD2E" d="M300.7 513.4h3v5.9h-3zm14.9 2.7c3.3 0 5.9-2.7 5.9-5.9 0-3.3-2.7-5.9-5.9-5.9-3.3 0-5.9 2.7-5.9 5.9-.1 3.2 2.6 5.9 5.9 5.9zm11.8.3h48.2v3h-48.2z"/><path fill="#666" d="M374.9 522.3c-.4 0-.7-.3-.7-.7v-5.2h1.5v5.2c-.1.4-.4.7-.8.7z"/></g><g fill-rule="evenodd" clip-rule="evenodd"><path fill="#FFCF33" d="M1066.8 260.8l62.2-15.2c.6-.2 1.3.2 1.4.9l2 8.1c.2.6-.2 1.3-.9 1.4l-62.2 15.2c-.6.2-1.3-.2-1.4-.9l-2-8.1c-.1-.6.3-1.3.9-1.4z"/><path fill="#CF8619" d="M1069.1 264.1c.2-.1.5.1.5.3l1.4 5.9c.1.2-.1.5-.3.5-.2.1-.5-.1-.5-.3l-1.4-5.9c0-.2.1-.4.3-.5zm30.8-.8l-1.4-5.9 1.4 5.9zm23.5-8.9c-.2.1-.4.3-.3.5l.6 2.6c.1.2.3.4.5.3.2-.1.4-.3.3-.5l-.6-2.6c0-.3-.3-.4-.5-.3zm1.5-.4c-.2.1-.4.3-.3.5l.6 2.6c.1.2.3.4.5.3.2-.1.4-.3.3-.5l-.6-2.6c0-.2-.3-.4-.5-.3zm1.5-.4c-.2.1-.4.3-.3.5l.6 2.6c.1.2.3.4.5.3.2-.1.4-.3.3-.5l-.6-2.6c-.1-.2-.3-.3-.5-.3zm1.4-.3c-.2.1-.4.3-.3.5l.6 2.6c.1.2.3.4.5.3.2-.1.4-.3.3-.5l-.6-2.6c0-.3-.2-.4-.5-.3zm.7-3.7c-.2.1-.4.3-.3.5l1.4 5.9c.1.2.3.4.5.3.2-.1.4-.3.3-.5l-1.4-5.9c0-.2-.2-.3-.5-.3zm-8.1 5.5c.2-.1.5.1.5.3l.6 2.6c.1.2-.1.5-.3.5-.2.1-.5-.1-.5-.3l-.6-2.6c-.1-.2.1-.5.3-.5zm-1.5.3c.2-.1.5.1.5.3l.6 2.6c.1.2-.1.5-.3.5-.2.1-.5-.1-.5-.3l-.6-2.6c-.1-.2.1-.4.3-.5zm2.6-2.4c.2-.1.5.1.5.3l1.1 4.4c.1.2-.1.5-.3.5-.2.1-.5-.1-.5-.3l-1.1-4.4c-.1-.2 0-.5.3-.5zm-4.1 2.8c.2-.1.5.1.5.3l.6 2.6c.1.2-.1.5-.3.5-.2.1-.5-.1-.5-.3l-.6-2.6c0-.2.1-.4.3-.5zm-1.4.4c.2-.1.5.1.5.3l.6 2.6c.1.2-.1.5-.3.5-.2.1-.5-.1-.5-.3l-.6-2.6c-.1-.2 0-.5.3-.5zm-7.5 1.8c-.2.1-.4.3-.3.5l.6 2.6c.1.2.3.4.5.3.2-.1.4-.3.3-.5l-.6-2.6c0-.2-.2-.4-.5-.3zm1.5-.4c-.2.1-.4.3-.3.5l.6 2.6c.1.2.3.4.5.3.2-.1.4-.3.3-.5l-.6-2.6c0-.2-.2-.3-.5-.3zm1.5-.3c-.2.1-.4.3-.3.5l.6 2.6c.1.2.3.4.5.3.2-.1.4-.3.3-.5l-.6-2.6c0-.3-.2-.4-.5-.3zm1.5-.4c-.2.1-.4.3-.3.5l.6 2.6c.1.2.3.4.5.3.2-.1.4-.3.3-.5l-.6-2.6c0-.2-.3-.4-.5-.3zm.7-3.7c-.2.1-.4.3-.3.5l1.4 5.9c.1.2.3.4.5.3.2-.1.4-.3.3-.5l-1.4-5.9c0-.2-.3-.3-.5-.3zm-8.1 5.5c.2-.1.5.1.5.3l.6 2.6c.1.2-.1.5-.3.5-.2.1-.5-.1-.5-.3l-.6-2.6c-.1-.2 0-.4.3-.5zm-1.5.4c.2-.1.5.1.5.3l.6 2.6c.1.2-.1.5-.3.5-.2.1-.5-.1-.5-.3l-.6-2.6c-.1-.2 0-.5.3-.5zm2.5-2.5c.2-.1.5.1.5.3l1.1 4.4c.1.2-.1.5-.3.5-.2.1-.5-.1-.5-.3l-1.1-4.4c-.1-.2.1-.4.3-.5zm-4 2.8c.2-.1.5.1.5.3l.6 2.6c.1.2-.1.5-.3.5-.2.1-.5-.1-.5-.3l-.6-2.6c-.1-.2.1-.4.3-.5zm-1.5.4c.2-.1.5.1.5.3l.6 2.6c.1.2-.1.5-.3.5-.2.1-.5-.1-.5-.3l-.6-2.6c-.1-.2.1-.5.3-.5zm-7.4 1.8c-.2.1-.4.3-.3.5l.6 2.6c.1.2.3.4.5.3.2-.1.4-.3.3-.5l-.6-2.6c0-.2-.3-.4-.5-.3zm1.5-.4c-.2.1-.4.3-.3.5l.6 2.6c.1.2.3.4.5.3.2-.1.4-.3.3-.5l-.6-2.6c0-.2-.3-.3-.5-.3zm1.5-.3c-.2.1-.4.3-.3.5l.6 2.6c.1.2.3.4.5.3.2-.1.4-.3.3-.5l-.6-2.6c-.1-.2-.3-.4-.5-.3zm1.4-.4c-.2.1-.4.3-.3.5l.6 2.6c.1.2.3.4.5.3.2-.1.4-.3.3-.5l-.6-2.6c0-.2-.2-.3-.5-.3zm-7.4 1.8c.2-.1.5.1.5.3l.6 2.6c.1.2-.1.5-.3.5-.2.1-.5-.1-.5-.3l-.6-2.6c-.1-.2.1-.4.3-.5zm-1.5.4c.2-.1.5.1.5.3l.6 2.6c.1.2-.1.5-.3.5-.2.1-.5-.1-.5-.3l-.6-2.6c0-.2.1-.4.3-.5zm2.6-2.5c.2-.1.5.1.5.3l1.1 4.4c.1.2-.1.5-.3.5-.2.1-.5-.1-.5-.3l-1.1-4.4c-.1-.2 0-.4.3-.5zm-4 2.9c.2-.1.5.1.5.3l.6 2.6c.1.2-.1.5-.3.5-.2.1-.5-.1-.5-.3l-.6-2.6c-.1-.2 0-.5.3-.5zm-1.5.3c.2-.1.5.1.5.3l.6 2.6c.1.2-.1.5-.3.5-.2.1-.5-.1-.5-.3l-.6-2.6c-.1-.2 0-.4.3-.5zm-7.4 1.8c-.2.1-.4.3-.3.5l.6 2.6c.1.2.3.4.5.3.2-.1.4-.3.3-.5l-.6-2.6c-.1-.2-.3-.3-.5-.3zm1.4-.3c-.2.1-.4.3-.3.5l.6 2.6c.1.2.3.4.5.3.2-.1.4-.3.3-.5l-.6-2.6c0-.2-.2-.4-.5-.3zm1.5-.4c-.2.1-.4.3-.3.5l.6 2.6c.1.2.3.4.5.3.2-.1.4-.3.3-.5l-.6-2.6c0-.2-.2-.4-.5-.3zm1.5-.4c-.2.1-.4.3-.3.5l.6 2.6c.1.2.3.4.5.3.2-.1.4-.3.3-.5l-.6-2.6c0-.2-.3-.3-.5-.3zm.7-3.6c-.2.1-.4.3-.3.5l1.4 5.9c.1.2.3.4.5.3.2-.1.4-.3.3-.5l-1.4-5.9c0-.2-.3-.4-.5-.3zm-8.1 5.5c.2-.1.5.1.5.3l.6 2.6c.1.2-.1.5-.3.5-.2.1-.5-.1-.5-.3l-.6-2.6c-.1-.2 0-.5.3-.5zm-1.5.3c.2-.1.5.1.5.3l.6 2.6c.1.2-.1.5-.3.5-.2.1-.5-.1-.5-.3l-.6-2.6c-.1-.2.1-.4.3-.5zm2.5-2.5c.2-.1.5.1.5.3l1.1 4.4c.1.2-.1.5-.3.5-.2.1-.5-.1-.5-.3l-1.1-4.4c0-.1.1-.4.3-.5zm-4 2.9c.2-.1.5.1.5.3l.6 2.6c.1.2-.1.5-.3.5-.2.1-.5-.1-.5-.3l-.6-2.6c-.1-.2.1-.5.3-.5zm-1.5.3c.2-.1.5.1.5.3l.6 2.6c.1.2-.1.5-.3.5-.2.1-.5-.1-.5-.3l-.6-2.6c-.1-.2.1-.4.3-.5z"/></g><path fill-rule="evenodd" clip-rule="evenodd" fill="#604E75" d="M666.3 256.1l-1.5 5.2c-.2.7.2 1.5 1 1.7l41.2 11.9-5.6 19.4c-.2.7.2 1.5 1 1.7l3.4 1c.7.2 1.5-.2 1.7-1l6-20.8.7-2.5.8-2.7c.2-.7-.2-1.5-1-1.7L668.1 255c-.8-.1-1.5.4-1.8 1.1z"/><path d="M699.1 271.1c-.1 0-.2 0-.2.1l-.3 1c0 .1 0 .2.1.2s.2 0 .2-.1l.3-1s0-.1-.1-.2zm.6.2c-.1 0-.2 0-.2.1l-.3 1c0 .1 0 .2.1.2s.2 0 .2-.1l.3-1c0-.1-.1-.2-.1-.2zm-1-1c-.1 0-.2 0-.2.1l-.5 1.7c0 .1 0 .2.1.2s.2 0 .2-.1l.5-1.7c0-.1 0-.2-.1-.2zm-.8.5c-.1 0-.2 0-.2.1l-.3 1c0 .1 0 .2.1.2s.2 0 .2-.1l.3-1c0-.1 0-.2-.1-.2zm2.3.7c-.1 0-.2 0-.2.1l-.3 1c0 .1 0 .2.1.2s.2 0 .2-.1l.3-1c.1-.1 0-.2-.1-.2zm1.8.5c-.1 0-.2 0-.2.1l-.3 1c0 .1 0 .2.1.2s.2 0 .2-.1l.3-1c.1-.1 0-.2-.1-.2zm.6.2c-.1 0-.2 0-.2.1l-.3 1c0 .1 0 .2.1.2s.2 0 .2-.1l.3-1c.1-.1 0-.2-.1-.2zm-5.3-1.6c-.1 0-.2 0-.2.1l-.3 1c0 .1 0 .2.1.2s.2 0 .2-.1l.3-1c0-.1 0-.2-.1-.2zm4.5-.1c-.1 0-.2 0-.2.1l-.7 2.4c0 .1 0 .2.1.2s.2 0 .2-.1l.7-2.4c.1-.1 0-.2-.1-.2zm-1 1.1c-.1 0-.2 0-.2.1l-.3 1c0 .1 0 .2.1.2s.2 0 .2-.1l.3-1c.1 0 0-.1-.1-.2zm4.2 1.3c-.1 0-.2 0-.2.1l-.3 1c0 .1 0 .2.1.2s.2 0 .2-.1l.3-1c0-.1 0-.2-.1-.2zm1.2.3c-.1 0-.2 0-.2.1l-.3 1c0 .1 0 .2.1.2s.2 0 .2-.1l.3-1c0-.1 0-.2-.1-.2zm-.6-.2c-.1 0-.2 0-.2.1l-.3 1c0 .1 0 .2.1.2s.2 0 .2-.1l.3-1c0-.1 0-.1-.1-.2zm1.2.4c-.1 0-.2 0-.2.1l-.3 1c0 .1 0 .2.1.2s.2 0 .2-.1l.3-1c0-.1 0-.2-.1-.2zm-3.6-1.1c-.1 0-.2 0-.2.1l-.3 1c0 .1 0 .2.1.2s.2 0 .2-.1l.3-1c.1 0 0-.1-.1-.2zm.6.2c-.1 0-.2 0-.2.1l-.3 1c0 .1 0 .2.1.2s.2 0 .2-.1l.3-1c.1-.1 0-.2-.1-.2zm-7.7-2.2c-.1 0-.2 0-.2.1l-.3 1c0 .1 0 .2.1.2s.2 0 .2-.1l.3-1c0-.1 0-.2-.1-.2zm.6.1c-.1 0-.2 0-.2.1l-.3 1c0 .1 0 .2.1.2s.2 0 .2-.1l.3-1s0-.1-.1-.2zm7.9 1.6c-.1 0-.2 0-.2.1l-.5 1.7c0 .1 0 .2.1.2s.2 0 .2-.1l.5-1.7c.1-.1 0-.2-.1-.2zm-14.4-3.4c-.1 0-.2 0-.2.1l-.3 1c0 .1 0 .2.1.2s.2 0 .2-.1l.3-1c0-.1-.1-.2-.1-.2zm2.5-.1c-.1 0-.2 0-.2.1l-.5 1.7c0 .1 0 .2.1.2s.2 0 .2-.1l.5-1.7c.1 0 0-.1-.1-.2zm-2.8-1.4c-.1 0-.2 0-.2.1l-.7 2.4c0 .1 0 .2.1.2s.2 0 .2-.1l.7-2.4c.1-.1 0-.2-.1-.2zm2 2c-.1 0-.2 0-.2.1l-.3 1c0 .1 0 .2.1.2s.2 0 .2-.1l.3-1c.1-.1 0-.2-.1-.2zm-.6-.2c-.1 0-.2 0-.2.1l-.3 1c0 .1 0 .2.1.2s.2 0 .2-.1l.3-1c.1-.1 0-.2-.1-.2zm2.4.7c-.1 0-.2 0-.2.1l-.3 1c0 .1 0 .2.1.2s.2 0 .2-.1l.3-1c.1-.1 0-.2-.1-.2zm-.6-.2c-.1 0-.2 0-.2.1l-.3 1c0 .1 0 .2.1.2s.2 0 .2-.1l.3-1c.1-.1 0-.2-.1-.2zm1.2.4c-.1 0-.2 0-.2.1l-.3 1c0 .1 0 .2.1.2s.2 0 .2-.1l.3-1c.1-.1 0-.2-.1-.2zm.6.1c-.1 0-.2 0-.2.1l-.3 1c0 .1 0 .2.1.2s.2 0 .2-.1l.3-1c.1 0 0-.1-.1-.2zm-10.7-3.1c-.1 0-.2 0-.2.1l-.3 1c0 .1 0 .2.1.2s.2 0 .2-.1l.3-1c.1 0 0-.1-.1-.2zm.6.2c-.1 0-.2 0-.2.1l-.3 1c0 .1 0 .2.1.2s.2 0 .2-.1l.3-1c.1-.1 0-.2-.1-.2zm5.9 1.7c-.1 0-.2 0-.2.1l-.3 1c0 .1 0 .2.1.2s.2 0 .2-.1l.3-1c.1 0 0-.1-.1-.2zm-4.7-1.3c-.1 0-.2 0-.2.1l-.3 1c0 .1 0 .2.1.2s.2 0 .2-.1l.3-1c.1-.1 0-.2-.1-.2zm3 .8c-.1 0-.2 0-.2.1l-.3 1c0 .1 0 .2.1.2s.2 0 .2-.1l.3-1c0-.1 0-.2-.1-.2zm-3.6-1c-.1 0-.2 0-.2.1l-.3 1c0 .1 0 .2.1.2s.2 0 .2-.1l.3-1c.1-.1 0-.2-.1-.2zm2.4.7c-.1 0-.2 0-.2.1l-.3 1c0 .1 0 .2.1.2s.2 0 .2-.1l.3-1c0-.1 0-.2-.1-.2zm.6.1c-.1 0-.2 0-.2.1l-.3 1c0 .1 0 .2.1.2s.2 0 .2-.1l.3-1s0-.1-.1-.2zm-1.2-.3c-.1 0-.2 0-.2.1l-.3 1c0 .1 0 .2.1.2s.2 0 .2-.1l.3-1c0-.1 0-.2-.1-.2zm-.4-.9c-.1 0-.2 0-.2.1l-.5 1.7c0 .1 0 .2.1.2s.2 0 .2-.1l.5-1.7c.1 0 0-.1-.1-.2zm9.1 2c-.1 0-.2 0-.2.1l-.7 2.4c0 .1 0 .2.1.2s.2 0 .2-.1l.7-2.4c0-.1 0-.2-.1-.2zm-21-5.4c-.1 0-.2 0-.2.1l-.5 1.7c0 .1 0 .2.1.2s.2 0 .2-.1l.5-1.7c.1-.1 0-.2-.1-.2zm.4.9c-.1 0-.2 0-.2.1l-.3 1c0 .1 0 .2.1.2s.2 0 .2-.1l.3-1c.1-.1 0-.2-.1-.2zm.6.1c-.1 0-.2 0-.2.1l-.3 1c0 .1 0 .2.1.2s.2 0 .2-.1l.3-1c.1 0 0-.1-.1-.2zm.6.2c-.1 0-.2 0-.2.1l-.3 1c0 .1 0 .2.1.2s.2 0 .2-.1l.3-1c.1-.1 0-.2-.1-.2zm-2.4-.7c-.1 0-.2 0-.2.1l-.3 1c0 .1 0 .2.1.2s.2 0 .2-.1l.3-1c.1-.1 0-.1-.1-.2zm-1.8-.5c-.1 0-.2 0-.2.1l-.3 1c0 .1 0 .2.1.2s.2 0 .2-.1l.3-1c.1-.1 0-.2-.1-.2zm.6.2c-.1 0-.2 0-.2.1l-.3 1c0 .1 0 .2.1.2s.2 0 .2-.1l.3-1c.1-.1 0-.2-.1-.2zm.6.2c-.1 0-.2 0-.2.1l-.3 1c0 .1 0 .2.1.2s.2 0 .2-.1l.3-1c.1-.1 0-.2-.1-.2zm-1.4-1.9c-.1 0-.2 0-.2.1l-.7 2.4c0 .1 0 .2.1.2s.2 0 .2-.1l.7-2.4c.1 0 0-.1-.1-.2zm9.1 4.1c-.1 0-.2 0-.2.1l-.3 1c0 .1 0 .2.1.2s.2 0 .2-.1l.3-1c.1-.1.1-.2-.1-.2zm.6.2c-.1 0-.2 0-.2.1l-.3 1c0 .1 0 .2.1.2s.2 0 .2-.1l.3-1c.1-.1 0-.2-.1-.2zm-3.7-2.6c-.1 0-.2 0-.2.1l-.7 2.4c0 .1 0 .2.1.2s.2 0 .2-.1l.7-2.4s0-.1-.1-.2zm4.3 2.7c-.1 0-.2 0-.2.1l-.3 1c0 .1 0 .2.1.2s.2 0 .2-.1l.3-1c.1 0 0-.1-.1-.2zm-1.5-1.2c-.1 0-.2 0-.2.1l-.5 1.7c0 .1 0 .2.1.2s.2 0 .2-.1l.5-1.7c0-.1 0-.2-.1-.2zm2.1 1.4c-.1 0-.2 0-.2.1l-.3 1c0 .1 0 .2.1.2s.2 0 .2-.1l.3-1c.1-.1 0-.2-.1-.2zm-2.9-.9c-.1 0-.2 0-.2.1l-.3 1c0 .1 0 .2.1.2s.2 0 .2-.1l.3-1s0-.1-.1-.2zm-1.2-.3c-.1 0-.2 0-.2.1l-.3 1c0 .1 0 .2.1.2s.2 0 .2-.1l.3-1c0-.1 0-.2-.1-.2zm-.6-.2c-.1 0-.2 0-.2.1l-.3 1c0 .1 0 .2.1.2s.2 0 .2-.1l.3-1s0-.1-.1-.2zm1.2.4c-.1 0-.2 0-.2.1l-.3 1c0 .1 0 .2.1.2s.2 0 .2-.1l.3-1c0-.1 0-.2-.1-.2zm-2.4-.7c-.1 0-.2 0-.2.1l-.3 1c0 .1 0 .2.1.2s.2 0 .2-.1l.3-1c0-.1 0-.2-.1-.2zm6.9.6c-.1 0-.2 0-.2.1l-.7 2.4c0 .1 0 .2.1.2s.2 0 .2-.1l.7-2.4c.1-.1 0-.2-.1-.2zm20.8 25c0-.1 0-.2-.1-.2l-1.7-.5c-.1 0-.2 0-.2.1s0 .2.1.2l1.7.5s.1 0 .2-.1zm-1 .1l-1-.3c-.1 0-.2 0-.2.1s0 .2.1.2l1 .3c.1 0 .2 0 .2-.1 0 0 0-.1-.1-.2zm-.5 1.8l-1-.3c-.1 0-.2 0-.2.1s0 .2.1.2l1 .3c.1 0 .2 0 .2-.1s0-.1-.1-.2zm.3-1.2l-1-.3c-.1 0-.2 0-.2.1s0 .2.1.2l1 .3c.1 0 .2 0 .2-.1.1 0 0-.1-.1-.2zm-.5-2.3l1 .3c.1 0 .2 0 .2-.1s0-.2-.1-.2l-1-.3c-.1 0-.2 0-.2.1s0 .2.1.2zm.3 2.9l-1-.3c-.1 0-.2 0-.2.1s0 .2.1.2l1 .3c.1 0 .2 0 .2-.1.1 0 0-.1-.1-.2zm1.2-4.1l-1-.3c-.1 0-.2 0-.2.1s0 .2.1.2l1 .3c.1 0 .2 0 .2-.1.1-.1 0-.2-.1-.2zm-1.3.6l1 .3c.1 0 .2 0 .2-.1s0-.2-.1-.2l-1-.3c-.1 0-.2 0-.2.1s0 .2.1.2zm1.1 5.1l-2.4-.7c-.1 0-.2 0-.2.1s0 .2.1.2l2.4.7c.1 0 .2 0 .2-.1s0-.2-.1-.2zm-1.4-3.9l1 .3c.1 0 .2 0 .2-.1s0-.2-.1-.2l-1-.3c-.1 0-.2 0-.2.1-.1.1 0 .2.1.2zm1.7-5.9l1 .3c.1 0 .2 0 .2-.1s0-.2-.1-.2l-1-.3c-.1 0-.2 0-.2.1-.1 0 0 .1.1.2zm.3-1.2l1 .3c.1 0 .2 0 .2-.1s0-.2-.1-.2l-1-.3c-.1 0-.2 0-.2.1 0 0 0 .1.1.2zm1.3-.7l-1-.3c-.1 0-.2 0-.2.1s0 .2.1.2l1 .3c.1 0 .2 0 .2-.1.1 0 0-.1-.1-.2zm-1.4 1.3l1 .3c.1 0 .2 0 .2-.1s0-.2-.1-.2l-1-.3c-.1 0-.2 0-.2.1-.1 0 0 .1.1.2zm2.2-7.7l2.4.7c.1 0 .2 0 .2-.1s0-.2-.1-.2l-2.4-.7.7-2.4c0-.1 0-.2-.1-.2s-.2 0-.2.1l-.7 2.4c0 .1 0 .2.1.2-.1 0 0 .1.1.2zm-.6 9.2c0-.1 0-.2-.1-.2l-1.7-.5c-.1 0-.2 0-.2.1s0 .2.1.2l1.7.5c.1.1.2 0 .2-.1zm.4-8.7l1 .3c.1 0 .2 0 .2-.1s0-.2-.1-.2l-1-.3c-.1 0-.2 0-.2.1s0 .2.1.2zm1.3 2.8c0-.1 0-.2-.1-.2l-1.7-.5c-.1 0-.2 0-.2.1s0 .2.1.2l1.7.5c.1.1.2 0 .2-.1zm-.4 2.9l-2.4-.7c-.1 0-.2 0-.2.1s0 .2.1.2l2.4.7c.1 0 .2 0 .2-.1.1 0 0-.2-.1-.2zm-.6-2.7l-1-.3c-.1 0-.2 0-.2.1s0 .2.1.2l1 .3c.1 0 .2 0 .2-.1s0-.2-.1-.2zm-.3 1.2l-1-.3c-.1 0-.2 0-.2.1s0 .2.1.2l1 .3c.1 0 .2 0 .2-.1s0-.2-.1-.2zm-.2.5l-1-.3c-.1 0-.2 0-.2.1s0 .2.1.2l1 .3c.1 0 .2 0 .2-.1 0 0 0-.1-.1-.2zm.3-1.1l-1-.3c-.1 0-.2 0-.2.1s0 .2.1.2l1 .3c.1 0 .2 0 .2-.1.1-.1 0-.2-.1-.2zm-.3-3l1 .3c.1 0 .2 0 .2-.1s0-.2-.1-.2l-1-.3c-.1 0-.2 0-.2.1s0 .2.1.2zm-1.7 10.1l-1-.3c-.1 0-.2 0-.2.1s0 .2.1.2l1 .3c.1 0 .2 0 .2-.1s0-.2-.1-.2zm.3-1.2l-1-.3c-.1 0-.2 0-.2.1s0 .2.1.2l1 .3c.1 0 .2 0 .2-.1.1-.1 0-.2-.1-.2zm1.3-8.3l1 .3c.1 0 .2 0 .2-.1s0-.2-.1-.2l-1-.3c-.1 0-.2 0-.2.1-.1.1 0 .2.1.2zm-1.1 7.7l-1-.3c-.1 0-.2 0-.2.1s0 .2.1.2l1 .3c.1 0 .2 0 .2-.1s0-.2-.1-.2zm-.4 1.2l-1-.3c-.1 0-.2 0-.2.1s0 .2.1.2l1 .3c.1 0 .2 0 .2-.1.1-.1 0-.2-.1-.2zm1.3-8.3l1 .3c.1 0 .2 0 .2-.1s0-.2-.1-.2l-1-.3c-.1 0-.2 0-.2.1s0 .2.1.2zm-.3 9.9l-2.4-.7c-.1 0-.2 0-.2.1s0 .2.1.2l2.4.7c.1 0 .2 0 .2-.1.1-.1 0-.2-.1-.2z" fill="#CCC"/><g fill-rule="evenodd" clip-rule="evenodd"><path fill="#FF6969" d="M371.9 619.2h-4.5c-1.3 0-2.3.9-2.5 2.2l-6.5 58.1h26.8l-6.5-58.1c-.1-1.3-1.2-2.2-2.5-2.2h-4.3z"/><path fill="#CF3F17" d="M371.9 679.5h13.4l-6.5-58.1c-.1-1.3-1.2-2.2-2.5-2.2h-4.5v60.3z"/><path fill="#FFF" d="M359.3 672.8l-.8 6.7h26.8l-.7-6.7z"/><path fill="#F3E3E1" d="M371.9 679.5h13.4l-.7-6.7h-12.7z"/><path fill="#FFF" d="M364.1 629.3l-1.1 10.1h17.9l-1.1-10.1h-15.7zm-1.9 16.7l-1.1 10h21.6l-1.1-10h-19.4z"/><path fill="#F3E3E1" d="M371.9 639.3h8.9l-1.1-10.1h-7.8v10.1zm0 16.8v-10h9.7l1.1 10h-10.8z"/><path fill="#CF3F17" d="M353.5 679.5h36.9c.9 0 1.7.8 1.7 1.7 0 .9-.7 1.7-1.7 1.7h-36.9c-.9 0-1.7-.8-1.7-1.7 0-.9.8-1.7 1.7-1.7z"/><path fill="#A82C0A" d="M371.9 679.5h18.4c.9 0 1.7.8 1.7 1.7 0 .9-.7 1.7-1.7 1.7h-18.4v-3.4z"/></g><path fill-rule="evenodd" clip-rule="evenodd" fill="#88CFE3" d="M947.2 304.3c5.5 2.3 8.2 8.7 5.9 14.2-2.3 5.5-8.7 8.2-14.2 5.9-5.5-2.3-8.2-8.7-5.9-14.2 2.3-5.6 8.6-8.2 14.2-5.9z"/><path fill-rule="evenodd" clip-rule="evenodd" fill="#E6E6E6" d="M936.47 334.376l-3.047-1.265 3.45-8.312 3.048 1.265z"/><path fill="#6C787F" d="M948 302.3c3.3 1.4 5.8 4 7 7.1 1.3 3.1 1.4 6.6 0 10-1.4 3.3-4 5.8-7.1 7-3.1 1.3-6.6 1.4-10 0s-5.8-4-7-7.1c-1.3-3.1-1.4-6.6 0-10 1.4-3.3 4-5.8 7.1-7 3.1-1.3 6.7-1.4 10 0zm4.7 8.1c-1-2.5-3-4.6-5.7-5.7-2.7-1.1-5.5-1-8 0s-4.6 3-5.7 5.7c-1.1 2.7-1 5.5 0 8s3 4.6 5.7 5.7c2.7 1.1 5.5 1 8 0s4.6-3 5.7-5.7c1.1-2.7 1-5.6 0-8z"/><path fill-rule="evenodd" clip-rule="evenodd" fill="#FF6969" d="M936.2 330.7c1.7.7 2.5 2.6 1.8 4.3l-3.8 9.2c-.7 1.7-2.6 2.5-4.3 1.8-1.7-.7-2.5-2.6-1.8-4.3l3.8-9.2c.7-1.7 2.7-2.5 4.3-1.8z"/><path fill-rule="evenodd" clip-rule="evenodd" fill="#EB4141" d="M936.2 330.7c1.7.7 2.5 2.6 1.8 4.3l-3.8 9.2c-.7 1.7-2.6 2.5-4.3 1.8l6.3-15.3z"/><path fill="#FEFEFE" d="M934.9 311c-.2.4 0 .8.4 1 .4.2.8 0 1-.4.8-1.8 2.2-3.2 3.9-3.9 1.7-.7 3.7-.8 5.5 0 .4.2.8 0 1-.4.2-.4 0-.8-.4-1-2.2-.9-4.6-.9-6.7 0-2 .8-3.7 2.5-4.7 4.7z"/><g fill-rule="evenodd" clip-rule="evenodd"><path fill="#FA3A3A" d="M398 332.2c3 0 5.6 1.6 7.1 4.1h3.1c1.1 0 2 .9 2 2s-.9 2-2 2h-2c0 4.5-3.6 8.1-8.1 8.1-3 0-5.6-1.6-7.1-4.1-.3.1-2.3-6.1-9.2-6.1h-3.3c-.4 0-.8-.3-.9-.7l-1.1-4.2c-.1-.3 0-.6.2-.8.2-.2.5-.4.8-.4h12.6l2 1 2-1 3.9.1zm10.2 5.1c.6 0 1 .5 1 1 0 .6-.5 1-1 1-.6 0-1-.5-1-1 0-.6.4-1 1-1z"/><path fill="#FF6969" d="M398 336.3c2.2 0 4.1 1.8 4.1 4.1 0 2.2-1.8 4.1-4.1 4.1-2.2 0-4.1-1.8-4.1-4.1.1-2.3 1.9-4.1 4.1-4.1z"/></g><g fill-rule="evenodd" clip-rule="evenodd"><path fill="#6C787F" d="M327.4 409.5l3 1.7 3 1.7v7l-3 1.7-3 1.7-3-1.7-3-1.7v-7l3-1.7 3-1.7zm0 3.6c1.8 0 3.3 1.5 3.3 3.3 0 1.8-1.5 3.3-3.3 3.3-1.8 0-3.3-1.5-3.3-3.3 0-1.8 1.5-3.3 3.3-3.3z"/><path fill="#505B60" d="M327.4 409.5l3 1.7 3 1.7v7l-3 1.7-3 1.7v-3.6c1.8 0 3.3-1.5 3.3-3.3 0-1.8-1.5-3.3-3.3-3.3v-3.6z"/></g><g fill-rule="evenodd" clip-rule="evenodd"><path fill="#6C787F" d="M518.3 43.6l3 1.7 3 1.7v7l-3 1.7-3 1.7-3-1.7-3-1.7v-7l3-1.7 3-1.7zm0 3.6c1.8 0 3.3 1.5 3.3 3.3 0 1.8-1.5 3.3-3.3 3.3-1.8 0-3.3-1.5-3.3-3.3-.1-1.8 1.4-3.3 3.3-3.3z"/><path fill="#505B60" d="M518.3 43.6l3 1.7 3 1.7v7l-3 1.7-3 1.7v-3.6c1.8 0 3.3-1.5 3.3-3.3 0-1.8-1.5-3.3-3.3-3.3v-3.6z"/></g><g fill-rule="evenodd" clip-rule="evenodd"><path fill="#6C787F" d="M299.2 305.5c3.3 0 6-2.7 6-6s-2.7-6-6-6-6 2.7-6 6 2.7 6 6 6z"/><path fill="#505B60" d="M305 298.1c.1.5.2 1 .2 1.5s-.1 1-.2 1.5h-11.6c-.1-.5-.2-1-.2-1.5s.1-1 .2-1.5H305z"/></g><path fill-rule="evenodd" clip-rule="evenodd" fill="#FA3A3A" d="M227.5 355.6l-1.2.3-.5-.6c-.1-.1-.2-.1-.3 0l-.5.3c-.1.1-.2.2-.1.3l.2.8c-.3.3-.6.5-.9.9l-.8-.2c-.1 0-.2 0-.3.1l-.3.5c-.1.1 0 .2 0 .3l.6.5c-.1.4-.3.8-.3 1.2l-.8.2c-.1 0-.2.1-.2.3v.5c0 .1.1.2.2.3l.8.2.3 1.2-.6.5c-.1.1-.1.2 0 .3l.3.5c.1.1.2.2.3.1l.8-.2c.3.3.5.6.9.9l-.2.8c0 .1 0 .2.1.3l.5.3c.1.1.2 0 .3 0l.5-.6c.4.1.8.3 1.2.3l.2.8c0 .1.1.2.3.2h.5c.1 0 .2-.1.3-.2l.2-.8 1.2-.3.5.6c.1.1.2.1.3 0l.5-.3c.1-.1.2-.2.1-.3l-.2-.8c.3-.3.6-.5.9-.9l.8.2c.1 0 .2 0 .3-.1l.3-.5c.1-.1 0-.2 0-.3l-.6-.5c.1-.4.3-.8.3-1.2l.8-.2c.1 0 .2-.1.2-.3v-.5c0-.1-.1-.2-.2-.3l-.8-.2-.3-1.2.6-.5c.1-.1.1-.2 0-.3l-.3-.5c-.1-.1-.2-.2-.3-.1l-.8.2c-.3-.3-.5-.6-.9-.9l.2-.8c0-.1 0-.2-.1-.3l-.5-.3c-.1-.1-.2 0-.3 0l-.5.6c-.4-.1-.8-.3-1.2-.3l-.2-.8c0-.1-.1-.2-.3-.2h-.5c-.1 0-.2.1-.3.2l-.2.8zm.7 1.4c-2 0-3.6 1.6-3.6 3.6s1.6 3.6 3.6 3.6 3.6-1.6 3.6-3.6-1.6-3.6-3.6-3.6zm386.5 323.2l-1.2.3-.5-.6c-.1-.1-.2-.1-.3 0l-.5.3c-.1.1-.2.2-.1.3l.2.8c-.3.3-.6.5-.9.9l-.8-.2c-.1 0-.2 0-.3.1l-.3.5c-.1.1 0 .2 0 .3l.6.5c-.1.4-.3.8-.3 1.2l-.8.2c-.1 0-.2.1-.2.3v.5c0 .1.1.2.2.3l.8.2.3 1.2-.6.5c-.1.1-.1.2 0 .3l.3.5c.1.1.2.2.3.1l.8-.2c.3.3.5.6.9.9l-.3.6c0 .1 0 .2.1.3l.5.3c.1.1.2 0 .3 0l.5-.6c.4.1.8.3 1.2.3l.2.8c0 .1.1.2.3.2h.5c.1 0 .2-.1.3-.2l.2-.8 1.2-.3.5.6c.1.1.2.1.3 0l.5-.3c.1-.1.2-.2.1-.3l-.2-.8c.3-.3.6-.5.9-.9l.8.2c.1 0 .2 0 .3-.1l.3-.5c.1-.1 0-.2 0-.3l-.6-.5c.1-.4.3-.8.3-1.2l.8-.2c.1 0 .2-.1.2-.3v-.5c0-.1-.1-.2-.2-.3l-.8-.2-.3-1.2.6-.5c.1-.1.1-.2 0-.3l-.3-.5c-.1-.1-.2-.2-.3-.1l-.8.2c-.3-.3-.5-.6-.9-.9l.2-.8c0-.1 0-.2-.1-.3l-.5-.3c-.1-.1-.2 0-.3 0l-.5.6c-.4-.1-.8-.3-1.2-.3l-.2-.8c0-.1-.1-.2-.3-.2h-.5c-.1 0-.2.1-.3.2l-.1 1zm.7 1.4c-2 0-3.6 1.6-3.6 3.6s1.6 3.6 3.6 3.6 3.6-1.6 3.6-3.6-1.6-3.6-3.6-3.6zm83.8-511.1l-1.2.3-.5-.6c-.1-.1-.2-.1-.3 0l-.5.3c-.1.1-.2.2-.1.3l.2.8c-.3.3-.6.5-.9.9l-.8-.2c-.1 0-.2 0-.3.1l-.3.5c-.1.1 0 .2 0 .3l.6.5c-.1.4-.3.8-.3 1.2l-.8.2c-.1 0-.2.1-.2.3v.5c0 .1.1.2.2.3l.8.2.3 1.2-.6.5c-.1.1-.1.2 0 .3l.3.5c.1.1.2.2.3.1l.8-.2c.3.3.5.6.9.9l-.2.8c0 .1 0 .2.1.3l.5.3c.1.1.2 0 .3 0l.5-.6c.4.1.8.3 1.2.3l.2.8c0 .1.1.2.3.2h.5c.1 0 .2-.1.3-.2l.2-.8 1.2-.3.5.6c.1.1.2.1.3 0l.5-.3c.1-.1.2-.2.1-.3l-.2-.8c.3-.3.6-.5.9-.9l.8.2c.1 0 .2 0 .3-.1l.3-.5c.1-.1 0-.2 0-.3l-.6-.5c.1-.4.3-.8.3-1.2l.8-.2c.1 0 .2-.1.2-.3v-.5c0-.1-.1-.2-.2-.3l-.8-.2-.3-1.2.6-.5c.1-.1.1-.2 0-.3l-.3-.5c-.1-.1-.2-.2-.3-.1l-.8.2c-.3-.3-.5-.6-.9-.9l.2-.8c0-.1 0-.2-.1-.3l-.5-.3c-.1-.1-.2 0-.3 0l-.5.6c-.4-.1-.8-.3-1.2-.3l-.2-.8c0-.1-.1-.2-.3-.2h-.5c-.1 0-.2.1-.3.2l-.2.8zm.7 1.4c-2 0-3.6 1.6-3.6 3.6s1.6 3.6 3.6 3.6 3.6-1.6 3.6-3.6-1.6-3.6-3.6-3.6z"/><path fill-rule="evenodd" clip-rule="evenodd" fill="#E68C1E" d="M70.9 330c-.4.1-.9.3-1.2.5l-1.3-.7c-.1-.1-.3 0-.4.1l-.5.5c-.1.1-.1.2-.1.3l.7 1.3c-.2.4-.4.8-.5 1.2l-1.4.4c-.1 0-.2.1-.2.3v.7c0 .1.1.2.2.3l1.4.4c.1.4.3.9.5 1.2l-.7 1.3c-.1.1 0 .3.1.4l.5.5c.1.1.2.1.4 0l1.3-.7c.4.2.8.4 1.2.5l.4 1.4c0 .1.2.2.3.2h.7c.1 0 .2-.1.3-.2l.4-1.4c.4-.1.9-.3 1.2-.5l1.3.7c.1.1.3 0 .4 0l.5-.5c.1-.1.1-.2 0-.4l-.7-1.3c.2-.4.4-.8.5-1.2l1.4-.4c.1 0 .2-.2.2-.3v-.6c0-.1-.1-.2-.2-.3l-1.4-.4c-.1-.4-.3-.9-.5-1.2l.7-1.3c.1-.1 0-.3 0-.3l-.5-.5c-.1-.1-.2-.1-.4-.1l-1.3.7c-.4-.2-.8-.4-1.2-.5l-.4-1.4c0-.1-.2-.2-.3-.2h-.7c-.1 0-.2.1-.3.2l-.4 1.3zm1.1 1.6c-1.5 0-2.7 1.2-2.7 2.7 0 1.5 1.2 2.7 2.7 2.7 1.5 0 2.7-1.2 2.7-2.7 0-1.4-1.2-2.7-2.7-2.7zM1166.9 39.1c-.4.1-.9.3-1.2.5l-1.3-.7c-.1-.1-.3 0-.4.1l-.5.5c-.1.1-.1.2-.1.3l.7 1.3c-.2.4-.4.8-.5 1.2l-1.4.4c-.1 0-.2.1-.2.3v.7c0 .1.1.2.2.3l1.4.4c.1.4.3.9.5 1.2l-.7 1.3c-.1.1 0 .3.1.4l.5.5c.1.1.2.1.4 0l1.3-.7c.4.2.8.4 1.2.5l.4 1.4c0 .1.2.2.3.2h.7c.1 0 .2-.1.3-.2l.4-1.4c.4-.1.9-.3 1.2-.5l1.3.7c.1.1.3 0 .4 0l.5-.5c.1-.1.1-.2 0-.4l-.7-1.3c.2-.4.4-.8.5-1.2l1.4-.4c.1 0 .2-.2.2-.3V43c0-.1-.1-.2-.2-.3l-1.4-.4c-.1-.4-.3-.9-.5-1.2l.7-1.3c.1-.1 0-.3 0-.3l-.4-.5c-.1-.1-.2-.1-.4-.1l-1.3.7c-.4-.2-.8-.4-1.2-.5l-.4-1.4c0-.1-.2-.2-.3-.2h-.7c-.1 0-.2.1-.3.2l-.5 1.4zm1.1 1.7c-1.5 0-2.7 1.2-2.7 2.7 0 1.5 1.2 2.7 2.7 2.7 1.5 0 2.7-1.2 2.7-2.7 0-1.5-1.2-2.7-2.7-2.7zM136.9 587.1c-.4.1-.9.3-1.2.5l-1.3-.7c-.1-.1-.3 0-.4.1l-.5.5c-.1.1-.1.2-.1.3l.7 1.3c-.2.4-.4.8-.5 1.2l-1.4.4c-.1 0-.2.1-.2.3v.7c0 .1.1.2.2.3l1.4.4c.1.4.3.9.5 1.2l-.7 1.3c-.1.1 0 .3.1.4l.5.5c.1.1.2.1.4 0l1.3-.7c.4.2.8.4 1.2.5l.4 1.4c0 .1.2.2.3.2h.7c.1 0 .2-.1.3-.2l.4-1.4c.4-.1.9-.3 1.2-.5l1.3.7c.1.1.3 0 .4 0l.5-.5c.1-.1.1-.2 0-.4l-.7-1.3c.2-.4.4-.8.5-1.2l1.4-.4c.1 0 .2-.2.2-.3v-.7c0-.1-.1-.2-.2-.3l-1.4-.4c-.1-.4-.3-.9-.5-1.2l.7-1.3c.1-.1 0-.3 0-.3l-.4-.5c-.1-.1-.2-.1-.4-.1l-1.3.7c-.4-.2-.8-.4-1.2-.5l-.4-1.4c0-.1-.2-.2-.3-.2h-.7c-.1 0-.2.1-.3.2l-.5 1.4zm1.1 1.6c-1.5 0-2.7 1.2-2.7 2.7 0 1.5 1.2 2.7 2.7 2.7 1.5 0 2.7-1.2 2.7-2.7.1-1.4-1.2-2.7-2.7-2.7z"/><path fill-rule="evenodd" clip-rule="evenodd" fill="#D1784B" d="M512.8 424.8h17.3v12.9h-17.3z"/><path fill-rule="evenodd" clip-rule="evenodd" fill="#EB4141" d="M547.4 454.7v58.7h-4c-3.2 3.8-7.9 6.1-13.2 6.1h-17.3c-5.3 0-10-2.4-13.2-6.1h-4V451c-1.4.5-2.7 1.3-3.7 2.3-1.7 1.7-2.8 4.1-2.8 6.7v43h-12.9v-43c0-6.2 2.5-11.8 6.6-15.8 4.1-4.1 9.6-6.6 15.8-6.6h46c6.2 0 11.8 2.5 15.8 6.6 4.1 4 6.6 9.6 6.6 15.8v14.3c0 .9.4 1.7 1 2.3.6.6 1.4 1 2.3 1 .9 0 1.7-.4 2.3-1 .6-.6 1-1.4 1-2.3v-25.2h12.9v25.2c0 4.5-1.8 8.5-4.8 11.4-2.9 2.9-7 4.8-11.4 4.8-4.5 0-8.5-1.8-11.5-4.8-2.9-2.9-4.8-7-4.8-11.4V460c0-2.6-1.1-4.9-2.8-6.7-1-1-2.3-1.8-3.8-2.3v3.7z"/><path fill-rule="evenodd" clip-rule="evenodd" fill="#D1784B" d="M521.5 446.3c4.8 0 8.6-3.9 8.6-8.6 0-4.8-3.9-8.6-8.6-8.6-4.8 0-8.6 3.9-8.6 8.6-.1 4.8 3.8 8.6 8.6 8.6zm53 4.4c1.2 0 2.2-1 2.2-2.2v-8.6c0-1.2-1-2.2-2.2-2.2-1.2 0-2.2 1-2.2 2.2v8.6c0 1.3 1 2.2 2.2 2.2z"/><path fill-rule="evenodd" clip-rule="evenodd" fill="#D1784B" d="M578.8 455.5c-3.6 0-6.5-2.9-6.5-6.5s2.9-6.5 6.5-6.5h6c1.4 0 2.5 1.1 2.5 2.5v7.9c0 1.4-1.1 2.5-2.5 2.5h-6z"/><path fill-rule="evenodd" clip-rule="evenodd" fill="#3D5FBA" d="M550.6 415.8h32.2v50.3h-32.2z"/><path fill-rule="evenodd" clip-rule="evenodd" fill="#8296CC" d="M576.8 424.3v-2.5h-20.1v10.1h2.5v-7.6h15.1v7.6h2.5z"/><path fill="#999" d="M575.1 431.9h.8v17.6h-.8zm-17.6 0h.8v17.6h-.8z"/><path fill="#999" d="M556.7 444h20.1v.8h-20.1z"/><path fill="#8296CC" d="M559.2 458.9h15.1v1.3h-15.1v-1.3zm0-5h15.1v1.3h-15.1v-1.3zm0 2.5h15.1v1.3h-15.1v-1.3z"/><path fill-rule="evenodd" clip-rule="evenodd" fill="#FD9C64" d="M584.8 442.6c-3.6 0-6.5 2.9-6.5 6.5s2.9 6.5 6.5 6.5c1.4 0 2.5-1.1 2.5-2.5v-7.9c0-1.5-1.1-2.6-2.5-2.6z"/><path fill-rule="evenodd" clip-rule="evenodd" fill="#FD9C65" d="M489.1 507v-4h-12.9v14c0 1.4 1.1 2.5 2.5 2.5h7.9c1.4 0 2.5-1.1 2.5-2.5v-5.6h1.9c1.2 0 2.2-1 2.2-2.2 0-1.2-1-2.2-2.2-2.2h-1.9z"/><path fill-rule="evenodd" clip-rule="evenodd" fill="#756152" d="M538.7 363.4c4.7 0 8.6 3.9 8.6 8.6v12.9c0 4.7-3.9 8.6-8.6 8.6-4.7 0-8.6-3.9-8.6-8.6V372c0-4.7 3.9-8.6 8.6-8.6zm-34.5 0c4.7 0 8.6 3.9 8.6 8.6v12.9c0 4.7-3.9 8.6-8.6 8.6-4.7 0-8.6-3.9-8.6-8.6V372c0-4.7 3.9-8.6 8.6-8.6z"/><path fill-rule="evenodd" clip-rule="evenodd" fill="#D1784B" d="M499.9 387.1c3.6 0 6.5 2.9 6.5 6.5s-2.9 6.5-6.5 6.5-6.5-2.9-6.5-6.5 2.9-6.5 6.5-6.5zm43.2 0c3.6 0 6.5 2.9 6.5 6.5s-2.9 6.5-6.5 6.5-6.5-2.9-6.5-6.5 2.9-6.5 6.5-6.5z"/><path fill-rule="evenodd" clip-rule="evenodd" fill="#756152" d="M521.5 369.9c13.9 0 25.2 11.4 25.2 25.2v12.6c0 13.9-11.4 25.2-25.2 25.2-13.9 0-25.2-11.3-25.2-25.2v-12.6c-.1-13.8 11.3-25.2 25.2-25.2z"/><path fill-rule="evenodd" clip-rule="evenodd" fill="#FD9C65" d="M521.5 363.4c11.9 0 21.6 9.7 21.6 21.6v17.3c0 11.9-9.7 21.6-21.6 21.6-11.9 0-21.6-9.7-21.6-21.6V385c0-11.9 9.7-21.6 21.6-21.6z"/><path fill-rule="evenodd" clip-rule="evenodd" fill="#333" d="M508.5 395.7c1.2 0 2.2-1 2.2-2.2 0-1.2-1-2.2-2.2-2.2-1.2 0-2.2 1-2.2 2.2.1 1.3 1 2.2 2.2 2.2zm25.9 0c1.2 0 2.2-1 2.2-2.2 0-1.2-1-2.2-2.2-2.2-1.2 0-2.2 1-2.2 2.2.1 1.3 1 2.2 2.2 2.2zm-29.1-6.4h6.5c.6 0 1.1-.5 1.1-1.1 0-.6-.5-1.1-1.1-1.1h-6.5c-.6 0-1.1.5-1.1 1.1 0 .6.5 1.1 1.1 1.1zm25.9 0h6.5c.6 0 1.1-.5 1.1-1.1 0-.6-.5-1.1-1.1-1.1h-6.5c-.6 0-1.1.5-1.1 1.1 0 .6.5 1.1 1.1 1.1z"/><path fill-rule="evenodd" clip-rule="evenodd" fill="#FEFEFE" d="M510.6 408.3c2.3 3.6 6.3 5.9 10.9 5.9 4.6 0 8.6-2.4 10.9-5.9h-21.8z"/><path fill-rule="evenodd" clip-rule="evenodd" fill="#F8AF22" d="M528 348.2c11.4 3 19.9 13.4 19.9 25.6v5.9H495v-5.9c0-12.3 8.5-22.7 19.9-25.6 0-1.1.9-2 2-2h9.2c1 0 1.9.9 1.9 2z"/><path fill-rule="evenodd" clip-rule="evenodd" fill="#E88B00" d="M504.8 353.2c2.9-2.3 6.3-4 9.9-5v7.4c0 2.7-2.2 5-5 5-2.7 0-5-2.2-5-5v-2.4zm23.2-5c3.7 1 7 2.7 9.9 5v2.4c0 2.7-2.2 5-5 5-2.7 0-5-2.2-5-5v-7.4zm-6.6 31.5h-26.5c0 3.1 11.9 5.7 26.5 5.7s26.5-2.5 26.5-5.7h-26.5z"/><path fill-rule="evenodd" clip-rule="evenodd" fill="#333" d="M532.4 408.3c0-2.6-2.1-4.8-4.8-4.8h-12.2c-2.6 0-4.8 2.1-4.8 4.8h21.8z"/><path fill-rule="evenodd" clip-rule="evenodd" fill="#756152" d="M521.5 430.3c3.6 0 6.5-2.9 6.5-6.5s-2.9-6.5-6.5-6.5-6.5 2.9-6.5 6.5c0 3.5 2.9 6.5 6.5 6.5z"/><path fill-rule="evenodd" clip-rule="evenodd" fill="#D1784B" d="M525.5 400.8c1.1.6 1.9 1.7 1.9 3.1 0 1.9-1.5 3.4-3.4 3.4h-5.6c-1.9 0-3.4-1.5-3.4-3.4 0-1.3.8-2.5 1.9-3.1v-8.6c0-2.4 1.9-4.3 4.3-4.3s4.3 1.9 4.3 4.3v8.6z"/><path fill="#333" d="M518.6 391h5.5v-.4c0-.7.3-1.3.7-1.7.4-.4 1-.7 1.7-.7h15.6c.7 0 1.3.3 1.7.7.4.4.7 1 .7 1.7v3.4c0 2.3-.9 4.3-2.4 5.8s-3.5 2.4-5.8 2.4h-4c-2.3 0-4.3-.9-5.8-2.4s-2.4-3.5-2.4-5.8v-.4h-5.5v.4c0 2.3-.9 4.3-2.4 5.8s-3.5 2.4-5.8 2.4h-4c-2.3 0-4.3-.9-5.8-2.4s-2.4-3.5-2.4-5.8v-3.5c0-.7.3-1.3.7-1.7.4-.4 1-.7 1.7-.7h15.6c.7 0 1.3.3 1.7.7.4.4.7 1 .7 1.7v.5zm-8.2-.3h-9.6v3.3c0 1.6.6 3 1.7 4 1 1 2.4 1.7 4 1.7h4c1.6 0 3-.6 4-1.6s1.6-2.5 1.6-4v-3.3h-5.7zm25.9 0h-9.6v3.3c0 1.6.6 3 1.7 4 1 1 2.4 1.7 4 1.7h4c1.6 0 3-.6 4-1.6s1.6-2.5 1.6-4v-3.3h-5.7z"/><path fill-rule="evenodd" clip-rule="evenodd" fill="#FFF7DE" d="M501 437.6h7.2v33.6h26.5v-33.6h7.2v66.5h5.4v102.2H530V533c0-4.7-3.9-8.6-8.6-8.6-4.7 0-8.6 3.9-8.6 8.6v73.4h-17.3V504.1h5.4v-66.5z"/><path fill-rule="evenodd" clip-rule="evenodd" fill="#EB4141" d="M512.8 593.1h-17.2v17.6l-11.8 7.9v5.1h29v-13zm17.3 0h17.3v17.6l11.8 7.9v5.1h-29.1v-13z"/><path fill-rule="evenodd" clip-rule="evenodd" fill="#FFF7DE" d="M512.8 623.7h-29.1c-1.4 0-2.5-1.1-2.5-2.5s1.1-2.5 2.5-2.5h29.1v5zm17.3 0h29.1c1.4 0 2.5-1.1 2.5-2.5s-1.1-2.5-2.5-2.5h-29.1v5z"/><path fill-rule="evenodd" clip-rule="evenodd" fill="#E6DFC8" d="M508.2 476.7h26.5v27.4h-26.5zm33.7 44.9h7.4V541h-7.4zm-48.3 0h7.4V541h-7.4z"/></svg>