<svg xmlns="http://www.w3.org/2000/svg" viewBox="0 0 388 288"><g fill-rule="evenodd" clip-rule="evenodd"><path fill="#EBDEBC" d="M24 143.4v3.8h11.4v-3.8l-5.1-10.2c-.1-.2-.3-.4-.6-.4s-.5.1-.6.4L24 143.4z"/><path fill="#FF4063" d="M30.3 133.2l1.3 2.6h-3.8l1.3-2.6c.1-.2.3-.4.6-.4.3.1.5.2.6.4z"/><path fill="#1DA39C" d="M35.4 201.1v-57.7l-1.4 1.3-1.4-1.3-1.4 1.3-1.4-1.3-1.4 1.3-1.4-1.3-1.4 1.3-1.4-1.3v57.7h11.2z"/><path fill="#36C291" d="M31.6 144.3l-.4.4-1.5-1.3-1.4 1.3-.5-.4v56.8h3.8z"/><path fill="#82E0BF" d="M35.4 201.1v-57.7l-1.4 1.3-1.4-1.3-1 .8v56.9h3.8z"/><path fill="#595959" d="M24 201.1h11.4v4.8H24z"/><path fill="#BABABA" d="M35.4 211.6v-5.7H24v5.7c0 1.6 1.3 2.9 2.8 2.9h5.7c1.6 0 2.9-1.3 2.9-2.9z"/></g><path fill-rule="evenodd" clip-rule="evenodd" fill="#7EBA45" d="M158.1 53.5c-3 .8-5.9 2-8.6 3.6l-9.1-4.8c-.8-.4-1.8-.2-2.4.4l-3.5 3.5c-.7.6-.8 1.6-.4 2.4l4.7 9.1c-1.6 2.7-2.8 5.5-3.6 8.6l-9.8 3.1c-.9.2-1.4 1-1.4 2v5c0 .9.5 1.7 1.4 2l9.8 3.1c.8 3.1 2 6 3.6 8.6l-4.7 9.1c-.4.8-.3 1.8.4 2.5l3.5 3.5c.7.6 1.6.8 2.4.3l9.1-4.7c2.6 1.6 5.5 2.8 8.6 3.5l3.1 9.8c.3.9 1.1 1.5 2 1.5h5c.9 0 1.7-.6 2-1.5l3.1-9.8c3-.7 5.9-2 8.6-3.6l9.1 4.8c.8.4 1.8.3 2.5-.3l3.5-3.5c.6-.6.8-1.6.3-2.5l-4.8-9.1c1.6-2.6 2.8-5.5 3.6-8.6l9.8-3.1c.9-.3 1.5-1.1 1.5-2v-5c0-.9-.6-1.7-1.5-2l-9.8-3.1c-.7-3.1-2-6-3.6-8.6l4.8-9.1c.4-.8.3-1.8-.3-2.4l-3.5-3.5c-.7-.6-1.6-.8-2.5-.4l-9.1 4.8c-2.6-1.6-5.5-2.8-8.6-3.6l-3.1-9.8c-.3-.9-1.1-1.4-2-1.4h-5c-.9 0-1.7.5-2 1.4l-3.1 9.8zm7.6 11.5c-10.5 0-18.9 8.5-18.9 18.9 0 10.4 8.4 18.9 18.9 18.9 10.4 0 18.9-8.5 18.9-18.9 0-10.4-8.5-18.9-18.9-18.9z"/><path fill-rule="evenodd" clip-rule="evenodd" fill="#EB4141" d="M87.5 49.2c-1.4.3-2.6.9-3.8 1.6l-4.1-2.1c-.4-.2-.8-.1-1.1.2L77 50.4c-.3.3-.4.7-.2 1.1l2.1 4.1c-.7 1.2-1.2 2.5-1.6 3.9l-4.4 1.4c-.4.1-.6.5-.6.9V64c0 .4.2.7.6.9l4.4 1.4c.3 1.4.9 2.7 1.6 3.8L76.8 74c-.2.4-.1.8.2 1.1l1.6 1.6c.3.3.7.4 1.1.2l4.1-2.1c1.2.7 2.5 1.2 3.8 1.6l1.4 4.4c.1.4.5.7.9.7H92c.4 0 .8-.3.9-.7l1.4-4.4c1.4-.3 2.6-.9 3.8-1.6l4.1 2.1c.4.2.8.1 1.1-.2l1.6-1.6c.3-.3.4-.7.2-1.1l-2.1-4.1c.7-1.2 1.3-2.5 1.6-3.8l4.4-1.4c.4-.1.7-.5.7-.9v-2.2c0-.4-.3-.8-.7-.9l-4.4-1.4c-.3-1.4-.9-2.7-1.6-3.9l2.1-4.1c.2-.4.1-.8-.2-1.1l-1.6-1.6c-.3-.3-.7-.4-1.1-.2l-4.1 2.1c-1.2-.7-2.5-1.2-3.8-1.6l-1.4-4.4c-.1-.4-.5-.6-.9-.6h-2.2c-.4 0-.8.2-.9.6l-1.4 4.7zm3.4 5.1c-4.7 0-8.4 3.8-8.4 8.4 0 4.7 3.8 8.4 8.4 8.4 4.7 0 8.4-3.8 8.4-8.4 0-4.6-3.7-8.4-8.4-8.4z"/><path fill="#595959" d="M283.3 101.4H60.1c-3.2 0-5.8 2.6-5.8 5.8v136c0 3.2 2.6 5.8 5.8 5.8h223.2c3.2 0 5.9-2.6 5.9-5.8v-136c0-3.2-2.7-5.8-5.9-5.8z"/><path fill="#FFF" d="M68.8 115.4h205.8v119.2H68.8z"/><path fill="#848484" d="M310.8 245.7h-96.3c-.2 2-1.8 3.5-3.8 3.5h-78c-2 0-3.6-1.6-3.8-3.5H32.6c-.1.5-.1.9-.1 1.4v4.2c0 7 5.7 12.7 12.7 12.7h253.2c7 0 12.7-5.7 12.7-12.7v-4.2c-.2-.4-.2-.9-.3-1.4z"/><path fill="#595959" d="M33.5 256.3c1.9 4.5 6.4 7.7 11.7 7.7h253.2c5.2 0 9.7-3.2 11.6-7.7H33.5z"/><path fill="#BABABA" d="M85.5 144.4h63.8v3.6H85.5zm69.5 0h14.5v3.6H155zm-69.5-13.8h42.6v3.6H85.5zm37.7 27.5h134v3.6h-134zm-37.7 0h31v3.6h-31zm13.6 13.8h108.2v3.6H99.1zm114.1 0h18.5v3.6h-18.5zM99.1 185.6h20.8v3.6H99.1zm0 13.8h20.8v3.6H99.1zm26.7-13.8h113v3.6h-113zm0 13.8H185v3.6h-59.2zm63.5 0h59.2v3.6h-59.2zm-64.2 13.8h78.4v3.6h-78.4zm-39.6 0h34.8v3.6H85.5zm125.2 0h11v3.6h-11z"/><path fill="#3D5FBA" d="M275.1 230.7c50.9 0 92.3-41.4 92.3-92.3S326 46.1 275.1 46.1"/><path fill="#597ED1" d="M275.1 46c-50.9 0-92.3 41.4-92.3 92.3s41.4 92.3 92.3 92.3"/><g fill="#C1E2DE"><path d="M363.4 163.4c-1.2 0-2.8.6-2.8 1s-1.7 1.2-2.3 1.4c-.6.2-1.6 1.9-1.9 2.5-.2.6-1.6.4-2.1.6-.5.2-1.5 1.1-1.6 1.6 0 .5-.3.4-.6-.1l-.7.7-.8.9c-.5 1.4-2 3.2-2.5 3.4-.5.1-.6 2.6-.6 3.6s.4 2.2.9 2.8l.1.8.2 1.6c-.3 1.2.7 2.3.9 2.5.3.2 2.6-.4 3.4-.6.4-.1.8-.3 1.2-.5 4.1-6.8 7.3-14.2 9.5-22 0-.1-.1-.2-.3-.2zM211 165.8c-.1.3 1.5 1.9 2.2 2.5.6.6 2 3.4 2.3 4.3.3.9.1 2.4 0 2.7-.1.4.3 1.1.4 1.4.1.3-.6 3-.3 4.1.2 1.1-1.3 4.5-1.2 6.2 0 1.7.8 3.9 1.1 3.7.3-.2.4 1.5-.1 1.7-.5.2-1.1 1.6-.8 1.6.3.1 0 1.4.1 1.9s.5 4 .6 4.9c.1.9 1.4 3 1.6 3.7.3.7.5 2.1.6 2.3l.2.4s1 .4 1.3.6c.3.2 2.3.1 2.9-.1.6-.1 0-.7-.2-1-.3-.3-.5-1.9-.9-2-.3-.2-.5-2.1-.2-2.6.3-.4 1.5-1.1 1.6-1.5.1-.4.2-2.1-.2-2.3-.3-.2.1-2.3-.1-3.4-.2-1 1.8-2 1.9-2.8.1-.8 2.3-1.7 2.8-2.1.5-.4.9-2.8.7-3.3-.2-.5.8-.9 1.3-.9s1-.3 1.2-.3c.2 0 .7-1.1 1-1.3.3-.2.9-2.7 1.5-3.2.6-.4 1-1.9 1-2.4s.8-1.8 1.1-2.2c.3-.4 2.4-1.3 2.7-1.5.4-.2.9-3.5 1.1-4.7.1-1.2.8-2.8.8-3.2 0-.4.7-.7.8-.9.1-.1.6-1.6.9-2 .3-.3 1.5-1.8 1.5-2.1 0-.3.2-1.2.4-1.9V158c-.4-1-1.5-2.3-1.8-2-.3.3-1.6-.9-2.2-1.1-.7-.2-2.3-.4-2.7-.4s-1.8-1.2-2.5-1.4c-.6-.2-2.3-.5-2.6-.7-.3-.2-.7-2.6-2-3.4-1.3-.8-3.6-2.6-3.9-3.3-.3-.7-2.8-2.1-3.6-2.5-.8-.4-2-.5-2.1-.4-.2.1-1.1-1.3-1.6-1.7-.5-.4-2-.8-2.1-.4-.1.4-1.1.2-1.3-.1-.2-.3-1 .1-1.4.2-.4.1-1.6 2-2.2 2.5-.6.5-1.3-.4-1.6-.6-.4-.2-1.8.3-2.2.6-.4.3-1.3-2-1.1-3.1.2-1.1-1-3.2-1.9-3.2-.9-.1-1.2-2.3-1-3.1.2-.8-1.6-1.3-2.1-1.4-.5-.1-1.6 1.1-1.8 1.6-.2.6-4.3-.8-3.8-3.2.5-2.4 2.4-5 2.9-5.3.5-.3 3.1-.4 3.7-.1.6.3 1.1 0 1.2-.2.1-.2 2.2 0 2.9.3.6.3 1.6 2.7 2.2 3 .7.3.9-1.6 1-2.1.1-.5-.3-1.6-.5-2-.2-.3 1.1-3.3 2.1-3.8s2.1-2.2 2-2.5c-.1-.3.8-.5 1-.7.2-.1 0-2.5.4-3.1.4-.5 2.3-1.6 2.9-1.9.6-.3 1-1.8.8-2-.2-.3 1.5-1.8 2.5-2.1.9-.3 1.7.5 1.5.6.2-.1 1.4-.7 2-1.1.6-.4 0-1.5-.4-1.9-.4-.3-.2-1.6.3-1.8.5-.1.9-1.3.8-1.5-.1-.2 2 .2 2.8-.4.8-.6.2 1.4-.4 2.3-.6.8.4 1.6.8 1.4.4-.2.8.4.9.7.1.2.9-.2 1.4 0 .5.2.9-.7.9-1.2s-1.3-1.4-1.5-1.9c-.2-.5-.3-3.7-.3-4.3 0-.6-.9-1.7-1.2-1.5-.3.2-.8-1.7-1.3-2.1-.5-.4-.5-1.3-.5-1.6 0-.3-1.5-1.9-1.9-2.6-.4-.7-.9-.6-.9-.3s-1.1.4-1.5.3c-.4 0-.8-1.7-.8-2.4 0-.6-2-.7-2.3-1.3-.3-.5-1.6-.3-1.8-.6-.2-.4-1.3-.7-1.6-.6-.2.1-.1 4.7-.3 6-.2 1.2-1.3 2.3-1.7 2.3-.4 0-.2.9.1.8.3-.1-.7 1.3-.9 2.3-.1.9-1.1 0-1.2-.9-.2-.9-1.1-2-1.3-1.7-.2.3-.8-.3-1.1-.2-.3.2-2-1-2.8-1.4-.7-.4-1.1-2.6-1.5-2.8-.4-.2-.1-.5-.1-.8 0-.3 1.4-1.6 1.8-2.1.4-.5 1.9-2.5 2.6-2.9.6-.4 1.1-1.6 1-1.8-.1-.2 2.6-1 3.3-1.3.7-.2 1.4-2.3 1.5-2.9.1-.6-.5-1.7-.8-1.8-.3-.1 1-.2 1.5 0s1.8-.4 2.4-.1c.5.3 1.7 1 2.5 1.5l-.2 1.5-.3 2.5c-2.1.9-2.7 2.4-2 2.4.7 0 4.1 1.5 5.1 2.2 1 .7 1.3-1 1.5-1.6.3-.6.2-2.2 0-2.5-.2-.3 1.1-.2 1.5.2.4.4.8-.4 1.1-.5.3-.1.4-1.5.6-1.8.2-.3-.6-.6-.7-.9 0-.4-1.6-1-2-1.3-.5-.2-.6-1.3-.4-1.5.2-.2-.2-1.5-.4-2-.2-.4-1.8-.8-2.4-.8-.5 0-1.1-1.2-1.4-1.4-.3-.2-2.3-.4-2.9-.3-.5.1-1.4-1.5-2.3-1-.9.5-1.7-.6-2.1-.8-.4-.2-2.4 1.9-2.4 3.4s.8 3 1.1 3c.3 0-.1 1.4-.4 1.8-.3.4-1.2-.4-.9-.8.3-.3-.9-1.9-1.3-2.6-.3-.5-1.3-.9-2-1.2-.4.4-.8.9-1.2 1.4.2.6.3 1.3.2 1.8-.3.9-1.1 1.1-1.1.7 0-.2-.4-.3-.9-.4-11.2 13.4-18.6 30-20.8 48.3.4.5 1 1.1 1.1 1.5.3.8 1.7 1.3 1.9 1.5.3.2.4-1.6.2-2-.2-.4.3-.7.3-.4 0 .3 1.3 1.8 1.8 2.4.4.5.9 4.1 1.3 4.8.4.8 4.5 2.3 5.8 2.6 1.3.3 3 1.7 3.2 2.2.3.4 2 .6 2.4.8.4.2 1.3 1.4 1.6 1.6.4.2.7.9.7 1.1 0 .2 2.3 1.1 2.9 1.7.6.6 1.5.4 1.6.2.2-.3.6 1.2.9 1.7.2.5.3 1.8.1 2-.2.2-.5 2.5-.9 3s-1.2 3.8-1 4.5c.2.7 1.3 2 1.7 2.2.5.2.3.9-.1 1-.4 0-.2 3.3.7 3.7 1 1.4 1.7 2.9 1.6 3.1zm10.9-56.2c-.1 0-.1 0 0 0zm-6.4-39c1.1-.2 2.9-.5 3.1-.8.1-.3.1-1-.1-1.3h.5c.4 0 1.1-2.3 1.6-2.8.4-.5 3-1.3 3.6-1.7.6-.4 1.9-1.6 2.4-1.8.5-.2 1.2-1.3 1.1-1.6-.1-.2 1.7-1.3 2.4-1.6.7-.3 1-1.1.8-1.1-.2 0-4 2-7.6 4-4 2.7-7.8 5.8-11.4 9.1 1.2 0 2.9-.2 3.6-.4zm66.8 114.9c1.2-.7 3.2-3.7 3.8-4.3.7-.6 1.1-2.9 1.3-3.4.1-.5 1.1-1.3 1.5-1.4.4-.1 1.6-5.1 2.6-6.2 1-1.1 2.3-6.3 2.2-8.2-.1-1.9.7-5.5.9-6.4.3-.9 1.6-2.4 2-2.7.4-.3 2.9-4.1 3.8-5.4.8-1.3 1.6-4.3 1.4-5-.2-.7-1.9-1.2-2.3-.8-.3.3-2 .6-2.5.6s-1.8-2.8-2.5-3.4c-.8-.6-1.4-3.8-1.9-4.5-.4-.6-1.7-2.2-2-2.5-.4-.4-.5-2.1-.5-2.6-.1-.5.7.3.9 1 .1.7 2.1 3.5 2.7 4.4.6.9 2.2 3.9 2.6 4.8.4.9 4 .5 5.1-.1 1.2-.5 2.6-1.5 2.6-1.8.1-.3 1.9-1.2 2.4-1.6.5-.4 1-2.5 1.3-2.9.3-.3-.3-2.4-.7-3-.4-.6-2.2-1.1-2.6-.9-.4.2-1.2-1.4-1.5-2-.3-.6-1.7-1.3-1.8-1.7-.1-.4.4-1 .6-1.2.2-.1 2.8 1.7 3.6 2.6.7.9 1.6 2.6 1.7 2.9.1.3 2.2.4 2.6.1.5-.3 1-.2 1.2.2l.6-.1 2.2-.4c1.1 1.2 1.4 2.2 1.3 2.4 0 .2.7 1.2 1.1 1.3.4.1.8 1.6.9 1.9.1.4 1.4 2.6 1.7 3.5.3.9 1.4 2.7 1.6 3.2.3.5.5 1.9.5 2.3 0 .4.8 1.1 1.3 1.1s1.5-3.3 1.8-4.5c.2-1.2 1.1-2.2 1.3-2.2.2 0 .4-.7.4-.9 0-.3 1.3-.2 1.4-.6.1-.3.5-2.5 1-2.8.5-.3 2.1-1.4 2.7-1.6.6-.2 2.1 1.1 2.4 1.7.3.6.6 2.1.5 2.4-.1.2.8 1.6 1.6 1.5.8 0 1 1 1 1.4 0 .4 1.1 1.4 1.3 1.9.2.5.1 1.8 0 2.1-.1.3 0 2 .1 2.5.2.5 2.6 2.9 3.5 3.7.9.7 1.3-1.5.9-2.2-.5-.7-2.1-2.3-2.4-2.8-.4-.5-.4-2.5-.3-3 .1-.5 1.4.3 1.9.7.5.4 1.2 1.3 1.2 1.6 0 .3 3.3-1.5 3.4-3.5.1-2 1.2-4.2 1.3-4.7.1-.5-.3-1.2-.6-1.3-.3 0 .5-1.5 1.4-1.5.9 0 3.1-2.4 3.6-3.4s1.6-1.8 1.7-1.9c.1-.1.9-2.4 1-3.4.1-.9-.5-2.4-.6-2.9-.1-.5-.9-1.6-1.1-2-.2-.4-.4-1.7-.3-1.9.1-.2.9-.5 1-.7.1-.2 1-1.2 1-1.7-.1-.4.6.6 1 .9.4.4.9 2.7 1.4 3 .5.3 2.7-2.5 2.4-4.3-.3-1.8.6-4.1 1.1-4.3.4-.2 1.4-1.6 2.1-2.6-4.7-13.7-12.6-25.9-22.7-35.8h-.3l-.8-.2c-1.3-.3-2.1-1.7-1.9-2 .1-.1.1-.3 0-.6-.7-.7-1.5-1.3-2.3-2h-1.7c-.8 0-2.5-.6-2.8-.9-.3-.3-1.3.3-1.4.8-.1.6-1.9.8-2 1.3-.2.4-1.1.5-1.3.2-.2-.2-1.9.6-2.7.7-.8.1-2.4.8-2.8 1-.4.2-1.3 1-1.4 1.4-.1.4-1.2 1-1.5 1.1-.3.1-.3 1.7.2 1.9.4.2-.8-.2-1.4-.5-.6-.3-1.2.7-1.4 1-.2.3-.7-.2-.7-.7 0-.5-1.4-.8-1.6-.5-.2.4-1.2-.1-1.6-.3-.4-.2-2.1 1.6-2.8 2.2-.6.7-3.7 1.2-4.3.9-.6-.2-1.1 1.4-.6 1.5.5.1-1.3-.1-2.2 0-1 .1-3.7 1.2-4.4 1.7-.7.5-1.2-.1-1.2-.5s-1.1-.7-1.4-.8c-.3-.1-.9 2.1-1.5 2.5-.6.4-1.2-1.7-2.5-2.1-1.3-.4-3.3-1.6-3.9-1.8-.6-.2-1.7-1.4-2.1-1.7-.3-.4-2-.6-2.5-.6s-2.3 1-2.7 1.4c-.5.4-1.2.3-1.4.5-.2.1-2.2 2-2.9 2.6-.8.6-2.1 3.2-2.5 3.8-.4.6-1.1.7-1.3.7-.3 0-.5.7-.5.9 0 .3-2.2 1.4-2.5 2.4-.2 1 .2 3.3.2 4.2 0 .8.8 2.5 1.4 2.5.6 0 .3 1.4.1 1.8-.2.4.4.8.4 1.1 0 .3-1.6.8-2 1-.5.2-1.3 1.3-1.4 1.7-.1.3-1.6.6-2.1 1.1.1-.3.3-.8.4-1.1.3-.5-.1-1.5-.3-1.7-.2-.2-.3-2.9-.7-3.5-.4-.6-1.3-1.5-1.5-1.7-.2-.2.2-.9.3-1.2.1-.3-1.3-.5-1.6-.2-.4.2-.6 2.9-.7 3.6-.2.7.7 1.8.9 1.9.2.1.2 1.4-.3 1.4s-.9 2-.7 2.4c.3.4-.3 1.3-.6 1.5-.3.2 1.9.1 2.9.1s1.8.4 1.6.5c-.1.1-1.9.3-2.2.8-.3.4-1.5 1.2-1.8 1.6-.2.3.4 1 .9 1s1.1 1.8 1.5 2.1c.4.3.3 1.3.1 1.5-.2.3-2.6-.2-3.5.1-.9.2-2.1 2.2-2.2 2.9-.1.7.1 2.8.3 3.4.1.6 2 .9 2.4 1.2.4.3 2.2 0 2.6.2.4.2 1.6-1.9 1.9-2.8.2-1 2.2-2.7 2.6-3.3.4-.6 2.5-.6 3-.9.5-.3.2 1.6.5 2.7.2 1.1 2.3.9 2-.1-.3-1 .2-1.4.3-1.1.1.4 2 1.1 2.4 1.7.4.6.3 1.7-.2 1.7-.4 0-.4 1.3 0 1.4.5.1 1.1-1.5 1.5-1.7.5-.2.9-1.3.7-1.3-.2-.1.4-1 .7-.7.3.3-1-2-1.9-2.8-.8-.8-.2-.5 1.3.8l1.1 1.5c.2.3.5 1.1.7 1.4l.2.4c.2.5.4 1.9.4 2.3 0 .4.8 1.1 1.3 1.1s.9.2.8.3c-.1 0 .3 1 .8 1s.7-1.3.2-1.3c-.5 0-.4-1.9-.5-2.7-.1-.8.4-1.5.5-1.5.2 0 0 1.7 0 2.1 0 .4.2 1.1.5 1.7l.5.4 1.2.9c1.7-.5 3.9-.1 3.8.2-.1.3 1.2.4 1.3-.1.1-.5.1 0 .1.4s-1.1 1.9-1.3 2.6c-.2.7-4 .2-5.7.1-1.7-.1-4.1.4-4.3.9-.2.5-2.8-1.1-4-1.6-1.2-.5-2.1-2.3-2.4-2.5-.3-.2.2-.8.1-1.2-.1-.4-2.8-.4-3.6-.1-.8.3-4.9.7-5.8 1.1-1 .4-2.4 0-2.9-.1s-1.5 1.2-2.1 1.5c-.6.2-1.2 2.1-1.5 4.2l-.7 1.4-.5.9c-1.3 1-2.8 4.4-3.3 5.1-.4.7-.8 5.6-.8 7.2 0 1.7 1.4 5.1 1.9 6.1.4 1 2.9 3.1 3.7 3.6.8.5 3.5.6 4.4.6.9 0 1.9-.8 2.2-1.9l1.3.1.6.1c0 .7 1.9 1.3 2.4 1.6.5.3 1.7.1 2.1 0 .4-.1.8 3.3.5 4.3-.3 1 .7 4.4.9 5.4.3 1 1.5 3.9 1.6 4.9.1 1-.7 4.4-.8 5.6-.1 1.2 1.5 4.5 1.9 5.6.4 1.1.8 3.6.8 4.2 0 .6 1.8 4 2.2 5.4.9 1.4 5.3 1.7 6.5 1zm76.1-41.9c.1.2 1.2-.6 1.9-.7.7-.1 1.1-1.9.6-2-.5-.1-1.2-1.5-1.6-1.7-.4-.2-1.1.6-1.1 1.1 0 .5-1.2.8-1.4 1.2-.2.4-.2.8 0 .7.3 0 1.5 1.2 1.6 1.4zm-1.3 9.7c.3-.1 0-1.9-.7-2-.7-.1-2.6 2.3-2.2 3.7.4 1.4.8 1.3 1 1 .2-.3 1.3.2 1.7.3.3.1.3-.2 0-.8-.5-.4-.2-2.1.2-2.2zm-3.8-1.7c.1-.6.2-2.6.3-3 .1-.4-1.1-1.5-1.7-1.7-.6-.2-2.4 3.8-3.8 4.6-1.3.7-1.8 3.2-1.5 3.7.4.6 3.1.9 3.6 1.3s1-.1 1.3-.1c.3-.1.2-.3.1-.3-.1-.1 1-1.2 1.1-1.9.3-.9.5-2 .6-2.6zm-7.6 6.7c-1-.4-2.3.2-2.4.6-.1.4 4 1.1 5.4 1.4 1.4.4 2.2.5 1.9.3-.3-.2-3.9-1.9-4.9-2.3zm8.4-26.8c.3-.5-.5-2.6-.9-2.1s-.1 1.7 0 2.2c.2.4.5.3.9-.1zm2.5 4.6c.2-.6-.3-1.2-1.2-1.4-.9-.2-.8 2.5-.4 2.8.4.4 1.3-.8 1.6-1.4zm4.6 16.7c1.1.8 3.5.4 3.5-1-1-.8-3.6-.7-3.5 1zm-.6-33c-.4.3-.7 1.1-.5 1.4h-.2c-.4 0-.4 1.4 0 1.7.4.2 1.3-1.1 1.7-1.4.5-.3 1.4-.5 1.6-.4.1.1 1-.2 1.8-.6.2-.1.3-.3.5-.6-.2-1-.5-2-.7-3.1-.4.3-.9.7-1.2.9-.4.4-2.4 1.7-3 2.1z"/><path d="M336.2 148.1c0 .1 0 .1 0 0-.1-.1-.2-.1 0 0zm6.7 6.2c-.4-.9-1.7-2.4-2.8-3.3l-.4-.7-.5-.8c-.4-.9-1.8-1.6-1.9-1.8-.1-.3-.5.8-1 .5.2.2.7.5 1.4 1 1.2.9 3.6 6.9 4.2 7.3.5.4 1.4-1.3 1-2.2zm-19.1-9.7c-.3.7 1.8 2.1 1.9 1.8.2-.3-.3-2-.6-2.4-.4-.3-.9 0-1.3.6zm-27.9 32.2c.1.7 1.5 1.3 1.9 1.2.4-.1 1.6-2.3 1.8-2.9.2-.6.3-2 .3-2.3 0-.3.2-1 .4-1.1.2-.1.4-.8.6-1.6.2-.8-.9-4.6-.9-5.3 0-.7-.8.3-1 1-.2.7-2.1 2-2.5 2.6-.4.6-.9 2.5-.7 2.8.2.3-.2 1.7-.4 2-.1.4.5 2.8.5 3.6zm-68 26.2h1.3c.2-1.4-1.4-1.2-1.3 0zm33.8-142.8c-.5.1-1.9-.2-2.1-.5-.2-.3-2.3-.5-2.9-.2-.6.3-.2-1.4.6-1.6.8-.2.1-1.4-.8-1.4s-3.1-.3-3.6-.2c-.5.1-1.5-.4-1.9-.4-.4-.1-3 .8-4.2.7-1.2-.1-4.3.1-4.9.3-.7.2-1.1 1.5-1 1.9.1.5-2.9.5-3.9.5s-6 1.1-7.4 1.8c-1.3.7-2.4 2.6-1.9 2.6.4 0-.7 1.1-1.4 1.3-.7.2-2.4.4-2.8.8-.4.4.4.7.6.9.2.3.6-.2 1.1 0 .4.3 1.9.4 2.3.5.4.2-1.3.5-2 .5-.8.1-.6 1.6 0 1.8.6.2 2.3.4 2.4.2.2-.3 1.9.3 2.7.4.8.1 1.4 2.1 1.6 2.5.2.4.3 2 .2 2.4-.1.4 1.4 1.2 1.7 1 .3-.3.2.7-.4.6-.6 0-.2 1.6.5 1.9.7.2.2 1.3-.2 1.6-.4.3-.2 1.3-.6 1.7-.4.4 1.5 3.7 1.5 5.5 0 1.7 1.1 3.1 1.5 3.1.4 0 1.8.3 2 .7.2.4.9-.3 1.1-.5.3-.3.8-1.1 1.3-1.8.4-.7 1.4-4.2 1.5-4.6.1-.4 1.8-.1 2.1-.3.4-.2 1.4-1 1.7-1.3.3-.3 2.6-1.2 3.3-1.7.6-.5 1.7-2.4 2.2-2.8.5-.4-.3-.3-.9-.7-.6-.4-.3-.9-.2-1.1.2-.2 2.1.3 2.7.6.6.3 1.9-.6 1.4-1-.5-.3-.2-.3 0-.2.2.1.5-1.1.2-1.4-.3-.2 1.9-1.8 1.5-3.3-.4-1.5.6-3 1.2-3s.4-1.7-.3-1.8c-.7-.2 0-.3.2-.5s.6-1.7.4-2c-.2-.3 1.1-.6 1.3-.9.2-.3 1.6-1 2.1-1.1.8-.3 1-1.6.5-1.5zm12 1.2c-.7-.2-2 .5-1.8.9.2.4-1.1-.5-2-.1-.9.5-1.1 2-.7 2.2.4.2.7 1.4.7 1.7 0 .2 1.7.1 2.1-.3.4-.4.4 1.2-.1 1.7-.4.4.2 1.3.6 1.4.5.1 1.1 1.2 1.6 1.2s1.3-1.9 1.5-2.6c.2-.7 1.8-.1 2.5.1s1-2.6.2-3c-.8-.4-1.8-.2-2.1-.5-.3-.3-.9-.6-1.3-.7-.2-.2-.5-1.8-1.2-2zm6.5 1.3c1.3.2 2.8-.9 3.1-1.2.3-.3-3.6-1.1-5.1-1.1-1.5 0-2.7.2-2.7.5 0 .2 3.4 1.6 4.7 1.8zm-23.8 35.2c-.3-.1-.5 1.1-.5 1.6.1.5 1.3.4 1.8.4.5-.1.9-.5.9-.9s-.8-2.3-1-2.3c-.3 0-.8 1.4-1.2 1.2zm3.9-15c-.3-.5-2.3-.4-2.8-.4s-2-.5-2.3-.9c-.3-.3-.5 1.3-1 1.5-.5.2.2.5.4.3s0 .8-.2 1.1c-.2.3 1.4.6 1.5 1.1.2.5.8.8 1.4.7.6-.1 1.8-.7 2.3-.8.5.1.9-2.1.7-2.6zm42.9-11.7c.7-.7 3.6-1.7 3.9-2.4.3-.7-.2-1.3-.5-1.3s-.7.4-.7.5c-.1.1-3.4.9-4.4 1.4-1 .5-2.2 1.2-2.6 1.7-.4.4-1.1 3.7-1.4 4.1-.2.4 1.1 1.7 1.7 2.1.6.4 1.4.2 1.7.1.2-.1-.3-2.4-.6-3.2-.4-.8 2.2-2.2 2.9-3zm-3.6-8.5c1.1 1.1 1.7-.5 2.9-.3 0-2.2-3-1.5-2.9.3zm21.2.4c0 .4 3 .7 3.9.6.9-.2-.2-1.5-1.5-1.5-1.2.1-2.3.5-2.4.9zM210.4 85.7c-.3.3 0 1.8.6 1.8s1.6-2.3 2.3-1.8c.7.5 1.3.6 1.1.4-.1-.2-2.3-1.2-2.5-1.3-.3-.2-1.2.6-1.5.9zm7.8 50.7c0 .3 1.3.2 1.6-.2.2-.4.1-.7-.3-.7-.4-.1-1.3.6-1.3.9zm-5.9-2.2c.6-.1.3.9.5 1.3s1.7.7 2 .9c.3.2 1.1-.5 1.7-.4.6.1-.2-2.1-1.2-2.1-1 .1-1.8-.9-2.1-1-.3-.1-1.4-.8-1.8-1.1-.3-.3-2.9-.5-3.8-.5-.9 0-1.9.9-2 1.2-.1.3 1.4.5 1.8.3.4-.2 2.5.3 2.9.8.5.4 1.3.7 2 .6zm-2.8 2.2c0 .3 1.3.1 1.7.1.3 0 .3-.2 0-.5-.4-.3-1.7.1-1.7.4zm.9-6.9c-.3-.1-.6.4-.6.7 0 .3.2.5.4.5.3-.1.6-1.1.2-1.2zm2.8.2c-.1-.3-.7-.5-.9-.5-.2 0-.3.4-.3 1 .1.5 1.4-.3 1.2-.5zm2.1 3.1c.5-.3.6-.9.3-.9s-.9-.9-1.3-1.1c-.3-.1-.6.6-.6.9 0 .3.2.5.4.5.2-.1.6.8 1.2.6zm150 21.1c-.3.1-1.6.3-1.8 0-.2-.3-.4.5-.7.7-.3.1-.1.8.3.6.3-.1 1.6.6 2.6 1.2.2-1 .4-2.1.6-3.1-.5.2-.9.5-1 .6z"/></g><g fill="#FFF"><path d="M211 165.8c-.1.3 1.5 1.9 2.2 2.5.6.6 2 3.4 2.3 4.3.3.9.1 2.4 0 2.7-.1.4.3 1.1.4 1.4.1.3-.6 3-.3 4.1.2 1.1-1.3 4.5-1.2 6.2 0 1.7.8 3.9 1.1 3.7.3-.2.4 1.5-.1 1.7-.5.2-1.1 1.6-.8 1.6.3.1 0 1.4.1 1.9s.5 4 .6 4.9c.1.9 1.4 3 1.6 3.7.3.7.5 2.1.6 2.3l.2.4s1 .4 1.3.6c.3.2 2.3.1 2.9-.1.6-.1 0-.7-.2-1-.3-.3-.5-1.9-.9-2-.3-.2-.5-2.1-.2-2.6.3-.4 1.5-1.1 1.6-1.5.1-.4.2-2.1-.2-2.3-.3-.2.1-2.3-.1-3.4-.2-1 1.8-2 1.9-2.8.1-.8 2.3-1.7 2.8-2.1.5-.4.9-2.8.7-3.3-.2-.5.8-.9 1.3-.9s1-.3 1.2-.3c.2 0 .7-1.1 1-1.3.3-.2.9-2.7 1.5-3.2.6-.4 1-1.9 1-2.4s.8-1.8 1.1-2.2c.3-.4 2.4-1.3 2.7-1.5.4-.2.9-3.5 1.1-4.7.1-1.2.8-2.8.8-3.2 0-.4.7-.7.8-.9.1-.1.6-1.6.9-2 .3-.3 1.5-1.8 1.5-2.1 0-.3.2-1.2.4-1.9V158c-.4-1-1.5-2.3-1.8-2-.3.3-1.6-.9-2.2-1.1-.7-.2-2.3-.4-2.7-.4s-1.8-1.2-2.5-1.4c-.6-.2-2.3-.5-2.6-.7-.3-.2-.7-2.6-2-3.4-1.3-.8-3.6-2.6-3.9-3.3-.3-.7-2.8-2.1-3.6-2.5-.8-.4-2-.5-2.1-.4-.2.1-1.1-1.3-1.6-1.7-.5-.4-2-.8-2.1-.4-.1.4-1.1.2-1.3-.1-.2-.3-1 .1-1.4.2-.4.1-1.6 2-2.2 2.5-.6.5-1.3-.4-1.6-.6-.4-.2-1.8.3-2.2.6-.4.3-1.3-2-1.1-3.1.2-1.1-1-3.2-1.9-3.2-.9-.1-1.2-2.3-1-3.1.2-.8-1.6-1.3-2.1-1.4-.5-.1-1.6 1.1-1.8 1.6-.2.6-4.3-.8-3.8-3.2.5-2.4 2.4-5 2.9-5.3.5-.3 3.1-.4 3.7-.1.6.3 1.1 0 1.2-.2.1-.2 2.2 0 2.9.3.6.3 1.6 2.7 2.2 3 .7.3.9-1.6 1-2.1.1-.5-.3-1.6-.5-2-.2-.3 1.1-3.3 2.1-3.8s2.1-2.2 2-2.5c-.1-.3.8-.5 1-.7.2-.1 0-2.5.4-3.1.4-.5 2.3-1.6 2.9-1.9.6-.3 1-1.8.8-2-.2-.3 1.5-1.8 2.5-2.1.9-.3 1.7.5 1.5.6.2-.1 1.4-.7 2-1.1.6-.4 0-1.5-.4-1.9-.4-.3-.2-1.6.3-1.8.5-.1.9-1.3.8-1.5-.1-.2 2 .2 2.8-.4.8-.6.2 1.4-.4 2.3-.6.8.4 1.6.8 1.4.4-.2.8.4.9.7.1.2.9-.2 1.4 0 .5.2.9-.7.9-1.2s-1.3-1.4-1.5-1.9c-.2-.5-.3-3.7-.3-4.3 0-.6-.9-1.7-1.2-1.5-.3.2-.8-1.7-1.3-2.1-.5-.4-.5-1.3-.5-1.6 0-.3-1.5-1.9-1.9-2.6-.4-.7-.9-.6-.9-.3s-1.1.4-1.5.3c-.4 0-.8-1.7-.8-2.4 0-.6-2-.7-2.3-1.3-.3-.5-1.6-.3-1.8-.6-.2-.4-1.3-.7-1.6-.6-.2.1-.1 4.7-.3 6-.2 1.2-1.3 2.3-1.7 2.3-.4 0-.2.9.1.8.3-.1-.7 1.3-.9 2.3-.1.9-1.1 0-1.2-.9-.2-.9-1.1-2-1.3-1.7-.2.3-.8-.3-1.1-.2-.3.2-2-1-2.8-1.4-.7-.4-1.1-2.6-1.5-2.8-.4-.2-.1-.5-.1-.8 0-.3 1.4-1.6 1.8-2.1.4-.5 1.9-2.5 2.6-2.9.6-.4 1.1-1.6 1-1.8-.1-.2 2.6-1 3.3-1.3.7-.2 1.4-2.3 1.5-2.9.1-.6-.5-1.7-.8-1.8-.3-.1 1-.2 1.5 0s1.8-.4 2.4-.1c.5.3 1.7 1 2.5 1.5l-.2 1.5-.3 2.5c-2.1.9-2.7 2.4-2 2.4.7 0 4.1 1.5 5.1 2.2 1 .7 1.3-1 1.5-1.6.3-.6.2-2.2 0-2.5-.2-.3 1.1-.2 1.5.2.4.4.8-.4 1.1-.5.3-.1.4-1.5.6-1.8.2-.3-.6-.6-.7-.9 0-.4-1.6-1-2-1.3-.5-.2-.6-1.3-.4-1.5.2-.2-.2-1.5-.4-2-.2-.4-1.8-.8-2.4-.8-.5 0-1.1-1.2-1.4-1.4-.3-.2-2.3-.4-2.9-.3-.5.1-1.4-1.5-2.3-1-.9.5-1.7-.6-2.1-.8-.4-.2-2.4 1.9-2.4 3.4s.8 3 1.1 3c.3 0-.1 1.4-.4 1.8-.3.4-1.2-.4-.9-.8.3-.3-.9-1.9-1.3-2.6-.3-.5-1.3-.9-2-1.2-.4.4-.8.9-1.2 1.4.2.6.3 1.3.2 1.8-.3.9-1.1 1.1-1.1.7 0-.2-.4-.3-.9-.4l-1.2 1.5-1.2 1.5c-.4.5-.8 1.1-1.2 1.6-.4.5-.7 1-1.1 1.5-.5.8-1 1.5-1.5 2.3-.5.7-1 1.5-1.4 2.2-.4.6-.8 1.3-1.2 1.9-.3.4-.5.9-.8 1.4-.4.7-.8 1.4-1.1 2.1l-.6 1.2c-.8 1.6-1.6 3.3-2.4 5 0 0 0 .1-.1.1-.4.8-.7 1.7-1 2.5-.1.3-.3.6-.4 1-.3.9-.7 1.7-1 2.6-.1.1-.1.3-.2.4-1 2.9-1.9 5.9-2.6 9 0 .2-.1.4-.1.6-.7 3.2-1.3 6.4-1.7 9.7v.1c.4.5 1 1.1 1.1 1.5.3.8 1.7 1.3 1.9 1.5.3.2.4-1.6.2-2-.2-.4.3-.7.3-.4 0 .3 1.3 1.8 1.8 2.4.4.5.9 4.1 1.3 4.8.4.8 4.5 2.3 5.8 2.6 1.3.3 3 1.7 3.2 2.2.3.4 2 .6 2.4.8.4.2 1.3 1.4 1.6 1.6.4.2.7.9.7 1.1 0 .2 2.3 1.1 2.9 1.7.6.6 1.5.4 1.6.2.2-.3.6 1.2.9 1.7.2.5.3 1.8.1 2-.2.2-.5 2.5-.9 3s-1.2 3.8-1 4.5c.2.7 1.3 2 1.7 2.2.5.2.3.9-.1 1-.4 0-.2 3.3.7 3.7 1 1.5 1.7 3 1.6 3.2zm4.5-95.2c1.1-.2 2.9-.5 3.1-.8.1-.3.1-1-.1-1.3h.5c.4 0 1.1-2.3 1.6-2.8.4-.5 3-1.3 3.6-1.7.6-.4 1.9-1.6 2.4-1.8.5-.2 1.2-1.3 1.1-1.6-.1-.2 1.7-1.3 2.4-1.6.7-.3 1-1.1.8-1.1-.2 0-4 2-7.6 4 0 0-.1 0-.1.1l-3 2.1c-.7.5-1.3 1-2 1.5-.3.3-.7.5-1 .8-.8.6-1.5 1.3-2.3 1.9-.2.1-.3.3-.5.4-.8.7-1.7 1.5-2.5 2.2 1.2.1 2.9-.1 3.6-.3zm58.5 45.1c-.4 0-.4 1.3 0 1.4.3.1.7-.7 1.1-1.3v-5.1l-.1-.1c-.5-.5-.5-.6.1-.1V78.9c-.5.4-.9.8-1.2 1.1-.8.6-2.1 3.2-2.5 3.8-.4.6-1.1.7-1.3.7-.3 0-.5.7-.5.9 0 .3-2.2 1.4-2.5 2.4-.2 1 .2 3.3.2 4.2 0 .8.8 2.5 1.4 2.5.6 0 .3 1.4.1 1.8-.2.4.4.8.4 1.1 0 .3-1.6.8-2 1-.5.2-1.3 1.3-1.4 1.7-.1.3-1.6.6-2.1 1.1.1-.3.3-.8.4-1.1.3-.5-.1-1.5-.3-1.7-.2-.2-.3-2.9-.7-3.5-.4-.6-1.3-1.5-1.5-1.7-.2-.2.2-.9.3-1.2.1-.3-1.3-.5-1.6-.2-.4.2-.6 2.9-.7 3.6-.2.7.7 1.8.9 1.9.2.1.2 1.4-.3 1.4s-.9 2-.7 2.4c.3.4-.3 1.3-.6 1.5-.3.2 1.9.1 2.9.1s1.8.4 1.6.5c-.1.1-1.9.3-2.2.8-.3.4-1.5 1.2-1.8 1.6-.2.3.4 1 .9 1s1.1 1.8 1.5 2.1c.4.3.3 1.3.1 1.5-.2.3-2.6-.2-3.5.1-.9.2-2.1 2.2-2.2 2.9-.1.7.1 2.8.3 3.4.1.6 2 .9 2.4 1.2.4.3 2.2 0 2.6.2.4.2 1.6-1.9 1.9-2.8.2-1 2.2-2.7 2.6-3.3.4-.6 2.5-.6 3-.9.5-.3.2 1.6.5 2.7.2 1.1 2.3.9 2-.1-.3-1 .2-1.4.3-1.1.1.4 2 1.1 2.4 1.7.3.3.2 1.5-.2 1.5z"/><path d="M275.1 122c-.4-.2-.8-.4-1.1-.5-1.2-.5-2.1-2.3-2.4-2.5-.3-.2.2-.8.1-1.2-.1-.4-2.8-.4-3.6-.1-.8.3-4.9.7-5.8 1.1-1 .4-2.4 0-2.9-.1s-1.5 1.2-2.1 1.5c-.6.2-1.2 2.1-1.5 4.2l-.7 1.4-.5.9c-1.3 1-2.8 4.4-3.3 5.1-.4.7-.8 5.6-.8 7.2 0 1.7 1.4 5.1 1.9 6.1.4 1 2.9 3.1 3.7 3.6.8.5 3.5.6 4.4.6.9 0 1.9-.8 2.2-1.9l1.3.1.6.1c0 .7 1.9 1.3 2.4 1.6.5.3 1.7.1 2.1 0 .4-.1.8 3.3.5 4.3-.3 1 .7 4.4.9 5.4.3 1 1.5 3.9 1.6 4.9.1 1-.7 4.4-.8 5.6-.1 1.2 1.5 4.5 1.9 5.6.4 1.1.8 3.6.8 4.2 0 .3.5 1.3 1 2.4V122zm-47.2 81h1.3c.2-1.4-1.4-1.2-1.3 0zm25.5-126.2c.6.3 1.9-.6 1.4-1-.5-.3-.2-.3 0-.2.2.1.5-1.1.2-1.4-.3-.2 1.9-1.8 1.5-3.3-.4-1.5.6-3 1.2-3s.4-1.7-.3-1.8c-.7-.2 0-.3.2-.5s.6-1.7.4-2c-.2-.3 1.1-.6 1.3-.9.2-.3 1.6-1 2.1-1.1.5-.1.8-1.4.2-1.4-.5.1-1.9-.2-2.1-.5-.2-.3-2.3-.5-2.9-.2-.6.3-.2-1.4.6-1.6.8-.2.1-1.4-.8-1.4s-3.1-.3-3.6-.2c-.5.1-1.5-.4-1.9-.4-.4-.1-3 .8-4.2.7-1.2-.1-4.3.1-4.9.3-.7.2-1.1 1.5-1 1.9.1.5-2.9.5-3.9.5s-6 1.1-7.4 1.8c-1.3.7-2.4 2.6-1.9 2.6.4 0-.7 1.1-1.4 1.3-.7.2-2.4.4-2.8.8-.4.4.4.7.6.9.2.3.6-.2 1.1 0 .4.3 1.9.4 2.3.5.4.2-1.3.5-2 .5-.8.1-.6 1.6 0 1.8.6.2 2.3.4 2.4.2.2-.3 1.9.3 2.7.4.8.1 1.4 2.1 1.6 2.5.2.4.3 2 .2 2.4-.1.4 1.4 1.2 1.7 1 .3-.3.2.7-.4.6-.6 0-.2 1.6.5 1.9.7.2.2 1.3-.2 1.6-.4.3-.2 1.3-.6 1.7-.4.4 1.5 3.7 1.5 5.5 0 1.7 1.1 3.1 1.5 3.1.4 0 1.8.3 2 .7.2.4.9-.3 1.1-.5.3-.3.8-1.1 1.3-1.8.4-.7 1.4-4.2 1.5-4.6.1-.4 1.8-.1 2.1-.3.4-.2 1.4-1 1.7-1.3.3-.3 2.6-1.2 3.3-1.7.6-.5 1.7-2.4 2.2-2.8.5-.4-.3-.3-.9-.7-.6-.4-.3-.9-.2-1.1.5-.3 2.4.2 3 .5zm20.3-15.4c-.7-.2-2 .5-1.8.9.2.4-1.1-.5-2-.1-.9.5-1.1 2-.7 2.2.4.2.7 1.4.7 1.7 0 .2 1.7.1 2.1-.3.4-.4.4 1.2-.1 1.7-.4.4.2 1.3.6 1.4.5.1 1.1 1.2 1.6 1.2.2 0 .6-.5.9-1v-5.7c-.3-.2-.6-1.8-1.3-2zm-15.9 38.5c.5-.1.9-.5.9-.9s-.8-2.3-1-2.3c-.3 0-.8 1.4-1.2 1.3-.3-.1-.5 1.1-.5 1.6 0 .4 1.2.4 1.8.3zm-1.9-14.2c.2.5.8.8 1.4.7.6-.1 1.8-.7 2.3-.8.4 0 .9-2.2.6-2.7-.3-.5-2.3-.4-2.8-.4s-2-.5-2.3-.9c-.3-.3-.5 1.3-1 1.5-.5.2.2.5.4.3s0 .8-.2 1.1c-.1.4 1.4.7 1.6 1.2zm-45.5 0c-.3.3 0 1.8.6 1.8s1.6-2.3 2.3-1.8c.7.5 1.3.6 1.1.4-.1-.2-2.3-1.2-2.5-1.3-.3-.2-1.2.6-1.5.9zm7.8 50.7c0 .3 1.3.2 1.6-.2.2-.4.1-.7-.3-.7-.4-.1-1.3.6-1.3.9zm-5.9-2.2c.6-.1.3.9.5 1.3s1.7.7 2 .9c.3.2 1.1-.5 1.7-.4.6.1-.2-2.1-1.2-2.1-1 .1-1.8-.9-2.1-1-.3-.1-1.4-.8-1.8-1.1-.3-.3-2.9-.5-3.8-.5-.9 0-1.9.9-2 1.2-.1.3 1.4.5 1.8.3.4-.2 2.5.3 2.9.8.5.4 1.3.7 2 .6zm-2.8 2.2c0 .3 1.3.1 1.7.1.3 0 .3-.2 0-.5-.4-.3-1.7.1-1.7.4zm.9-6.9c-.3-.1-.6.4-.6.7 0 .3.2.5.4.5.3-.1.6-1.1.2-1.2zm2.8.2c-.1-.3-.7-.5-.9-.5-.2 0-.3.4-.3 1 .1.5 1.4-.3 1.2-.5zm2.1 3.1c.5-.3.6-.9.3-.9s-.9-.9-1.3-1.1c-.3-.1-.6.6-.6.9 0 .3.2.5.4.5.2-.1.6.8 1.2.6z"/></g><path fill="#C1E2DE" d="M218.6 68.8c-.1-.1-.5.2-.3.4.1 0 .5-.2.3-.4zm10.2 30.4c-.1-.1-.5.2-.3.4.1.1.5-.2.3-.4z"/></svg>