<svg xmlns="http://www.w3.org/2000/svg" viewBox="0 0 273 201"><g fill-rule="evenodd" clip-rule="evenodd"><path fill="#88CFE3" d="M223.7 19.1c-2.2.6-4.2 1.4-6.1 2.6l-6.5-3.4c-.6-.3-1.3-.2-1.8.3l-2.5 2.5c-.5.5-.6 1.2-.3 1.7l3.4 6.5c-1.2 1.9-2 4-2.6 6.2l-7 2.2c-.6.2-1 .7-1 1.4v3.6c0 .6.4 1.2 1 1.4l7 2.2c.6 2.2 1.4 4.3 2.6 6.1l-3.4 6.5c-.3.6-.2 1.3.3 1.8l2.5 2.5c.5.5 1.2.6 1.8.2l6.5-3.4c1.9 1.1 4 2 6.1 2.5l2.2 7c.2.6.8 1.1 1.4 1.1h3.5c.7 0 1.2-.4 1.4-1.1l2.2-7c2.2-.5 4.2-1.4 6.1-2.6l6.5 3.4c.6.3 1.3.2 1.8-.2l2.5-2.5c.5-.5.6-1.2.2-1.8l-3.4-6.5c1.2-1.9 2-3.9 2.6-6.1l7-2.2c.6-.2 1.1-.8 1.1-1.4V39c0-.7-.4-1.2-1.1-1.4l-7-2.2c-.5-2.2-1.4-4.3-2.6-6.2l3.4-6.5c.3-.6.2-1.3-.2-1.7l-2.5-2.5c-.5-.5-1.2-.6-1.8-.3l-6.5 3.4c-1.9-1.1-4-2-6.1-2.6l-2.2-7c-.2-.6-.8-1-1.4-1h-3.5c-.7 0-1.2.4-1.4 1l-2.2 7.1zm5.4 8.3c-7.5 0-13.5 6.1-13.5 13.5 0 7.5 6 13.5 13.5 13.5s13.5-6.1 13.5-13.5c.1-7.4-6-13.5-13.5-13.5z"/><path fill="#1E377D" d="M162.4 46.6h62.4v91.1h-62.4z"/><path fill="#E6E6E6" d="M162.4 50.8h55.9v82.7h-55.9z"/><path fill="#3D5FBA" d="M94.7 46.6H157v91.1H94.7z"/><path fill="#FFF" d="M101.2 50.8h55.9v82.7h-55.9z"/><path fill="#848484" d="M153.2 59.6h13c1.8 0 3.3-1.5 3.3-3.2 0-1.8-1.5-3.3-3.3-3.3h-13c-1.8 0-3.3 1.5-3.3 3.3.1 1.8 1.5 3.2 3.3 3.2zm0 71.6h13c1.8 0 3.3-1.5 3.3-3.2 0-1.8-1.5-3.3-3.3-3.3h-13c-1.8 0-3.3 1.5-3.3 3.3.1 1.7 1.5 3.2 3.3 3.2zm0-12h13c1.8 0 3.3-1.5 3.3-3.2 0-1.8-1.5-3.3-3.3-3.3h-13c-1.8 0-3.3 1.5-3.3 3.3.1 1.8 1.5 3.2 3.3 3.2zm0-23.8h13c1.8 0 3.3-1.5 3.3-3.2 0-1.8-1.5-3.3-3.3-3.3h-13c-1.8 0-3.3 1.5-3.3 3.3.1 1.7 1.5 3.2 3.3 3.2zm0 11.9h13c1.8 0 3.3-1.5 3.3-3.2 0-1.8-1.5-3.3-3.3-3.3h-13c-1.8 0-3.3 1.5-3.3 3.3.1 1.7 1.5 3.2 3.3 3.2zm0-23.8h13c1.8 0 3.3-1.5 3.3-3.2 0-1.8-1.5-3.3-3.3-3.3h-13c-1.8 0-3.3 1.5-3.3 3.3.1 1.7 1.5 3.2 3.3 3.2zm0-12h13c1.8 0 3.3-1.5 3.3-3.2 0-1.8-1.5-3.3-3.3-3.3h-13c-1.8 0-3.3 1.5-3.3 3.3.1 1.8 1.5 3.2 3.3 3.2z"/><path fill="#EB4141" d="M205.2 46.6h6.5v91.1h-6.5z"/><path fill="#FFBF36" d="M68.5 104h-6.1v26.3c0 3.3 2.7 6.1 6.1 6.1 3.3 0 6.1-2.7 6.1-6.1V104h-6.1z"/><path fill="#FCD515" d="M62.5 100h12.1c1.1 0 2 .9 2 2s-.9 2-2 2H62.5c-1.1 0-2-.9-2-2-.1-1.1.8-2 2-2z"/><path fill="#595959" d="M76 61.5l-3.1-11.3c-.2-.7-.8-1.2-1.6-1.2h-5.6c-.8 0-1.4.5-1.6 1.2L61 61.5c-.4 1.4-.2 2.7.6 3.9l3.2 5.1c.5.8.7 1.6.7 2.6V100h6V73.1c0-.9.2-1.8.7-2.6l3.2-5.1c.8-1.2 1-2.5.6-3.9z"/><g fill="#595959"><path d="M31 72.6h-4.6v41.5h9.2V72.6z"/><path d="M22.2 49.6c-3.2 2.6-5.3 6.5-5.3 11 0 7.8 6.3 14 14 14 7.8 0 14.1-6.3 14.1-14 0-4.4-2.1-8.4-5.3-11-.4-.3-.8-.3-1.2-.1-.4.2-.7.6-.7 1v9.1l-6.9 4-6.9-4v-9.1c0-.4-.2-.8-.7-1-.3-.3-.8-.2-1.1.1zm0 86.7c-3.2-2.6-5.3-6.5-5.3-11 0-7.8 6.3-14.1 14-14.1 7.8 0 14.1 6.3 14.1 14.1 0 4.4-2.1 8.4-5.3 11-.4.3-.8.3-1.2.1-.4-.2-.7-.6-.7-1.1v-9.1l-6.9-4-6.9 4v9.1c0 .5-.2.9-.7 1.1-.3.3-.8.2-1.1-.1z"/></g><path fill="#82E0BF" d="M50.7 136.8h65.7c2.1 0 3.9 1.8 3.9 3.9v10.8c0 2.1-1.8 3.9-3.9 3.9H50.7c-2.1 0-3.9-1.8-3.9-3.9v-10.8c0-2.1 1.7-3.9 3.9-3.9z"/><path fill="#1DA39C" d="M115.8 155.5H114v-11c0-.5.4-.9.9-.9s.9.4.9.9v11zm-3.2 0h-1.8v-4.1c0-.5.4-.9.9-.9s.9.4.9.9v4.1zm-3.1 0h-1.8v-4.1c0-.5.4-.9.9-.9s.9.4.9.9v4.1zm-3.1 0h-1.8v-4.1c0-.5.4-.9.9-.9s.9.4.9.9v4.1zm-3.2 0h-1.8v-4.1c0-.5.4-.9.9-.9s.9.4.9.9v4.1zm-3.1 0h-1.8v-7.8c0-.5.4-.9.9-.9s.9.4.9.9v7.8zm-3.1 0h-1.8v-4.1c0-.5.4-.9.9-.9s.9.4.9.9v4.1zm-3.2 0H92v-4.1c0-.5.4-.9.9-.9s.9.4.9.9v4.1zm-3.1 0h-1.8v-4.1c0-.5.4-.9.9-.9s.9.4.9.9v4.1zm-3.1 0h-1.8v-4.1c0-.5.4-.9.9-.9s.9.4.9.9v4.1zm-3.2 0h-1.8v-11c0-.5.4-.9.9-.9s.9.4.9.9v11zm-3.1 0h-1.8v-4.1c0-.5.4-.9.9-.9s.9.4.9.9v4.1zm-3.1 0h-1.8v-4.1c0-.5.4-.9.9-.9s.9.4.9.9v4.1zm-3.2 0h-1.8v-4.1c0-.5.4-.9.9-.9s.9.4.9.9v4.1zm-3.1 0h-1.8v-4.1c0-.5.4-.9.9-.9s.9.4.9.9v4.1zm-3.1 0H67v-7.8c0-.5.4-.9.9-.9s.9.4.9.9v7.8zm-3.2 0h-1.8v-4.1c0-.5.4-.9.9-.9s.9.4.9.9v4.1zm-3.1 0h-1.8v-4.1c0-.5.4-.9.9-.9s.9.4.9.9v4.1zm-3.1 0h-1.8v-4.1c0-.5.4-.9.9-.9s.9.4.9.9v4.1zm-3.2 0h-1.8v-4.1c0-.5.4-.9.9-.9s.9.4.9.9v4.1zm-3.1 0h-1.8v-11c0-.5.4-.9.9-.9s.9.4.9.9v11z"/><path fill="#68D1AC" d="M83.5 108.9c16.4 0 30 12.2 32.3 28h-14.2c-2.1-8-9.4-14-18.1-14-8.7 0-16 5.9-18.1 14H51.2c2.3-15.9 15.9-28 32.3-28z"/><path fill="#FFCF33" d="M139.7 153.8h85.1c.9 0 1.6.7 1.6 1.6v11.1c0 .9-.7 1.6-1.6 1.6h-85.1c-.9 0-1.6-.7-1.6-1.6v-11.1c0-.9.7-1.6 1.6-1.6z"/><path fill="#CF8619" d="M141.6 158.8c.3 0 .6.3.6.6v8c0 .3-.3.6-.6.6s-.6-.3-.6-.6v-8c.1-.3.3-.6.6-.6zm40 8.7v-8 8zm33.1-4.2c-.3 0-.6.3-.6.6v3.6c0 .3.3.6.6.6s.6-.3.6-.6v-3.6c0-.3-.3-.6-.6-.6zm2 0c-.3 0-.6.3-.6.6v3.6c0 .3.3.6.6.6s.6-.3.6-.6v-3.6c0-.3-.2-.6-.6-.6zm2.1 0c-.3 0-.6.3-.6.6v3.6c0 .3.3.6.6.6s.6-.3.6-.6v-3.6c0-.3-.3-.6-.6-.6zm2 0c-.3 0-.6.3-.6.6v3.6c0 .3.3.6.6.6s.6-.3.6-.6v-3.6c0-.3-.3-.6-.6-.6zm2-4.5c-.3 0-.6.3-.6.6v8c0 .3.3.6.6.6s.6-.3.6-.6v-8c0-.3-.2-.6-.6-.6zm-12.1 4.5c.3 0 .6.3.6.6v3.6c0 .3-.3.6-.6.6s-.6-.3-.6-.6v-3.6c0-.3.2-.6.6-.6zm-2.1 0c.3 0 .6.3.6.6v3.6c0 .3-.3.6-.6.6s-.6-.3-.6-.6v-3.6c0-.3.3-.6.6-.6zm4.1-2.4c.3 0 .6.3.6.6v6c0 .3-.3.6-.6.6s-.6-.3-.6-.6v-6c0-.3.3-.6.6-.6zm-6.1 2.4c.3 0 .6.3.6.6v3.6c0 .3-.3.6-.6.6s-.6-.3-.6-.6v-3.6c0-.3.3-.6.6-.6zm-2 0c.3 0 .6.3.6.6v3.6c0 .3-.3.6-.6.6s-.6-.3-.6-.6v-3.6c0-.3.2-.6.6-.6zm-10.2 0c-.3 0-.6.3-.6.6v3.6c0 .3.3.6.6.6s.6-.3.6-.6v-3.6c0-.3-.2-.6-.6-.6zm2.1 0c-.3 0-.6.3-.6.6v3.6c0 .3.3.6.6.6s.6-.3.6-.6v-3.6c-.1-.3-.3-.6-.6-.6zm2 0c-.3 0-.6.3-.6.6v3.6c0 .3.3.6.6.6s.6-.3.6-.6v-3.6c0-.3-.3-.6-.6-.6zm2 0c-.3 0-.6.3-.6.6v3.6c0 .3.3.6.6.6s.6-.3.6-.6v-3.6c0-.3-.3-.6-.6-.6zm2-4.5c-.3 0-.6.3-.6.6v8c0 .3.3.6.6.6s.6-.3.6-.6v-8c0-.3-.2-.6-.6-.6zm-12.1 4.5c.3 0 .6.3.6.6v3.6c0 .3-.3.6-.6.6s-.6-.3-.6-.6v-3.6c0-.3.2-.6.6-.6zm-2.1 0c.3 0 .6.3.6.6v3.6c0 .3-.3.6-.6.6s-.6-.3-.6-.6v-3.6c0-.3.3-.6.6-.6zm4.1-2.4c.3 0 .6.3.6.6v6c0 .3-.3.6-.6.6s-.6-.3-.6-.6v-6c0-.3.3-.6.6-.6zm-6.1 2.4c.3 0 .6.3.6.6v3.6c0 .3-.3.6-.6.6s-.6-.3-.6-.6v-3.6c0-.3.3-.6.6-.6zm-2 0c.3 0 .6.3.6.6v3.6c0 .3-.3.6-.6.6s-.6-.3-.6-.6v-3.6c0-.3.2-.6.6-.6zm-10.2 0c-.3 0-.6.3-.6.6v3.6c0 .3.3.6.6.6s.6-.3.6-.6v-3.6c0-.3-.3-.6-.6-.6zm2.1 0c-.3 0-.6.3-.6.6v3.6c0 .3.3.6.6.6s.6-.3.6-.6v-3.6c-.1-.3-.3-.6-.6-.6zm2 0c-.3 0-.6.3-.6.6v3.6c0 .3.3.6.6.6s.6-.3.6-.6v-3.6c0-.3-.3-.6-.6-.6zm2 0c-.3 0-.6.3-.6.6v3.6c0 .3.3.6.6.6s.6-.3.6-.6v-3.6c0-.3-.3-.6-.6-.6zm-10.1 0c.3 0 .6.3.6.6v3.6c0 .3-.3.6-.6.6s-.6-.3-.6-.6v-3.6c0-.3.2-.6.6-.6zm-2.1 0c.3 0 .6.3.6.6v3.6c0 .3-.3.6-.6.6s-.6-.3-.6-.6v-3.6c0-.3.3-.6.6-.6zm4.1-2.4c.3 0 .6.3.6.6v6c0 .3-.3.6-.6.6s-.6-.3-.6-.6v-6c0-.3.3-.6.6-.6zm-6.1 2.4c.3 0 .6.3.6.6v3.6c0 .3-.3.6-.6.6s-.6-.3-.6-.6v-3.6c0-.3.3-.6.6-.6zm-2 0c.3 0 .6.3.6.6v3.6c0 .3-.3.6-.6.6s-.6-.3-.6-.6v-3.6c0-.3.3-.6.6-.6zm-10.2 0c-.3 0-.6.3-.6.6v3.6c0 .3.3.6.6.6s.6-.3.6-.6v-3.6c0-.3-.2-.6-.6-.6zm2.1 0c-.3 0-.6.3-.6.6v3.6c0 .3.3.6.6.6s.6-.3.6-.6v-3.6c0-.3-.3-.6-.6-.6zm2 0c-.3 0-.6.3-.6.6v3.6c0 .3.3.6.6.6s.6-.3.6-.6v-3.6c0-.3-.3-.6-.6-.6zm2 0c-.3 0-.6.3-.6.6v3.6c0 .3.3.6.6.6s.6-.3.6-.6v-3.6c0-.3-.3-.6-.6-.6zm2-4.5c-.3 0-.6.3-.6.6v8c0 .3.3.6.6.6s.6-.3.6-.6v-8c0-.3-.2-.6-.6-.6zm-12.1 4.5c.3 0 .6.3.6.6v3.6c0 .3-.3.6-.6.6s-.6-.3-.6-.6v-3.6c0-.3.2-.6.6-.6zm-2.1 0c.3 0 .6.3.6.6v3.6c0 .3-.3.6-.6.6s-.6-.3-.6-.6v-3.6c0-.3.3-.6.6-.6zm4.1-2.4c.3 0 .6.3.6.6v6c0 .3-.3.6-.6.6s-.6-.3-.6-.6v-6c0-.3.3-.6.6-.6zm-6.1 2.4c.3 0 .6.3.6.6v3.6c0 .3-.3.6-.6.6s-.6-.3-.6-.6v-3.6c0-.3.3-.6.6-.6zm-2 0c.3 0 .6.3.6.6v3.6c0 .3-.3.6-.6.6s-.6-.3-.6-.6v-3.6c0-.3.2-.6.6-.6z"/><path fill="#EB4141" d="M98.4 167.8c-1.1.3-2.2.7-3.1 1.3l-3.3-1.7c-.3-.1-.6-.1-.9.1l-1.3 1.3c-.3.2-.3.6-.1.9l1.7 3.3c-.6 1-1 2-1.3 3.2l-3.6 1.1c-.3.1-.5.4-.5.7v1.8c0 .3.2.6.5.7l3.6 1.1c.3 1.1.7 2.2 1.3 3.1l-1.7 3.3c-.2.3-.1.7.1.9l1.3 1.3c.3.2.6.3.9.1l3.3-1.7c1 .6 2 1 3.1 1.3l1.1 3.6c.1.3.4.5.7.5h1.8c.3 0 .6-.2.7-.5l1.1-3.6c1.1-.3 2.2-.7 3.1-1.3l3.3 1.7c.3.2.6.1.9-.1l1.3-1.3c.2-.2.3-.6.1-.9l-1.7-3.3c.6-1 1-2 1.3-3.1l3.6-1.1c.3-.1.5-.4.5-.7V178c0-.3-.2-.6-.5-.7l-3.6-1.1c-.3-1.1-.7-2.2-1.3-3.2l1.7-3.3c.2-.3.1-.6-.1-.9l-1.3-1.3c-.3-.2-.6-.3-.9-.1l-3.3 1.7c-1-.6-2-1-3.1-1.3l-1.1-3.6c-.1-.3-.4-.5-.7-.5h-1.8c-.3 0-.6.2-.7.5l-1.1 3.6zm2.8 4.2c-3.8 0-6.9 3.1-6.9 6.9 0 3.8 3.1 6.9 6.9 6.9 3.8 0 6.9-3.1 6.9-6.9 0-3.8-3.1-6.9-6.9-6.9z"/></g></svg>